%TF.GenerationSoftware,KiCad,Pcbnew,9.0.9*%
%TF.CreationDate,2026-07-13T22:37:58+05:30*%
%TF.ProjectId,STM32_IOT_project,53544d33-325f-4494-9f54-5f70726f6a65,rev?*%
%TF.SameCoordinates,Original*%
%TF.FileFunction,Soldermask,Top*%
%TF.FilePolarity,Negative*%
%FSLAX46Y46*%
G04 Gerber Fmt 4.6, Leading zero omitted, Abs format (unit mm)*
G04 Created by KiCad (PCBNEW 9.0.9) date 2026-07-13 22:37:58*
%MOMM*%
%LPD*%
G01*
G04 APERTURE LIST*
G04 Aperture macros list*
%AMRoundRect*
0 Rectangle with rounded corners*
0 $1 Rounding radius*
0 $2 $3 $4 $5 $6 $7 $8 $9 X,Y pos of 4 corners*
0 Add a 4 corners polygon primitive as box body*
4,1,4,$2,$3,$4,$5,$6,$7,$8,$9,$2,$3,0*
0 Add four circle primitives for the rounded corners*
1,1,$1+$1,$2,$3*
1,1,$1+$1,$4,$5*
1,1,$1+$1,$6,$7*
1,1,$1+$1,$8,$9*
0 Add four rect primitives between the rounded corners*
20,1,$1+$1,$2,$3,$4,$5,0*
20,1,$1+$1,$4,$5,$6,$7,0*
20,1,$1+$1,$6,$7,$8,$9,0*
20,1,$1+$1,$8,$9,$2,$3,0*%
G04 Aperture macros list end*
%ADD10RoundRect,0.102000X1.350000X1.350000X-1.350000X1.350000X-1.350000X-1.350000X1.350000X-1.350000X0*%
%ADD11RoundRect,0.116000X0.116000X0.406000X-0.116000X0.406000X-0.116000X-0.406000X0.116000X-0.406000X0*%
%ADD12RoundRect,0.116000X0.406000X0.116000X-0.406000X0.116000X-0.406000X-0.116000X0.406000X-0.116000X0*%
%ADD13C,1.000000*%
%ADD14RoundRect,0.250000X-0.262500X-0.450000X0.262500X-0.450000X0.262500X0.450000X-0.262500X0.450000X0*%
%ADD15C,1.412000*%
%ADD16RoundRect,0.250000X0.250000X0.475000X-0.250000X0.475000X-0.250000X-0.475000X0.250000X-0.475000X0*%
%ADD17RoundRect,0.250000X-0.250000X-0.475000X0.250000X-0.475000X0.250000X0.475000X-0.250000X0.475000X0*%
%ADD18RoundRect,0.081750X0.245250X-0.265250X0.245250X0.265250X-0.245250X0.265250X-0.245250X-0.265250X0*%
%ADD19RoundRect,0.102000X0.275000X0.285000X-0.275000X0.285000X-0.275000X-0.285000X0.275000X-0.285000X0*%
%ADD20RoundRect,0.250000X-0.450000X0.262500X-0.450000X-0.262500X0.450000X-0.262500X0.450000X0.262500X0*%
%ADD21RoundRect,0.250000X0.262500X0.450000X-0.262500X0.450000X-0.262500X-0.450000X0.262500X-0.450000X0*%
%ADD22RoundRect,0.250000X0.450000X-0.262500X0.450000X0.262500X-0.450000X0.262500X-0.450000X-0.262500X0*%
%ADD23RoundRect,0.102000X0.910000X-0.580000X0.910000X0.580000X-0.910000X0.580000X-0.910000X-0.580000X0*%
%ADD24O,1.804000X0.804000*%
%ADD25RoundRect,0.102000X-0.750000X-0.450000X0.750000X-0.450000X0.750000X0.450000X-0.750000X0.450000X0*%
%ADD26RoundRect,0.102000X-0.350000X-0.350000X0.350000X-0.350000X0.350000X0.350000X-0.350000X0.350000X0*%
%ADD27RoundRect,0.102000X-0.550000X-0.400000X0.550000X-0.400000X0.550000X0.400000X-0.550000X0.400000X0*%
%ADD28RoundRect,0.102000X-0.550000X-0.500000X0.550000X-0.500000X0.550000X0.500000X-0.550000X0.500000X0*%
%ADD29RoundRect,0.173000X-0.519000X-1.334000X0.519000X-1.334000X0.519000X1.334000X-0.519000X1.334000X0*%
%ADD30RoundRect,0.102000X0.600000X-0.600000X0.600000X0.600000X-0.600000X0.600000X-0.600000X-0.600000X0*%
%ADD31R,1.700000X1.700000*%
%ADD32C,1.700000*%
%ADD33RoundRect,0.100500X0.301500X-0.661500X0.301500X0.661500X-0.301500X0.661500X-0.301500X-0.661500X0*%
%ADD34RoundRect,0.093750X-0.093750X0.156250X-0.093750X-0.156250X0.093750X-0.156250X0.093750X0.156250X0*%
%ADD35RoundRect,0.075000X-0.075000X0.250000X-0.075000X-0.250000X0.075000X-0.250000X0.075000X0.250000X0*%
%ADD36RoundRect,0.151000X-0.546000X-0.151000X0.546000X-0.151000X0.546000X0.151000X-0.546000X0.151000X0*%
%ADD37RoundRect,0.102000X-0.150000X-0.600000X0.150000X-0.600000X0.150000X0.600000X-0.150000X0.600000X0*%
%ADD38C,0.854000*%
%ADD39RoundRect,0.102000X-0.100000X-0.500000X0.100000X-0.500000X0.100000X0.500000X-0.100000X0.500000X0*%
%ADD40O,1.254000X2.304000*%
%ADD41RoundRect,0.102000X-0.910000X0.580000X-0.910000X-0.580000X0.910000X-0.580000X0.910000X0.580000X0*%
%ADD42C,1.150000*%
%ADD43C,1.650000*%
%ADD44RoundRect,0.102000X-0.500000X-0.750000X0.500000X-0.750000X0.500000X0.750000X-0.500000X0.750000X0*%
%ADD45RoundRect,0.102000X-0.350000X-0.750000X0.350000X-0.750000X0.350000X0.750000X-0.350000X0.750000X0*%
%ADD46RoundRect,0.102000X-0.750000X-1.400000X0.750000X-1.400000X0.750000X1.400000X-0.750000X1.400000X0*%
%ADD47RoundRect,0.102000X0.175000X-0.175000X0.175000X0.175000X-0.175000X0.175000X-0.175000X-0.175000X0*%
%ADD48RoundRect,0.102000X0.150000X-0.450000X0.150000X0.450000X-0.150000X0.450000X-0.150000X-0.450000X0*%
%ADD49RoundRect,0.102000X0.450000X-0.150000X0.450000X0.150000X-0.450000X0.150000X-0.450000X-0.150000X0*%
%ADD50RoundRect,0.102000X0.900000X-0.900000X0.900000X0.900000X-0.900000X0.900000X-0.900000X-0.900000X0*%
%ADD51RoundRect,0.102000X0.580000X0.910000X-0.580000X0.910000X-0.580000X-0.910000X0.580000X-0.910000X0*%
%ADD52RoundRect,0.250000X-0.475000X0.250000X-0.475000X-0.250000X0.475000X-0.250000X0.475000X0.250000X0*%
%ADD53RoundRect,0.250000X0.475000X-0.250000X0.475000X0.250000X-0.475000X0.250000X-0.475000X-0.250000X0*%
%ADD54RoundRect,0.102000X-0.729000X-0.729000X0.729000X-0.729000X0.729000X0.729000X-0.729000X0.729000X0*%
%ADD55C,1.662000*%
%ADD56RoundRect,0.102000X0.475000X-1.075000X0.475000X1.075000X-0.475000X1.075000X-0.475000X-1.075000X0*%
%ADD57RoundRect,0.102000X1.625000X-1.075000X1.625000X1.075000X-1.625000X1.075000X-1.625000X-1.075000X0*%
%ADD58C,2.100000*%
G04 APERTURE END LIST*
D10*
%TO.C,U1*%
X172925000Y-112170000D03*
D11*
X173925000Y-114105000D03*
X173425000Y-114105000D03*
X172925000Y-114105000D03*
X172425000Y-114105000D03*
X171925000Y-114105000D03*
D12*
X170990000Y-113170000D03*
X170990000Y-112670000D03*
X170990000Y-112170000D03*
X170990000Y-111670000D03*
X170990000Y-111170000D03*
D11*
X171925000Y-110235000D03*
X172425000Y-110235000D03*
X172925000Y-110235000D03*
X173425000Y-110235000D03*
X173925000Y-110235000D03*
D12*
X174860000Y-111170000D03*
X174860000Y-111670000D03*
X174860000Y-112170000D03*
X174860000Y-112670000D03*
X174860000Y-113170000D03*
%TD*%
D13*
%TO.C,TP2*%
X210600000Y-90500000D03*
%TD*%
D14*
%TO.C,R10*%
X200687500Y-85000000D03*
X202512500Y-85000000D03*
%TD*%
D15*
%TO.C,MK1*%
X166750000Y-73550000D03*
X166750000Y-75450000D03*
%TD*%
D16*
%TO.C,C20*%
X182040000Y-80808750D03*
X180140000Y-80808750D03*
%TD*%
D13*
%TO.C,TP3*%
X222300000Y-84300000D03*
%TD*%
D17*
%TO.C,C13*%
X225700000Y-87250000D03*
X227600000Y-87250000D03*
%TD*%
D18*
%TO.C,U7*%
X197025000Y-65030000D03*
X197675000Y-65030000D03*
X198325000Y-65030000D03*
X198975000Y-65030000D03*
X198975000Y-66970000D03*
X198325000Y-66970000D03*
X197675000Y-66970000D03*
X197025000Y-66970000D03*
%TD*%
D19*
%TO.C,S2*%
X204062500Y-113170000D03*
X201512500Y-113170000D03*
X204062500Y-112010000D03*
X201512500Y-112010000D03*
%TD*%
D20*
%TO.C,R30*%
X218000000Y-76175000D03*
X218000000Y-78000000D03*
%TD*%
%TO.C,R20*%
X237450000Y-86087500D03*
X237450000Y-87912500D03*
%TD*%
D14*
%TO.C,R27*%
X204670000Y-90000000D03*
X206495000Y-90000000D03*
%TD*%
D21*
%TO.C,R23*%
X175090000Y-75735000D03*
X173265000Y-75735000D03*
%TD*%
D14*
%TO.C,R25*%
X173472500Y-68825000D03*
X175297500Y-68825000D03*
%TD*%
D13*
%TO.C,TP4*%
X240060000Y-87920000D03*
%TD*%
D22*
%TO.C,R1*%
X181350000Y-110042500D03*
X181350000Y-108217500D03*
%TD*%
D23*
%TO.C,C4*%
X164225000Y-83625000D03*
X164225000Y-80675000D03*
%TD*%
D20*
%TO.C,R11*%
X182250000Y-89837500D03*
X182250000Y-91662500D03*
%TD*%
D24*
%TO.C,U6*%
X205900000Y-77595000D03*
X205900000Y-78865000D03*
X205900000Y-80135000D03*
X205900000Y-81405000D03*
X213100000Y-81405000D03*
X213100000Y-80135000D03*
X213100000Y-78865000D03*
X213100000Y-77595000D03*
%TD*%
D14*
%TO.C,R26*%
X190125000Y-76450000D03*
X191950000Y-76450000D03*
%TD*%
D20*
%TO.C,R2*%
X181075000Y-112275000D03*
X181075000Y-114100000D03*
%TD*%
D22*
%TO.C,R15*%
X194240000Y-97652500D03*
X194240000Y-95827500D03*
%TD*%
D25*
%TO.C,U3*%
X227140000Y-69100000D03*
X227140000Y-70600000D03*
X227140000Y-72100000D03*
X227140000Y-73600000D03*
X227140000Y-75100000D03*
X227140000Y-76600000D03*
X227140000Y-78100000D03*
X227140000Y-79600000D03*
X227140000Y-81100000D03*
X244640000Y-81100000D03*
X244640000Y-79600000D03*
X244640000Y-78100000D03*
X244640000Y-76600000D03*
X244640000Y-75100000D03*
X244640000Y-73600000D03*
X244640000Y-72100000D03*
X244640000Y-70600000D03*
X244640000Y-69100000D03*
D26*
X235750000Y-74200000D03*
X236850000Y-74200000D03*
X237950000Y-74200000D03*
X235750000Y-75300000D03*
X236850000Y-75300000D03*
X237950000Y-75300000D03*
X235750000Y-76400000D03*
X236850000Y-76400000D03*
X237950000Y-76400000D03*
%TD*%
D27*
%TO.C,Q1*%
X203490000Y-92950000D03*
X203490000Y-94050000D03*
D28*
X207000000Y-93500000D03*
%TD*%
D29*
%TO.C,F1*%
X178415000Y-98450000D03*
X181385000Y-98450000D03*
%TD*%
D20*
%TO.C,R8*%
X162870000Y-103708750D03*
X162870000Y-105533750D03*
%TD*%
D30*
%TO.C,D3*%
X160390000Y-101711250D03*
X160390000Y-99611250D03*
%TD*%
D31*
%TO.C,J4*%
X182300000Y-64750000D03*
D32*
X184840000Y-64750000D03*
X187380000Y-64750000D03*
X189920000Y-64750000D03*
%TD*%
D14*
%TO.C,R18*%
X208587500Y-84000000D03*
X210412500Y-84000000D03*
%TD*%
D21*
%TO.C,R24*%
X175165000Y-73510000D03*
X173340000Y-73510000D03*
%TD*%
D30*
%TO.C,D6*%
X182250000Y-85062500D03*
X182250000Y-87162500D03*
%TD*%
D16*
%TO.C,C16*%
X175215000Y-71210000D03*
X173315000Y-71210000D03*
%TD*%
D33*
%TO.C,Q3*%
X208725000Y-104170000D03*
X210625000Y-104170000D03*
X209675000Y-102170000D03*
%TD*%
D22*
%TO.C,R13*%
X198000000Y-93532500D03*
X198000000Y-91707500D03*
%TD*%
D34*
%TO.C,U5*%
X188085000Y-101450000D03*
D35*
X187547500Y-101375000D03*
D34*
X187010000Y-101450000D03*
X187010000Y-103150000D03*
D35*
X187547500Y-103225000D03*
D34*
X188085000Y-103150000D03*
%TD*%
D30*
%TO.C,D2*%
X162970000Y-99571250D03*
X162970000Y-101671250D03*
%TD*%
D14*
%TO.C,R32*%
X208625000Y-107000000D03*
X210450000Y-107000000D03*
%TD*%
D36*
%TO.C,U8*%
X190000000Y-79500000D03*
X190000000Y-80150000D03*
X190000000Y-80800000D03*
X191920000Y-80800000D03*
X191920000Y-79500000D03*
%TD*%
D22*
%TO.C,R5*%
X168550000Y-104812500D03*
X168550000Y-102987500D03*
%TD*%
D37*
%TO.C,J1*%
X184770000Y-105720000D03*
X185270000Y-105720000D03*
X185770000Y-105720000D03*
X186270000Y-105720000D03*
X186770000Y-105720000D03*
X187270000Y-105720000D03*
X187770000Y-105720000D03*
X188270000Y-105720000D03*
X188770000Y-105720000D03*
X189270000Y-105720000D03*
X189770000Y-105720000D03*
X190270000Y-105720000D03*
D38*
X190320000Y-106970000D03*
X189920000Y-107680000D03*
X189120000Y-107680000D03*
X188720000Y-106970000D03*
X188320000Y-107680000D03*
X187920000Y-106970000D03*
X187120000Y-106970000D03*
X186720000Y-107680000D03*
X186320000Y-106970000D03*
X185920000Y-107680000D03*
X185120000Y-107680000D03*
X184720000Y-106970000D03*
X189520000Y-106970000D03*
X185520000Y-106970000D03*
D39*
X187520000Y-110300000D03*
X187520000Y-113400000D03*
D40*
X183250000Y-108120000D03*
X191790000Y-108120000D03*
X183250000Y-112850000D03*
X191790000Y-112850000D03*
%TD*%
D16*
%TO.C,C19*%
X175140000Y-78010000D03*
X173240000Y-78010000D03*
%TD*%
D41*
%TO.C,C9*%
X164275000Y-85475000D03*
X164275000Y-88425000D03*
%TD*%
D13*
%TO.C,TP5*%
X207200000Y-75000000D03*
%TD*%
D42*
%TO.C,J3*%
X219100000Y-93500000D03*
D43*
X240100000Y-93500000D03*
D44*
X237475000Y-90700000D03*
X234975000Y-90700000D03*
X232475000Y-90700000D03*
X229975000Y-90700000D03*
X227475000Y-90700000D03*
X224975000Y-90700000D03*
X222550000Y-90700000D03*
X220850000Y-90700000D03*
X239975000Y-90700000D03*
D45*
X219550000Y-90700000D03*
D46*
X216950000Y-92500000D03*
X242050000Y-92500000D03*
X244250000Y-114000000D03*
X216950000Y-114000000D03*
D45*
X218350000Y-90700000D03*
%TD*%
D20*
%TO.C,R17*%
X220750000Y-76175000D03*
X220750000Y-78000000D03*
%TD*%
D16*
%TO.C,C18*%
X191960000Y-84150000D03*
X190060000Y-84150000D03*
%TD*%
D17*
%TO.C,C6*%
X181550000Y-102075000D03*
X183450000Y-102075000D03*
%TD*%
D14*
%TO.C,R19*%
X212337500Y-84000000D03*
X214162500Y-84000000D03*
%TD*%
D41*
%TO.C,C7*%
X220250000Y-69275000D03*
X220250000Y-72225000D03*
%TD*%
D47*
%TO.C,U4*%
X185800000Y-97350000D03*
D48*
X186300000Y-97650000D03*
X186800000Y-97650000D03*
X187300000Y-97650000D03*
X187800000Y-97650000D03*
D47*
X188300000Y-97350000D03*
D49*
X188600000Y-96850000D03*
X188600000Y-96350000D03*
X188600000Y-95850000D03*
X188600000Y-95350000D03*
D47*
X188300000Y-94850000D03*
D48*
X187800000Y-94550000D03*
X187300000Y-94550000D03*
X186800000Y-94550000D03*
X186300000Y-94550000D03*
D47*
X185800000Y-94850000D03*
D49*
X185500000Y-95350000D03*
X185500000Y-95850000D03*
X185500000Y-96350000D03*
X185500000Y-96850000D03*
D50*
X187050000Y-96100000D03*
%TD*%
D51*
%TO.C,C3*%
X170875000Y-91800000D03*
X167925000Y-91800000D03*
%TD*%
D22*
%TO.C,R29*%
X202150000Y-67000000D03*
X202150000Y-65175000D03*
%TD*%
D20*
%TO.C,R12*%
X178750000Y-90000000D03*
X178750000Y-91825000D03*
%TD*%
%TO.C,R3*%
X173050000Y-102975000D03*
X173050000Y-104800000D03*
%TD*%
D31*
%TO.C,J5*%
X174620000Y-63890000D03*
D32*
X172080000Y-63890000D03*
X169540000Y-63890000D03*
X167000000Y-63890000D03*
X164460000Y-63890000D03*
%TD*%
D52*
%TO.C,C10*%
X161525000Y-86625000D03*
X161525000Y-88525000D03*
%TD*%
D20*
%TO.C,R4*%
X175370000Y-102967500D03*
X175370000Y-104792500D03*
%TD*%
D17*
%TO.C,C21*%
X208750000Y-110000000D03*
X210650000Y-110000000D03*
%TD*%
D30*
%TO.C,D5*%
X178750000Y-87212500D03*
X178750000Y-85112500D03*
%TD*%
D52*
%TO.C,C14*%
X203000000Y-80800000D03*
X203000000Y-82700000D03*
%TD*%
D21*
%TO.C,R31*%
X203837500Y-106920000D03*
X202012500Y-106920000D03*
%TD*%
D52*
%TO.C,C8*%
X224000000Y-69300000D03*
X224000000Y-71200000D03*
%TD*%
D33*
%TO.C,Q2*%
X201990000Y-104140000D03*
X203890000Y-104140000D03*
X202940000Y-102140000D03*
%TD*%
D21*
%TO.C,R28*%
X202412500Y-69150000D03*
X200587500Y-69150000D03*
%TD*%
D53*
%TO.C,C15*%
X193850000Y-66650000D03*
X193850000Y-64750000D03*
%TD*%
D54*
%TO.C,J2*%
X162790000Y-113950000D03*
D55*
X165290000Y-113950000D03*
%TD*%
D53*
%TO.C,C5*%
X161450000Y-83300000D03*
X161450000Y-81400000D03*
%TD*%
D30*
%TO.C,D4*%
X200250000Y-80550000D03*
X200250000Y-82650000D03*
%TD*%
D20*
%TO.C,R7*%
X160440000Y-103711250D03*
X160440000Y-105536250D03*
%TD*%
D21*
%TO.C,R21*%
X182127500Y-78533750D03*
X180302500Y-78533750D03*
%TD*%
D30*
%TO.C,D1*%
X165540000Y-99516250D03*
X165540000Y-101616250D03*
%TD*%
D53*
%TO.C,C1*%
X192550000Y-102875000D03*
X192550000Y-100975000D03*
%TD*%
D56*
%TO.C,U2*%
X167025000Y-88750000D03*
X169325000Y-88750000D03*
X171625000Y-88750000D03*
D57*
X169325000Y-82950000D03*
%TD*%
D53*
%TO.C,C11*%
X194190000Y-93760000D03*
X194190000Y-91860000D03*
%TD*%
D13*
%TO.C,TP1*%
X213300000Y-89300000D03*
%TD*%
D20*
%TO.C,R9*%
X165640000Y-103391250D03*
X165640000Y-105216250D03*
%TD*%
D16*
%TO.C,C2*%
X170350000Y-94350000D03*
X168450000Y-94350000D03*
%TD*%
D58*
%TO.C,H2*%
X159000000Y-71000000D03*
%TD*%
D17*
%TO.C,C22*%
X201975000Y-109670000D03*
X203875000Y-109670000D03*
%TD*%
D58*
%TO.C,H1*%
X158750000Y-94500000D03*
%TD*%
D20*
%TO.C,R14*%
X198000000Y-95640000D03*
X198000000Y-97465000D03*
%TD*%
D22*
%TO.C,R6*%
X170800000Y-104862500D03*
X170800000Y-103037500D03*
%TD*%
D14*
%TO.C,R22*%
X180227500Y-76258750D03*
X182052500Y-76258750D03*
%TD*%
D19*
%TO.C,S1*%
X210975000Y-113330000D03*
X208425000Y-113330000D03*
X210975000Y-112170000D03*
X208425000Y-112170000D03*
%TD*%
D22*
%TO.C,R16*%
X223250000Y-78075000D03*
X223250000Y-76250000D03*
%TD*%
D51*
%TO.C,C12*%
X232925000Y-87500000D03*
X229975000Y-87500000D03*
%TD*%
D58*
%TO.C,H3*%
X210950000Y-96550000D03*
%TD*%
M02*
