%TF.GenerationSoftware,KiCad,Pcbnew,9.0.9*%
%TF.CreationDate,2026-07-13T22:37:58+05:30*%
%TF.ProjectId,STM32_IOT_project,53544d33-325f-4494-9f54-5f70726f6a65,rev?*%
%TF.SameCoordinates,Original*%
%TF.FileFunction,Legend,Top*%
%TF.FilePolarity,Positive*%
%FSLAX46Y46*%
G04 Gerber Fmt 4.6, Leading zero omitted, Abs format (unit mm)*
G04 Created by KiCad (PCBNEW 9.0.9) date 2026-07-13 22:37:58*
%MOMM*%
%LPD*%
G01*
G04 APERTURE LIST*
%ADD10C,0.120000*%
%ADD11C,0.200000*%
%ADD12C,0.127000*%
%ADD13C,0.152400*%
%ADD14C,0.254000*%
G04 APERTURE END LIST*
D10*
X170370476Y-108673855D02*
X170370476Y-109321474D01*
X170370476Y-109321474D02*
X170408571Y-109397664D01*
X170408571Y-109397664D02*
X170446666Y-109435760D01*
X170446666Y-109435760D02*
X170522857Y-109473855D01*
X170522857Y-109473855D02*
X170675238Y-109473855D01*
X170675238Y-109473855D02*
X170751428Y-109435760D01*
X170751428Y-109435760D02*
X170789523Y-109397664D01*
X170789523Y-109397664D02*
X170827619Y-109321474D01*
X170827619Y-109321474D02*
X170827619Y-108673855D01*
X171627618Y-109473855D02*
X171170475Y-109473855D01*
X171399047Y-109473855D02*
X171399047Y-108673855D01*
X171399047Y-108673855D02*
X171322856Y-108788140D01*
X171322856Y-108788140D02*
X171246666Y-108864331D01*
X171246666Y-108864331D02*
X171170475Y-108902426D01*
X209590476Y-88615855D02*
X210047619Y-88615855D01*
X209819047Y-89415855D02*
X209819047Y-88615855D01*
X210314286Y-89415855D02*
X210314286Y-88615855D01*
X210314286Y-88615855D02*
X210619048Y-88615855D01*
X210619048Y-88615855D02*
X210695238Y-88653950D01*
X210695238Y-88653950D02*
X210733333Y-88692045D01*
X210733333Y-88692045D02*
X210771429Y-88768236D01*
X210771429Y-88768236D02*
X210771429Y-88882521D01*
X210771429Y-88882521D02*
X210733333Y-88958712D01*
X210733333Y-88958712D02*
X210695238Y-88996807D01*
X210695238Y-88996807D02*
X210619048Y-89034902D01*
X210619048Y-89034902D02*
X210314286Y-89034902D01*
X211076190Y-88692045D02*
X211114286Y-88653950D01*
X211114286Y-88653950D02*
X211190476Y-88615855D01*
X211190476Y-88615855D02*
X211380952Y-88615855D01*
X211380952Y-88615855D02*
X211457143Y-88653950D01*
X211457143Y-88653950D02*
X211495238Y-88692045D01*
X211495238Y-88692045D02*
X211533333Y-88768236D01*
X211533333Y-88768236D02*
X211533333Y-88844426D01*
X211533333Y-88844426D02*
X211495238Y-88958712D01*
X211495238Y-88958712D02*
X211038095Y-89415855D01*
X211038095Y-89415855D02*
X211533333Y-89415855D01*
X204510714Y-85463855D02*
X204244047Y-85082902D01*
X204053571Y-85463855D02*
X204053571Y-84663855D01*
X204053571Y-84663855D02*
X204358333Y-84663855D01*
X204358333Y-84663855D02*
X204434523Y-84701950D01*
X204434523Y-84701950D02*
X204472618Y-84740045D01*
X204472618Y-84740045D02*
X204510714Y-84816236D01*
X204510714Y-84816236D02*
X204510714Y-84930521D01*
X204510714Y-84930521D02*
X204472618Y-85006712D01*
X204472618Y-85006712D02*
X204434523Y-85044807D01*
X204434523Y-85044807D02*
X204358333Y-85082902D01*
X204358333Y-85082902D02*
X204053571Y-85082902D01*
X205272618Y-85463855D02*
X204815475Y-85463855D01*
X205044047Y-85463855D02*
X205044047Y-84663855D01*
X205044047Y-84663855D02*
X204967856Y-84778140D01*
X204967856Y-84778140D02*
X204891666Y-84854331D01*
X204891666Y-84854331D02*
X204815475Y-84892426D01*
X205767857Y-84663855D02*
X205844047Y-84663855D01*
X205844047Y-84663855D02*
X205920238Y-84701950D01*
X205920238Y-84701950D02*
X205958333Y-84740045D01*
X205958333Y-84740045D02*
X205996428Y-84816236D01*
X205996428Y-84816236D02*
X206034523Y-84968617D01*
X206034523Y-84968617D02*
X206034523Y-85159093D01*
X206034523Y-85159093D02*
X205996428Y-85311474D01*
X205996428Y-85311474D02*
X205958333Y-85387664D01*
X205958333Y-85387664D02*
X205920238Y-85425760D01*
X205920238Y-85425760D02*
X205844047Y-85463855D01*
X205844047Y-85463855D02*
X205767857Y-85463855D01*
X205767857Y-85463855D02*
X205691666Y-85425760D01*
X205691666Y-85425760D02*
X205653571Y-85387664D01*
X205653571Y-85387664D02*
X205615476Y-85311474D01*
X205615476Y-85311474D02*
X205577380Y-85159093D01*
X205577380Y-85159093D02*
X205577380Y-84968617D01*
X205577380Y-84968617D02*
X205615476Y-84816236D01*
X205615476Y-84816236D02*
X205653571Y-84740045D01*
X205653571Y-84740045D02*
X205691666Y-84701950D01*
X205691666Y-84701950D02*
X205767857Y-84663855D01*
X165202381Y-70363855D02*
X165202381Y-69563855D01*
X165202381Y-69563855D02*
X165469047Y-70135283D01*
X165469047Y-70135283D02*
X165735714Y-69563855D01*
X165735714Y-69563855D02*
X165735714Y-70363855D01*
X166116667Y-70363855D02*
X166116667Y-69563855D01*
X166573810Y-70363855D02*
X166230952Y-69906712D01*
X166573810Y-69563855D02*
X166116667Y-70020998D01*
X167335714Y-70363855D02*
X166878571Y-70363855D01*
X167107143Y-70363855D02*
X167107143Y-69563855D01*
X167107143Y-69563855D02*
X167030952Y-69678140D01*
X167030952Y-69678140D02*
X166954762Y-69754331D01*
X166954762Y-69754331D02*
X166878571Y-69792426D01*
X183795714Y-81127664D02*
X183757618Y-81165760D01*
X183757618Y-81165760D02*
X183643333Y-81203855D01*
X183643333Y-81203855D02*
X183567142Y-81203855D01*
X183567142Y-81203855D02*
X183452856Y-81165760D01*
X183452856Y-81165760D02*
X183376666Y-81089569D01*
X183376666Y-81089569D02*
X183338571Y-81013379D01*
X183338571Y-81013379D02*
X183300475Y-80860998D01*
X183300475Y-80860998D02*
X183300475Y-80746712D01*
X183300475Y-80746712D02*
X183338571Y-80594331D01*
X183338571Y-80594331D02*
X183376666Y-80518140D01*
X183376666Y-80518140D02*
X183452856Y-80441950D01*
X183452856Y-80441950D02*
X183567142Y-80403855D01*
X183567142Y-80403855D02*
X183643333Y-80403855D01*
X183643333Y-80403855D02*
X183757618Y-80441950D01*
X183757618Y-80441950D02*
X183795714Y-80480045D01*
X184100475Y-80480045D02*
X184138571Y-80441950D01*
X184138571Y-80441950D02*
X184214761Y-80403855D01*
X184214761Y-80403855D02*
X184405237Y-80403855D01*
X184405237Y-80403855D02*
X184481428Y-80441950D01*
X184481428Y-80441950D02*
X184519523Y-80480045D01*
X184519523Y-80480045D02*
X184557618Y-80556236D01*
X184557618Y-80556236D02*
X184557618Y-80632426D01*
X184557618Y-80632426D02*
X184519523Y-80746712D01*
X184519523Y-80746712D02*
X184062380Y-81203855D01*
X184062380Y-81203855D02*
X184557618Y-81203855D01*
X185052857Y-80403855D02*
X185129047Y-80403855D01*
X185129047Y-80403855D02*
X185205238Y-80441950D01*
X185205238Y-80441950D02*
X185243333Y-80480045D01*
X185243333Y-80480045D02*
X185281428Y-80556236D01*
X185281428Y-80556236D02*
X185319523Y-80708617D01*
X185319523Y-80708617D02*
X185319523Y-80899093D01*
X185319523Y-80899093D02*
X185281428Y-81051474D01*
X185281428Y-81051474D02*
X185243333Y-81127664D01*
X185243333Y-81127664D02*
X185205238Y-81165760D01*
X185205238Y-81165760D02*
X185129047Y-81203855D01*
X185129047Y-81203855D02*
X185052857Y-81203855D01*
X185052857Y-81203855D02*
X184976666Y-81165760D01*
X184976666Y-81165760D02*
X184938571Y-81127664D01*
X184938571Y-81127664D02*
X184900476Y-81051474D01*
X184900476Y-81051474D02*
X184862380Y-80899093D01*
X184862380Y-80899093D02*
X184862380Y-80708617D01*
X184862380Y-80708617D02*
X184900476Y-80556236D01*
X184900476Y-80556236D02*
X184938571Y-80480045D01*
X184938571Y-80480045D02*
X184976666Y-80441950D01*
X184976666Y-80441950D02*
X185052857Y-80403855D01*
X221290476Y-85311855D02*
X221747619Y-85311855D01*
X221519047Y-86111855D02*
X221519047Y-85311855D01*
X222014286Y-86111855D02*
X222014286Y-85311855D01*
X222014286Y-85311855D02*
X222319048Y-85311855D01*
X222319048Y-85311855D02*
X222395238Y-85349950D01*
X222395238Y-85349950D02*
X222433333Y-85388045D01*
X222433333Y-85388045D02*
X222471429Y-85464236D01*
X222471429Y-85464236D02*
X222471429Y-85578521D01*
X222471429Y-85578521D02*
X222433333Y-85654712D01*
X222433333Y-85654712D02*
X222395238Y-85692807D01*
X222395238Y-85692807D02*
X222319048Y-85730902D01*
X222319048Y-85730902D02*
X222014286Y-85730902D01*
X222738095Y-85311855D02*
X223233333Y-85311855D01*
X223233333Y-85311855D02*
X222966667Y-85616617D01*
X222966667Y-85616617D02*
X223080952Y-85616617D01*
X223080952Y-85616617D02*
X223157143Y-85654712D01*
X223157143Y-85654712D02*
X223195238Y-85692807D01*
X223195238Y-85692807D02*
X223233333Y-85768998D01*
X223233333Y-85768998D02*
X223233333Y-85959474D01*
X223233333Y-85959474D02*
X223195238Y-86035664D01*
X223195238Y-86035664D02*
X223157143Y-86073760D01*
X223157143Y-86073760D02*
X223080952Y-86111855D01*
X223080952Y-86111855D02*
X222852381Y-86111855D01*
X222852381Y-86111855D02*
X222776190Y-86073760D01*
X222776190Y-86073760D02*
X222738095Y-86035664D01*
X225885714Y-85537664D02*
X225847618Y-85575760D01*
X225847618Y-85575760D02*
X225733333Y-85613855D01*
X225733333Y-85613855D02*
X225657142Y-85613855D01*
X225657142Y-85613855D02*
X225542856Y-85575760D01*
X225542856Y-85575760D02*
X225466666Y-85499569D01*
X225466666Y-85499569D02*
X225428571Y-85423379D01*
X225428571Y-85423379D02*
X225390475Y-85270998D01*
X225390475Y-85270998D02*
X225390475Y-85156712D01*
X225390475Y-85156712D02*
X225428571Y-85004331D01*
X225428571Y-85004331D02*
X225466666Y-84928140D01*
X225466666Y-84928140D02*
X225542856Y-84851950D01*
X225542856Y-84851950D02*
X225657142Y-84813855D01*
X225657142Y-84813855D02*
X225733333Y-84813855D01*
X225733333Y-84813855D02*
X225847618Y-84851950D01*
X225847618Y-84851950D02*
X225885714Y-84890045D01*
X226647618Y-85613855D02*
X226190475Y-85613855D01*
X226419047Y-85613855D02*
X226419047Y-84813855D01*
X226419047Y-84813855D02*
X226342856Y-84928140D01*
X226342856Y-84928140D02*
X226266666Y-85004331D01*
X226266666Y-85004331D02*
X226190475Y-85042426D01*
X226914285Y-84813855D02*
X227409523Y-84813855D01*
X227409523Y-84813855D02*
X227142857Y-85118617D01*
X227142857Y-85118617D02*
X227257142Y-85118617D01*
X227257142Y-85118617D02*
X227333333Y-85156712D01*
X227333333Y-85156712D02*
X227371428Y-85194807D01*
X227371428Y-85194807D02*
X227409523Y-85270998D01*
X227409523Y-85270998D02*
X227409523Y-85461474D01*
X227409523Y-85461474D02*
X227371428Y-85537664D01*
X227371428Y-85537664D02*
X227333333Y-85575760D01*
X227333333Y-85575760D02*
X227257142Y-85613855D01*
X227257142Y-85613855D02*
X227028571Y-85613855D01*
X227028571Y-85613855D02*
X226952380Y-85575760D01*
X226952380Y-85575760D02*
X226914285Y-85537664D01*
X195303855Y-66739523D02*
X195951474Y-66739523D01*
X195951474Y-66739523D02*
X196027664Y-66701428D01*
X196027664Y-66701428D02*
X196065760Y-66663333D01*
X196065760Y-66663333D02*
X196103855Y-66587142D01*
X196103855Y-66587142D02*
X196103855Y-66434761D01*
X196103855Y-66434761D02*
X196065760Y-66358571D01*
X196065760Y-66358571D02*
X196027664Y-66320476D01*
X196027664Y-66320476D02*
X195951474Y-66282380D01*
X195951474Y-66282380D02*
X195303855Y-66282380D01*
X195303855Y-65977619D02*
X195303855Y-65444285D01*
X195303855Y-65444285D02*
X196103855Y-65787143D01*
X204810475Y-112725760D02*
X204924761Y-112763855D01*
X204924761Y-112763855D02*
X205115237Y-112763855D01*
X205115237Y-112763855D02*
X205191428Y-112725760D01*
X205191428Y-112725760D02*
X205229523Y-112687664D01*
X205229523Y-112687664D02*
X205267618Y-112611474D01*
X205267618Y-112611474D02*
X205267618Y-112535283D01*
X205267618Y-112535283D02*
X205229523Y-112459093D01*
X205229523Y-112459093D02*
X205191428Y-112420998D01*
X205191428Y-112420998D02*
X205115237Y-112382902D01*
X205115237Y-112382902D02*
X204962856Y-112344807D01*
X204962856Y-112344807D02*
X204886666Y-112306712D01*
X204886666Y-112306712D02*
X204848571Y-112268617D01*
X204848571Y-112268617D02*
X204810475Y-112192426D01*
X204810475Y-112192426D02*
X204810475Y-112116236D01*
X204810475Y-112116236D02*
X204848571Y-112040045D01*
X204848571Y-112040045D02*
X204886666Y-112001950D01*
X204886666Y-112001950D02*
X204962856Y-111963855D01*
X204962856Y-111963855D02*
X205153333Y-111963855D01*
X205153333Y-111963855D02*
X205267618Y-112001950D01*
X205572380Y-112040045D02*
X205610476Y-112001950D01*
X205610476Y-112001950D02*
X205686666Y-111963855D01*
X205686666Y-111963855D02*
X205877142Y-111963855D01*
X205877142Y-111963855D02*
X205953333Y-112001950D01*
X205953333Y-112001950D02*
X205991428Y-112040045D01*
X205991428Y-112040045D02*
X206029523Y-112116236D01*
X206029523Y-112116236D02*
X206029523Y-112192426D01*
X206029523Y-112192426D02*
X205991428Y-112306712D01*
X205991428Y-112306712D02*
X205534285Y-112763855D01*
X205534285Y-112763855D02*
X206029523Y-112763855D01*
X218363855Y-80851785D02*
X217982902Y-81118452D01*
X218363855Y-81308928D02*
X217563855Y-81308928D01*
X217563855Y-81308928D02*
X217563855Y-81004166D01*
X217563855Y-81004166D02*
X217601950Y-80927976D01*
X217601950Y-80927976D02*
X217640045Y-80889881D01*
X217640045Y-80889881D02*
X217716236Y-80851785D01*
X217716236Y-80851785D02*
X217830521Y-80851785D01*
X217830521Y-80851785D02*
X217906712Y-80889881D01*
X217906712Y-80889881D02*
X217944807Y-80927976D01*
X217944807Y-80927976D02*
X217982902Y-81004166D01*
X217982902Y-81004166D02*
X217982902Y-81308928D01*
X217563855Y-80585119D02*
X217563855Y-80089881D01*
X217563855Y-80089881D02*
X217868617Y-80356547D01*
X217868617Y-80356547D02*
X217868617Y-80242262D01*
X217868617Y-80242262D02*
X217906712Y-80166071D01*
X217906712Y-80166071D02*
X217944807Y-80127976D01*
X217944807Y-80127976D02*
X218020998Y-80089881D01*
X218020998Y-80089881D02*
X218211474Y-80089881D01*
X218211474Y-80089881D02*
X218287664Y-80127976D01*
X218287664Y-80127976D02*
X218325760Y-80166071D01*
X218325760Y-80166071D02*
X218363855Y-80242262D01*
X218363855Y-80242262D02*
X218363855Y-80470833D01*
X218363855Y-80470833D02*
X218325760Y-80547024D01*
X218325760Y-80547024D02*
X218287664Y-80585119D01*
X217563855Y-79594642D02*
X217563855Y-79518452D01*
X217563855Y-79518452D02*
X217601950Y-79442261D01*
X217601950Y-79442261D02*
X217640045Y-79404166D01*
X217640045Y-79404166D02*
X217716236Y-79366071D01*
X217716236Y-79366071D02*
X217868617Y-79327976D01*
X217868617Y-79327976D02*
X218059093Y-79327976D01*
X218059093Y-79327976D02*
X218211474Y-79366071D01*
X218211474Y-79366071D02*
X218287664Y-79404166D01*
X218287664Y-79404166D02*
X218325760Y-79442261D01*
X218325760Y-79442261D02*
X218363855Y-79518452D01*
X218363855Y-79518452D02*
X218363855Y-79594642D01*
X218363855Y-79594642D02*
X218325760Y-79670833D01*
X218325760Y-79670833D02*
X218287664Y-79708928D01*
X218287664Y-79708928D02*
X218211474Y-79747023D01*
X218211474Y-79747023D02*
X218059093Y-79785119D01*
X218059093Y-79785119D02*
X217868617Y-79785119D01*
X217868617Y-79785119D02*
X217716236Y-79747023D01*
X217716236Y-79747023D02*
X217640045Y-79708928D01*
X217640045Y-79708928D02*
X217601950Y-79670833D01*
X217601950Y-79670833D02*
X217563855Y-79594642D01*
X236063855Y-87264285D02*
X235682902Y-87530952D01*
X236063855Y-87721428D02*
X235263855Y-87721428D01*
X235263855Y-87721428D02*
X235263855Y-87416666D01*
X235263855Y-87416666D02*
X235301950Y-87340476D01*
X235301950Y-87340476D02*
X235340045Y-87302381D01*
X235340045Y-87302381D02*
X235416236Y-87264285D01*
X235416236Y-87264285D02*
X235530521Y-87264285D01*
X235530521Y-87264285D02*
X235606712Y-87302381D01*
X235606712Y-87302381D02*
X235644807Y-87340476D01*
X235644807Y-87340476D02*
X235682902Y-87416666D01*
X235682902Y-87416666D02*
X235682902Y-87721428D01*
X235340045Y-86959524D02*
X235301950Y-86921428D01*
X235301950Y-86921428D02*
X235263855Y-86845238D01*
X235263855Y-86845238D02*
X235263855Y-86654762D01*
X235263855Y-86654762D02*
X235301950Y-86578571D01*
X235301950Y-86578571D02*
X235340045Y-86540476D01*
X235340045Y-86540476D02*
X235416236Y-86502381D01*
X235416236Y-86502381D02*
X235492426Y-86502381D01*
X235492426Y-86502381D02*
X235606712Y-86540476D01*
X235606712Y-86540476D02*
X236063855Y-86997619D01*
X236063855Y-86997619D02*
X236063855Y-86502381D01*
X235263855Y-86007142D02*
X235263855Y-85930952D01*
X235263855Y-85930952D02*
X235301950Y-85854761D01*
X235301950Y-85854761D02*
X235340045Y-85816666D01*
X235340045Y-85816666D02*
X235416236Y-85778571D01*
X235416236Y-85778571D02*
X235568617Y-85740476D01*
X235568617Y-85740476D02*
X235759093Y-85740476D01*
X235759093Y-85740476D02*
X235911474Y-85778571D01*
X235911474Y-85778571D02*
X235987664Y-85816666D01*
X235987664Y-85816666D02*
X236025760Y-85854761D01*
X236025760Y-85854761D02*
X236063855Y-85930952D01*
X236063855Y-85930952D02*
X236063855Y-86007142D01*
X236063855Y-86007142D02*
X236025760Y-86083333D01*
X236025760Y-86083333D02*
X235987664Y-86121428D01*
X235987664Y-86121428D02*
X235911474Y-86159523D01*
X235911474Y-86159523D02*
X235759093Y-86197619D01*
X235759093Y-86197619D02*
X235568617Y-86197619D01*
X235568617Y-86197619D02*
X235416236Y-86159523D01*
X235416236Y-86159523D02*
X235340045Y-86121428D01*
X235340045Y-86121428D02*
X235301950Y-86083333D01*
X235301950Y-86083333D02*
X235263855Y-86007142D01*
X205068214Y-88713855D02*
X204801547Y-88332902D01*
X204611071Y-88713855D02*
X204611071Y-87913855D01*
X204611071Y-87913855D02*
X204915833Y-87913855D01*
X204915833Y-87913855D02*
X204992023Y-87951950D01*
X204992023Y-87951950D02*
X205030118Y-87990045D01*
X205030118Y-87990045D02*
X205068214Y-88066236D01*
X205068214Y-88066236D02*
X205068214Y-88180521D01*
X205068214Y-88180521D02*
X205030118Y-88256712D01*
X205030118Y-88256712D02*
X204992023Y-88294807D01*
X204992023Y-88294807D02*
X204915833Y-88332902D01*
X204915833Y-88332902D02*
X204611071Y-88332902D01*
X205372975Y-87990045D02*
X205411071Y-87951950D01*
X205411071Y-87951950D02*
X205487261Y-87913855D01*
X205487261Y-87913855D02*
X205677737Y-87913855D01*
X205677737Y-87913855D02*
X205753928Y-87951950D01*
X205753928Y-87951950D02*
X205792023Y-87990045D01*
X205792023Y-87990045D02*
X205830118Y-88066236D01*
X205830118Y-88066236D02*
X205830118Y-88142426D01*
X205830118Y-88142426D02*
X205792023Y-88256712D01*
X205792023Y-88256712D02*
X205334880Y-88713855D01*
X205334880Y-88713855D02*
X205830118Y-88713855D01*
X206096785Y-87913855D02*
X206630119Y-87913855D01*
X206630119Y-87913855D02*
X206287261Y-88713855D01*
X176963214Y-76023855D02*
X176696547Y-75642902D01*
X176506071Y-76023855D02*
X176506071Y-75223855D01*
X176506071Y-75223855D02*
X176810833Y-75223855D01*
X176810833Y-75223855D02*
X176887023Y-75261950D01*
X176887023Y-75261950D02*
X176925118Y-75300045D01*
X176925118Y-75300045D02*
X176963214Y-75376236D01*
X176963214Y-75376236D02*
X176963214Y-75490521D01*
X176963214Y-75490521D02*
X176925118Y-75566712D01*
X176925118Y-75566712D02*
X176887023Y-75604807D01*
X176887023Y-75604807D02*
X176810833Y-75642902D01*
X176810833Y-75642902D02*
X176506071Y-75642902D01*
X177267975Y-75300045D02*
X177306071Y-75261950D01*
X177306071Y-75261950D02*
X177382261Y-75223855D01*
X177382261Y-75223855D02*
X177572737Y-75223855D01*
X177572737Y-75223855D02*
X177648928Y-75261950D01*
X177648928Y-75261950D02*
X177687023Y-75300045D01*
X177687023Y-75300045D02*
X177725118Y-75376236D01*
X177725118Y-75376236D02*
X177725118Y-75452426D01*
X177725118Y-75452426D02*
X177687023Y-75566712D01*
X177687023Y-75566712D02*
X177229880Y-76023855D01*
X177229880Y-76023855D02*
X177725118Y-76023855D01*
X177991785Y-75223855D02*
X178487023Y-75223855D01*
X178487023Y-75223855D02*
X178220357Y-75528617D01*
X178220357Y-75528617D02*
X178334642Y-75528617D01*
X178334642Y-75528617D02*
X178410833Y-75566712D01*
X178410833Y-75566712D02*
X178448928Y-75604807D01*
X178448928Y-75604807D02*
X178487023Y-75680998D01*
X178487023Y-75680998D02*
X178487023Y-75871474D01*
X178487023Y-75871474D02*
X178448928Y-75947664D01*
X178448928Y-75947664D02*
X178410833Y-75985760D01*
X178410833Y-75985760D02*
X178334642Y-76023855D01*
X178334642Y-76023855D02*
X178106071Y-76023855D01*
X178106071Y-76023855D02*
X178029880Y-75985760D01*
X178029880Y-75985760D02*
X177991785Y-75947664D01*
X177360714Y-69318855D02*
X177094047Y-68937902D01*
X176903571Y-69318855D02*
X176903571Y-68518855D01*
X176903571Y-68518855D02*
X177208333Y-68518855D01*
X177208333Y-68518855D02*
X177284523Y-68556950D01*
X177284523Y-68556950D02*
X177322618Y-68595045D01*
X177322618Y-68595045D02*
X177360714Y-68671236D01*
X177360714Y-68671236D02*
X177360714Y-68785521D01*
X177360714Y-68785521D02*
X177322618Y-68861712D01*
X177322618Y-68861712D02*
X177284523Y-68899807D01*
X177284523Y-68899807D02*
X177208333Y-68937902D01*
X177208333Y-68937902D02*
X176903571Y-68937902D01*
X177665475Y-68595045D02*
X177703571Y-68556950D01*
X177703571Y-68556950D02*
X177779761Y-68518855D01*
X177779761Y-68518855D02*
X177970237Y-68518855D01*
X177970237Y-68518855D02*
X178046428Y-68556950D01*
X178046428Y-68556950D02*
X178084523Y-68595045D01*
X178084523Y-68595045D02*
X178122618Y-68671236D01*
X178122618Y-68671236D02*
X178122618Y-68747426D01*
X178122618Y-68747426D02*
X178084523Y-68861712D01*
X178084523Y-68861712D02*
X177627380Y-69318855D01*
X177627380Y-69318855D02*
X178122618Y-69318855D01*
X178846428Y-68518855D02*
X178465476Y-68518855D01*
X178465476Y-68518855D02*
X178427380Y-68899807D01*
X178427380Y-68899807D02*
X178465476Y-68861712D01*
X178465476Y-68861712D02*
X178541666Y-68823617D01*
X178541666Y-68823617D02*
X178732142Y-68823617D01*
X178732142Y-68823617D02*
X178808333Y-68861712D01*
X178808333Y-68861712D02*
X178846428Y-68899807D01*
X178846428Y-68899807D02*
X178884523Y-68975998D01*
X178884523Y-68975998D02*
X178884523Y-69166474D01*
X178884523Y-69166474D02*
X178846428Y-69242664D01*
X178846428Y-69242664D02*
X178808333Y-69280760D01*
X178808333Y-69280760D02*
X178732142Y-69318855D01*
X178732142Y-69318855D02*
X178541666Y-69318855D01*
X178541666Y-69318855D02*
X178465476Y-69280760D01*
X178465476Y-69280760D02*
X178427380Y-69242664D01*
X239050476Y-86035855D02*
X239507619Y-86035855D01*
X239279047Y-86835855D02*
X239279047Y-86035855D01*
X239774286Y-86835855D02*
X239774286Y-86035855D01*
X239774286Y-86035855D02*
X240079048Y-86035855D01*
X240079048Y-86035855D02*
X240155238Y-86073950D01*
X240155238Y-86073950D02*
X240193333Y-86112045D01*
X240193333Y-86112045D02*
X240231429Y-86188236D01*
X240231429Y-86188236D02*
X240231429Y-86302521D01*
X240231429Y-86302521D02*
X240193333Y-86378712D01*
X240193333Y-86378712D02*
X240155238Y-86416807D01*
X240155238Y-86416807D02*
X240079048Y-86454902D01*
X240079048Y-86454902D02*
X239774286Y-86454902D01*
X240917143Y-86302521D02*
X240917143Y-86835855D01*
X240726667Y-85997760D02*
X240536190Y-86569188D01*
X240536190Y-86569188D02*
X241031429Y-86569188D01*
X180313855Y-109213332D02*
X179932902Y-109479999D01*
X180313855Y-109670475D02*
X179513855Y-109670475D01*
X179513855Y-109670475D02*
X179513855Y-109365713D01*
X179513855Y-109365713D02*
X179551950Y-109289523D01*
X179551950Y-109289523D02*
X179590045Y-109251428D01*
X179590045Y-109251428D02*
X179666236Y-109213332D01*
X179666236Y-109213332D02*
X179780521Y-109213332D01*
X179780521Y-109213332D02*
X179856712Y-109251428D01*
X179856712Y-109251428D02*
X179894807Y-109289523D01*
X179894807Y-109289523D02*
X179932902Y-109365713D01*
X179932902Y-109365713D02*
X179932902Y-109670475D01*
X180313855Y-108451428D02*
X180313855Y-108908571D01*
X180313855Y-108679999D02*
X179513855Y-108679999D01*
X179513855Y-108679999D02*
X179628140Y-108756190D01*
X179628140Y-108756190D02*
X179704331Y-108832380D01*
X179704331Y-108832380D02*
X179742426Y-108908571D01*
X164637664Y-79033332D02*
X164675760Y-79071428D01*
X164675760Y-79071428D02*
X164713855Y-79185713D01*
X164713855Y-79185713D02*
X164713855Y-79261904D01*
X164713855Y-79261904D02*
X164675760Y-79376190D01*
X164675760Y-79376190D02*
X164599569Y-79452380D01*
X164599569Y-79452380D02*
X164523379Y-79490475D01*
X164523379Y-79490475D02*
X164370998Y-79528571D01*
X164370998Y-79528571D02*
X164256712Y-79528571D01*
X164256712Y-79528571D02*
X164104331Y-79490475D01*
X164104331Y-79490475D02*
X164028140Y-79452380D01*
X164028140Y-79452380D02*
X163951950Y-79376190D01*
X163951950Y-79376190D02*
X163913855Y-79261904D01*
X163913855Y-79261904D02*
X163913855Y-79185713D01*
X163913855Y-79185713D02*
X163951950Y-79071428D01*
X163951950Y-79071428D02*
X163990045Y-79033332D01*
X164180521Y-78347618D02*
X164713855Y-78347618D01*
X163875760Y-78538094D02*
X164447188Y-78728571D01*
X164447188Y-78728571D02*
X164447188Y-78233332D01*
X180863855Y-91176785D02*
X180482902Y-91443452D01*
X180863855Y-91633928D02*
X180063855Y-91633928D01*
X180063855Y-91633928D02*
X180063855Y-91329166D01*
X180063855Y-91329166D02*
X180101950Y-91252976D01*
X180101950Y-91252976D02*
X180140045Y-91214881D01*
X180140045Y-91214881D02*
X180216236Y-91176785D01*
X180216236Y-91176785D02*
X180330521Y-91176785D01*
X180330521Y-91176785D02*
X180406712Y-91214881D01*
X180406712Y-91214881D02*
X180444807Y-91252976D01*
X180444807Y-91252976D02*
X180482902Y-91329166D01*
X180482902Y-91329166D02*
X180482902Y-91633928D01*
X180863855Y-90414881D02*
X180863855Y-90872024D01*
X180863855Y-90643452D02*
X180063855Y-90643452D01*
X180063855Y-90643452D02*
X180178140Y-90719643D01*
X180178140Y-90719643D02*
X180254331Y-90795833D01*
X180254331Y-90795833D02*
X180292426Y-90872024D01*
X180863855Y-89652976D02*
X180863855Y-90110119D01*
X180863855Y-89881547D02*
X180063855Y-89881547D01*
X180063855Y-89881547D02*
X180178140Y-89957738D01*
X180178140Y-89957738D02*
X180254331Y-90033928D01*
X180254331Y-90033928D02*
X180292426Y-90110119D01*
X209165786Y-75324685D02*
X209165786Y-75972304D01*
X209165786Y-75972304D02*
X209203881Y-76048494D01*
X209203881Y-76048494D02*
X209241976Y-76086590D01*
X209241976Y-76086590D02*
X209318167Y-76124685D01*
X209318167Y-76124685D02*
X209470548Y-76124685D01*
X209470548Y-76124685D02*
X209546738Y-76086590D01*
X209546738Y-76086590D02*
X209584833Y-76048494D01*
X209584833Y-76048494D02*
X209622929Y-75972304D01*
X209622929Y-75972304D02*
X209622929Y-75324685D01*
X210346738Y-75324685D02*
X210194357Y-75324685D01*
X210194357Y-75324685D02*
X210118166Y-75362780D01*
X210118166Y-75362780D02*
X210080071Y-75400875D01*
X210080071Y-75400875D02*
X210003881Y-75515161D01*
X210003881Y-75515161D02*
X209965785Y-75667542D01*
X209965785Y-75667542D02*
X209965785Y-75972304D01*
X209965785Y-75972304D02*
X210003881Y-76048494D01*
X210003881Y-76048494D02*
X210041976Y-76086590D01*
X210041976Y-76086590D02*
X210118166Y-76124685D01*
X210118166Y-76124685D02*
X210270547Y-76124685D01*
X210270547Y-76124685D02*
X210346738Y-76086590D01*
X210346738Y-76086590D02*
X210384833Y-76048494D01*
X210384833Y-76048494D02*
X210422928Y-75972304D01*
X210422928Y-75972304D02*
X210422928Y-75781828D01*
X210422928Y-75781828D02*
X210384833Y-75705637D01*
X210384833Y-75705637D02*
X210346738Y-75667542D01*
X210346738Y-75667542D02*
X210270547Y-75629447D01*
X210270547Y-75629447D02*
X210118166Y-75629447D01*
X210118166Y-75629447D02*
X210041976Y-75667542D01*
X210041976Y-75667542D02*
X210003881Y-75705637D01*
X210003881Y-75705637D02*
X209965785Y-75781828D01*
X190523214Y-75163855D02*
X190256547Y-74782902D01*
X190066071Y-75163855D02*
X190066071Y-74363855D01*
X190066071Y-74363855D02*
X190370833Y-74363855D01*
X190370833Y-74363855D02*
X190447023Y-74401950D01*
X190447023Y-74401950D02*
X190485118Y-74440045D01*
X190485118Y-74440045D02*
X190523214Y-74516236D01*
X190523214Y-74516236D02*
X190523214Y-74630521D01*
X190523214Y-74630521D02*
X190485118Y-74706712D01*
X190485118Y-74706712D02*
X190447023Y-74744807D01*
X190447023Y-74744807D02*
X190370833Y-74782902D01*
X190370833Y-74782902D02*
X190066071Y-74782902D01*
X190827975Y-74440045D02*
X190866071Y-74401950D01*
X190866071Y-74401950D02*
X190942261Y-74363855D01*
X190942261Y-74363855D02*
X191132737Y-74363855D01*
X191132737Y-74363855D02*
X191208928Y-74401950D01*
X191208928Y-74401950D02*
X191247023Y-74440045D01*
X191247023Y-74440045D02*
X191285118Y-74516236D01*
X191285118Y-74516236D02*
X191285118Y-74592426D01*
X191285118Y-74592426D02*
X191247023Y-74706712D01*
X191247023Y-74706712D02*
X190789880Y-75163855D01*
X190789880Y-75163855D02*
X191285118Y-75163855D01*
X191970833Y-74363855D02*
X191818452Y-74363855D01*
X191818452Y-74363855D02*
X191742261Y-74401950D01*
X191742261Y-74401950D02*
X191704166Y-74440045D01*
X191704166Y-74440045D02*
X191627976Y-74554331D01*
X191627976Y-74554331D02*
X191589880Y-74706712D01*
X191589880Y-74706712D02*
X191589880Y-75011474D01*
X191589880Y-75011474D02*
X191627976Y-75087664D01*
X191627976Y-75087664D02*
X191666071Y-75125760D01*
X191666071Y-75125760D02*
X191742261Y-75163855D01*
X191742261Y-75163855D02*
X191894642Y-75163855D01*
X191894642Y-75163855D02*
X191970833Y-75125760D01*
X191970833Y-75125760D02*
X192008928Y-75087664D01*
X192008928Y-75087664D02*
X192047023Y-75011474D01*
X192047023Y-75011474D02*
X192047023Y-74820998D01*
X192047023Y-74820998D02*
X192008928Y-74744807D01*
X192008928Y-74744807D02*
X191970833Y-74706712D01*
X191970833Y-74706712D02*
X191894642Y-74668617D01*
X191894642Y-74668617D02*
X191742261Y-74668617D01*
X191742261Y-74668617D02*
X191666071Y-74706712D01*
X191666071Y-74706712D02*
X191627976Y-74744807D01*
X191627976Y-74744807D02*
X191589880Y-74820998D01*
X181438855Y-116320832D02*
X181057902Y-116587499D01*
X181438855Y-116777975D02*
X180638855Y-116777975D01*
X180638855Y-116777975D02*
X180638855Y-116473213D01*
X180638855Y-116473213D02*
X180676950Y-116397023D01*
X180676950Y-116397023D02*
X180715045Y-116358928D01*
X180715045Y-116358928D02*
X180791236Y-116320832D01*
X180791236Y-116320832D02*
X180905521Y-116320832D01*
X180905521Y-116320832D02*
X180981712Y-116358928D01*
X180981712Y-116358928D02*
X181019807Y-116397023D01*
X181019807Y-116397023D02*
X181057902Y-116473213D01*
X181057902Y-116473213D02*
X181057902Y-116777975D01*
X180715045Y-116016071D02*
X180676950Y-115977975D01*
X180676950Y-115977975D02*
X180638855Y-115901785D01*
X180638855Y-115901785D02*
X180638855Y-115711309D01*
X180638855Y-115711309D02*
X180676950Y-115635118D01*
X180676950Y-115635118D02*
X180715045Y-115597023D01*
X180715045Y-115597023D02*
X180791236Y-115558928D01*
X180791236Y-115558928D02*
X180867426Y-115558928D01*
X180867426Y-115558928D02*
X180981712Y-115597023D01*
X180981712Y-115597023D02*
X181438855Y-116054166D01*
X181438855Y-116054166D02*
X181438855Y-115558928D01*
X192903855Y-96954285D02*
X192522902Y-97220952D01*
X192903855Y-97411428D02*
X192103855Y-97411428D01*
X192103855Y-97411428D02*
X192103855Y-97106666D01*
X192103855Y-97106666D02*
X192141950Y-97030476D01*
X192141950Y-97030476D02*
X192180045Y-96992381D01*
X192180045Y-96992381D02*
X192256236Y-96954285D01*
X192256236Y-96954285D02*
X192370521Y-96954285D01*
X192370521Y-96954285D02*
X192446712Y-96992381D01*
X192446712Y-96992381D02*
X192484807Y-97030476D01*
X192484807Y-97030476D02*
X192522902Y-97106666D01*
X192522902Y-97106666D02*
X192522902Y-97411428D01*
X192903855Y-96192381D02*
X192903855Y-96649524D01*
X192903855Y-96420952D02*
X192103855Y-96420952D01*
X192103855Y-96420952D02*
X192218140Y-96497143D01*
X192218140Y-96497143D02*
X192294331Y-96573333D01*
X192294331Y-96573333D02*
X192332426Y-96649524D01*
X192103855Y-95468571D02*
X192103855Y-95849523D01*
X192103855Y-95849523D02*
X192484807Y-95887619D01*
X192484807Y-95887619D02*
X192446712Y-95849523D01*
X192446712Y-95849523D02*
X192408617Y-95773333D01*
X192408617Y-95773333D02*
X192408617Y-95582857D01*
X192408617Y-95582857D02*
X192446712Y-95506666D01*
X192446712Y-95506666D02*
X192484807Y-95468571D01*
X192484807Y-95468571D02*
X192560998Y-95430476D01*
X192560998Y-95430476D02*
X192751474Y-95430476D01*
X192751474Y-95430476D02*
X192827664Y-95468571D01*
X192827664Y-95468571D02*
X192865760Y-95506666D01*
X192865760Y-95506666D02*
X192903855Y-95582857D01*
X192903855Y-95582857D02*
X192903855Y-95773333D01*
X192903855Y-95773333D02*
X192865760Y-95849523D01*
X192865760Y-95849523D02*
X192827664Y-95887619D01*
X235640476Y-70313855D02*
X235640476Y-70961474D01*
X235640476Y-70961474D02*
X235678571Y-71037664D01*
X235678571Y-71037664D02*
X235716666Y-71075760D01*
X235716666Y-71075760D02*
X235792857Y-71113855D01*
X235792857Y-71113855D02*
X235945238Y-71113855D01*
X235945238Y-71113855D02*
X236021428Y-71075760D01*
X236021428Y-71075760D02*
X236059523Y-71037664D01*
X236059523Y-71037664D02*
X236097619Y-70961474D01*
X236097619Y-70961474D02*
X236097619Y-70313855D01*
X236402380Y-70313855D02*
X236897618Y-70313855D01*
X236897618Y-70313855D02*
X236630952Y-70618617D01*
X236630952Y-70618617D02*
X236745237Y-70618617D01*
X236745237Y-70618617D02*
X236821428Y-70656712D01*
X236821428Y-70656712D02*
X236859523Y-70694807D01*
X236859523Y-70694807D02*
X236897618Y-70770998D01*
X236897618Y-70770998D02*
X236897618Y-70961474D01*
X236897618Y-70961474D02*
X236859523Y-71037664D01*
X236859523Y-71037664D02*
X236821428Y-71075760D01*
X236821428Y-71075760D02*
X236745237Y-71113855D01*
X236745237Y-71113855D02*
X236516666Y-71113855D01*
X236516666Y-71113855D02*
X236440475Y-71075760D01*
X236440475Y-71075760D02*
X236402380Y-71037664D01*
X205168809Y-95940045D02*
X205092619Y-95901950D01*
X205092619Y-95901950D02*
X205016428Y-95825760D01*
X205016428Y-95825760D02*
X204902142Y-95711474D01*
X204902142Y-95711474D02*
X204825952Y-95673379D01*
X204825952Y-95673379D02*
X204749761Y-95673379D01*
X204787857Y-95863855D02*
X204711666Y-95825760D01*
X204711666Y-95825760D02*
X204635476Y-95749569D01*
X204635476Y-95749569D02*
X204597380Y-95597188D01*
X204597380Y-95597188D02*
X204597380Y-95330521D01*
X204597380Y-95330521D02*
X204635476Y-95178140D01*
X204635476Y-95178140D02*
X204711666Y-95101950D01*
X204711666Y-95101950D02*
X204787857Y-95063855D01*
X204787857Y-95063855D02*
X204940238Y-95063855D01*
X204940238Y-95063855D02*
X205016428Y-95101950D01*
X205016428Y-95101950D02*
X205092619Y-95178140D01*
X205092619Y-95178140D02*
X205130714Y-95330521D01*
X205130714Y-95330521D02*
X205130714Y-95597188D01*
X205130714Y-95597188D02*
X205092619Y-95749569D01*
X205092619Y-95749569D02*
X205016428Y-95825760D01*
X205016428Y-95825760D02*
X204940238Y-95863855D01*
X204940238Y-95863855D02*
X204787857Y-95863855D01*
X205892618Y-95863855D02*
X205435475Y-95863855D01*
X205664047Y-95863855D02*
X205664047Y-95063855D01*
X205664047Y-95063855D02*
X205587856Y-95178140D01*
X205587856Y-95178140D02*
X205511666Y-95254331D01*
X205511666Y-95254331D02*
X205435475Y-95292426D01*
X179630833Y-95589807D02*
X179364167Y-95589807D01*
X179364167Y-96008855D02*
X179364167Y-95208855D01*
X179364167Y-95208855D02*
X179745119Y-95208855D01*
X180468928Y-96008855D02*
X180011785Y-96008855D01*
X180240357Y-96008855D02*
X180240357Y-95208855D01*
X180240357Y-95208855D02*
X180164166Y-95323140D01*
X180164166Y-95323140D02*
X180087976Y-95399331D01*
X180087976Y-95399331D02*
X180011785Y-95437426D01*
X163513855Y-107617082D02*
X163132902Y-107883749D01*
X163513855Y-108074225D02*
X162713855Y-108074225D01*
X162713855Y-108074225D02*
X162713855Y-107769463D01*
X162713855Y-107769463D02*
X162751950Y-107693273D01*
X162751950Y-107693273D02*
X162790045Y-107655178D01*
X162790045Y-107655178D02*
X162866236Y-107617082D01*
X162866236Y-107617082D02*
X162980521Y-107617082D01*
X162980521Y-107617082D02*
X163056712Y-107655178D01*
X163056712Y-107655178D02*
X163094807Y-107693273D01*
X163094807Y-107693273D02*
X163132902Y-107769463D01*
X163132902Y-107769463D02*
X163132902Y-108074225D01*
X163056712Y-107159940D02*
X163018617Y-107236130D01*
X163018617Y-107236130D02*
X162980521Y-107274225D01*
X162980521Y-107274225D02*
X162904331Y-107312321D01*
X162904331Y-107312321D02*
X162866236Y-107312321D01*
X162866236Y-107312321D02*
X162790045Y-107274225D01*
X162790045Y-107274225D02*
X162751950Y-107236130D01*
X162751950Y-107236130D02*
X162713855Y-107159940D01*
X162713855Y-107159940D02*
X162713855Y-107007559D01*
X162713855Y-107007559D02*
X162751950Y-106931368D01*
X162751950Y-106931368D02*
X162790045Y-106893273D01*
X162790045Y-106893273D02*
X162866236Y-106855178D01*
X162866236Y-106855178D02*
X162904331Y-106855178D01*
X162904331Y-106855178D02*
X162980521Y-106893273D01*
X162980521Y-106893273D02*
X163018617Y-106931368D01*
X163018617Y-106931368D02*
X163056712Y-107007559D01*
X163056712Y-107007559D02*
X163056712Y-107159940D01*
X163056712Y-107159940D02*
X163094807Y-107236130D01*
X163094807Y-107236130D02*
X163132902Y-107274225D01*
X163132902Y-107274225D02*
X163209093Y-107312321D01*
X163209093Y-107312321D02*
X163361474Y-107312321D01*
X163361474Y-107312321D02*
X163437664Y-107274225D01*
X163437664Y-107274225D02*
X163475760Y-107236130D01*
X163475760Y-107236130D02*
X163513855Y-107159940D01*
X163513855Y-107159940D02*
X163513855Y-107007559D01*
X163513855Y-107007559D02*
X163475760Y-106931368D01*
X163475760Y-106931368D02*
X163437664Y-106893273D01*
X163437664Y-106893273D02*
X163361474Y-106855178D01*
X163361474Y-106855178D02*
X163209093Y-106855178D01*
X163209093Y-106855178D02*
X163132902Y-106893273D01*
X163132902Y-106893273D02*
X163094807Y-106931368D01*
X163094807Y-106931368D02*
X163056712Y-107007559D01*
X160753855Y-98314225D02*
X159953855Y-98314225D01*
X159953855Y-98314225D02*
X159953855Y-98123749D01*
X159953855Y-98123749D02*
X159991950Y-98009463D01*
X159991950Y-98009463D02*
X160068140Y-97933273D01*
X160068140Y-97933273D02*
X160144331Y-97895178D01*
X160144331Y-97895178D02*
X160296712Y-97857082D01*
X160296712Y-97857082D02*
X160410998Y-97857082D01*
X160410998Y-97857082D02*
X160563379Y-97895178D01*
X160563379Y-97895178D02*
X160639569Y-97933273D01*
X160639569Y-97933273D02*
X160715760Y-98009463D01*
X160715760Y-98009463D02*
X160753855Y-98123749D01*
X160753855Y-98123749D02*
X160753855Y-98314225D01*
X159953855Y-97590416D02*
X159953855Y-97095178D01*
X159953855Y-97095178D02*
X160258617Y-97361844D01*
X160258617Y-97361844D02*
X160258617Y-97247559D01*
X160258617Y-97247559D02*
X160296712Y-97171368D01*
X160296712Y-97171368D02*
X160334807Y-97133273D01*
X160334807Y-97133273D02*
X160410998Y-97095178D01*
X160410998Y-97095178D02*
X160601474Y-97095178D01*
X160601474Y-97095178D02*
X160677664Y-97133273D01*
X160677664Y-97133273D02*
X160715760Y-97171368D01*
X160715760Y-97171368D02*
X160753855Y-97247559D01*
X160753855Y-97247559D02*
X160753855Y-97476130D01*
X160753855Y-97476130D02*
X160715760Y-97552321D01*
X160715760Y-97552321D02*
X160677664Y-97590416D01*
X192293333Y-62843855D02*
X192293333Y-63415283D01*
X192293333Y-63415283D02*
X192255238Y-63529569D01*
X192255238Y-63529569D02*
X192179047Y-63605760D01*
X192179047Y-63605760D02*
X192064762Y-63643855D01*
X192064762Y-63643855D02*
X191988571Y-63643855D01*
X193017143Y-63110521D02*
X193017143Y-63643855D01*
X192826667Y-62805760D02*
X192636190Y-63377188D01*
X192636190Y-63377188D02*
X193131429Y-63377188D01*
X208735714Y-86613855D02*
X208469047Y-86232902D01*
X208278571Y-86613855D02*
X208278571Y-85813855D01*
X208278571Y-85813855D02*
X208583333Y-85813855D01*
X208583333Y-85813855D02*
X208659523Y-85851950D01*
X208659523Y-85851950D02*
X208697618Y-85890045D01*
X208697618Y-85890045D02*
X208735714Y-85966236D01*
X208735714Y-85966236D02*
X208735714Y-86080521D01*
X208735714Y-86080521D02*
X208697618Y-86156712D01*
X208697618Y-86156712D02*
X208659523Y-86194807D01*
X208659523Y-86194807D02*
X208583333Y-86232902D01*
X208583333Y-86232902D02*
X208278571Y-86232902D01*
X209497618Y-86613855D02*
X209040475Y-86613855D01*
X209269047Y-86613855D02*
X209269047Y-85813855D01*
X209269047Y-85813855D02*
X209192856Y-85928140D01*
X209192856Y-85928140D02*
X209116666Y-86004331D01*
X209116666Y-86004331D02*
X209040475Y-86042426D01*
X209954761Y-86156712D02*
X209878571Y-86118617D01*
X209878571Y-86118617D02*
X209840476Y-86080521D01*
X209840476Y-86080521D02*
X209802380Y-86004331D01*
X209802380Y-86004331D02*
X209802380Y-85966236D01*
X209802380Y-85966236D02*
X209840476Y-85890045D01*
X209840476Y-85890045D02*
X209878571Y-85851950D01*
X209878571Y-85851950D02*
X209954761Y-85813855D01*
X209954761Y-85813855D02*
X210107142Y-85813855D01*
X210107142Y-85813855D02*
X210183333Y-85851950D01*
X210183333Y-85851950D02*
X210221428Y-85890045D01*
X210221428Y-85890045D02*
X210259523Y-85966236D01*
X210259523Y-85966236D02*
X210259523Y-86004331D01*
X210259523Y-86004331D02*
X210221428Y-86080521D01*
X210221428Y-86080521D02*
X210183333Y-86118617D01*
X210183333Y-86118617D02*
X210107142Y-86156712D01*
X210107142Y-86156712D02*
X209954761Y-86156712D01*
X209954761Y-86156712D02*
X209878571Y-86194807D01*
X209878571Y-86194807D02*
X209840476Y-86232902D01*
X209840476Y-86232902D02*
X209802380Y-86309093D01*
X209802380Y-86309093D02*
X209802380Y-86461474D01*
X209802380Y-86461474D02*
X209840476Y-86537664D01*
X209840476Y-86537664D02*
X209878571Y-86575760D01*
X209878571Y-86575760D02*
X209954761Y-86613855D01*
X209954761Y-86613855D02*
X210107142Y-86613855D01*
X210107142Y-86613855D02*
X210183333Y-86575760D01*
X210183333Y-86575760D02*
X210221428Y-86537664D01*
X210221428Y-86537664D02*
X210259523Y-86461474D01*
X210259523Y-86461474D02*
X210259523Y-86309093D01*
X210259523Y-86309093D02*
X210221428Y-86232902D01*
X210221428Y-86232902D02*
X210183333Y-86194807D01*
X210183333Y-86194807D02*
X210107142Y-86156712D01*
X177175714Y-74123855D02*
X176909047Y-73742902D01*
X176718571Y-74123855D02*
X176718571Y-73323855D01*
X176718571Y-73323855D02*
X177023333Y-73323855D01*
X177023333Y-73323855D02*
X177099523Y-73361950D01*
X177099523Y-73361950D02*
X177137618Y-73400045D01*
X177137618Y-73400045D02*
X177175714Y-73476236D01*
X177175714Y-73476236D02*
X177175714Y-73590521D01*
X177175714Y-73590521D02*
X177137618Y-73666712D01*
X177137618Y-73666712D02*
X177099523Y-73704807D01*
X177099523Y-73704807D02*
X177023333Y-73742902D01*
X177023333Y-73742902D02*
X176718571Y-73742902D01*
X177480475Y-73400045D02*
X177518571Y-73361950D01*
X177518571Y-73361950D02*
X177594761Y-73323855D01*
X177594761Y-73323855D02*
X177785237Y-73323855D01*
X177785237Y-73323855D02*
X177861428Y-73361950D01*
X177861428Y-73361950D02*
X177899523Y-73400045D01*
X177899523Y-73400045D02*
X177937618Y-73476236D01*
X177937618Y-73476236D02*
X177937618Y-73552426D01*
X177937618Y-73552426D02*
X177899523Y-73666712D01*
X177899523Y-73666712D02*
X177442380Y-74123855D01*
X177442380Y-74123855D02*
X177937618Y-74123855D01*
X178623333Y-73590521D02*
X178623333Y-74123855D01*
X178432857Y-73285760D02*
X178242380Y-73857188D01*
X178242380Y-73857188D02*
X178737619Y-73857188D01*
X180963855Y-86482975D02*
X180163855Y-86482975D01*
X180163855Y-86482975D02*
X180163855Y-86292499D01*
X180163855Y-86292499D02*
X180201950Y-86178213D01*
X180201950Y-86178213D02*
X180278140Y-86102023D01*
X180278140Y-86102023D02*
X180354331Y-86063928D01*
X180354331Y-86063928D02*
X180506712Y-86025832D01*
X180506712Y-86025832D02*
X180620998Y-86025832D01*
X180620998Y-86025832D02*
X180773379Y-86063928D01*
X180773379Y-86063928D02*
X180849569Y-86102023D01*
X180849569Y-86102023D02*
X180925760Y-86178213D01*
X180925760Y-86178213D02*
X180963855Y-86292499D01*
X180963855Y-86292499D02*
X180963855Y-86482975D01*
X180163855Y-85340118D02*
X180163855Y-85492499D01*
X180163855Y-85492499D02*
X180201950Y-85568690D01*
X180201950Y-85568690D02*
X180240045Y-85606785D01*
X180240045Y-85606785D02*
X180354331Y-85682975D01*
X180354331Y-85682975D02*
X180506712Y-85721071D01*
X180506712Y-85721071D02*
X180811474Y-85721071D01*
X180811474Y-85721071D02*
X180887664Y-85682975D01*
X180887664Y-85682975D02*
X180925760Y-85644880D01*
X180925760Y-85644880D02*
X180963855Y-85568690D01*
X180963855Y-85568690D02*
X180963855Y-85416309D01*
X180963855Y-85416309D02*
X180925760Y-85340118D01*
X180925760Y-85340118D02*
X180887664Y-85302023D01*
X180887664Y-85302023D02*
X180811474Y-85263928D01*
X180811474Y-85263928D02*
X180620998Y-85263928D01*
X180620998Y-85263928D02*
X180544807Y-85302023D01*
X180544807Y-85302023D02*
X180506712Y-85340118D01*
X180506712Y-85340118D02*
X180468617Y-85416309D01*
X180468617Y-85416309D02*
X180468617Y-85568690D01*
X180468617Y-85568690D02*
X180506712Y-85644880D01*
X180506712Y-85644880D02*
X180544807Y-85682975D01*
X180544807Y-85682975D02*
X180620998Y-85721071D01*
X177075714Y-71747664D02*
X177037618Y-71785760D01*
X177037618Y-71785760D02*
X176923333Y-71823855D01*
X176923333Y-71823855D02*
X176847142Y-71823855D01*
X176847142Y-71823855D02*
X176732856Y-71785760D01*
X176732856Y-71785760D02*
X176656666Y-71709569D01*
X176656666Y-71709569D02*
X176618571Y-71633379D01*
X176618571Y-71633379D02*
X176580475Y-71480998D01*
X176580475Y-71480998D02*
X176580475Y-71366712D01*
X176580475Y-71366712D02*
X176618571Y-71214331D01*
X176618571Y-71214331D02*
X176656666Y-71138140D01*
X176656666Y-71138140D02*
X176732856Y-71061950D01*
X176732856Y-71061950D02*
X176847142Y-71023855D01*
X176847142Y-71023855D02*
X176923333Y-71023855D01*
X176923333Y-71023855D02*
X177037618Y-71061950D01*
X177037618Y-71061950D02*
X177075714Y-71100045D01*
X177837618Y-71823855D02*
X177380475Y-71823855D01*
X177609047Y-71823855D02*
X177609047Y-71023855D01*
X177609047Y-71023855D02*
X177532856Y-71138140D01*
X177532856Y-71138140D02*
X177456666Y-71214331D01*
X177456666Y-71214331D02*
X177380475Y-71252426D01*
X178523333Y-71023855D02*
X178370952Y-71023855D01*
X178370952Y-71023855D02*
X178294761Y-71061950D01*
X178294761Y-71061950D02*
X178256666Y-71100045D01*
X178256666Y-71100045D02*
X178180476Y-71214331D01*
X178180476Y-71214331D02*
X178142380Y-71366712D01*
X178142380Y-71366712D02*
X178142380Y-71671474D01*
X178142380Y-71671474D02*
X178180476Y-71747664D01*
X178180476Y-71747664D02*
X178218571Y-71785760D01*
X178218571Y-71785760D02*
X178294761Y-71823855D01*
X178294761Y-71823855D02*
X178447142Y-71823855D01*
X178447142Y-71823855D02*
X178523333Y-71785760D01*
X178523333Y-71785760D02*
X178561428Y-71747664D01*
X178561428Y-71747664D02*
X178599523Y-71671474D01*
X178599523Y-71671474D02*
X178599523Y-71480998D01*
X178599523Y-71480998D02*
X178561428Y-71404807D01*
X178561428Y-71404807D02*
X178523333Y-71366712D01*
X178523333Y-71366712D02*
X178447142Y-71328617D01*
X178447142Y-71328617D02*
X178294761Y-71328617D01*
X178294761Y-71328617D02*
X178218571Y-71366712D01*
X178218571Y-71366712D02*
X178180476Y-71404807D01*
X178180476Y-71404807D02*
X178142380Y-71480998D01*
X209598809Y-100610045D02*
X209522619Y-100571950D01*
X209522619Y-100571950D02*
X209446428Y-100495760D01*
X209446428Y-100495760D02*
X209332142Y-100381474D01*
X209332142Y-100381474D02*
X209255952Y-100343379D01*
X209255952Y-100343379D02*
X209179761Y-100343379D01*
X209217857Y-100533855D02*
X209141666Y-100495760D01*
X209141666Y-100495760D02*
X209065476Y-100419569D01*
X209065476Y-100419569D02*
X209027380Y-100267188D01*
X209027380Y-100267188D02*
X209027380Y-100000521D01*
X209027380Y-100000521D02*
X209065476Y-99848140D01*
X209065476Y-99848140D02*
X209141666Y-99771950D01*
X209141666Y-99771950D02*
X209217857Y-99733855D01*
X209217857Y-99733855D02*
X209370238Y-99733855D01*
X209370238Y-99733855D02*
X209446428Y-99771950D01*
X209446428Y-99771950D02*
X209522619Y-99848140D01*
X209522619Y-99848140D02*
X209560714Y-100000521D01*
X209560714Y-100000521D02*
X209560714Y-100267188D01*
X209560714Y-100267188D02*
X209522619Y-100419569D01*
X209522619Y-100419569D02*
X209446428Y-100495760D01*
X209446428Y-100495760D02*
X209370238Y-100533855D01*
X209370238Y-100533855D02*
X209217857Y-100533855D01*
X209827380Y-99733855D02*
X210322618Y-99733855D01*
X210322618Y-99733855D02*
X210055952Y-100038617D01*
X210055952Y-100038617D02*
X210170237Y-100038617D01*
X210170237Y-100038617D02*
X210246428Y-100076712D01*
X210246428Y-100076712D02*
X210284523Y-100114807D01*
X210284523Y-100114807D02*
X210322618Y-100190998D01*
X210322618Y-100190998D02*
X210322618Y-100381474D01*
X210322618Y-100381474D02*
X210284523Y-100457664D01*
X210284523Y-100457664D02*
X210246428Y-100495760D01*
X210246428Y-100495760D02*
X210170237Y-100533855D01*
X210170237Y-100533855D02*
X209941666Y-100533855D01*
X209941666Y-100533855D02*
X209865475Y-100495760D01*
X209865475Y-100495760D02*
X209827380Y-100457664D01*
X198613855Y-89796785D02*
X198232902Y-90063452D01*
X198613855Y-90253928D02*
X197813855Y-90253928D01*
X197813855Y-90253928D02*
X197813855Y-89949166D01*
X197813855Y-89949166D02*
X197851950Y-89872976D01*
X197851950Y-89872976D02*
X197890045Y-89834881D01*
X197890045Y-89834881D02*
X197966236Y-89796785D01*
X197966236Y-89796785D02*
X198080521Y-89796785D01*
X198080521Y-89796785D02*
X198156712Y-89834881D01*
X198156712Y-89834881D02*
X198194807Y-89872976D01*
X198194807Y-89872976D02*
X198232902Y-89949166D01*
X198232902Y-89949166D02*
X198232902Y-90253928D01*
X198613855Y-89034881D02*
X198613855Y-89492024D01*
X198613855Y-89263452D02*
X197813855Y-89263452D01*
X197813855Y-89263452D02*
X197928140Y-89339643D01*
X197928140Y-89339643D02*
X198004331Y-89415833D01*
X198004331Y-89415833D02*
X198042426Y-89492024D01*
X197813855Y-88768214D02*
X197813855Y-88272976D01*
X197813855Y-88272976D02*
X198118617Y-88539642D01*
X198118617Y-88539642D02*
X198118617Y-88425357D01*
X198118617Y-88425357D02*
X198156712Y-88349166D01*
X198156712Y-88349166D02*
X198194807Y-88311071D01*
X198194807Y-88311071D02*
X198270998Y-88272976D01*
X198270998Y-88272976D02*
X198461474Y-88272976D01*
X198461474Y-88272976D02*
X198537664Y-88311071D01*
X198537664Y-88311071D02*
X198575760Y-88349166D01*
X198575760Y-88349166D02*
X198613855Y-88425357D01*
X198613855Y-88425357D02*
X198613855Y-88653928D01*
X198613855Y-88653928D02*
X198575760Y-88730119D01*
X198575760Y-88730119D02*
X198537664Y-88768214D01*
X189163855Y-101069523D02*
X189811474Y-101069523D01*
X189811474Y-101069523D02*
X189887664Y-101031428D01*
X189887664Y-101031428D02*
X189925760Y-100993333D01*
X189925760Y-100993333D02*
X189963855Y-100917142D01*
X189963855Y-100917142D02*
X189963855Y-100764761D01*
X189963855Y-100764761D02*
X189925760Y-100688571D01*
X189925760Y-100688571D02*
X189887664Y-100650476D01*
X189887664Y-100650476D02*
X189811474Y-100612380D01*
X189811474Y-100612380D02*
X189163855Y-100612380D01*
X189163855Y-99850476D02*
X189163855Y-100231428D01*
X189163855Y-100231428D02*
X189544807Y-100269524D01*
X189544807Y-100269524D02*
X189506712Y-100231428D01*
X189506712Y-100231428D02*
X189468617Y-100155238D01*
X189468617Y-100155238D02*
X189468617Y-99964762D01*
X189468617Y-99964762D02*
X189506712Y-99888571D01*
X189506712Y-99888571D02*
X189544807Y-99850476D01*
X189544807Y-99850476D02*
X189620998Y-99812381D01*
X189620998Y-99812381D02*
X189811474Y-99812381D01*
X189811474Y-99812381D02*
X189887664Y-99850476D01*
X189887664Y-99850476D02*
X189925760Y-99888571D01*
X189925760Y-99888571D02*
X189963855Y-99964762D01*
X189963855Y-99964762D02*
X189963855Y-100155238D01*
X189963855Y-100155238D02*
X189925760Y-100231428D01*
X189925760Y-100231428D02*
X189887664Y-100269524D01*
X163533855Y-98174225D02*
X162733855Y-98174225D01*
X162733855Y-98174225D02*
X162733855Y-97983749D01*
X162733855Y-97983749D02*
X162771950Y-97869463D01*
X162771950Y-97869463D02*
X162848140Y-97793273D01*
X162848140Y-97793273D02*
X162924331Y-97755178D01*
X162924331Y-97755178D02*
X163076712Y-97717082D01*
X163076712Y-97717082D02*
X163190998Y-97717082D01*
X163190998Y-97717082D02*
X163343379Y-97755178D01*
X163343379Y-97755178D02*
X163419569Y-97793273D01*
X163419569Y-97793273D02*
X163495760Y-97869463D01*
X163495760Y-97869463D02*
X163533855Y-97983749D01*
X163533855Y-97983749D02*
X163533855Y-98174225D01*
X162810045Y-97412321D02*
X162771950Y-97374225D01*
X162771950Y-97374225D02*
X162733855Y-97298035D01*
X162733855Y-97298035D02*
X162733855Y-97107559D01*
X162733855Y-97107559D02*
X162771950Y-97031368D01*
X162771950Y-97031368D02*
X162810045Y-96993273D01*
X162810045Y-96993273D02*
X162886236Y-96955178D01*
X162886236Y-96955178D02*
X162962426Y-96955178D01*
X162962426Y-96955178D02*
X163076712Y-96993273D01*
X163076712Y-96993273D02*
X163533855Y-97450416D01*
X163533855Y-97450416D02*
X163533855Y-96955178D01*
X212160714Y-107363855D02*
X211894047Y-106982902D01*
X211703571Y-107363855D02*
X211703571Y-106563855D01*
X211703571Y-106563855D02*
X212008333Y-106563855D01*
X212008333Y-106563855D02*
X212084523Y-106601950D01*
X212084523Y-106601950D02*
X212122618Y-106640045D01*
X212122618Y-106640045D02*
X212160714Y-106716236D01*
X212160714Y-106716236D02*
X212160714Y-106830521D01*
X212160714Y-106830521D02*
X212122618Y-106906712D01*
X212122618Y-106906712D02*
X212084523Y-106944807D01*
X212084523Y-106944807D02*
X212008333Y-106982902D01*
X212008333Y-106982902D02*
X211703571Y-106982902D01*
X212427380Y-106563855D02*
X212922618Y-106563855D01*
X212922618Y-106563855D02*
X212655952Y-106868617D01*
X212655952Y-106868617D02*
X212770237Y-106868617D01*
X212770237Y-106868617D02*
X212846428Y-106906712D01*
X212846428Y-106906712D02*
X212884523Y-106944807D01*
X212884523Y-106944807D02*
X212922618Y-107020998D01*
X212922618Y-107020998D02*
X212922618Y-107211474D01*
X212922618Y-107211474D02*
X212884523Y-107287664D01*
X212884523Y-107287664D02*
X212846428Y-107325760D01*
X212846428Y-107325760D02*
X212770237Y-107363855D01*
X212770237Y-107363855D02*
X212541666Y-107363855D01*
X212541666Y-107363855D02*
X212465475Y-107325760D01*
X212465475Y-107325760D02*
X212427380Y-107287664D01*
X213227380Y-106640045D02*
X213265476Y-106601950D01*
X213265476Y-106601950D02*
X213341666Y-106563855D01*
X213341666Y-106563855D02*
X213532142Y-106563855D01*
X213532142Y-106563855D02*
X213608333Y-106601950D01*
X213608333Y-106601950D02*
X213646428Y-106640045D01*
X213646428Y-106640045D02*
X213684523Y-106716236D01*
X213684523Y-106716236D02*
X213684523Y-106792426D01*
X213684523Y-106792426D02*
X213646428Y-106906712D01*
X213646428Y-106906712D02*
X213189285Y-107363855D01*
X213189285Y-107363855D02*
X213684523Y-107363855D01*
X190382476Y-77657455D02*
X190382476Y-78305074D01*
X190382476Y-78305074D02*
X190420571Y-78381264D01*
X190420571Y-78381264D02*
X190458666Y-78419360D01*
X190458666Y-78419360D02*
X190534857Y-78457455D01*
X190534857Y-78457455D02*
X190687238Y-78457455D01*
X190687238Y-78457455D02*
X190763428Y-78419360D01*
X190763428Y-78419360D02*
X190801523Y-78381264D01*
X190801523Y-78381264D02*
X190839619Y-78305074D01*
X190839619Y-78305074D02*
X190839619Y-77657455D01*
X191334856Y-78000312D02*
X191258666Y-77962217D01*
X191258666Y-77962217D02*
X191220571Y-77924121D01*
X191220571Y-77924121D02*
X191182475Y-77847931D01*
X191182475Y-77847931D02*
X191182475Y-77809836D01*
X191182475Y-77809836D02*
X191220571Y-77733645D01*
X191220571Y-77733645D02*
X191258666Y-77695550D01*
X191258666Y-77695550D02*
X191334856Y-77657455D01*
X191334856Y-77657455D02*
X191487237Y-77657455D01*
X191487237Y-77657455D02*
X191563428Y-77695550D01*
X191563428Y-77695550D02*
X191601523Y-77733645D01*
X191601523Y-77733645D02*
X191639618Y-77809836D01*
X191639618Y-77809836D02*
X191639618Y-77847931D01*
X191639618Y-77847931D02*
X191601523Y-77924121D01*
X191601523Y-77924121D02*
X191563428Y-77962217D01*
X191563428Y-77962217D02*
X191487237Y-78000312D01*
X191487237Y-78000312D02*
X191334856Y-78000312D01*
X191334856Y-78000312D02*
X191258666Y-78038407D01*
X191258666Y-78038407D02*
X191220571Y-78076502D01*
X191220571Y-78076502D02*
X191182475Y-78152693D01*
X191182475Y-78152693D02*
X191182475Y-78305074D01*
X191182475Y-78305074D02*
X191220571Y-78381264D01*
X191220571Y-78381264D02*
X191258666Y-78419360D01*
X191258666Y-78419360D02*
X191334856Y-78457455D01*
X191334856Y-78457455D02*
X191487237Y-78457455D01*
X191487237Y-78457455D02*
X191563428Y-78419360D01*
X191563428Y-78419360D02*
X191601523Y-78381264D01*
X191601523Y-78381264D02*
X191639618Y-78305074D01*
X191639618Y-78305074D02*
X191639618Y-78152693D01*
X191639618Y-78152693D02*
X191601523Y-78076502D01*
X191601523Y-78076502D02*
X191563428Y-78038407D01*
X191563428Y-78038407D02*
X191487237Y-78000312D01*
X168863855Y-101333332D02*
X168482902Y-101599999D01*
X168863855Y-101790475D02*
X168063855Y-101790475D01*
X168063855Y-101790475D02*
X168063855Y-101485713D01*
X168063855Y-101485713D02*
X168101950Y-101409523D01*
X168101950Y-101409523D02*
X168140045Y-101371428D01*
X168140045Y-101371428D02*
X168216236Y-101333332D01*
X168216236Y-101333332D02*
X168330521Y-101333332D01*
X168330521Y-101333332D02*
X168406712Y-101371428D01*
X168406712Y-101371428D02*
X168444807Y-101409523D01*
X168444807Y-101409523D02*
X168482902Y-101485713D01*
X168482902Y-101485713D02*
X168482902Y-101790475D01*
X168063855Y-100609523D02*
X168063855Y-100990475D01*
X168063855Y-100990475D02*
X168444807Y-101028571D01*
X168444807Y-101028571D02*
X168406712Y-100990475D01*
X168406712Y-100990475D02*
X168368617Y-100914285D01*
X168368617Y-100914285D02*
X168368617Y-100723809D01*
X168368617Y-100723809D02*
X168406712Y-100647618D01*
X168406712Y-100647618D02*
X168444807Y-100609523D01*
X168444807Y-100609523D02*
X168520998Y-100571428D01*
X168520998Y-100571428D02*
X168711474Y-100571428D01*
X168711474Y-100571428D02*
X168787664Y-100609523D01*
X168787664Y-100609523D02*
X168825760Y-100647618D01*
X168825760Y-100647618D02*
X168863855Y-100723809D01*
X168863855Y-100723809D02*
X168863855Y-100914285D01*
X168863855Y-100914285D02*
X168825760Y-100990475D01*
X168825760Y-100990475D02*
X168787664Y-101028571D01*
X193633333Y-106483855D02*
X193633333Y-107055283D01*
X193633333Y-107055283D02*
X193595238Y-107169569D01*
X193595238Y-107169569D02*
X193519047Y-107245760D01*
X193519047Y-107245760D02*
X193404762Y-107283855D01*
X193404762Y-107283855D02*
X193328571Y-107283855D01*
X194433333Y-107283855D02*
X193976190Y-107283855D01*
X194204762Y-107283855D02*
X194204762Y-106483855D01*
X194204762Y-106483855D02*
X194128571Y-106598140D01*
X194128571Y-106598140D02*
X194052381Y-106674331D01*
X194052381Y-106674331D02*
X193976190Y-106712426D01*
X176975714Y-78397664D02*
X176937618Y-78435760D01*
X176937618Y-78435760D02*
X176823333Y-78473855D01*
X176823333Y-78473855D02*
X176747142Y-78473855D01*
X176747142Y-78473855D02*
X176632856Y-78435760D01*
X176632856Y-78435760D02*
X176556666Y-78359569D01*
X176556666Y-78359569D02*
X176518571Y-78283379D01*
X176518571Y-78283379D02*
X176480475Y-78130998D01*
X176480475Y-78130998D02*
X176480475Y-78016712D01*
X176480475Y-78016712D02*
X176518571Y-77864331D01*
X176518571Y-77864331D02*
X176556666Y-77788140D01*
X176556666Y-77788140D02*
X176632856Y-77711950D01*
X176632856Y-77711950D02*
X176747142Y-77673855D01*
X176747142Y-77673855D02*
X176823333Y-77673855D01*
X176823333Y-77673855D02*
X176937618Y-77711950D01*
X176937618Y-77711950D02*
X176975714Y-77750045D01*
X177737618Y-78473855D02*
X177280475Y-78473855D01*
X177509047Y-78473855D02*
X177509047Y-77673855D01*
X177509047Y-77673855D02*
X177432856Y-77788140D01*
X177432856Y-77788140D02*
X177356666Y-77864331D01*
X177356666Y-77864331D02*
X177280475Y-77902426D01*
X178118571Y-78473855D02*
X178270952Y-78473855D01*
X178270952Y-78473855D02*
X178347142Y-78435760D01*
X178347142Y-78435760D02*
X178385238Y-78397664D01*
X178385238Y-78397664D02*
X178461428Y-78283379D01*
X178461428Y-78283379D02*
X178499523Y-78130998D01*
X178499523Y-78130998D02*
X178499523Y-77826236D01*
X178499523Y-77826236D02*
X178461428Y-77750045D01*
X178461428Y-77750045D02*
X178423333Y-77711950D01*
X178423333Y-77711950D02*
X178347142Y-77673855D01*
X178347142Y-77673855D02*
X178194761Y-77673855D01*
X178194761Y-77673855D02*
X178118571Y-77711950D01*
X178118571Y-77711950D02*
X178080476Y-77750045D01*
X178080476Y-77750045D02*
X178042380Y-77826236D01*
X178042380Y-77826236D02*
X178042380Y-78016712D01*
X178042380Y-78016712D02*
X178080476Y-78092902D01*
X178080476Y-78092902D02*
X178118571Y-78130998D01*
X178118571Y-78130998D02*
X178194761Y-78169093D01*
X178194761Y-78169093D02*
X178347142Y-78169093D01*
X178347142Y-78169093D02*
X178423333Y-78130998D01*
X178423333Y-78130998D02*
X178461428Y-78092902D01*
X178461428Y-78092902D02*
X178499523Y-78016712D01*
X164762664Y-90583332D02*
X164800760Y-90621428D01*
X164800760Y-90621428D02*
X164838855Y-90735713D01*
X164838855Y-90735713D02*
X164838855Y-90811904D01*
X164838855Y-90811904D02*
X164800760Y-90926190D01*
X164800760Y-90926190D02*
X164724569Y-91002380D01*
X164724569Y-91002380D02*
X164648379Y-91040475D01*
X164648379Y-91040475D02*
X164495998Y-91078571D01*
X164495998Y-91078571D02*
X164381712Y-91078571D01*
X164381712Y-91078571D02*
X164229331Y-91040475D01*
X164229331Y-91040475D02*
X164153140Y-91002380D01*
X164153140Y-91002380D02*
X164076950Y-90926190D01*
X164076950Y-90926190D02*
X164038855Y-90811904D01*
X164038855Y-90811904D02*
X164038855Y-90735713D01*
X164038855Y-90735713D02*
X164076950Y-90621428D01*
X164076950Y-90621428D02*
X164115045Y-90583332D01*
X164838855Y-90202380D02*
X164838855Y-90049999D01*
X164838855Y-90049999D02*
X164800760Y-89973809D01*
X164800760Y-89973809D02*
X164762664Y-89935713D01*
X164762664Y-89935713D02*
X164648379Y-89859523D01*
X164648379Y-89859523D02*
X164495998Y-89821428D01*
X164495998Y-89821428D02*
X164191236Y-89821428D01*
X164191236Y-89821428D02*
X164115045Y-89859523D01*
X164115045Y-89859523D02*
X164076950Y-89897618D01*
X164076950Y-89897618D02*
X164038855Y-89973809D01*
X164038855Y-89973809D02*
X164038855Y-90126190D01*
X164038855Y-90126190D02*
X164076950Y-90202380D01*
X164076950Y-90202380D02*
X164115045Y-90240475D01*
X164115045Y-90240475D02*
X164191236Y-90278571D01*
X164191236Y-90278571D02*
X164381712Y-90278571D01*
X164381712Y-90278571D02*
X164457902Y-90240475D01*
X164457902Y-90240475D02*
X164495998Y-90202380D01*
X164495998Y-90202380D02*
X164534093Y-90126190D01*
X164534093Y-90126190D02*
X164534093Y-89973809D01*
X164534093Y-89973809D02*
X164495998Y-89897618D01*
X164495998Y-89897618D02*
X164457902Y-89859523D01*
X164457902Y-89859523D02*
X164381712Y-89821428D01*
X206190476Y-73115855D02*
X206647619Y-73115855D01*
X206419047Y-73915855D02*
X206419047Y-73115855D01*
X206914286Y-73915855D02*
X206914286Y-73115855D01*
X206914286Y-73115855D02*
X207219048Y-73115855D01*
X207219048Y-73115855D02*
X207295238Y-73153950D01*
X207295238Y-73153950D02*
X207333333Y-73192045D01*
X207333333Y-73192045D02*
X207371429Y-73268236D01*
X207371429Y-73268236D02*
X207371429Y-73382521D01*
X207371429Y-73382521D02*
X207333333Y-73458712D01*
X207333333Y-73458712D02*
X207295238Y-73496807D01*
X207295238Y-73496807D02*
X207219048Y-73534902D01*
X207219048Y-73534902D02*
X206914286Y-73534902D01*
X208095238Y-73115855D02*
X207714286Y-73115855D01*
X207714286Y-73115855D02*
X207676190Y-73496807D01*
X207676190Y-73496807D02*
X207714286Y-73458712D01*
X207714286Y-73458712D02*
X207790476Y-73420617D01*
X207790476Y-73420617D02*
X207980952Y-73420617D01*
X207980952Y-73420617D02*
X208057143Y-73458712D01*
X208057143Y-73458712D02*
X208095238Y-73496807D01*
X208095238Y-73496807D02*
X208133333Y-73572998D01*
X208133333Y-73572998D02*
X208133333Y-73763474D01*
X208133333Y-73763474D02*
X208095238Y-73839664D01*
X208095238Y-73839664D02*
X208057143Y-73877760D01*
X208057143Y-73877760D02*
X207980952Y-73915855D01*
X207980952Y-73915855D02*
X207790476Y-73915855D01*
X207790476Y-73915855D02*
X207714286Y-73877760D01*
X207714286Y-73877760D02*
X207676190Y-73839664D01*
X244483333Y-90513855D02*
X244483333Y-91085283D01*
X244483333Y-91085283D02*
X244445238Y-91199569D01*
X244445238Y-91199569D02*
X244369047Y-91275760D01*
X244369047Y-91275760D02*
X244254762Y-91313855D01*
X244254762Y-91313855D02*
X244178571Y-91313855D01*
X244788095Y-90513855D02*
X245283333Y-90513855D01*
X245283333Y-90513855D02*
X245016667Y-90818617D01*
X245016667Y-90818617D02*
X245130952Y-90818617D01*
X245130952Y-90818617D02*
X245207143Y-90856712D01*
X245207143Y-90856712D02*
X245245238Y-90894807D01*
X245245238Y-90894807D02*
X245283333Y-90970998D01*
X245283333Y-90970998D02*
X245283333Y-91161474D01*
X245283333Y-91161474D02*
X245245238Y-91237664D01*
X245245238Y-91237664D02*
X245207143Y-91275760D01*
X245207143Y-91275760D02*
X245130952Y-91313855D01*
X245130952Y-91313855D02*
X244902381Y-91313855D01*
X244902381Y-91313855D02*
X244826190Y-91275760D01*
X244826190Y-91275760D02*
X244788095Y-91237664D01*
X221113855Y-81014285D02*
X220732902Y-81280952D01*
X221113855Y-81471428D02*
X220313855Y-81471428D01*
X220313855Y-81471428D02*
X220313855Y-81166666D01*
X220313855Y-81166666D02*
X220351950Y-81090476D01*
X220351950Y-81090476D02*
X220390045Y-81052381D01*
X220390045Y-81052381D02*
X220466236Y-81014285D01*
X220466236Y-81014285D02*
X220580521Y-81014285D01*
X220580521Y-81014285D02*
X220656712Y-81052381D01*
X220656712Y-81052381D02*
X220694807Y-81090476D01*
X220694807Y-81090476D02*
X220732902Y-81166666D01*
X220732902Y-81166666D02*
X220732902Y-81471428D01*
X221113855Y-80252381D02*
X221113855Y-80709524D01*
X221113855Y-80480952D02*
X220313855Y-80480952D01*
X220313855Y-80480952D02*
X220428140Y-80557143D01*
X220428140Y-80557143D02*
X220504331Y-80633333D01*
X220504331Y-80633333D02*
X220542426Y-80709524D01*
X220313855Y-79985714D02*
X220313855Y-79452380D01*
X220313855Y-79452380D02*
X221113855Y-79795238D01*
X190495714Y-82937664D02*
X190457618Y-82975760D01*
X190457618Y-82975760D02*
X190343333Y-83013855D01*
X190343333Y-83013855D02*
X190267142Y-83013855D01*
X190267142Y-83013855D02*
X190152856Y-82975760D01*
X190152856Y-82975760D02*
X190076666Y-82899569D01*
X190076666Y-82899569D02*
X190038571Y-82823379D01*
X190038571Y-82823379D02*
X190000475Y-82670998D01*
X190000475Y-82670998D02*
X190000475Y-82556712D01*
X190000475Y-82556712D02*
X190038571Y-82404331D01*
X190038571Y-82404331D02*
X190076666Y-82328140D01*
X190076666Y-82328140D02*
X190152856Y-82251950D01*
X190152856Y-82251950D02*
X190267142Y-82213855D01*
X190267142Y-82213855D02*
X190343333Y-82213855D01*
X190343333Y-82213855D02*
X190457618Y-82251950D01*
X190457618Y-82251950D02*
X190495714Y-82290045D01*
X191257618Y-83013855D02*
X190800475Y-83013855D01*
X191029047Y-83013855D02*
X191029047Y-82213855D01*
X191029047Y-82213855D02*
X190952856Y-82328140D01*
X190952856Y-82328140D02*
X190876666Y-82404331D01*
X190876666Y-82404331D02*
X190800475Y-82442426D01*
X191714761Y-82556712D02*
X191638571Y-82518617D01*
X191638571Y-82518617D02*
X191600476Y-82480521D01*
X191600476Y-82480521D02*
X191562380Y-82404331D01*
X191562380Y-82404331D02*
X191562380Y-82366236D01*
X191562380Y-82366236D02*
X191600476Y-82290045D01*
X191600476Y-82290045D02*
X191638571Y-82251950D01*
X191638571Y-82251950D02*
X191714761Y-82213855D01*
X191714761Y-82213855D02*
X191867142Y-82213855D01*
X191867142Y-82213855D02*
X191943333Y-82251950D01*
X191943333Y-82251950D02*
X191981428Y-82290045D01*
X191981428Y-82290045D02*
X192019523Y-82366236D01*
X192019523Y-82366236D02*
X192019523Y-82404331D01*
X192019523Y-82404331D02*
X191981428Y-82480521D01*
X191981428Y-82480521D02*
X191943333Y-82518617D01*
X191943333Y-82518617D02*
X191867142Y-82556712D01*
X191867142Y-82556712D02*
X191714761Y-82556712D01*
X191714761Y-82556712D02*
X191638571Y-82594807D01*
X191638571Y-82594807D02*
X191600476Y-82632902D01*
X191600476Y-82632902D02*
X191562380Y-82709093D01*
X191562380Y-82709093D02*
X191562380Y-82861474D01*
X191562380Y-82861474D02*
X191600476Y-82937664D01*
X191600476Y-82937664D02*
X191638571Y-82975760D01*
X191638571Y-82975760D02*
X191714761Y-83013855D01*
X191714761Y-83013855D02*
X191867142Y-83013855D01*
X191867142Y-83013855D02*
X191943333Y-82975760D01*
X191943333Y-82975760D02*
X191981428Y-82937664D01*
X191981428Y-82937664D02*
X192019523Y-82861474D01*
X192019523Y-82861474D02*
X192019523Y-82709093D01*
X192019523Y-82709093D02*
X191981428Y-82632902D01*
X191981428Y-82632902D02*
X191943333Y-82594807D01*
X191943333Y-82594807D02*
X191867142Y-82556712D01*
X182386667Y-100927664D02*
X182348571Y-100965760D01*
X182348571Y-100965760D02*
X182234286Y-101003855D01*
X182234286Y-101003855D02*
X182158095Y-101003855D01*
X182158095Y-101003855D02*
X182043809Y-100965760D01*
X182043809Y-100965760D02*
X181967619Y-100889569D01*
X181967619Y-100889569D02*
X181929524Y-100813379D01*
X181929524Y-100813379D02*
X181891428Y-100660998D01*
X181891428Y-100660998D02*
X181891428Y-100546712D01*
X181891428Y-100546712D02*
X181929524Y-100394331D01*
X181929524Y-100394331D02*
X181967619Y-100318140D01*
X181967619Y-100318140D02*
X182043809Y-100241950D01*
X182043809Y-100241950D02*
X182158095Y-100203855D01*
X182158095Y-100203855D02*
X182234286Y-100203855D01*
X182234286Y-100203855D02*
X182348571Y-100241950D01*
X182348571Y-100241950D02*
X182386667Y-100280045D01*
X183072381Y-100203855D02*
X182920000Y-100203855D01*
X182920000Y-100203855D02*
X182843809Y-100241950D01*
X182843809Y-100241950D02*
X182805714Y-100280045D01*
X182805714Y-100280045D02*
X182729524Y-100394331D01*
X182729524Y-100394331D02*
X182691428Y-100546712D01*
X182691428Y-100546712D02*
X182691428Y-100851474D01*
X182691428Y-100851474D02*
X182729524Y-100927664D01*
X182729524Y-100927664D02*
X182767619Y-100965760D01*
X182767619Y-100965760D02*
X182843809Y-101003855D01*
X182843809Y-101003855D02*
X182996190Y-101003855D01*
X182996190Y-101003855D02*
X183072381Y-100965760D01*
X183072381Y-100965760D02*
X183110476Y-100927664D01*
X183110476Y-100927664D02*
X183148571Y-100851474D01*
X183148571Y-100851474D02*
X183148571Y-100660998D01*
X183148571Y-100660998D02*
X183110476Y-100584807D01*
X183110476Y-100584807D02*
X183072381Y-100546712D01*
X183072381Y-100546712D02*
X182996190Y-100508617D01*
X182996190Y-100508617D02*
X182843809Y-100508617D01*
X182843809Y-100508617D02*
X182767619Y-100546712D01*
X182767619Y-100546712D02*
X182729524Y-100584807D01*
X182729524Y-100584807D02*
X182691428Y-100660998D01*
X212723214Y-86413855D02*
X212456547Y-86032902D01*
X212266071Y-86413855D02*
X212266071Y-85613855D01*
X212266071Y-85613855D02*
X212570833Y-85613855D01*
X212570833Y-85613855D02*
X212647023Y-85651950D01*
X212647023Y-85651950D02*
X212685118Y-85690045D01*
X212685118Y-85690045D02*
X212723214Y-85766236D01*
X212723214Y-85766236D02*
X212723214Y-85880521D01*
X212723214Y-85880521D02*
X212685118Y-85956712D01*
X212685118Y-85956712D02*
X212647023Y-85994807D01*
X212647023Y-85994807D02*
X212570833Y-86032902D01*
X212570833Y-86032902D02*
X212266071Y-86032902D01*
X213485118Y-86413855D02*
X213027975Y-86413855D01*
X213256547Y-86413855D02*
X213256547Y-85613855D01*
X213256547Y-85613855D02*
X213180356Y-85728140D01*
X213180356Y-85728140D02*
X213104166Y-85804331D01*
X213104166Y-85804331D02*
X213027975Y-85842426D01*
X213866071Y-86413855D02*
X214018452Y-86413855D01*
X214018452Y-86413855D02*
X214094642Y-86375760D01*
X214094642Y-86375760D02*
X214132738Y-86337664D01*
X214132738Y-86337664D02*
X214208928Y-86223379D01*
X214208928Y-86223379D02*
X214247023Y-86070998D01*
X214247023Y-86070998D02*
X214247023Y-85766236D01*
X214247023Y-85766236D02*
X214208928Y-85690045D01*
X214208928Y-85690045D02*
X214170833Y-85651950D01*
X214170833Y-85651950D02*
X214094642Y-85613855D01*
X214094642Y-85613855D02*
X213942261Y-85613855D01*
X213942261Y-85613855D02*
X213866071Y-85651950D01*
X213866071Y-85651950D02*
X213827976Y-85690045D01*
X213827976Y-85690045D02*
X213789880Y-85766236D01*
X213789880Y-85766236D02*
X213789880Y-85956712D01*
X213789880Y-85956712D02*
X213827976Y-86032902D01*
X213827976Y-86032902D02*
X213866071Y-86070998D01*
X213866071Y-86070998D02*
X213942261Y-86109093D01*
X213942261Y-86109093D02*
X214094642Y-86109093D01*
X214094642Y-86109093D02*
X214170833Y-86070998D01*
X214170833Y-86070998D02*
X214208928Y-86032902D01*
X214208928Y-86032902D02*
X214247023Y-85956712D01*
X217787664Y-70383332D02*
X217825760Y-70421428D01*
X217825760Y-70421428D02*
X217863855Y-70535713D01*
X217863855Y-70535713D02*
X217863855Y-70611904D01*
X217863855Y-70611904D02*
X217825760Y-70726190D01*
X217825760Y-70726190D02*
X217749569Y-70802380D01*
X217749569Y-70802380D02*
X217673379Y-70840475D01*
X217673379Y-70840475D02*
X217520998Y-70878571D01*
X217520998Y-70878571D02*
X217406712Y-70878571D01*
X217406712Y-70878571D02*
X217254331Y-70840475D01*
X217254331Y-70840475D02*
X217178140Y-70802380D01*
X217178140Y-70802380D02*
X217101950Y-70726190D01*
X217101950Y-70726190D02*
X217063855Y-70611904D01*
X217063855Y-70611904D02*
X217063855Y-70535713D01*
X217063855Y-70535713D02*
X217101950Y-70421428D01*
X217101950Y-70421428D02*
X217140045Y-70383332D01*
X217063855Y-70116666D02*
X217063855Y-69583332D01*
X217063855Y-69583332D02*
X217863855Y-69926190D01*
X187430476Y-92993855D02*
X187430476Y-93641474D01*
X187430476Y-93641474D02*
X187468571Y-93717664D01*
X187468571Y-93717664D02*
X187506666Y-93755760D01*
X187506666Y-93755760D02*
X187582857Y-93793855D01*
X187582857Y-93793855D02*
X187735238Y-93793855D01*
X187735238Y-93793855D02*
X187811428Y-93755760D01*
X187811428Y-93755760D02*
X187849523Y-93717664D01*
X187849523Y-93717664D02*
X187887619Y-93641474D01*
X187887619Y-93641474D02*
X187887619Y-92993855D01*
X188611428Y-93260521D02*
X188611428Y-93793855D01*
X188420952Y-92955760D02*
X188230475Y-93527188D01*
X188230475Y-93527188D02*
X188725714Y-93527188D01*
X172666667Y-92137664D02*
X172628571Y-92175760D01*
X172628571Y-92175760D02*
X172514286Y-92213855D01*
X172514286Y-92213855D02*
X172438095Y-92213855D01*
X172438095Y-92213855D02*
X172323809Y-92175760D01*
X172323809Y-92175760D02*
X172247619Y-92099569D01*
X172247619Y-92099569D02*
X172209524Y-92023379D01*
X172209524Y-92023379D02*
X172171428Y-91870998D01*
X172171428Y-91870998D02*
X172171428Y-91756712D01*
X172171428Y-91756712D02*
X172209524Y-91604331D01*
X172209524Y-91604331D02*
X172247619Y-91528140D01*
X172247619Y-91528140D02*
X172323809Y-91451950D01*
X172323809Y-91451950D02*
X172438095Y-91413855D01*
X172438095Y-91413855D02*
X172514286Y-91413855D01*
X172514286Y-91413855D02*
X172628571Y-91451950D01*
X172628571Y-91451950D02*
X172666667Y-91490045D01*
X172933333Y-91413855D02*
X173428571Y-91413855D01*
X173428571Y-91413855D02*
X173161905Y-91718617D01*
X173161905Y-91718617D02*
X173276190Y-91718617D01*
X173276190Y-91718617D02*
X173352381Y-91756712D01*
X173352381Y-91756712D02*
X173390476Y-91794807D01*
X173390476Y-91794807D02*
X173428571Y-91870998D01*
X173428571Y-91870998D02*
X173428571Y-92061474D01*
X173428571Y-92061474D02*
X173390476Y-92137664D01*
X173390476Y-92137664D02*
X173352381Y-92175760D01*
X173352381Y-92175760D02*
X173276190Y-92213855D01*
X173276190Y-92213855D02*
X173047619Y-92213855D01*
X173047619Y-92213855D02*
X172971428Y-92175760D01*
X172971428Y-92175760D02*
X172933333Y-92137664D01*
X204335714Y-65913855D02*
X204069047Y-65532902D01*
X203878571Y-65913855D02*
X203878571Y-65113855D01*
X203878571Y-65113855D02*
X204183333Y-65113855D01*
X204183333Y-65113855D02*
X204259523Y-65151950D01*
X204259523Y-65151950D02*
X204297618Y-65190045D01*
X204297618Y-65190045D02*
X204335714Y-65266236D01*
X204335714Y-65266236D02*
X204335714Y-65380521D01*
X204335714Y-65380521D02*
X204297618Y-65456712D01*
X204297618Y-65456712D02*
X204259523Y-65494807D01*
X204259523Y-65494807D02*
X204183333Y-65532902D01*
X204183333Y-65532902D02*
X203878571Y-65532902D01*
X204640475Y-65190045D02*
X204678571Y-65151950D01*
X204678571Y-65151950D02*
X204754761Y-65113855D01*
X204754761Y-65113855D02*
X204945237Y-65113855D01*
X204945237Y-65113855D02*
X205021428Y-65151950D01*
X205021428Y-65151950D02*
X205059523Y-65190045D01*
X205059523Y-65190045D02*
X205097618Y-65266236D01*
X205097618Y-65266236D02*
X205097618Y-65342426D01*
X205097618Y-65342426D02*
X205059523Y-65456712D01*
X205059523Y-65456712D02*
X204602380Y-65913855D01*
X204602380Y-65913855D02*
X205097618Y-65913855D01*
X205478571Y-65913855D02*
X205630952Y-65913855D01*
X205630952Y-65913855D02*
X205707142Y-65875760D01*
X205707142Y-65875760D02*
X205745238Y-65837664D01*
X205745238Y-65837664D02*
X205821428Y-65723379D01*
X205821428Y-65723379D02*
X205859523Y-65570998D01*
X205859523Y-65570998D02*
X205859523Y-65266236D01*
X205859523Y-65266236D02*
X205821428Y-65190045D01*
X205821428Y-65190045D02*
X205783333Y-65151950D01*
X205783333Y-65151950D02*
X205707142Y-65113855D01*
X205707142Y-65113855D02*
X205554761Y-65113855D01*
X205554761Y-65113855D02*
X205478571Y-65151950D01*
X205478571Y-65151950D02*
X205440476Y-65190045D01*
X205440476Y-65190045D02*
X205402380Y-65266236D01*
X205402380Y-65266236D02*
X205402380Y-65456712D01*
X205402380Y-65456712D02*
X205440476Y-65532902D01*
X205440476Y-65532902D02*
X205478571Y-65570998D01*
X205478571Y-65570998D02*
X205554761Y-65609093D01*
X205554761Y-65609093D02*
X205707142Y-65609093D01*
X205707142Y-65609093D02*
X205783333Y-65570998D01*
X205783333Y-65570998D02*
X205821428Y-65532902D01*
X205821428Y-65532902D02*
X205859523Y-65456712D01*
X177363855Y-91014285D02*
X176982902Y-91280952D01*
X177363855Y-91471428D02*
X176563855Y-91471428D01*
X176563855Y-91471428D02*
X176563855Y-91166666D01*
X176563855Y-91166666D02*
X176601950Y-91090476D01*
X176601950Y-91090476D02*
X176640045Y-91052381D01*
X176640045Y-91052381D02*
X176716236Y-91014285D01*
X176716236Y-91014285D02*
X176830521Y-91014285D01*
X176830521Y-91014285D02*
X176906712Y-91052381D01*
X176906712Y-91052381D02*
X176944807Y-91090476D01*
X176944807Y-91090476D02*
X176982902Y-91166666D01*
X176982902Y-91166666D02*
X176982902Y-91471428D01*
X177363855Y-90252381D02*
X177363855Y-90709524D01*
X177363855Y-90480952D02*
X176563855Y-90480952D01*
X176563855Y-90480952D02*
X176678140Y-90557143D01*
X176678140Y-90557143D02*
X176754331Y-90633333D01*
X176754331Y-90633333D02*
X176792426Y-90709524D01*
X176640045Y-89947619D02*
X176601950Y-89909523D01*
X176601950Y-89909523D02*
X176563855Y-89833333D01*
X176563855Y-89833333D02*
X176563855Y-89642857D01*
X176563855Y-89642857D02*
X176601950Y-89566666D01*
X176601950Y-89566666D02*
X176640045Y-89528571D01*
X176640045Y-89528571D02*
X176716236Y-89490476D01*
X176716236Y-89490476D02*
X176792426Y-89490476D01*
X176792426Y-89490476D02*
X176906712Y-89528571D01*
X176906712Y-89528571D02*
X177363855Y-89985714D01*
X177363855Y-89985714D02*
X177363855Y-89490476D01*
X173653855Y-101313332D02*
X173272902Y-101579999D01*
X173653855Y-101770475D02*
X172853855Y-101770475D01*
X172853855Y-101770475D02*
X172853855Y-101465713D01*
X172853855Y-101465713D02*
X172891950Y-101389523D01*
X172891950Y-101389523D02*
X172930045Y-101351428D01*
X172930045Y-101351428D02*
X173006236Y-101313332D01*
X173006236Y-101313332D02*
X173120521Y-101313332D01*
X173120521Y-101313332D02*
X173196712Y-101351428D01*
X173196712Y-101351428D02*
X173234807Y-101389523D01*
X173234807Y-101389523D02*
X173272902Y-101465713D01*
X173272902Y-101465713D02*
X173272902Y-101770475D01*
X172853855Y-101046666D02*
X172853855Y-100551428D01*
X172853855Y-100551428D02*
X173158617Y-100818094D01*
X173158617Y-100818094D02*
X173158617Y-100703809D01*
X173158617Y-100703809D02*
X173196712Y-100627618D01*
X173196712Y-100627618D02*
X173234807Y-100589523D01*
X173234807Y-100589523D02*
X173310998Y-100551428D01*
X173310998Y-100551428D02*
X173501474Y-100551428D01*
X173501474Y-100551428D02*
X173577664Y-100589523D01*
X173577664Y-100589523D02*
X173615760Y-100627618D01*
X173615760Y-100627618D02*
X173653855Y-100703809D01*
X173653855Y-100703809D02*
X173653855Y-100932380D01*
X173653855Y-100932380D02*
X173615760Y-101008571D01*
X173615760Y-101008571D02*
X173577664Y-101046666D01*
X177113333Y-62603855D02*
X177113333Y-63175283D01*
X177113333Y-63175283D02*
X177075238Y-63289569D01*
X177075238Y-63289569D02*
X176999047Y-63365760D01*
X176999047Y-63365760D02*
X176884762Y-63403855D01*
X176884762Y-63403855D02*
X176808571Y-63403855D01*
X177875238Y-62603855D02*
X177494286Y-62603855D01*
X177494286Y-62603855D02*
X177456190Y-62984807D01*
X177456190Y-62984807D02*
X177494286Y-62946712D01*
X177494286Y-62946712D02*
X177570476Y-62908617D01*
X177570476Y-62908617D02*
X177760952Y-62908617D01*
X177760952Y-62908617D02*
X177837143Y-62946712D01*
X177837143Y-62946712D02*
X177875238Y-62984807D01*
X177875238Y-62984807D02*
X177913333Y-63060998D01*
X177913333Y-63060998D02*
X177913333Y-63251474D01*
X177913333Y-63251474D02*
X177875238Y-63327664D01*
X177875238Y-63327664D02*
X177837143Y-63365760D01*
X177837143Y-63365760D02*
X177760952Y-63403855D01*
X177760952Y-63403855D02*
X177570476Y-63403855D01*
X177570476Y-63403855D02*
X177494286Y-63365760D01*
X177494286Y-63365760D02*
X177456190Y-63327664D01*
X161837664Y-91414285D02*
X161875760Y-91452381D01*
X161875760Y-91452381D02*
X161913855Y-91566666D01*
X161913855Y-91566666D02*
X161913855Y-91642857D01*
X161913855Y-91642857D02*
X161875760Y-91757143D01*
X161875760Y-91757143D02*
X161799569Y-91833333D01*
X161799569Y-91833333D02*
X161723379Y-91871428D01*
X161723379Y-91871428D02*
X161570998Y-91909524D01*
X161570998Y-91909524D02*
X161456712Y-91909524D01*
X161456712Y-91909524D02*
X161304331Y-91871428D01*
X161304331Y-91871428D02*
X161228140Y-91833333D01*
X161228140Y-91833333D02*
X161151950Y-91757143D01*
X161151950Y-91757143D02*
X161113855Y-91642857D01*
X161113855Y-91642857D02*
X161113855Y-91566666D01*
X161113855Y-91566666D02*
X161151950Y-91452381D01*
X161151950Y-91452381D02*
X161190045Y-91414285D01*
X161913855Y-90652381D02*
X161913855Y-91109524D01*
X161913855Y-90880952D02*
X161113855Y-90880952D01*
X161113855Y-90880952D02*
X161228140Y-90957143D01*
X161228140Y-90957143D02*
X161304331Y-91033333D01*
X161304331Y-91033333D02*
X161342426Y-91109524D01*
X161113855Y-90157142D02*
X161113855Y-90080952D01*
X161113855Y-90080952D02*
X161151950Y-90004761D01*
X161151950Y-90004761D02*
X161190045Y-89966666D01*
X161190045Y-89966666D02*
X161266236Y-89928571D01*
X161266236Y-89928571D02*
X161418617Y-89890476D01*
X161418617Y-89890476D02*
X161609093Y-89890476D01*
X161609093Y-89890476D02*
X161761474Y-89928571D01*
X161761474Y-89928571D02*
X161837664Y-89966666D01*
X161837664Y-89966666D02*
X161875760Y-90004761D01*
X161875760Y-90004761D02*
X161913855Y-90080952D01*
X161913855Y-90080952D02*
X161913855Y-90157142D01*
X161913855Y-90157142D02*
X161875760Y-90233333D01*
X161875760Y-90233333D02*
X161837664Y-90271428D01*
X161837664Y-90271428D02*
X161761474Y-90309523D01*
X161761474Y-90309523D02*
X161609093Y-90347619D01*
X161609093Y-90347619D02*
X161418617Y-90347619D01*
X161418617Y-90347619D02*
X161266236Y-90309523D01*
X161266236Y-90309523D02*
X161190045Y-90271428D01*
X161190045Y-90271428D02*
X161151950Y-90233333D01*
X161151950Y-90233333D02*
X161113855Y-90157142D01*
X175793855Y-101473332D02*
X175412902Y-101739999D01*
X175793855Y-101930475D02*
X174993855Y-101930475D01*
X174993855Y-101930475D02*
X174993855Y-101625713D01*
X174993855Y-101625713D02*
X175031950Y-101549523D01*
X175031950Y-101549523D02*
X175070045Y-101511428D01*
X175070045Y-101511428D02*
X175146236Y-101473332D01*
X175146236Y-101473332D02*
X175260521Y-101473332D01*
X175260521Y-101473332D02*
X175336712Y-101511428D01*
X175336712Y-101511428D02*
X175374807Y-101549523D01*
X175374807Y-101549523D02*
X175412902Y-101625713D01*
X175412902Y-101625713D02*
X175412902Y-101930475D01*
X175260521Y-100787618D02*
X175793855Y-100787618D01*
X174955760Y-100978094D02*
X175527188Y-101168571D01*
X175527188Y-101168571D02*
X175527188Y-100673332D01*
X212435714Y-110037664D02*
X212397618Y-110075760D01*
X212397618Y-110075760D02*
X212283333Y-110113855D01*
X212283333Y-110113855D02*
X212207142Y-110113855D01*
X212207142Y-110113855D02*
X212092856Y-110075760D01*
X212092856Y-110075760D02*
X212016666Y-109999569D01*
X212016666Y-109999569D02*
X211978571Y-109923379D01*
X211978571Y-109923379D02*
X211940475Y-109770998D01*
X211940475Y-109770998D02*
X211940475Y-109656712D01*
X211940475Y-109656712D02*
X211978571Y-109504331D01*
X211978571Y-109504331D02*
X212016666Y-109428140D01*
X212016666Y-109428140D02*
X212092856Y-109351950D01*
X212092856Y-109351950D02*
X212207142Y-109313855D01*
X212207142Y-109313855D02*
X212283333Y-109313855D01*
X212283333Y-109313855D02*
X212397618Y-109351950D01*
X212397618Y-109351950D02*
X212435714Y-109390045D01*
X212740475Y-109390045D02*
X212778571Y-109351950D01*
X212778571Y-109351950D02*
X212854761Y-109313855D01*
X212854761Y-109313855D02*
X213045237Y-109313855D01*
X213045237Y-109313855D02*
X213121428Y-109351950D01*
X213121428Y-109351950D02*
X213159523Y-109390045D01*
X213159523Y-109390045D02*
X213197618Y-109466236D01*
X213197618Y-109466236D02*
X213197618Y-109542426D01*
X213197618Y-109542426D02*
X213159523Y-109656712D01*
X213159523Y-109656712D02*
X212702380Y-110113855D01*
X212702380Y-110113855D02*
X213197618Y-110113855D01*
X213959523Y-110113855D02*
X213502380Y-110113855D01*
X213730952Y-110113855D02*
X213730952Y-109313855D01*
X213730952Y-109313855D02*
X213654761Y-109428140D01*
X213654761Y-109428140D02*
X213578571Y-109504331D01*
X213578571Y-109504331D02*
X213502380Y-109542426D01*
X177613855Y-86340475D02*
X176813855Y-86340475D01*
X176813855Y-86340475D02*
X176813855Y-86149999D01*
X176813855Y-86149999D02*
X176851950Y-86035713D01*
X176851950Y-86035713D02*
X176928140Y-85959523D01*
X176928140Y-85959523D02*
X177004331Y-85921428D01*
X177004331Y-85921428D02*
X177156712Y-85883332D01*
X177156712Y-85883332D02*
X177270998Y-85883332D01*
X177270998Y-85883332D02*
X177423379Y-85921428D01*
X177423379Y-85921428D02*
X177499569Y-85959523D01*
X177499569Y-85959523D02*
X177575760Y-86035713D01*
X177575760Y-86035713D02*
X177613855Y-86149999D01*
X177613855Y-86149999D02*
X177613855Y-86340475D01*
X176813855Y-85159523D02*
X176813855Y-85540475D01*
X176813855Y-85540475D02*
X177194807Y-85578571D01*
X177194807Y-85578571D02*
X177156712Y-85540475D01*
X177156712Y-85540475D02*
X177118617Y-85464285D01*
X177118617Y-85464285D02*
X177118617Y-85273809D01*
X177118617Y-85273809D02*
X177156712Y-85197618D01*
X177156712Y-85197618D02*
X177194807Y-85159523D01*
X177194807Y-85159523D02*
X177270998Y-85121428D01*
X177270998Y-85121428D02*
X177461474Y-85121428D01*
X177461474Y-85121428D02*
X177537664Y-85159523D01*
X177537664Y-85159523D02*
X177575760Y-85197618D01*
X177575760Y-85197618D02*
X177613855Y-85273809D01*
X177613855Y-85273809D02*
X177613855Y-85464285D01*
X177613855Y-85464285D02*
X177575760Y-85540475D01*
X177575760Y-85540475D02*
X177537664Y-85578571D01*
X203337664Y-78864285D02*
X203375760Y-78902381D01*
X203375760Y-78902381D02*
X203413855Y-79016666D01*
X203413855Y-79016666D02*
X203413855Y-79092857D01*
X203413855Y-79092857D02*
X203375760Y-79207143D01*
X203375760Y-79207143D02*
X203299569Y-79283333D01*
X203299569Y-79283333D02*
X203223379Y-79321428D01*
X203223379Y-79321428D02*
X203070998Y-79359524D01*
X203070998Y-79359524D02*
X202956712Y-79359524D01*
X202956712Y-79359524D02*
X202804331Y-79321428D01*
X202804331Y-79321428D02*
X202728140Y-79283333D01*
X202728140Y-79283333D02*
X202651950Y-79207143D01*
X202651950Y-79207143D02*
X202613855Y-79092857D01*
X202613855Y-79092857D02*
X202613855Y-79016666D01*
X202613855Y-79016666D02*
X202651950Y-78902381D01*
X202651950Y-78902381D02*
X202690045Y-78864285D01*
X203413855Y-78102381D02*
X203413855Y-78559524D01*
X203413855Y-78330952D02*
X202613855Y-78330952D01*
X202613855Y-78330952D02*
X202728140Y-78407143D01*
X202728140Y-78407143D02*
X202804331Y-78483333D01*
X202804331Y-78483333D02*
X202842426Y-78559524D01*
X202880521Y-77416666D02*
X203413855Y-77416666D01*
X202575760Y-77607142D02*
X203147188Y-77797619D01*
X203147188Y-77797619D02*
X203147188Y-77302380D01*
X205535714Y-107403855D02*
X205269047Y-107022902D01*
X205078571Y-107403855D02*
X205078571Y-106603855D01*
X205078571Y-106603855D02*
X205383333Y-106603855D01*
X205383333Y-106603855D02*
X205459523Y-106641950D01*
X205459523Y-106641950D02*
X205497618Y-106680045D01*
X205497618Y-106680045D02*
X205535714Y-106756236D01*
X205535714Y-106756236D02*
X205535714Y-106870521D01*
X205535714Y-106870521D02*
X205497618Y-106946712D01*
X205497618Y-106946712D02*
X205459523Y-106984807D01*
X205459523Y-106984807D02*
X205383333Y-107022902D01*
X205383333Y-107022902D02*
X205078571Y-107022902D01*
X205802380Y-106603855D02*
X206297618Y-106603855D01*
X206297618Y-106603855D02*
X206030952Y-106908617D01*
X206030952Y-106908617D02*
X206145237Y-106908617D01*
X206145237Y-106908617D02*
X206221428Y-106946712D01*
X206221428Y-106946712D02*
X206259523Y-106984807D01*
X206259523Y-106984807D02*
X206297618Y-107060998D01*
X206297618Y-107060998D02*
X206297618Y-107251474D01*
X206297618Y-107251474D02*
X206259523Y-107327664D01*
X206259523Y-107327664D02*
X206221428Y-107365760D01*
X206221428Y-107365760D02*
X206145237Y-107403855D01*
X206145237Y-107403855D02*
X205916666Y-107403855D01*
X205916666Y-107403855D02*
X205840475Y-107365760D01*
X205840475Y-107365760D02*
X205802380Y-107327664D01*
X207059523Y-107403855D02*
X206602380Y-107403855D01*
X206830952Y-107403855D02*
X206830952Y-106603855D01*
X206830952Y-106603855D02*
X206754761Y-106718140D01*
X206754761Y-106718140D02*
X206678571Y-106794331D01*
X206678571Y-106794331D02*
X206602380Y-106832426D01*
X222537664Y-70220832D02*
X222575760Y-70258928D01*
X222575760Y-70258928D02*
X222613855Y-70373213D01*
X222613855Y-70373213D02*
X222613855Y-70449404D01*
X222613855Y-70449404D02*
X222575760Y-70563690D01*
X222575760Y-70563690D02*
X222499569Y-70639880D01*
X222499569Y-70639880D02*
X222423379Y-70677975D01*
X222423379Y-70677975D02*
X222270998Y-70716071D01*
X222270998Y-70716071D02*
X222156712Y-70716071D01*
X222156712Y-70716071D02*
X222004331Y-70677975D01*
X222004331Y-70677975D02*
X221928140Y-70639880D01*
X221928140Y-70639880D02*
X221851950Y-70563690D01*
X221851950Y-70563690D02*
X221813855Y-70449404D01*
X221813855Y-70449404D02*
X221813855Y-70373213D01*
X221813855Y-70373213D02*
X221851950Y-70258928D01*
X221851950Y-70258928D02*
X221890045Y-70220832D01*
X222156712Y-69763690D02*
X222118617Y-69839880D01*
X222118617Y-69839880D02*
X222080521Y-69877975D01*
X222080521Y-69877975D02*
X222004331Y-69916071D01*
X222004331Y-69916071D02*
X221966236Y-69916071D01*
X221966236Y-69916071D02*
X221890045Y-69877975D01*
X221890045Y-69877975D02*
X221851950Y-69839880D01*
X221851950Y-69839880D02*
X221813855Y-69763690D01*
X221813855Y-69763690D02*
X221813855Y-69611309D01*
X221813855Y-69611309D02*
X221851950Y-69535118D01*
X221851950Y-69535118D02*
X221890045Y-69497023D01*
X221890045Y-69497023D02*
X221966236Y-69458928D01*
X221966236Y-69458928D02*
X222004331Y-69458928D01*
X222004331Y-69458928D02*
X222080521Y-69497023D01*
X222080521Y-69497023D02*
X222118617Y-69535118D01*
X222118617Y-69535118D02*
X222156712Y-69611309D01*
X222156712Y-69611309D02*
X222156712Y-69763690D01*
X222156712Y-69763690D02*
X222194807Y-69839880D01*
X222194807Y-69839880D02*
X222232902Y-69877975D01*
X222232902Y-69877975D02*
X222309093Y-69916071D01*
X222309093Y-69916071D02*
X222461474Y-69916071D01*
X222461474Y-69916071D02*
X222537664Y-69877975D01*
X222537664Y-69877975D02*
X222575760Y-69839880D01*
X222575760Y-69839880D02*
X222613855Y-69763690D01*
X222613855Y-69763690D02*
X222613855Y-69611309D01*
X222613855Y-69611309D02*
X222575760Y-69535118D01*
X222575760Y-69535118D02*
X222537664Y-69497023D01*
X222537664Y-69497023D02*
X222461474Y-69458928D01*
X222461474Y-69458928D02*
X222309093Y-69458928D01*
X222309093Y-69458928D02*
X222232902Y-69497023D01*
X222232902Y-69497023D02*
X222194807Y-69535118D01*
X222194807Y-69535118D02*
X222156712Y-69611309D01*
X203063809Y-100330045D02*
X202987619Y-100291950D01*
X202987619Y-100291950D02*
X202911428Y-100215760D01*
X202911428Y-100215760D02*
X202797142Y-100101474D01*
X202797142Y-100101474D02*
X202720952Y-100063379D01*
X202720952Y-100063379D02*
X202644761Y-100063379D01*
X202682857Y-100253855D02*
X202606666Y-100215760D01*
X202606666Y-100215760D02*
X202530476Y-100139569D01*
X202530476Y-100139569D02*
X202492380Y-99987188D01*
X202492380Y-99987188D02*
X202492380Y-99720521D01*
X202492380Y-99720521D02*
X202530476Y-99568140D01*
X202530476Y-99568140D02*
X202606666Y-99491950D01*
X202606666Y-99491950D02*
X202682857Y-99453855D01*
X202682857Y-99453855D02*
X202835238Y-99453855D01*
X202835238Y-99453855D02*
X202911428Y-99491950D01*
X202911428Y-99491950D02*
X202987619Y-99568140D01*
X202987619Y-99568140D02*
X203025714Y-99720521D01*
X203025714Y-99720521D02*
X203025714Y-99987188D01*
X203025714Y-99987188D02*
X202987619Y-100139569D01*
X202987619Y-100139569D02*
X202911428Y-100215760D01*
X202911428Y-100215760D02*
X202835238Y-100253855D01*
X202835238Y-100253855D02*
X202682857Y-100253855D01*
X203330475Y-99530045D02*
X203368571Y-99491950D01*
X203368571Y-99491950D02*
X203444761Y-99453855D01*
X203444761Y-99453855D02*
X203635237Y-99453855D01*
X203635237Y-99453855D02*
X203711428Y-99491950D01*
X203711428Y-99491950D02*
X203749523Y-99530045D01*
X203749523Y-99530045D02*
X203787618Y-99606236D01*
X203787618Y-99606236D02*
X203787618Y-99682426D01*
X203787618Y-99682426D02*
X203749523Y-99796712D01*
X203749523Y-99796712D02*
X203292380Y-100253855D01*
X203292380Y-100253855D02*
X203787618Y-100253855D01*
X204898214Y-69513855D02*
X204631547Y-69132902D01*
X204441071Y-69513855D02*
X204441071Y-68713855D01*
X204441071Y-68713855D02*
X204745833Y-68713855D01*
X204745833Y-68713855D02*
X204822023Y-68751950D01*
X204822023Y-68751950D02*
X204860118Y-68790045D01*
X204860118Y-68790045D02*
X204898214Y-68866236D01*
X204898214Y-68866236D02*
X204898214Y-68980521D01*
X204898214Y-68980521D02*
X204860118Y-69056712D01*
X204860118Y-69056712D02*
X204822023Y-69094807D01*
X204822023Y-69094807D02*
X204745833Y-69132902D01*
X204745833Y-69132902D02*
X204441071Y-69132902D01*
X205202975Y-68790045D02*
X205241071Y-68751950D01*
X205241071Y-68751950D02*
X205317261Y-68713855D01*
X205317261Y-68713855D02*
X205507737Y-68713855D01*
X205507737Y-68713855D02*
X205583928Y-68751950D01*
X205583928Y-68751950D02*
X205622023Y-68790045D01*
X205622023Y-68790045D02*
X205660118Y-68866236D01*
X205660118Y-68866236D02*
X205660118Y-68942426D01*
X205660118Y-68942426D02*
X205622023Y-69056712D01*
X205622023Y-69056712D02*
X205164880Y-69513855D01*
X205164880Y-69513855D02*
X205660118Y-69513855D01*
X206117261Y-69056712D02*
X206041071Y-69018617D01*
X206041071Y-69018617D02*
X206002976Y-68980521D01*
X206002976Y-68980521D02*
X205964880Y-68904331D01*
X205964880Y-68904331D02*
X205964880Y-68866236D01*
X205964880Y-68866236D02*
X206002976Y-68790045D01*
X206002976Y-68790045D02*
X206041071Y-68751950D01*
X206041071Y-68751950D02*
X206117261Y-68713855D01*
X206117261Y-68713855D02*
X206269642Y-68713855D01*
X206269642Y-68713855D02*
X206345833Y-68751950D01*
X206345833Y-68751950D02*
X206383928Y-68790045D01*
X206383928Y-68790045D02*
X206422023Y-68866236D01*
X206422023Y-68866236D02*
X206422023Y-68904331D01*
X206422023Y-68904331D02*
X206383928Y-68980521D01*
X206383928Y-68980521D02*
X206345833Y-69018617D01*
X206345833Y-69018617D02*
X206269642Y-69056712D01*
X206269642Y-69056712D02*
X206117261Y-69056712D01*
X206117261Y-69056712D02*
X206041071Y-69094807D01*
X206041071Y-69094807D02*
X206002976Y-69132902D01*
X206002976Y-69132902D02*
X205964880Y-69209093D01*
X205964880Y-69209093D02*
X205964880Y-69361474D01*
X205964880Y-69361474D02*
X206002976Y-69437664D01*
X206002976Y-69437664D02*
X206041071Y-69475760D01*
X206041071Y-69475760D02*
X206117261Y-69513855D01*
X206117261Y-69513855D02*
X206269642Y-69513855D01*
X206269642Y-69513855D02*
X206345833Y-69475760D01*
X206345833Y-69475760D02*
X206383928Y-69437664D01*
X206383928Y-69437664D02*
X206422023Y-69361474D01*
X206422023Y-69361474D02*
X206422023Y-69209093D01*
X206422023Y-69209093D02*
X206383928Y-69132902D01*
X206383928Y-69132902D02*
X206345833Y-69094807D01*
X206345833Y-69094807D02*
X206269642Y-69056712D01*
X194187664Y-69664285D02*
X194225760Y-69702381D01*
X194225760Y-69702381D02*
X194263855Y-69816666D01*
X194263855Y-69816666D02*
X194263855Y-69892857D01*
X194263855Y-69892857D02*
X194225760Y-70007143D01*
X194225760Y-70007143D02*
X194149569Y-70083333D01*
X194149569Y-70083333D02*
X194073379Y-70121428D01*
X194073379Y-70121428D02*
X193920998Y-70159524D01*
X193920998Y-70159524D02*
X193806712Y-70159524D01*
X193806712Y-70159524D02*
X193654331Y-70121428D01*
X193654331Y-70121428D02*
X193578140Y-70083333D01*
X193578140Y-70083333D02*
X193501950Y-70007143D01*
X193501950Y-70007143D02*
X193463855Y-69892857D01*
X193463855Y-69892857D02*
X193463855Y-69816666D01*
X193463855Y-69816666D02*
X193501950Y-69702381D01*
X193501950Y-69702381D02*
X193540045Y-69664285D01*
X194263855Y-68902381D02*
X194263855Y-69359524D01*
X194263855Y-69130952D02*
X193463855Y-69130952D01*
X193463855Y-69130952D02*
X193578140Y-69207143D01*
X193578140Y-69207143D02*
X193654331Y-69283333D01*
X193654331Y-69283333D02*
X193692426Y-69359524D01*
X193463855Y-68178571D02*
X193463855Y-68559523D01*
X193463855Y-68559523D02*
X193844807Y-68597619D01*
X193844807Y-68597619D02*
X193806712Y-68559523D01*
X193806712Y-68559523D02*
X193768617Y-68483333D01*
X193768617Y-68483333D02*
X193768617Y-68292857D01*
X193768617Y-68292857D02*
X193806712Y-68216666D01*
X193806712Y-68216666D02*
X193844807Y-68178571D01*
X193844807Y-68178571D02*
X193920998Y-68140476D01*
X193920998Y-68140476D02*
X194111474Y-68140476D01*
X194111474Y-68140476D02*
X194187664Y-68178571D01*
X194187664Y-68178571D02*
X194225760Y-68216666D01*
X194225760Y-68216666D02*
X194263855Y-68292857D01*
X194263855Y-68292857D02*
X194263855Y-68483333D01*
X194263855Y-68483333D02*
X194225760Y-68559523D01*
X194225760Y-68559523D02*
X194187664Y-68597619D01*
X163343333Y-109293855D02*
X163343333Y-109865283D01*
X163343333Y-109865283D02*
X163305238Y-109979569D01*
X163305238Y-109979569D02*
X163229047Y-110055760D01*
X163229047Y-110055760D02*
X163114762Y-110093855D01*
X163114762Y-110093855D02*
X163038571Y-110093855D01*
X163686190Y-109370045D02*
X163724286Y-109331950D01*
X163724286Y-109331950D02*
X163800476Y-109293855D01*
X163800476Y-109293855D02*
X163990952Y-109293855D01*
X163990952Y-109293855D02*
X164067143Y-109331950D01*
X164067143Y-109331950D02*
X164105238Y-109370045D01*
X164105238Y-109370045D02*
X164143333Y-109446236D01*
X164143333Y-109446236D02*
X164143333Y-109522426D01*
X164143333Y-109522426D02*
X164105238Y-109636712D01*
X164105238Y-109636712D02*
X163648095Y-110093855D01*
X163648095Y-110093855D02*
X164143333Y-110093855D01*
X161937664Y-79608332D02*
X161975760Y-79646428D01*
X161975760Y-79646428D02*
X162013855Y-79760713D01*
X162013855Y-79760713D02*
X162013855Y-79836904D01*
X162013855Y-79836904D02*
X161975760Y-79951190D01*
X161975760Y-79951190D02*
X161899569Y-80027380D01*
X161899569Y-80027380D02*
X161823379Y-80065475D01*
X161823379Y-80065475D02*
X161670998Y-80103571D01*
X161670998Y-80103571D02*
X161556712Y-80103571D01*
X161556712Y-80103571D02*
X161404331Y-80065475D01*
X161404331Y-80065475D02*
X161328140Y-80027380D01*
X161328140Y-80027380D02*
X161251950Y-79951190D01*
X161251950Y-79951190D02*
X161213855Y-79836904D01*
X161213855Y-79836904D02*
X161213855Y-79760713D01*
X161213855Y-79760713D02*
X161251950Y-79646428D01*
X161251950Y-79646428D02*
X161290045Y-79608332D01*
X161213855Y-78884523D02*
X161213855Y-79265475D01*
X161213855Y-79265475D02*
X161594807Y-79303571D01*
X161594807Y-79303571D02*
X161556712Y-79265475D01*
X161556712Y-79265475D02*
X161518617Y-79189285D01*
X161518617Y-79189285D02*
X161518617Y-78998809D01*
X161518617Y-78998809D02*
X161556712Y-78922618D01*
X161556712Y-78922618D02*
X161594807Y-78884523D01*
X161594807Y-78884523D02*
X161670998Y-78846428D01*
X161670998Y-78846428D02*
X161861474Y-78846428D01*
X161861474Y-78846428D02*
X161937664Y-78884523D01*
X161937664Y-78884523D02*
X161975760Y-78922618D01*
X161975760Y-78922618D02*
X162013855Y-78998809D01*
X162013855Y-78998809D02*
X162013855Y-79189285D01*
X162013855Y-79189285D02*
X161975760Y-79265475D01*
X161975760Y-79265475D02*
X161937664Y-79303571D01*
X200713855Y-79140475D02*
X199913855Y-79140475D01*
X199913855Y-79140475D02*
X199913855Y-78949999D01*
X199913855Y-78949999D02*
X199951950Y-78835713D01*
X199951950Y-78835713D02*
X200028140Y-78759523D01*
X200028140Y-78759523D02*
X200104331Y-78721428D01*
X200104331Y-78721428D02*
X200256712Y-78683332D01*
X200256712Y-78683332D02*
X200370998Y-78683332D01*
X200370998Y-78683332D02*
X200523379Y-78721428D01*
X200523379Y-78721428D02*
X200599569Y-78759523D01*
X200599569Y-78759523D02*
X200675760Y-78835713D01*
X200675760Y-78835713D02*
X200713855Y-78949999D01*
X200713855Y-78949999D02*
X200713855Y-79140475D01*
X200180521Y-77997618D02*
X200713855Y-77997618D01*
X199875760Y-78188094D02*
X200447188Y-78378571D01*
X200447188Y-78378571D02*
X200447188Y-77883332D01*
X160853855Y-107407082D02*
X160472902Y-107673749D01*
X160853855Y-107864225D02*
X160053855Y-107864225D01*
X160053855Y-107864225D02*
X160053855Y-107559463D01*
X160053855Y-107559463D02*
X160091950Y-107483273D01*
X160091950Y-107483273D02*
X160130045Y-107445178D01*
X160130045Y-107445178D02*
X160206236Y-107407082D01*
X160206236Y-107407082D02*
X160320521Y-107407082D01*
X160320521Y-107407082D02*
X160396712Y-107445178D01*
X160396712Y-107445178D02*
X160434807Y-107483273D01*
X160434807Y-107483273D02*
X160472902Y-107559463D01*
X160472902Y-107559463D02*
X160472902Y-107864225D01*
X160053855Y-107140416D02*
X160053855Y-106607082D01*
X160053855Y-106607082D02*
X160853855Y-106949940D01*
X183775714Y-79147605D02*
X183509047Y-78766652D01*
X183318571Y-79147605D02*
X183318571Y-78347605D01*
X183318571Y-78347605D02*
X183623333Y-78347605D01*
X183623333Y-78347605D02*
X183699523Y-78385700D01*
X183699523Y-78385700D02*
X183737618Y-78423795D01*
X183737618Y-78423795D02*
X183775714Y-78499986D01*
X183775714Y-78499986D02*
X183775714Y-78614271D01*
X183775714Y-78614271D02*
X183737618Y-78690462D01*
X183737618Y-78690462D02*
X183699523Y-78728557D01*
X183699523Y-78728557D02*
X183623333Y-78766652D01*
X183623333Y-78766652D02*
X183318571Y-78766652D01*
X184080475Y-78423795D02*
X184118571Y-78385700D01*
X184118571Y-78385700D02*
X184194761Y-78347605D01*
X184194761Y-78347605D02*
X184385237Y-78347605D01*
X184385237Y-78347605D02*
X184461428Y-78385700D01*
X184461428Y-78385700D02*
X184499523Y-78423795D01*
X184499523Y-78423795D02*
X184537618Y-78499986D01*
X184537618Y-78499986D02*
X184537618Y-78576176D01*
X184537618Y-78576176D02*
X184499523Y-78690462D01*
X184499523Y-78690462D02*
X184042380Y-79147605D01*
X184042380Y-79147605D02*
X184537618Y-79147605D01*
X185299523Y-79147605D02*
X184842380Y-79147605D01*
X185070952Y-79147605D02*
X185070952Y-78347605D01*
X185070952Y-78347605D02*
X184994761Y-78461890D01*
X184994761Y-78461890D02*
X184918571Y-78538081D01*
X184918571Y-78538081D02*
X184842380Y-78576176D01*
X165903855Y-98069225D02*
X165103855Y-98069225D01*
X165103855Y-98069225D02*
X165103855Y-97878749D01*
X165103855Y-97878749D02*
X165141950Y-97764463D01*
X165141950Y-97764463D02*
X165218140Y-97688273D01*
X165218140Y-97688273D02*
X165294331Y-97650178D01*
X165294331Y-97650178D02*
X165446712Y-97612082D01*
X165446712Y-97612082D02*
X165560998Y-97612082D01*
X165560998Y-97612082D02*
X165713379Y-97650178D01*
X165713379Y-97650178D02*
X165789569Y-97688273D01*
X165789569Y-97688273D02*
X165865760Y-97764463D01*
X165865760Y-97764463D02*
X165903855Y-97878749D01*
X165903855Y-97878749D02*
X165903855Y-98069225D01*
X165903855Y-96850178D02*
X165903855Y-97307321D01*
X165903855Y-97078749D02*
X165103855Y-97078749D01*
X165103855Y-97078749D02*
X165218140Y-97154940D01*
X165218140Y-97154940D02*
X165294331Y-97231130D01*
X165294331Y-97231130D02*
X165332426Y-97307321D01*
X194612664Y-101818332D02*
X194650760Y-101856428D01*
X194650760Y-101856428D02*
X194688855Y-101970713D01*
X194688855Y-101970713D02*
X194688855Y-102046904D01*
X194688855Y-102046904D02*
X194650760Y-102161190D01*
X194650760Y-102161190D02*
X194574569Y-102237380D01*
X194574569Y-102237380D02*
X194498379Y-102275475D01*
X194498379Y-102275475D02*
X194345998Y-102313571D01*
X194345998Y-102313571D02*
X194231712Y-102313571D01*
X194231712Y-102313571D02*
X194079331Y-102275475D01*
X194079331Y-102275475D02*
X194003140Y-102237380D01*
X194003140Y-102237380D02*
X193926950Y-102161190D01*
X193926950Y-102161190D02*
X193888855Y-102046904D01*
X193888855Y-102046904D02*
X193888855Y-101970713D01*
X193888855Y-101970713D02*
X193926950Y-101856428D01*
X193926950Y-101856428D02*
X193965045Y-101818332D01*
X194688855Y-101056428D02*
X194688855Y-101513571D01*
X194688855Y-101284999D02*
X193888855Y-101284999D01*
X193888855Y-101284999D02*
X194003140Y-101361190D01*
X194003140Y-101361190D02*
X194079331Y-101437380D01*
X194079331Y-101437380D02*
X194117426Y-101513571D01*
X172065476Y-82388855D02*
X172065476Y-83036474D01*
X172065476Y-83036474D02*
X172103571Y-83112664D01*
X172103571Y-83112664D02*
X172141666Y-83150760D01*
X172141666Y-83150760D02*
X172217857Y-83188855D01*
X172217857Y-83188855D02*
X172370238Y-83188855D01*
X172370238Y-83188855D02*
X172446428Y-83150760D01*
X172446428Y-83150760D02*
X172484523Y-83112664D01*
X172484523Y-83112664D02*
X172522619Y-83036474D01*
X172522619Y-83036474D02*
X172522619Y-82388855D01*
X172865475Y-82465045D02*
X172903571Y-82426950D01*
X172903571Y-82426950D02*
X172979761Y-82388855D01*
X172979761Y-82388855D02*
X173170237Y-82388855D01*
X173170237Y-82388855D02*
X173246428Y-82426950D01*
X173246428Y-82426950D02*
X173284523Y-82465045D01*
X173284523Y-82465045D02*
X173322618Y-82541236D01*
X173322618Y-82541236D02*
X173322618Y-82617426D01*
X173322618Y-82617426D02*
X173284523Y-82731712D01*
X173284523Y-82731712D02*
X172827380Y-83188855D01*
X172827380Y-83188855D02*
X173322618Y-83188855D01*
X194727664Y-89874285D02*
X194765760Y-89912381D01*
X194765760Y-89912381D02*
X194803855Y-90026666D01*
X194803855Y-90026666D02*
X194803855Y-90102857D01*
X194803855Y-90102857D02*
X194765760Y-90217143D01*
X194765760Y-90217143D02*
X194689569Y-90293333D01*
X194689569Y-90293333D02*
X194613379Y-90331428D01*
X194613379Y-90331428D02*
X194460998Y-90369524D01*
X194460998Y-90369524D02*
X194346712Y-90369524D01*
X194346712Y-90369524D02*
X194194331Y-90331428D01*
X194194331Y-90331428D02*
X194118140Y-90293333D01*
X194118140Y-90293333D02*
X194041950Y-90217143D01*
X194041950Y-90217143D02*
X194003855Y-90102857D01*
X194003855Y-90102857D02*
X194003855Y-90026666D01*
X194003855Y-90026666D02*
X194041950Y-89912381D01*
X194041950Y-89912381D02*
X194080045Y-89874285D01*
X194803855Y-89112381D02*
X194803855Y-89569524D01*
X194803855Y-89340952D02*
X194003855Y-89340952D01*
X194003855Y-89340952D02*
X194118140Y-89417143D01*
X194118140Y-89417143D02*
X194194331Y-89493333D01*
X194194331Y-89493333D02*
X194232426Y-89569524D01*
X194803855Y-88350476D02*
X194803855Y-88807619D01*
X194803855Y-88579047D02*
X194003855Y-88579047D01*
X194003855Y-88579047D02*
X194118140Y-88655238D01*
X194118140Y-88655238D02*
X194194331Y-88731428D01*
X194194331Y-88731428D02*
X194232426Y-88807619D01*
X212290476Y-87415855D02*
X212747619Y-87415855D01*
X212519047Y-88215855D02*
X212519047Y-87415855D01*
X213014286Y-88215855D02*
X213014286Y-87415855D01*
X213014286Y-87415855D02*
X213319048Y-87415855D01*
X213319048Y-87415855D02*
X213395238Y-87453950D01*
X213395238Y-87453950D02*
X213433333Y-87492045D01*
X213433333Y-87492045D02*
X213471429Y-87568236D01*
X213471429Y-87568236D02*
X213471429Y-87682521D01*
X213471429Y-87682521D02*
X213433333Y-87758712D01*
X213433333Y-87758712D02*
X213395238Y-87796807D01*
X213395238Y-87796807D02*
X213319048Y-87834902D01*
X213319048Y-87834902D02*
X213014286Y-87834902D01*
X214233333Y-88215855D02*
X213776190Y-88215855D01*
X214004762Y-88215855D02*
X214004762Y-87415855D01*
X214004762Y-87415855D02*
X213928571Y-87530140D01*
X213928571Y-87530140D02*
X213852381Y-87606331D01*
X213852381Y-87606331D02*
X213776190Y-87644426D01*
X166133855Y-107537082D02*
X165752902Y-107803749D01*
X166133855Y-107994225D02*
X165333855Y-107994225D01*
X165333855Y-107994225D02*
X165333855Y-107689463D01*
X165333855Y-107689463D02*
X165371950Y-107613273D01*
X165371950Y-107613273D02*
X165410045Y-107575178D01*
X165410045Y-107575178D02*
X165486236Y-107537082D01*
X165486236Y-107537082D02*
X165600521Y-107537082D01*
X165600521Y-107537082D02*
X165676712Y-107575178D01*
X165676712Y-107575178D02*
X165714807Y-107613273D01*
X165714807Y-107613273D02*
X165752902Y-107689463D01*
X165752902Y-107689463D02*
X165752902Y-107994225D01*
X166133855Y-107156130D02*
X166133855Y-107003749D01*
X166133855Y-107003749D02*
X166095760Y-106927559D01*
X166095760Y-106927559D02*
X166057664Y-106889463D01*
X166057664Y-106889463D02*
X165943379Y-106813273D01*
X165943379Y-106813273D02*
X165790998Y-106775178D01*
X165790998Y-106775178D02*
X165486236Y-106775178D01*
X165486236Y-106775178D02*
X165410045Y-106813273D01*
X165410045Y-106813273D02*
X165371950Y-106851368D01*
X165371950Y-106851368D02*
X165333855Y-106927559D01*
X165333855Y-106927559D02*
X165333855Y-107079940D01*
X165333855Y-107079940D02*
X165371950Y-107156130D01*
X165371950Y-107156130D02*
X165410045Y-107194225D01*
X165410045Y-107194225D02*
X165486236Y-107232321D01*
X165486236Y-107232321D02*
X165676712Y-107232321D01*
X165676712Y-107232321D02*
X165752902Y-107194225D01*
X165752902Y-107194225D02*
X165790998Y-107156130D01*
X165790998Y-107156130D02*
X165829093Y-107079940D01*
X165829093Y-107079940D02*
X165829093Y-106927559D01*
X165829093Y-106927559D02*
X165790998Y-106851368D01*
X165790998Y-106851368D02*
X165752902Y-106813273D01*
X165752902Y-106813273D02*
X165676712Y-106775178D01*
X172516667Y-94637664D02*
X172478571Y-94675760D01*
X172478571Y-94675760D02*
X172364286Y-94713855D01*
X172364286Y-94713855D02*
X172288095Y-94713855D01*
X172288095Y-94713855D02*
X172173809Y-94675760D01*
X172173809Y-94675760D02*
X172097619Y-94599569D01*
X172097619Y-94599569D02*
X172059524Y-94523379D01*
X172059524Y-94523379D02*
X172021428Y-94370998D01*
X172021428Y-94370998D02*
X172021428Y-94256712D01*
X172021428Y-94256712D02*
X172059524Y-94104331D01*
X172059524Y-94104331D02*
X172097619Y-94028140D01*
X172097619Y-94028140D02*
X172173809Y-93951950D01*
X172173809Y-93951950D02*
X172288095Y-93913855D01*
X172288095Y-93913855D02*
X172364286Y-93913855D01*
X172364286Y-93913855D02*
X172478571Y-93951950D01*
X172478571Y-93951950D02*
X172516667Y-93990045D01*
X172821428Y-93990045D02*
X172859524Y-93951950D01*
X172859524Y-93951950D02*
X172935714Y-93913855D01*
X172935714Y-93913855D02*
X173126190Y-93913855D01*
X173126190Y-93913855D02*
X173202381Y-93951950D01*
X173202381Y-93951950D02*
X173240476Y-93990045D01*
X173240476Y-93990045D02*
X173278571Y-94066236D01*
X173278571Y-94066236D02*
X173278571Y-94142426D01*
X173278571Y-94142426D02*
X173240476Y-94256712D01*
X173240476Y-94256712D02*
X172783333Y-94713855D01*
X172783333Y-94713855D02*
X173278571Y-94713855D01*
X158390476Y-68313855D02*
X158390476Y-67513855D01*
X158390476Y-67894807D02*
X158847619Y-67894807D01*
X158847619Y-68313855D02*
X158847619Y-67513855D01*
X159190475Y-67590045D02*
X159228571Y-67551950D01*
X159228571Y-67551950D02*
X159304761Y-67513855D01*
X159304761Y-67513855D02*
X159495237Y-67513855D01*
X159495237Y-67513855D02*
X159571428Y-67551950D01*
X159571428Y-67551950D02*
X159609523Y-67590045D01*
X159609523Y-67590045D02*
X159647618Y-67666236D01*
X159647618Y-67666236D02*
X159647618Y-67742426D01*
X159647618Y-67742426D02*
X159609523Y-67856712D01*
X159609523Y-67856712D02*
X159152380Y-68313855D01*
X159152380Y-68313855D02*
X159647618Y-68313855D01*
X205660714Y-109957664D02*
X205622618Y-109995760D01*
X205622618Y-109995760D02*
X205508333Y-110033855D01*
X205508333Y-110033855D02*
X205432142Y-110033855D01*
X205432142Y-110033855D02*
X205317856Y-109995760D01*
X205317856Y-109995760D02*
X205241666Y-109919569D01*
X205241666Y-109919569D02*
X205203571Y-109843379D01*
X205203571Y-109843379D02*
X205165475Y-109690998D01*
X205165475Y-109690998D02*
X205165475Y-109576712D01*
X205165475Y-109576712D02*
X205203571Y-109424331D01*
X205203571Y-109424331D02*
X205241666Y-109348140D01*
X205241666Y-109348140D02*
X205317856Y-109271950D01*
X205317856Y-109271950D02*
X205432142Y-109233855D01*
X205432142Y-109233855D02*
X205508333Y-109233855D01*
X205508333Y-109233855D02*
X205622618Y-109271950D01*
X205622618Y-109271950D02*
X205660714Y-109310045D01*
X205965475Y-109310045D02*
X206003571Y-109271950D01*
X206003571Y-109271950D02*
X206079761Y-109233855D01*
X206079761Y-109233855D02*
X206270237Y-109233855D01*
X206270237Y-109233855D02*
X206346428Y-109271950D01*
X206346428Y-109271950D02*
X206384523Y-109310045D01*
X206384523Y-109310045D02*
X206422618Y-109386236D01*
X206422618Y-109386236D02*
X206422618Y-109462426D01*
X206422618Y-109462426D02*
X206384523Y-109576712D01*
X206384523Y-109576712D02*
X205927380Y-110033855D01*
X205927380Y-110033855D02*
X206422618Y-110033855D01*
X206727380Y-109310045D02*
X206765476Y-109271950D01*
X206765476Y-109271950D02*
X206841666Y-109233855D01*
X206841666Y-109233855D02*
X207032142Y-109233855D01*
X207032142Y-109233855D02*
X207108333Y-109271950D01*
X207108333Y-109271950D02*
X207146428Y-109310045D01*
X207146428Y-109310045D02*
X207184523Y-109386236D01*
X207184523Y-109386236D02*
X207184523Y-109462426D01*
X207184523Y-109462426D02*
X207146428Y-109576712D01*
X207146428Y-109576712D02*
X206689285Y-110033855D01*
X206689285Y-110033855D02*
X207184523Y-110033855D01*
X158140476Y-91813855D02*
X158140476Y-91013855D01*
X158140476Y-91394807D02*
X158597619Y-91394807D01*
X158597619Y-91813855D02*
X158597619Y-91013855D01*
X159397618Y-91813855D02*
X158940475Y-91813855D01*
X159169047Y-91813855D02*
X159169047Y-91013855D01*
X159169047Y-91013855D02*
X159092856Y-91128140D01*
X159092856Y-91128140D02*
X159016666Y-91204331D01*
X159016666Y-91204331D02*
X158940475Y-91242426D01*
X196613855Y-96904285D02*
X196232902Y-97170952D01*
X196613855Y-97361428D02*
X195813855Y-97361428D01*
X195813855Y-97361428D02*
X195813855Y-97056666D01*
X195813855Y-97056666D02*
X195851950Y-96980476D01*
X195851950Y-96980476D02*
X195890045Y-96942381D01*
X195890045Y-96942381D02*
X195966236Y-96904285D01*
X195966236Y-96904285D02*
X196080521Y-96904285D01*
X196080521Y-96904285D02*
X196156712Y-96942381D01*
X196156712Y-96942381D02*
X196194807Y-96980476D01*
X196194807Y-96980476D02*
X196232902Y-97056666D01*
X196232902Y-97056666D02*
X196232902Y-97361428D01*
X196613855Y-96142381D02*
X196613855Y-96599524D01*
X196613855Y-96370952D02*
X195813855Y-96370952D01*
X195813855Y-96370952D02*
X195928140Y-96447143D01*
X195928140Y-96447143D02*
X196004331Y-96523333D01*
X196004331Y-96523333D02*
X196042426Y-96599524D01*
X196080521Y-95456666D02*
X196613855Y-95456666D01*
X195775760Y-95647142D02*
X196347188Y-95837619D01*
X196347188Y-95837619D02*
X196347188Y-95342380D01*
X171313855Y-101333332D02*
X170932902Y-101599999D01*
X171313855Y-101790475D02*
X170513855Y-101790475D01*
X170513855Y-101790475D02*
X170513855Y-101485713D01*
X170513855Y-101485713D02*
X170551950Y-101409523D01*
X170551950Y-101409523D02*
X170590045Y-101371428D01*
X170590045Y-101371428D02*
X170666236Y-101333332D01*
X170666236Y-101333332D02*
X170780521Y-101333332D01*
X170780521Y-101333332D02*
X170856712Y-101371428D01*
X170856712Y-101371428D02*
X170894807Y-101409523D01*
X170894807Y-101409523D02*
X170932902Y-101485713D01*
X170932902Y-101485713D02*
X170932902Y-101790475D01*
X170513855Y-100647618D02*
X170513855Y-100799999D01*
X170513855Y-100799999D02*
X170551950Y-100876190D01*
X170551950Y-100876190D02*
X170590045Y-100914285D01*
X170590045Y-100914285D02*
X170704331Y-100990475D01*
X170704331Y-100990475D02*
X170856712Y-101028571D01*
X170856712Y-101028571D02*
X171161474Y-101028571D01*
X171161474Y-101028571D02*
X171237664Y-100990475D01*
X171237664Y-100990475D02*
X171275760Y-100952380D01*
X171275760Y-100952380D02*
X171313855Y-100876190D01*
X171313855Y-100876190D02*
X171313855Y-100723809D01*
X171313855Y-100723809D02*
X171275760Y-100647618D01*
X171275760Y-100647618D02*
X171237664Y-100609523D01*
X171237664Y-100609523D02*
X171161474Y-100571428D01*
X171161474Y-100571428D02*
X170970998Y-100571428D01*
X170970998Y-100571428D02*
X170894807Y-100609523D01*
X170894807Y-100609523D02*
X170856712Y-100647618D01*
X170856712Y-100647618D02*
X170818617Y-100723809D01*
X170818617Y-100723809D02*
X170818617Y-100876190D01*
X170818617Y-100876190D02*
X170856712Y-100952380D01*
X170856712Y-100952380D02*
X170894807Y-100990475D01*
X170894807Y-100990475D02*
X170970998Y-101028571D01*
X183963214Y-76747605D02*
X183696547Y-76366652D01*
X183506071Y-76747605D02*
X183506071Y-75947605D01*
X183506071Y-75947605D02*
X183810833Y-75947605D01*
X183810833Y-75947605D02*
X183887023Y-75985700D01*
X183887023Y-75985700D02*
X183925118Y-76023795D01*
X183925118Y-76023795D02*
X183963214Y-76099986D01*
X183963214Y-76099986D02*
X183963214Y-76214271D01*
X183963214Y-76214271D02*
X183925118Y-76290462D01*
X183925118Y-76290462D02*
X183887023Y-76328557D01*
X183887023Y-76328557D02*
X183810833Y-76366652D01*
X183810833Y-76366652D02*
X183506071Y-76366652D01*
X184267975Y-76023795D02*
X184306071Y-75985700D01*
X184306071Y-75985700D02*
X184382261Y-75947605D01*
X184382261Y-75947605D02*
X184572737Y-75947605D01*
X184572737Y-75947605D02*
X184648928Y-75985700D01*
X184648928Y-75985700D02*
X184687023Y-76023795D01*
X184687023Y-76023795D02*
X184725118Y-76099986D01*
X184725118Y-76099986D02*
X184725118Y-76176176D01*
X184725118Y-76176176D02*
X184687023Y-76290462D01*
X184687023Y-76290462D02*
X184229880Y-76747605D01*
X184229880Y-76747605D02*
X184725118Y-76747605D01*
X185029880Y-76023795D02*
X185067976Y-75985700D01*
X185067976Y-75985700D02*
X185144166Y-75947605D01*
X185144166Y-75947605D02*
X185334642Y-75947605D01*
X185334642Y-75947605D02*
X185410833Y-75985700D01*
X185410833Y-75985700D02*
X185448928Y-76023795D01*
X185448928Y-76023795D02*
X185487023Y-76099986D01*
X185487023Y-76099986D02*
X185487023Y-76176176D01*
X185487023Y-76176176D02*
X185448928Y-76290462D01*
X185448928Y-76290462D02*
X184991785Y-76747605D01*
X184991785Y-76747605D02*
X185487023Y-76747605D01*
X212370475Y-112545760D02*
X212484761Y-112583855D01*
X212484761Y-112583855D02*
X212675237Y-112583855D01*
X212675237Y-112583855D02*
X212751428Y-112545760D01*
X212751428Y-112545760D02*
X212789523Y-112507664D01*
X212789523Y-112507664D02*
X212827618Y-112431474D01*
X212827618Y-112431474D02*
X212827618Y-112355283D01*
X212827618Y-112355283D02*
X212789523Y-112279093D01*
X212789523Y-112279093D02*
X212751428Y-112240998D01*
X212751428Y-112240998D02*
X212675237Y-112202902D01*
X212675237Y-112202902D02*
X212522856Y-112164807D01*
X212522856Y-112164807D02*
X212446666Y-112126712D01*
X212446666Y-112126712D02*
X212408571Y-112088617D01*
X212408571Y-112088617D02*
X212370475Y-112012426D01*
X212370475Y-112012426D02*
X212370475Y-111936236D01*
X212370475Y-111936236D02*
X212408571Y-111860045D01*
X212408571Y-111860045D02*
X212446666Y-111821950D01*
X212446666Y-111821950D02*
X212522856Y-111783855D01*
X212522856Y-111783855D02*
X212713333Y-111783855D01*
X212713333Y-111783855D02*
X212827618Y-111821950D01*
X213589523Y-112583855D02*
X213132380Y-112583855D01*
X213360952Y-112583855D02*
X213360952Y-111783855D01*
X213360952Y-111783855D02*
X213284761Y-111898140D01*
X213284761Y-111898140D02*
X213208571Y-111974331D01*
X213208571Y-111974331D02*
X213132380Y-112012426D01*
X223663855Y-81014285D02*
X223282902Y-81280952D01*
X223663855Y-81471428D02*
X222863855Y-81471428D01*
X222863855Y-81471428D02*
X222863855Y-81166666D01*
X222863855Y-81166666D02*
X222901950Y-81090476D01*
X222901950Y-81090476D02*
X222940045Y-81052381D01*
X222940045Y-81052381D02*
X223016236Y-81014285D01*
X223016236Y-81014285D02*
X223130521Y-81014285D01*
X223130521Y-81014285D02*
X223206712Y-81052381D01*
X223206712Y-81052381D02*
X223244807Y-81090476D01*
X223244807Y-81090476D02*
X223282902Y-81166666D01*
X223282902Y-81166666D02*
X223282902Y-81471428D01*
X223663855Y-80252381D02*
X223663855Y-80709524D01*
X223663855Y-80480952D02*
X222863855Y-80480952D01*
X222863855Y-80480952D02*
X222978140Y-80557143D01*
X222978140Y-80557143D02*
X223054331Y-80633333D01*
X223054331Y-80633333D02*
X223092426Y-80709524D01*
X222863855Y-79566666D02*
X222863855Y-79719047D01*
X222863855Y-79719047D02*
X222901950Y-79795238D01*
X222901950Y-79795238D02*
X222940045Y-79833333D01*
X222940045Y-79833333D02*
X223054331Y-79909523D01*
X223054331Y-79909523D02*
X223206712Y-79947619D01*
X223206712Y-79947619D02*
X223511474Y-79947619D01*
X223511474Y-79947619D02*
X223587664Y-79909523D01*
X223587664Y-79909523D02*
X223625760Y-79871428D01*
X223625760Y-79871428D02*
X223663855Y-79795238D01*
X223663855Y-79795238D02*
X223663855Y-79642857D01*
X223663855Y-79642857D02*
X223625760Y-79566666D01*
X223625760Y-79566666D02*
X223587664Y-79528571D01*
X223587664Y-79528571D02*
X223511474Y-79490476D01*
X223511474Y-79490476D02*
X223320998Y-79490476D01*
X223320998Y-79490476D02*
X223244807Y-79528571D01*
X223244807Y-79528571D02*
X223206712Y-79566666D01*
X223206712Y-79566666D02*
X223168617Y-79642857D01*
X223168617Y-79642857D02*
X223168617Y-79795238D01*
X223168617Y-79795238D02*
X223206712Y-79871428D01*
X223206712Y-79871428D02*
X223244807Y-79909523D01*
X223244807Y-79909523D02*
X223320998Y-79947619D01*
X230685714Y-85787664D02*
X230647618Y-85825760D01*
X230647618Y-85825760D02*
X230533333Y-85863855D01*
X230533333Y-85863855D02*
X230457142Y-85863855D01*
X230457142Y-85863855D02*
X230342856Y-85825760D01*
X230342856Y-85825760D02*
X230266666Y-85749569D01*
X230266666Y-85749569D02*
X230228571Y-85673379D01*
X230228571Y-85673379D02*
X230190475Y-85520998D01*
X230190475Y-85520998D02*
X230190475Y-85406712D01*
X230190475Y-85406712D02*
X230228571Y-85254331D01*
X230228571Y-85254331D02*
X230266666Y-85178140D01*
X230266666Y-85178140D02*
X230342856Y-85101950D01*
X230342856Y-85101950D02*
X230457142Y-85063855D01*
X230457142Y-85063855D02*
X230533333Y-85063855D01*
X230533333Y-85063855D02*
X230647618Y-85101950D01*
X230647618Y-85101950D02*
X230685714Y-85140045D01*
X231447618Y-85863855D02*
X230990475Y-85863855D01*
X231219047Y-85863855D02*
X231219047Y-85063855D01*
X231219047Y-85063855D02*
X231142856Y-85178140D01*
X231142856Y-85178140D02*
X231066666Y-85254331D01*
X231066666Y-85254331D02*
X230990475Y-85292426D01*
X231752380Y-85140045D02*
X231790476Y-85101950D01*
X231790476Y-85101950D02*
X231866666Y-85063855D01*
X231866666Y-85063855D02*
X232057142Y-85063855D01*
X232057142Y-85063855D02*
X232133333Y-85101950D01*
X232133333Y-85101950D02*
X232171428Y-85140045D01*
X232171428Y-85140045D02*
X232209523Y-85216236D01*
X232209523Y-85216236D02*
X232209523Y-85292426D01*
X232209523Y-85292426D02*
X232171428Y-85406712D01*
X232171428Y-85406712D02*
X231714285Y-85863855D01*
X231714285Y-85863855D02*
X232209523Y-85863855D01*
X210340476Y-93863855D02*
X210340476Y-93063855D01*
X210340476Y-93444807D02*
X210797619Y-93444807D01*
X210797619Y-93863855D02*
X210797619Y-93063855D01*
X211102380Y-93063855D02*
X211597618Y-93063855D01*
X211597618Y-93063855D02*
X211330952Y-93368617D01*
X211330952Y-93368617D02*
X211445237Y-93368617D01*
X211445237Y-93368617D02*
X211521428Y-93406712D01*
X211521428Y-93406712D02*
X211559523Y-93444807D01*
X211559523Y-93444807D02*
X211597618Y-93520998D01*
X211597618Y-93520998D02*
X211597618Y-93711474D01*
X211597618Y-93711474D02*
X211559523Y-93787664D01*
X211559523Y-93787664D02*
X211521428Y-93825760D01*
X211521428Y-93825760D02*
X211445237Y-93863855D01*
X211445237Y-93863855D02*
X211216666Y-93863855D01*
X211216666Y-93863855D02*
X211140475Y-93825760D01*
X211140475Y-93825760D02*
X211102380Y-93787664D01*
D11*
%TO.C,U1*%
X175925000Y-113270000D02*
G75*
G02*
X175725000Y-113270000I-100000J0D01*
G01*
X175725000Y-113270000D02*
G75*
G02*
X175925000Y-113270000I100000J0D01*
G01*
D12*
X174925000Y-114170000D02*
X174925000Y-113620000D01*
X174925000Y-114170000D02*
X174375000Y-114170000D01*
X174925000Y-110170000D02*
X174925000Y-110720000D01*
X174925000Y-110170000D02*
X174375000Y-110170000D01*
X171475000Y-114170000D02*
X170925000Y-114170000D01*
X170925000Y-114170000D02*
X170925000Y-113620000D01*
X170925000Y-110720000D02*
X170925000Y-110170000D01*
X170925000Y-110170000D02*
X171475000Y-110170000D01*
D10*
%TO.C,TP2*%
X211300000Y-90500000D02*
G75*
G02*
X209900000Y-90500000I-700000J0D01*
G01*
X209900000Y-90500000D02*
G75*
G02*
X211300000Y-90500000I700000J0D01*
G01*
%TO.C,R10*%
X201372936Y-84265000D02*
X201827064Y-84265000D01*
X201372936Y-85735000D02*
X201827064Y-85735000D01*
D12*
%TO.C,MK1*%
X168750000Y-74500000D02*
G75*
G02*
X162750000Y-74500000I-3000000J0D01*
G01*
X162750000Y-74500000D02*
G75*
G02*
X168750000Y-74500000I3000000J0D01*
G01*
D10*
%TO.C,C20*%
X181351252Y-80073750D02*
X180828748Y-80073750D01*
X181351252Y-81543750D02*
X180828748Y-81543750D01*
%TO.C,TP3*%
X223000000Y-84300000D02*
G75*
G02*
X221600000Y-84300000I-700000J0D01*
G01*
X221600000Y-84300000D02*
G75*
G02*
X223000000Y-84300000I700000J0D01*
G01*
%TO.C,C13*%
X226388748Y-86515000D02*
X226911252Y-86515000D01*
X226388748Y-87985000D02*
X226911252Y-87985000D01*
D12*
%TO.C,U7*%
X196615000Y-67300000D02*
X196615000Y-64700000D01*
X199385000Y-67300000D02*
X199385000Y-64700000D01*
D11*
X197050000Y-64400000D02*
G75*
G02*
X196950000Y-64400000I-50000J0D01*
G01*
X196950000Y-64400000D02*
G75*
G02*
X197050000Y-64400000I50000J0D01*
G01*
D12*
%TO.C,S2*%
X203467500Y-111640000D02*
X202107500Y-111640000D01*
X203467500Y-113540000D02*
X202107500Y-113540000D01*
D11*
X205087500Y-113190000D02*
G75*
G02*
X204887500Y-113190000I-100000J0D01*
G01*
X204887500Y-113190000D02*
G75*
G02*
X205087500Y-113190000I100000J0D01*
G01*
D10*
%TO.C,R30*%
X217265000Y-76860436D02*
X217265000Y-77314564D01*
X218735000Y-76860436D02*
X218735000Y-77314564D01*
%TO.C,R20*%
X236715000Y-86772936D02*
X236715000Y-87227064D01*
X238185000Y-86772936D02*
X238185000Y-87227064D01*
%TO.C,R27*%
X205355436Y-89265000D02*
X205809564Y-89265000D01*
X205355436Y-90735000D02*
X205809564Y-90735000D01*
%TO.C,R23*%
X174404564Y-75000000D02*
X173950436Y-75000000D01*
X174404564Y-76470000D02*
X173950436Y-76470000D01*
%TO.C,R25*%
X174157936Y-68090000D02*
X174612064Y-68090000D01*
X174157936Y-69560000D02*
X174612064Y-69560000D01*
%TO.C,TP4*%
X240760000Y-87920000D02*
G75*
G02*
X239360000Y-87920000I-700000J0D01*
G01*
X239360000Y-87920000D02*
G75*
G02*
X240760000Y-87920000I700000J0D01*
G01*
%TO.C,R1*%
X180615000Y-109357064D02*
X180615000Y-108902936D01*
X182085000Y-109357064D02*
X182085000Y-108902936D01*
D12*
%TO.C,C4*%
X163325000Y-82720000D02*
X163325000Y-81580000D01*
X165125000Y-82720000D02*
X165125000Y-81580000D01*
D10*
%TO.C,R11*%
X181515000Y-90522936D02*
X181515000Y-90977064D01*
X182985000Y-90522936D02*
X182985000Y-90977064D01*
D11*
%TO.C,U6*%
X207025000Y-76850000D02*
X211975000Y-76850000D01*
X207025000Y-82150000D02*
X207025000Y-76850000D01*
X211975000Y-76850000D02*
X211975000Y-82150000D01*
X211975000Y-82150000D02*
X207025000Y-82150000D01*
D12*
X206000000Y-76900000D02*
G75*
G02*
X205800000Y-76900000I-100000J0D01*
G01*
X205800000Y-76900000D02*
G75*
G02*
X206000000Y-76900000I100000J0D01*
G01*
X206123606Y-76900000D02*
G75*
G02*
X205676394Y-76900000I-223606J0D01*
G01*
X205676394Y-76900000D02*
G75*
G02*
X206123606Y-76900000I223606J0D01*
G01*
X206100000Y-76900000D02*
G75*
G02*
X205900000Y-76900000I-100000J0D01*
G01*
X205900000Y-76900000D02*
G75*
G02*
X206100000Y-76900000I100000J0D01*
G01*
X207800000Y-77600000D02*
G75*
G02*
X207600000Y-77600000I-100000J0D01*
G01*
X207600000Y-77600000D02*
G75*
G02*
X207800000Y-77600000I100000J0D01*
G01*
X207841419Y-77600000D02*
G75*
G02*
X207558581Y-77600000I-141419J0D01*
G01*
X207558581Y-77600000D02*
G75*
G02*
X207841419Y-77600000I141419J0D01*
G01*
X207923606Y-77600000D02*
G75*
G02*
X207476394Y-77600000I-223606J0D01*
G01*
X207476394Y-77600000D02*
G75*
G02*
X207923606Y-77600000I223606J0D01*
G01*
X208016225Y-77600000D02*
G75*
G02*
X207383775Y-77600000I-316225J0D01*
G01*
X207383775Y-77600000D02*
G75*
G02*
X208016225Y-77600000I316225J0D01*
G01*
X207800000Y-77700000D02*
G75*
G02*
X207600000Y-77700000I-100000J0D01*
G01*
X207600000Y-77700000D02*
G75*
G02*
X207800000Y-77700000I100000J0D01*
G01*
D10*
%TO.C,R26*%
X190810436Y-75715000D02*
X191264564Y-75715000D01*
X190810436Y-77185000D02*
X191264564Y-77185000D01*
%TO.C,R2*%
X180340000Y-112960436D02*
X180340000Y-113414564D01*
X181810000Y-112960436D02*
X181810000Y-113414564D01*
%TO.C,R15*%
X193505000Y-96967064D02*
X193505000Y-96512936D01*
X194975000Y-96967064D02*
X194975000Y-96512936D01*
D12*
%TO.C,U3*%
X226890000Y-62000000D02*
X226890000Y-68330000D01*
X226890000Y-82000000D02*
X226890000Y-81870000D01*
X226890000Y-82000000D02*
X244890000Y-82000000D01*
X244890000Y-62000000D02*
X226890000Y-62000000D01*
X244890000Y-68330000D02*
X244890000Y-62000000D01*
X244890000Y-82000000D02*
X244890000Y-81870000D01*
D11*
X225490000Y-69100000D02*
G75*
G02*
X225290000Y-69100000I-100000J0D01*
G01*
X225290000Y-69100000D02*
G75*
G02*
X225490000Y-69100000I100000J0D01*
G01*
D12*
%TO.C,Q1*%
X204425000Y-92425000D02*
X207320000Y-92425000D01*
X207320000Y-92425000D02*
X207320000Y-92630000D01*
X207320000Y-94380000D02*
X207320000Y-94575000D01*
X207320000Y-94575000D02*
X204415000Y-94575000D01*
D11*
X202345000Y-92800000D02*
G75*
G02*
X202145000Y-92800000I-100000J0D01*
G01*
X202145000Y-92800000D02*
G75*
G02*
X202345000Y-92800000I100000J0D01*
G01*
D12*
%TO.C,F1*%
X179325000Y-97162500D02*
X180475000Y-97162500D01*
X179325000Y-99737500D02*
X180475000Y-99737500D01*
D10*
%TO.C,R8*%
X162135000Y-104394186D02*
X162135000Y-104848314D01*
X163605000Y-104394186D02*
X163605000Y-104848314D01*
D12*
%TO.C,D3*%
X159765000Y-100791250D02*
X159765000Y-100531250D01*
X161015000Y-100791250D02*
X161015000Y-100531250D01*
D11*
X160490000Y-102911250D02*
G75*
G02*
X160290000Y-102911250I-100000J0D01*
G01*
X160290000Y-102911250D02*
G75*
G02*
X160490000Y-102911250I100000J0D01*
G01*
D10*
%TO.C,J4*%
X180920000Y-66130000D02*
X180920000Y-64750000D01*
X182300000Y-66130000D02*
X180920000Y-66130000D01*
X183570000Y-63370000D02*
X191300000Y-63370000D01*
X183570000Y-66130000D02*
X183570000Y-63370000D01*
X183570000Y-66130000D02*
X191300000Y-66130000D01*
X191300000Y-66130000D02*
X191300000Y-63370000D01*
%TO.C,R18*%
X209272936Y-83265000D02*
X209727064Y-83265000D01*
X209272936Y-84735000D02*
X209727064Y-84735000D01*
%TO.C,R24*%
X174479564Y-72775000D02*
X174025436Y-72775000D01*
X174479564Y-74245000D02*
X174025436Y-74245000D01*
%TO.C,C16*%
X174526252Y-70475000D02*
X174003748Y-70475000D01*
X174526252Y-71945000D02*
X174003748Y-71945000D01*
D12*
%TO.C,Q3*%
X208225000Y-102520000D02*
X208225000Y-103190000D01*
X209055000Y-102520000D02*
X208225000Y-102520000D01*
X211125000Y-102520000D02*
X210295000Y-102520000D01*
X211125000Y-103190000D02*
X211125000Y-102520000D01*
D11*
X208825000Y-105520000D02*
G75*
G02*
X208625000Y-105520000I-100000J0D01*
G01*
X208625000Y-105520000D02*
G75*
G02*
X208825000Y-105520000I100000J0D01*
G01*
D10*
%TO.C,R13*%
X197265000Y-92847064D02*
X197265000Y-92392936D01*
X198735000Y-92847064D02*
X198735000Y-92392936D01*
%TO.C,U5*%
X186557500Y-102950000D02*
X186557500Y-101650000D01*
X188537500Y-102950000D02*
X188537500Y-101900000D01*
X188817500Y-101530000D02*
X188537500Y-101530000D01*
X188537500Y-101250000D01*
X188817500Y-101530000D01*
G36*
X188817500Y-101530000D02*
G01*
X188537500Y-101530000D01*
X188537500Y-101250000D01*
X188817500Y-101530000D01*
G37*
%TO.C,R32*%
X209310436Y-106265000D02*
X209764564Y-106265000D01*
X209310436Y-107735000D02*
X209764564Y-107735000D01*
D13*
%TO.C,U8*%
X190280000Y-81369200D02*
X191640000Y-81369200D01*
X191640000Y-78930800D02*
X190280000Y-78930800D01*
X188916200Y-78910800D02*
G75*
G02*
X188916200Y-79164800I0J-127000D01*
G01*
X188916200Y-79164800D02*
G75*
G02*
X188916200Y-78910800I0J127000D01*
G01*
D10*
%TO.C,R5*%
X167815000Y-104127064D02*
X167815000Y-103672936D01*
X169285000Y-104127064D02*
X169285000Y-103672936D01*
D12*
%TO.C,J1*%
X183150000Y-106050000D02*
X183150000Y-106750000D01*
X183150000Y-114220000D02*
X183150000Y-116300000D01*
X183150000Y-116300000D02*
X191890000Y-116300000D01*
X184300000Y-106050000D02*
X183150000Y-106050000D01*
X190740000Y-106050000D02*
X191890000Y-106050000D01*
X191890000Y-106050000D02*
X191890000Y-106750000D01*
X191890000Y-116300000D02*
X191890000Y-114220000D01*
D11*
X184820000Y-104450000D02*
G75*
G02*
X184620000Y-104450000I-100000J0D01*
G01*
X184620000Y-104450000D02*
G75*
G02*
X184820000Y-104450000I100000J0D01*
G01*
D10*
%TO.C,C19*%
X174451252Y-77275000D02*
X173928748Y-77275000D01*
X174451252Y-78745000D02*
X173928748Y-78745000D01*
D12*
%TO.C,C9*%
X163375000Y-86380000D02*
X163375000Y-87520000D01*
X165175000Y-86380000D02*
X165175000Y-87520000D01*
D10*
%TO.C,TP5*%
X207900000Y-75000000D02*
G75*
G02*
X206500000Y-75000000I-700000J0D01*
G01*
X206500000Y-75000000D02*
G75*
G02*
X207900000Y-75000000I700000J0D01*
G01*
D12*
%TO.C,J3*%
X217300000Y-94220000D02*
X217300000Y-112280000D01*
X217300000Y-116500000D02*
X217300000Y-115720000D01*
X223370000Y-91500000D02*
X224155000Y-91500000D01*
X225795000Y-91500000D02*
X226655000Y-91500000D01*
X228295000Y-91500000D02*
X229155000Y-91500000D01*
X230795000Y-91500000D02*
X231655000Y-91500000D01*
X233295000Y-91500000D02*
X234155000Y-91500000D01*
X235795000Y-91500000D02*
X236655000Y-91500000D01*
X238295000Y-91500000D02*
X239155000Y-91500000D01*
X243120000Y-91500000D02*
X243900000Y-91500000D01*
X243900000Y-91500000D02*
X243900000Y-112280000D01*
X243900000Y-116500000D02*
X217300000Y-116500000D01*
X243900000Y-116500000D02*
X243900000Y-115720000D01*
D11*
X237575000Y-89250000D02*
G75*
G02*
X237375000Y-89250000I-100000J0D01*
G01*
X237375000Y-89250000D02*
G75*
G02*
X237575000Y-89250000I100000J0D01*
G01*
D10*
%TO.C,R17*%
X220015000Y-76860436D02*
X220015000Y-77314564D01*
X221485000Y-76860436D02*
X221485000Y-77314564D01*
%TO.C,C18*%
X191271252Y-83415000D02*
X190748748Y-83415000D01*
X191271252Y-84885000D02*
X190748748Y-84885000D01*
%TO.C,C6*%
X182238748Y-101340000D02*
X182761252Y-101340000D01*
X182238748Y-102810000D02*
X182761252Y-102810000D01*
%TO.C,R19*%
X213022936Y-83265000D02*
X213477064Y-83265000D01*
X213022936Y-84735000D02*
X213477064Y-84735000D01*
D12*
%TO.C,C7*%
X219350000Y-70180000D02*
X219350000Y-71320000D01*
X221150000Y-70180000D02*
X221150000Y-71320000D01*
%TO.C,U4*%
D14*
X185272000Y-98005000D02*
G75*
G02*
X185018000Y-98005000I-127000J0D01*
G01*
X185018000Y-98005000D02*
G75*
G02*
X185272000Y-98005000I127000J0D01*
G01*
D12*
%TO.C,C3*%
X169970000Y-90900000D02*
X168830000Y-90900000D01*
X169970000Y-92700000D02*
X168830000Y-92700000D01*
D10*
%TO.C,R29*%
X201415000Y-66314564D02*
X201415000Y-65860436D01*
X202885000Y-66314564D02*
X202885000Y-65860436D01*
%TO.C,R12*%
X178015000Y-90685436D02*
X178015000Y-91139564D01*
X179485000Y-90685436D02*
X179485000Y-91139564D01*
%TO.C,R3*%
X172315000Y-103660436D02*
X172315000Y-104114564D01*
X173785000Y-103660436D02*
X173785000Y-104114564D01*
%TO.C,J5*%
X163080000Y-62510000D02*
X163080000Y-65270000D01*
X173350000Y-62510000D02*
X163080000Y-62510000D01*
X173350000Y-62510000D02*
X173350000Y-65270000D01*
X173350000Y-65270000D02*
X163080000Y-65270000D01*
X174620000Y-62510000D02*
X176000000Y-62510000D01*
X176000000Y-62510000D02*
X176000000Y-63890000D01*
%TO.C,C10*%
X160790000Y-87313748D02*
X160790000Y-87836252D01*
X162260000Y-87313748D02*
X162260000Y-87836252D01*
%TO.C,R4*%
X174635000Y-103652936D02*
X174635000Y-104107064D01*
X176105000Y-103652936D02*
X176105000Y-104107064D01*
%TO.C,C21*%
X209438748Y-109265000D02*
X209961252Y-109265000D01*
X209438748Y-110735000D02*
X209961252Y-110735000D01*
D12*
%TO.C,D5*%
X178125000Y-86292500D02*
X178125000Y-86032500D01*
X179375000Y-86292500D02*
X179375000Y-86032500D01*
D11*
X178850000Y-88412500D02*
G75*
G02*
X178650000Y-88412500I-100000J0D01*
G01*
X178650000Y-88412500D02*
G75*
G02*
X178850000Y-88412500I100000J0D01*
G01*
D10*
%TO.C,C14*%
X202265000Y-81488748D02*
X202265000Y-82011252D01*
X203735000Y-81488748D02*
X203735000Y-82011252D01*
%TO.C,R31*%
X203152064Y-106185000D02*
X202697936Y-106185000D01*
X203152064Y-107655000D02*
X202697936Y-107655000D01*
%TO.C,C8*%
X223265000Y-69988748D02*
X223265000Y-70511252D01*
X224735000Y-69988748D02*
X224735000Y-70511252D01*
D12*
%TO.C,Q2*%
X201490000Y-102490000D02*
X201490000Y-103160000D01*
X202320000Y-102490000D02*
X201490000Y-102490000D01*
X204390000Y-102490000D02*
X203560000Y-102490000D01*
X204390000Y-103160000D02*
X204390000Y-102490000D01*
D11*
X202090000Y-105490000D02*
G75*
G02*
X201890000Y-105490000I-100000J0D01*
G01*
X201890000Y-105490000D02*
G75*
G02*
X202090000Y-105490000I100000J0D01*
G01*
D10*
%TO.C,R28*%
X201727064Y-68415000D02*
X201272936Y-68415000D01*
X201727064Y-69885000D02*
X201272936Y-69885000D01*
%TO.C,C15*%
X193115000Y-65961252D02*
X193115000Y-65438748D01*
X194585000Y-65961252D02*
X194585000Y-65438748D01*
D12*
%TO.C,J2*%
X160290000Y-111725000D02*
X167790000Y-111725000D01*
X160290000Y-116175000D02*
X160290000Y-111725000D01*
X167790000Y-111725000D02*
X167790000Y-116175000D01*
X167790000Y-116175000D02*
X160290000Y-116175000D01*
D11*
X162890000Y-110725000D02*
G75*
G02*
X162690000Y-110725000I-100000J0D01*
G01*
X162690000Y-110725000D02*
G75*
G02*
X162890000Y-110725000I100000J0D01*
G01*
D10*
%TO.C,C5*%
X160715000Y-82611252D02*
X160715000Y-82088748D01*
X162185000Y-82611252D02*
X162185000Y-82088748D01*
%TO.C,R7*%
X159705000Y-104396686D02*
X159705000Y-104850814D01*
X161175000Y-104396686D02*
X161175000Y-104850814D01*
%TO.C,R21*%
X181442064Y-77798750D02*
X180987936Y-77798750D01*
X181442064Y-79268750D02*
X180987936Y-79268750D01*
%TO.C,C1*%
X191815000Y-102186252D02*
X191815000Y-101663748D01*
X193285000Y-102186252D02*
X193285000Y-101663748D01*
D12*
%TO.C,U2*%
X166075000Y-84100000D02*
X167315000Y-84100000D01*
X166075000Y-87600000D02*
X166075000Y-84100000D01*
X172575000Y-84100000D02*
X171335000Y-84100000D01*
X172575000Y-87600000D02*
X172575000Y-84100000D01*
D11*
X167125000Y-90450000D02*
G75*
G02*
X166925000Y-90450000I-100000J0D01*
G01*
X166925000Y-90450000D02*
G75*
G02*
X167125000Y-90450000I100000J0D01*
G01*
D10*
%TO.C,C11*%
X193455000Y-93071252D02*
X193455000Y-92548748D01*
X194925000Y-93071252D02*
X194925000Y-92548748D01*
%TO.C,TP1*%
X214000000Y-89300000D02*
G75*
G02*
X212600000Y-89300000I-700000J0D01*
G01*
X212600000Y-89300000D02*
G75*
G02*
X214000000Y-89300000I700000J0D01*
G01*
%TO.C,R9*%
X164905000Y-104076686D02*
X164905000Y-104530814D01*
X166375000Y-104076686D02*
X166375000Y-104530814D01*
%TO.C,C2*%
X169661252Y-93615000D02*
X169138748Y-93615000D01*
X169661252Y-95085000D02*
X169138748Y-95085000D01*
%TO.C,C22*%
X202663748Y-108935000D02*
X203186252Y-108935000D01*
X202663748Y-110405000D02*
X203186252Y-110405000D01*
%TO.C,R14*%
X197265000Y-96325436D02*
X197265000Y-96779564D01*
X198735000Y-96325436D02*
X198735000Y-96779564D01*
%TO.C,R6*%
X170065000Y-104177064D02*
X170065000Y-103722936D01*
X171535000Y-104177064D02*
X171535000Y-103722936D01*
%TO.C,R22*%
X180912936Y-75523750D02*
X181367064Y-75523750D01*
X180912936Y-76993750D02*
X181367064Y-76993750D01*
D12*
%TO.C,S1*%
X210380000Y-111800000D02*
X209020000Y-111800000D01*
X210380000Y-113700000D02*
X209020000Y-113700000D01*
D11*
X212000000Y-113350000D02*
G75*
G02*
X211800000Y-113350000I-100000J0D01*
G01*
X211800000Y-113350000D02*
G75*
G02*
X212000000Y-113350000I100000J0D01*
G01*
D10*
%TO.C,R16*%
X222515000Y-77389564D02*
X222515000Y-76935436D01*
X223985000Y-77389564D02*
X223985000Y-76935436D01*
D12*
%TO.C,C12*%
X232020000Y-86600000D02*
X230880000Y-86600000D01*
X232020000Y-88400000D02*
X230880000Y-88400000D01*
%TD*%
M02*
