%TF.GenerationSoftware,KiCad,Pcbnew,9.0.9*%
%TF.CreationDate,2026-07-13T22:37:57+05:30*%
%TF.ProjectId,STM32_IOT_project,53544d33-325f-4494-9f54-5f70726f6a65,rev?*%
%TF.SameCoordinates,Original*%
%TF.FileFunction,Copper,L4,Bot*%
%TF.FilePolarity,Positive*%
%FSLAX46Y46*%
G04 Gerber Fmt 4.6, Leading zero omitted, Abs format (unit mm)*
G04 Created by KiCad (PCBNEW 9.0.9) date 2026-07-13 22:37:57*
%MOMM*%
%LPD*%
G01*
G04 APERTURE LIST*
%TA.AperFunction,ComponentPad*%
%ADD10C,1.208000*%
%TD*%
%TA.AperFunction,ComponentPad*%
%ADD11C,0.400000*%
%TD*%
%TA.AperFunction,ComponentPad*%
%ADD12R,1.700000X1.700000*%
%TD*%
%TA.AperFunction,ComponentPad*%
%ADD13C,1.700000*%
%TD*%
%TA.AperFunction,ComponentPad*%
%ADD14C,0.650000*%
%TD*%
%TA.AperFunction,ComponentPad*%
%ADD15O,1.050000X2.100000*%
%TD*%
%TA.AperFunction,ComponentPad*%
%ADD16R,1.458000X1.458000*%
%TD*%
%TA.AperFunction,ComponentPad*%
%ADD17C,1.458000*%
%TD*%
%TA.AperFunction,ViaPad*%
%ADD18C,0.500000*%
%TD*%
%TA.AperFunction,ViaPad*%
%ADD19C,0.600000*%
%TD*%
%TA.AperFunction,Conductor*%
%ADD20C,0.254000*%
%TD*%
%TA.AperFunction,Conductor*%
%ADD21C,0.200000*%
%TD*%
G04 APERTURE END LIST*
D10*
%TO.P,MK1,GND*%
%TO.N,GND*%
X166750000Y-73550000D03*
%TO.P,MK1,OUT*%
%TO.N,Net-(U8-IN+)*%
X166750000Y-75450000D03*
%TD*%
D11*
%TO.P,U3,28,GND*%
%TO.N,GND*%
X236300000Y-74200000D03*
%TO.P,U3,29,GND*%
X237400000Y-74200000D03*
%TO.P,U3,30,GND*%
X235750000Y-74750000D03*
%TO.P,U3,31,GND*%
X236850000Y-74750000D03*
%TO.P,U3,32,GND*%
X237950000Y-74750000D03*
%TO.P,U3,33,GND*%
X236300000Y-75300000D03*
%TO.P,U3,34,GND*%
X237400000Y-75300000D03*
%TO.P,U3,35,GND*%
X235750000Y-75850000D03*
%TO.P,U3,36,GND*%
X236850000Y-75850000D03*
%TO.P,U3,37,GND*%
X237950000Y-75850000D03*
%TO.P,U3,38,GND*%
X236300000Y-76400000D03*
%TO.P,U3,39,GND*%
X237400000Y-76400000D03*
%TD*%
D12*
%TO.P,J4,1,Pin_1*%
%TO.N,GND*%
X182300000Y-64750000D03*
D13*
%TO.P,J4,2,Pin_2*%
%TO.N,/ESP32-C3-02/SCL*%
X184840000Y-64750000D03*
%TO.P,J4,3,Pin_3*%
%TO.N,/ESP32-C3-02/SDA*%
X187380000Y-64750000D03*
%TO.P,J4,4,Pin_4*%
%TO.N,+3.3V*%
X189920000Y-64750000D03*
%TD*%
D14*
%TO.P,J1,B1,GNDB1*%
%TO.N,GND*%
X190320000Y-106970000D03*
%TO.P,J1,B2,SSTXP2*%
%TO.N,unconnected-(J1-SSTXP2-PadB2)*%
X189920000Y-107680000D03*
%TO.P,J1,B3,SSTXN2*%
%TO.N,unconnected-(J1-SSTXN2-PadB3)*%
X189120000Y-107680000D03*
%TO.P,J1,B4,VBUSB1*%
%TO.N,/VBUS*%
X188720000Y-106970000D03*
%TO.P,J1,B5,CC2*%
%TO.N,Net-(J1-CC2)*%
X188320000Y-107680000D03*
%TO.P,J1,B6,DP2*%
%TO.N,/USB_DP*%
X187920000Y-106970000D03*
%TO.P,J1,B7,DN2*%
%TO.N,/USB_DN*%
X187120000Y-106970000D03*
%TO.P,J1,B8,SBU2*%
%TO.N,unconnected-(J1-SBU2-PadB8)*%
X186720000Y-107680000D03*
%TO.P,J1,B9,VBUSB2*%
%TO.N,/VBUS*%
X186320000Y-106970000D03*
%TO.P,J1,B10,SSRXN1*%
%TO.N,unconnected-(J1-SSRXN1-PadB10)*%
X185920000Y-107680000D03*
%TO.P,J1,B11,SSRXP1*%
%TO.N,unconnected-(J1-SSRXP1-PadB11)*%
X185120000Y-107680000D03*
%TO.P,J1,B12,GNDB2*%
%TO.N,GND*%
X184720000Y-106970000D03*
%TO.P,J1,G1,GND/SHIELD*%
X189520000Y-106970000D03*
%TO.P,J1,G2,GND/SHIELD*%
X185520000Y-106970000D03*
D15*
%TO.P,J1,S1,GND/SHIELD*%
X183250000Y-108120000D03*
%TO.P,J1,S2,GND/SHIELD*%
X191790000Y-108120000D03*
%TO.P,J1,S3,GND/SHIELD*%
X183250000Y-112850000D03*
%TO.P,J1,S4,GND/SHIELD*%
X191790000Y-112850000D03*
%TD*%
D12*
%TO.P,J5,1,Pin_1*%
%TO.N,GND*%
X174620000Y-63890000D03*
D13*
%TO.P,J5,2,Pin_2*%
%TO.N,/ESP32-C3-02/GPIO19*%
X172080000Y-63890000D03*
%TO.P,J5,3,Pin_3*%
%TO.N,/ESP32-C3-02/GPIO18*%
X169540000Y-63890000D03*
%TO.P,J5,4,Pin_4*%
%TO.N,/ESP32-C3-02/GPIO8*%
X167000000Y-63890000D03*
%TO.P,J5,5,Pin_5*%
%TO.N,+3.3V*%
X164460000Y-63890000D03*
%TD*%
D16*
%TO.P,J2,1,1*%
%TO.N,GND*%
X162790000Y-113950000D03*
D17*
%TO.P,J2,2,2*%
%TO.N,/VBAT*%
X165290000Y-113950000D03*
%TD*%
D18*
%TO.N,/ESP32-C3-02/TX_RX*%
X183710000Y-94050000D03*
%TO.N,/ESP32-C3-02/RX_TX*%
X184090000Y-93160000D03*
%TO.N,/ESP32-C3-02/RTS*%
X185466232Y-93936232D03*
%TO.N,/ESP32-C3-02/DTR*%
X186380000Y-93355000D03*
%TO.N,Net-(U1-~{PG})*%
X174950000Y-108460000D03*
%TO.N,Net-(U1-STAT1{slash}~{LBO})*%
X172660000Y-108870000D03*
%TO.N,Net-(U1-STAT2)*%
X173860000Y-108630000D03*
%TO.N,/+5V_USB*%
X176510000Y-111020000D03*
D19*
X172905000Y-115330000D03*
D18*
%TO.N,GND*%
X176490000Y-111960000D03*
%TO.N,/+5V_USB*%
X176390000Y-112960000D03*
D19*
%TO.N,/VBUS*%
X190770000Y-102875000D03*
%TO.N,/+5V_USB*%
X180100000Y-102075000D03*
%TO.N,+3.3V*%
X195590000Y-97680000D03*
%TO.N,/VBUS*%
X182900000Y-97200000D03*
X182900000Y-98200000D03*
D18*
X185325000Y-104375000D03*
X189275000Y-102300000D03*
D19*
X182900000Y-99200000D03*
D18*
%TO.N,GND*%
X163125000Y-89925000D03*
X187520000Y-111870000D03*
X160600000Y-89900000D03*
X183900000Y-104425000D03*
X166475000Y-93325000D03*
X195375000Y-64350000D03*
X165525000Y-89975000D03*
X161290000Y-115200000D03*
X196025000Y-65025000D03*
X176500000Y-70380000D03*
X174350000Y-102937500D03*
X181170000Y-106750000D03*
X199190000Y-68170000D03*
X214970000Y-113950000D03*
X212150000Y-110730000D03*
X224950000Y-85380000D03*
X241940000Y-89340000D03*
X202550000Y-86850000D03*
X176400000Y-76690000D03*
X186139922Y-101460078D03*
X166500000Y-94625000D03*
X194500000Y-100475000D03*
X171900000Y-102937500D03*
X205120000Y-110770000D03*
X169500000Y-102937500D03*
X201890000Y-91750000D03*
X161290000Y-112700000D03*
X178560000Y-63890000D03*
X188880000Y-84520000D03*
X170260000Y-73560000D03*
X186540000Y-98640000D03*
X229200000Y-80320000D03*
X188240000Y-79990000D03*
X205410000Y-113300000D03*
X233190000Y-85520000D03*
X161290000Y-113950000D03*
X166425000Y-91975000D03*
X184170000Y-100500000D03*
X220630000Y-88400000D03*
X166375000Y-90750000D03*
X222250000Y-71575000D03*
X207240000Y-113330000D03*
%TO.N,+3.3V*%
X169950000Y-81150000D03*
X196537500Y-67987500D03*
X158950000Y-83775000D03*
D19*
X193515000Y-79015000D03*
D18*
X182250000Y-83375000D03*
X215060000Y-77930000D03*
X202730000Y-89250000D03*
X203750000Y-69500000D03*
X178750000Y-83400000D03*
X171375000Y-81175000D03*
X167075000Y-81150000D03*
D19*
X193250000Y-84710000D03*
X239090000Y-85620000D03*
X216120000Y-68650000D03*
D18*
X159175000Y-86400000D03*
X195000000Y-68025000D03*
X170650000Y-81150000D03*
X216870000Y-78970000D03*
X168500000Y-81150000D03*
X167800000Y-81150000D03*
D19*
X175790000Y-67560000D03*
X229540000Y-85740000D03*
D18*
X161510000Y-64410000D03*
X169175000Y-81125000D03*
X198800000Y-80525000D03*
D19*
%TO.N,/+5V_USB*%
X176900000Y-99200000D03*
D18*
X161770000Y-99273750D03*
X164210000Y-99253750D03*
D19*
X176900000Y-98200000D03*
X176900000Y-97200000D03*
%TO.N,/ESP32-C3-02/MIC_OUT*%
X218270000Y-74510000D03*
X215190000Y-73920000D03*
%TO.N,/ESP32-C3-02/BOOT*%
X231340000Y-80150000D03*
X215180000Y-98240000D03*
%TO.N,/ESP32-C3-02/EN*%
X223050000Y-72520000D03*
X215020000Y-97430000D03*
X228845000Y-70895000D03*
X218970000Y-75030000D03*
D18*
%TO.N,/USB_DN*%
X188950000Y-103700000D03*
%TO.N,/USB_DP*%
X186175000Y-103250000D03*
D19*
%TO.N,/ESP32-C3-02/SCL*%
X237700000Y-71250000D03*
D18*
X215450000Y-69550000D03*
D19*
%TO.N,/ESP32-C3-02/SDA*%
X230430000Y-71410000D03*
X216230000Y-70040000D03*
%TO.N,/ESP32-C3-02/CD_SD*%
X247010000Y-72030000D03*
D18*
X242150000Y-87350000D03*
D19*
%TO.N,/ESP32-C3-02/GPIO19*%
X223010000Y-73550000D03*
X229600000Y-73210000D03*
%TO.N,/ESP32-C3-02/PHOTO_C*%
X246310000Y-71440000D03*
X247255000Y-70185000D03*
%TO.N,/ESP32-C3-02/RTS*%
X205430000Y-103610000D03*
%TO.N,/ESP32-C3-02/DTR*%
X207450000Y-103450000D03*
X205160000Y-107190000D03*
X203990000Y-105470000D03*
%TO.N,Net-(U1-STAT1{slash}~{LBO})*%
X161260000Y-106750000D03*
%TO.N,Net-(U1-STAT2)*%
X164280000Y-106070000D03*
%TO.N,Net-(U1-~{PG})*%
X165930000Y-106540000D03*
D18*
%TO.N,/ESP32-C3-02/CS*%
X229229975Y-81279975D03*
X215350000Y-76350000D03*
D19*
%TO.N,/ESP32-C3-02/GPIO8*%
X217130000Y-74810000D03*
X224210000Y-79480000D03*
%TO.N,/ESP32-C3-02/RX_TX*%
X242150000Y-78100000D03*
%TO.N,/ESP32-C3-02/TX_RX*%
X242525000Y-79615000D03*
%TO.N,/ESP32-C3-02/GPIO18*%
X229492463Y-74270000D03*
X220900000Y-74150000D03*
D18*
%TO.N,Net-(U4-VBUS)*%
X191870000Y-94960000D03*
X192185000Y-96665000D03*
%TD*%
D20*
%TO.N,Net-(U1-~{PG})*%
X166400000Y-107000000D02*
X166390000Y-107000000D01*
X166620000Y-107220000D02*
X166400000Y-107000000D01*
X174950000Y-108270000D02*
X173900000Y-107220000D01*
X173900000Y-107220000D02*
X166620000Y-107220000D01*
X174950000Y-108670000D02*
X174950000Y-108270000D01*
X166390000Y-107000000D02*
X165930000Y-106540000D01*
D21*
%TO.N,/ESP32-C3-02/TX_RX*%
X222280000Y-99860000D02*
X242525000Y-79615000D01*
X190530000Y-97858628D02*
X192531372Y-99860000D01*
X188030000Y-92830000D02*
X190530000Y-95330000D01*
X192531372Y-99860000D02*
X222280000Y-99860000D01*
X185830000Y-92830000D02*
X188030000Y-92830000D01*
X184630000Y-94030000D02*
X185830000Y-92830000D01*
X190530000Y-95330000D02*
X190530000Y-97858628D01*
X183980000Y-94030000D02*
X184630000Y-94030000D01*
%TO.N,/ESP32-C3-02/RX_TX*%
X241720000Y-78530000D02*
X242150000Y-78100000D01*
X241720000Y-79630000D02*
X241720000Y-78530000D01*
X190930000Y-95164314D02*
X190930000Y-97692942D01*
X192697058Y-99460000D02*
X221890000Y-99460000D01*
X188195686Y-92430000D02*
X190930000Y-95164314D01*
X190930000Y-97692942D02*
X192697058Y-99460000D01*
X184900000Y-92430000D02*
X188195686Y-92430000D01*
X184170000Y-93160000D02*
X184900000Y-92430000D01*
X184090000Y-93160000D02*
X184170000Y-93160000D01*
X221890000Y-99460000D02*
X241720000Y-79630000D01*
%TO.N,/ESP32-C3-02/RTS*%
X205430000Y-103310000D02*
X205430000Y-103610000D01*
X185646232Y-94116232D02*
X185656232Y-94116232D01*
X185466232Y-93936232D02*
X185646232Y-94116232D01*
X204970000Y-102850000D02*
X205430000Y-103310000D01*
X185656232Y-94116232D02*
X194390000Y-102850000D01*
X194390000Y-102850000D02*
X204970000Y-102850000D01*
%TO.N,/ESP32-C3-02/DTR*%
X205140000Y-105470000D02*
X203990000Y-105470000D01*
X206220000Y-104410000D02*
X205150000Y-105480000D01*
X194455686Y-102350000D02*
X205490000Y-102350000D01*
X186630000Y-94524314D02*
X194455686Y-102350000D01*
X186630000Y-93860000D02*
X186630000Y-94524314D01*
X205150000Y-105480000D02*
X205140000Y-105470000D01*
X205490000Y-102350000D02*
X206220000Y-103080000D01*
X186380000Y-93610000D02*
X186630000Y-93860000D01*
X206220000Y-103080000D02*
X206220000Y-104410000D01*
X186380000Y-93355000D02*
X186380000Y-93610000D01*
D20*
%TO.N,Net-(U1-STAT2)*%
X164810000Y-107280000D02*
X164810000Y-106600000D01*
X172910000Y-107680000D02*
X165210000Y-107680000D01*
X165210000Y-107680000D02*
X164810000Y-107280000D01*
X164810000Y-106600000D02*
X164280000Y-106070000D01*
X173860000Y-108630000D02*
X172910000Y-107680000D01*
%TO.N,Net-(U1-STAT1{slash}~{LBO})*%
X171950000Y-108160000D02*
X172660000Y-108870000D01*
X161440000Y-106940000D02*
X162660000Y-108160000D01*
X162660000Y-108160000D02*
X171950000Y-108160000D01*
%TO.N,/ESP32-C3-02/MIC_OUT*%
X215190000Y-73920000D02*
X217200000Y-73920000D01*
X217750000Y-74470000D02*
X218160000Y-74470000D01*
X217200000Y-73920000D02*
X217750000Y-74470000D01*
%TO.N,/ESP32-C3-02/BOOT*%
X216125621Y-97750000D02*
X231580000Y-82295621D01*
X215180000Y-98240000D02*
X215180000Y-98230000D01*
X215660000Y-97750000D02*
X216125621Y-97750000D01*
X231580000Y-80390000D02*
X231070000Y-79880000D01*
X215180000Y-98230000D02*
X215660000Y-97750000D01*
X231580000Y-82295621D02*
X231580000Y-80390000D01*
%TO.N,/ESP32-C3-02/EN*%
X220273000Y-74297000D02*
X220273000Y-73890288D01*
X218198000Y-95028000D02*
X218198000Y-93126379D01*
X228845000Y-70895000D02*
X228770000Y-70820000D01*
X215020000Y-97430000D02*
X215270000Y-97430000D01*
X222050000Y-72520000D02*
X223050000Y-72520000D01*
X215930000Y-97296000D02*
X218198000Y-95028000D01*
X215404000Y-97296000D02*
X215930000Y-97296000D01*
X219050000Y-74950000D02*
X219620000Y-74950000D01*
X218970000Y-75030000D02*
X219050000Y-74950000D01*
X223050000Y-72520000D02*
X223100000Y-72520000D01*
X220273000Y-73890288D02*
X220640288Y-73523000D01*
X218726379Y-92598000D02*
X220635569Y-92598000D01*
X219620000Y-74950000D02*
X220273000Y-74297000D01*
X218198000Y-93126379D02*
X218726379Y-92598000D01*
X214970000Y-97430000D02*
X215020000Y-97430000D01*
X230488000Y-72538000D02*
X228845000Y-70895000D01*
X230488000Y-82745569D02*
X230488000Y-72538000D01*
X220635569Y-92598000D02*
X230488000Y-82745569D01*
X220640288Y-73523000D02*
X221047000Y-73523000D01*
X215270000Y-97430000D02*
X215404000Y-97296000D01*
X221047000Y-73523000D02*
X222050000Y-72520000D01*
%TO.N,/USB_DN*%
X188950000Y-103925000D02*
X188950000Y-103700000D01*
X187120000Y-106970000D02*
X187120000Y-105755000D01*
X187120000Y-105755000D02*
X188950000Y-103925000D01*
D21*
%TO.N,/ESP32-C3-02/SCL*%
X216478529Y-69440000D02*
X215981471Y-69440000D01*
X236960000Y-69550000D02*
X216588529Y-69550000D01*
X215981471Y-69440000D02*
X215871471Y-69550000D01*
X237700000Y-70290000D02*
X236960000Y-69550000D01*
X215871471Y-69550000D02*
X215450000Y-69550000D01*
X237700000Y-71250000D02*
X237700000Y-70290000D01*
X216588529Y-69550000D02*
X216478529Y-69440000D01*
X237700000Y-71340000D02*
X237700000Y-71250000D01*
%TO.N,/ESP32-C3-02/SDA*%
X232580000Y-71410000D02*
X232415539Y-71410000D01*
X231981035Y-71250000D02*
X231981035Y-70570000D01*
X232660000Y-71410000D02*
X232600000Y-71410000D01*
X233270000Y-70800000D02*
X232660000Y-71410000D01*
X232415539Y-71410000D02*
X232311035Y-71410000D01*
X233010000Y-69950000D02*
X233270000Y-70210000D01*
X216310000Y-69950000D02*
X233010000Y-69950000D01*
X231581035Y-70570000D02*
X231581035Y-71250000D01*
X230941035Y-71410000D02*
X230921381Y-71410000D01*
X231821035Y-70410000D02*
X231741035Y-70410000D01*
X231421035Y-72410000D02*
X231341035Y-72410000D01*
X232600000Y-71410000D02*
X232590000Y-71420000D01*
X230921381Y-71410000D02*
X230430000Y-71410000D01*
X232311035Y-71410000D02*
X232141035Y-71410000D01*
X231181035Y-72250000D02*
X231181035Y-71570000D01*
X233270000Y-70210000D02*
X233270000Y-70800000D01*
X232590000Y-71420000D02*
X232580000Y-71410000D01*
X231581035Y-71250000D02*
X231581035Y-71570000D01*
X231021035Y-71410000D02*
X230941035Y-71410000D01*
X231581035Y-71570000D02*
X231581035Y-72250000D01*
X231581035Y-72250000D02*
G75*
G02*
X231421035Y-72410035I-160035J0D01*
G01*
X231981035Y-70570000D02*
G75*
G03*
X231821035Y-70409965I-160035J0D01*
G01*
X231181035Y-71570000D02*
G75*
G03*
X231021035Y-71409965I-160035J0D01*
G01*
X231741035Y-70410000D02*
G75*
G03*
X231581000Y-70570000I-35J-160000D01*
G01*
X231341035Y-72410000D02*
G75*
G02*
X231181000Y-72250000I-35J160000D01*
G01*
X232141035Y-71410000D02*
G75*
G02*
X231981000Y-71250000I-35J160000D01*
G01*
%TO.N,/ESP32-C3-02/CD_SD*%
X247010000Y-72110000D02*
X247080000Y-72180000D01*
X247080000Y-84070000D02*
X243800000Y-87350000D01*
X243800000Y-87350000D02*
X242150000Y-87350000D01*
X247080000Y-72180000D02*
X247080000Y-72222157D01*
X247080000Y-72222157D02*
X247080000Y-84070000D01*
X247010000Y-72027843D02*
X247010000Y-72110000D01*
%TO.N,/ESP32-C3-02/GPIO19*%
X229460000Y-73350000D02*
X229600000Y-73210000D01*
X229160000Y-73660000D02*
X229460000Y-73360000D01*
X223120000Y-73660000D02*
X229160000Y-73660000D01*
X229460000Y-73360000D02*
X229460000Y-73350000D01*
%TO.N,/ESP32-C3-02/PHOTO_C*%
X247210000Y-70540000D02*
X246310000Y-71440000D01*
X247210000Y-70140000D02*
X247210000Y-70540000D01*
%TO.N,/ESP32-C3-02/RTS*%
X205430000Y-103610000D02*
X205430000Y-103620000D01*
D20*
%TO.N,/ESP32-C3-02/DTR*%
X207510000Y-103490000D02*
X207510000Y-104840000D01*
X207510000Y-104840000D02*
X205160000Y-107190000D01*
D21*
%TO.N,/ESP32-C3-02/CS*%
X229229975Y-81279975D02*
X229225000Y-81275000D01*
X229225000Y-81275000D02*
X220275000Y-81275000D01*
X220275000Y-81275000D02*
X215350000Y-76350000D01*
%TO.N,/ESP32-C3-02/GPIO8*%
X217130000Y-74810000D02*
X217240000Y-74920000D01*
X221900000Y-79530000D02*
X224160000Y-79530000D01*
X217240000Y-74920000D02*
X217290000Y-74920000D01*
X217290000Y-74920000D02*
X221900000Y-79530000D01*
%TO.N,/ESP32-C3-02/TX_RX*%
X242525000Y-79615000D02*
X242540000Y-79600000D01*
X183700000Y-94030000D02*
X183980000Y-94030000D01*
%TO.N,/ESP32-C3-02/GPIO18*%
X220900000Y-74150000D02*
X221020000Y-74270000D01*
X220750000Y-74150000D02*
X220900000Y-74150000D01*
X221020000Y-74270000D02*
X229470000Y-74270000D01*
D20*
%TO.N,Net-(U4-VBUS)*%
X191870000Y-94960000D02*
X191870000Y-96350000D01*
X191870000Y-96350000D02*
X192185000Y-96665000D01*
%TD*%
M02*
