%TF.GenerationSoftware,KiCad,Pcbnew,9.0.9*%
%TF.CreationDate,2026-07-13T22:37:57+05:30*%
%TF.ProjectId,STM32_IOT_project,53544d33-325f-4494-9f54-5f70726f6a65,rev?*%
%TF.SameCoordinates,Original*%
%TF.FileFunction,Copper,L3,Inr*%
%TF.FilePolarity,Positive*%
%FSLAX46Y46*%
G04 Gerber Fmt 4.6, Leading zero omitted, Abs format (unit mm)*
G04 Created by KiCad (PCBNEW 9.0.9) date 2026-07-13 22:37:57*
%MOMM*%
%LPD*%
G01*
G04 APERTURE LIST*
%TA.AperFunction,ComponentPad*%
%ADD10C,1.208000*%
%TD*%
%TA.AperFunction,ComponentPad*%
%ADD11C,0.400000*%
%TD*%
%TA.AperFunction,ComponentPad*%
%ADD12R,1.700000X1.700000*%
%TD*%
%TA.AperFunction,ComponentPad*%
%ADD13C,1.700000*%
%TD*%
%TA.AperFunction,ComponentPad*%
%ADD14C,0.650000*%
%TD*%
%TA.AperFunction,ComponentPad*%
%ADD15O,1.050000X2.100000*%
%TD*%
%TA.AperFunction,ComponentPad*%
%ADD16R,1.458000X1.458000*%
%TD*%
%TA.AperFunction,ComponentPad*%
%ADD17C,1.458000*%
%TD*%
%TA.AperFunction,ViaPad*%
%ADD18C,0.500000*%
%TD*%
%TA.AperFunction,ViaPad*%
%ADD19C,0.600000*%
%TD*%
G04 APERTURE END LIST*
D10*
%TO.N,GND*%
%TO.C,MK1*%
X166750000Y-73550000D03*
%TO.N,Net-(U8-IN+)*%
X166750000Y-75450000D03*
%TD*%
D11*
%TO.N,GND*%
%TO.C,U3*%
X236300000Y-74200000D03*
X237400000Y-74200000D03*
X235750000Y-74750000D03*
X236850000Y-74750000D03*
X237950000Y-74750000D03*
X236300000Y-75300000D03*
X237400000Y-75300000D03*
X235750000Y-75850000D03*
X236850000Y-75850000D03*
X237950000Y-75850000D03*
X236300000Y-76400000D03*
X237400000Y-76400000D03*
%TD*%
D12*
%TO.N,GND*%
%TO.C,J4*%
X182300000Y-64750000D03*
D13*
%TO.N,/ESP32-C3-02/SCL*%
X184840000Y-64750000D03*
%TO.N,/ESP32-C3-02/SDA*%
X187380000Y-64750000D03*
%TO.N,+3.3V*%
X189920000Y-64750000D03*
%TD*%
D14*
%TO.N,GND*%
%TO.C,J1*%
X190320000Y-106970000D03*
%TO.N,unconnected-(J1-SSTXP2-PadB2)*%
X189920000Y-107680000D03*
%TO.N,unconnected-(J1-SSTXN2-PadB3)*%
X189120000Y-107680000D03*
%TO.N,/VBUS*%
X188720000Y-106970000D03*
%TO.N,Net-(J1-CC2)*%
X188320000Y-107680000D03*
%TO.N,/USB_DP*%
X187920000Y-106970000D03*
%TO.N,/USB_DN*%
X187120000Y-106970000D03*
%TO.N,unconnected-(J1-SBU2-PadB8)*%
X186720000Y-107680000D03*
%TO.N,/VBUS*%
X186320000Y-106970000D03*
%TO.N,unconnected-(J1-SSRXN1-PadB10)*%
X185920000Y-107680000D03*
%TO.N,unconnected-(J1-SSRXP1-PadB11)*%
X185120000Y-107680000D03*
%TO.N,GND*%
X184720000Y-106970000D03*
X189520000Y-106970000D03*
X185520000Y-106970000D03*
D15*
X183250000Y-108120000D03*
X191790000Y-108120000D03*
X183250000Y-112850000D03*
X191790000Y-112850000D03*
%TD*%
D12*
%TO.N,GND*%
%TO.C,J5*%
X174620000Y-63890000D03*
D13*
%TO.N,/ESP32-C3-02/GPIO19*%
X172080000Y-63890000D03*
%TO.N,/ESP32-C3-02/GPIO18*%
X169540000Y-63890000D03*
%TO.N,/ESP32-C3-02/GPIO8*%
X167000000Y-63890000D03*
%TO.N,+3.3V*%
X164460000Y-63890000D03*
%TD*%
D16*
%TO.N,GND*%
%TO.C,J2*%
X162790000Y-113950000D03*
D17*
%TO.N,/VBAT*%
X165290000Y-113950000D03*
%TD*%
D18*
%TO.N,/ESP32-C3-02/TX_RX*%
X183710000Y-94050000D03*
%TO.N,/ESP32-C3-02/RX_TX*%
X184090000Y-93160000D03*
%TO.N,/ESP32-C3-02/RTS*%
X185466232Y-93936232D03*
%TO.N,/ESP32-C3-02/DTR*%
X186380000Y-93355000D03*
%TO.N,Net-(U1-~{PG})*%
X174950000Y-108460000D03*
%TO.N,Net-(U1-STAT1{slash}~{LBO})*%
X172660000Y-108870000D03*
%TO.N,Net-(U1-STAT2)*%
X173860000Y-108630000D03*
%TO.N,/+5V_USB*%
X176510000Y-111020000D03*
D19*
X172905000Y-115330000D03*
D18*
%TO.N,GND*%
X176490000Y-111960000D03*
%TO.N,/+5V_USB*%
X176390000Y-112960000D03*
D19*
%TO.N,/VBUS*%
X190770000Y-102875000D03*
%TO.N,/+5V_USB*%
X180100000Y-102075000D03*
%TO.N,+3.3V*%
X195590000Y-97680000D03*
%TO.N,/VBUS*%
X182900000Y-97200000D03*
X182900000Y-98200000D03*
D18*
X185325000Y-104375000D03*
X189275000Y-102300000D03*
D19*
X182900000Y-99200000D03*
D18*
%TO.N,GND*%
X163125000Y-89925000D03*
X187520000Y-111870000D03*
X160600000Y-89900000D03*
X183900000Y-104425000D03*
X166475000Y-93325000D03*
X195375000Y-64350000D03*
X165525000Y-89975000D03*
X161290000Y-115200000D03*
X196025000Y-65025000D03*
X176500000Y-70380000D03*
X174350000Y-102937500D03*
X181170000Y-106750000D03*
X199190000Y-68170000D03*
X214970000Y-113950000D03*
X212150000Y-110730000D03*
X224950000Y-85380000D03*
X241940000Y-89340000D03*
X202550000Y-86850000D03*
X176400000Y-76690000D03*
X186139922Y-101460078D03*
X166500000Y-94625000D03*
X194500000Y-100475000D03*
X171900000Y-102937500D03*
X205120000Y-110770000D03*
X169500000Y-102937500D03*
X201890000Y-91750000D03*
X161290000Y-112700000D03*
X178560000Y-63890000D03*
X188880000Y-84520000D03*
X170260000Y-73560000D03*
X186540000Y-98640000D03*
X229200000Y-80320000D03*
X188240000Y-79990000D03*
X205410000Y-113300000D03*
X233190000Y-85520000D03*
X161290000Y-113950000D03*
X166425000Y-91975000D03*
X184170000Y-100500000D03*
X220630000Y-88400000D03*
X166375000Y-90750000D03*
X222250000Y-71575000D03*
X207240000Y-113330000D03*
%TO.N,+3.3V*%
X169950000Y-81150000D03*
X196537500Y-67987500D03*
X158950000Y-83775000D03*
D19*
X193515000Y-79015000D03*
D18*
X182250000Y-83375000D03*
X215060000Y-77930000D03*
X202730000Y-89250000D03*
X203750000Y-69500000D03*
X178750000Y-83400000D03*
X171375000Y-81175000D03*
X167075000Y-81150000D03*
D19*
X193250000Y-84710000D03*
X239090000Y-85620000D03*
X216120000Y-68650000D03*
D18*
X159175000Y-86400000D03*
X195000000Y-68025000D03*
X170650000Y-81150000D03*
X216870000Y-78970000D03*
X168500000Y-81150000D03*
X167800000Y-81150000D03*
D19*
X175790000Y-67560000D03*
X229540000Y-85740000D03*
D18*
X161510000Y-64410000D03*
X169175000Y-81125000D03*
X198800000Y-80525000D03*
D19*
%TO.N,/+5V_USB*%
X176900000Y-99200000D03*
D18*
X161770000Y-99273750D03*
X164210000Y-99253750D03*
D19*
X176900000Y-98200000D03*
X176900000Y-97200000D03*
%TO.N,/ESP32-C3-02/MIC_OUT*%
X218270000Y-74510000D03*
X215190000Y-73920000D03*
%TO.N,/ESP32-C3-02/BOOT*%
X231340000Y-80150000D03*
X215180000Y-98240000D03*
%TO.N,/ESP32-C3-02/EN*%
X223050000Y-72520000D03*
X215020000Y-97430000D03*
X228845000Y-70895000D03*
X218970000Y-75030000D03*
D18*
%TO.N,/USB_DN*%
X188950000Y-103700000D03*
%TO.N,/USB_DP*%
X186175000Y-103250000D03*
D19*
%TO.N,/ESP32-C3-02/SCL*%
X237700000Y-71250000D03*
D18*
X215450000Y-69550000D03*
D19*
%TO.N,/ESP32-C3-02/SDA*%
X230430000Y-71410000D03*
X216230000Y-70040000D03*
%TO.N,/ESP32-C3-02/CD_SD*%
X247010000Y-72030000D03*
D18*
X242150000Y-87350000D03*
D19*
%TO.N,/ESP32-C3-02/GPIO19*%
X223010000Y-73550000D03*
X229600000Y-73210000D03*
%TO.N,/ESP32-C3-02/PHOTO_C*%
X246310000Y-71440000D03*
X247255000Y-70185000D03*
%TO.N,/ESP32-C3-02/RTS*%
X205430000Y-103610000D03*
%TO.N,/ESP32-C3-02/DTR*%
X207450000Y-103450000D03*
X205160000Y-107190000D03*
X203990000Y-105470000D03*
%TO.N,Net-(U1-STAT1{slash}~{LBO})*%
X161260000Y-106750000D03*
%TO.N,Net-(U1-STAT2)*%
X164280000Y-106070000D03*
%TO.N,Net-(U1-~{PG})*%
X165930000Y-106540000D03*
D18*
%TO.N,/ESP32-C3-02/CS*%
X229229975Y-81279975D03*
X215350000Y-76350000D03*
D19*
%TO.N,/ESP32-C3-02/GPIO8*%
X217130000Y-74810000D03*
X224210000Y-79480000D03*
%TO.N,/ESP32-C3-02/RX_TX*%
X242150000Y-78100000D03*
%TO.N,/ESP32-C3-02/TX_RX*%
X242525000Y-79615000D03*
%TO.N,/ESP32-C3-02/GPIO18*%
X229492463Y-74270000D03*
X220900000Y-74150000D03*
D18*
%TO.N,Net-(U4-VBUS)*%
X191870000Y-94960000D03*
X192185000Y-96665000D03*
%TD*%
%TA.AperFunction,Conductor*%
%TO.N,GND*%
G36*
X206504043Y-61700765D02*
G01*
X206726790Y-61715364D01*
X206742848Y-61717479D01*
X206957781Y-61760231D01*
X206973434Y-61764426D01*
X207180941Y-61834865D01*
X207195925Y-61841071D01*
X207392464Y-61937994D01*
X207406510Y-61946104D01*
X207588705Y-62067842D01*
X207601574Y-62077716D01*
X207766328Y-62222202D01*
X207777797Y-62233671D01*
X207922283Y-62398425D01*
X207932157Y-62411294D01*
X208053895Y-62593489D01*
X208062005Y-62607535D01*
X208158928Y-62804074D01*
X208165135Y-62819060D01*
X208235571Y-63026558D01*
X208239769Y-63042225D01*
X208282518Y-63257140D01*
X208284636Y-63273221D01*
X208299235Y-63495956D01*
X208299500Y-63504066D01*
X208299500Y-66133108D01*
X208331589Y-66397381D01*
X208395297Y-66655857D01*
X208446271Y-66790261D01*
X208489696Y-66904764D01*
X208489698Y-66904768D01*
X208489699Y-66904770D01*
X208489699Y-66904771D01*
X208507250Y-66938211D01*
X208613411Y-67140483D01*
X208613414Y-67140487D01*
X208613415Y-67140489D01*
X208764633Y-67359568D01*
X208764638Y-67359574D01*
X208941165Y-67558832D01*
X208941167Y-67558834D01*
X209140425Y-67735361D01*
X209140431Y-67735366D01*
X209312715Y-67854284D01*
X209359517Y-67886589D01*
X209595236Y-68010304D01*
X209788905Y-68083753D01*
X209844142Y-68104702D01*
X209844144Y-68104702D01*
X209844148Y-68104704D01*
X210102624Y-68168412D01*
X210324511Y-68195353D01*
X210366892Y-68200500D01*
X210366894Y-68200500D01*
X210460118Y-68200500D01*
X215254155Y-68200500D01*
X215321194Y-68220185D01*
X215366949Y-68272989D01*
X215376893Y-68342147D01*
X215368716Y-68371952D01*
X215350264Y-68416498D01*
X215350261Y-68416510D01*
X215319500Y-68571153D01*
X215319500Y-68709557D01*
X215299815Y-68776596D01*
X215247011Y-68822351D01*
X215231508Y-68828214D01*
X215231087Y-68828341D01*
X215094511Y-68884912D01*
X215094498Y-68884919D01*
X214971584Y-68967048D01*
X214971580Y-68967051D01*
X214867051Y-69071580D01*
X214867048Y-69071584D01*
X214784919Y-69194498D01*
X214784912Y-69194511D01*
X214728343Y-69331082D01*
X214728340Y-69331092D01*
X214699500Y-69476079D01*
X214699500Y-69476082D01*
X214699500Y-69623918D01*
X214699500Y-69623920D01*
X214699499Y-69623920D01*
X214728340Y-69768907D01*
X214728343Y-69768917D01*
X214784912Y-69905488D01*
X214784919Y-69905501D01*
X214867048Y-70028415D01*
X214867051Y-70028419D01*
X214971580Y-70132948D01*
X214971584Y-70132951D01*
X215094498Y-70215080D01*
X215094511Y-70215087D01*
X215212217Y-70263842D01*
X215231087Y-70271658D01*
X215231091Y-70271658D01*
X215231092Y-70271659D01*
X215376079Y-70300500D01*
X215376082Y-70300500D01*
X215388594Y-70300500D01*
X215455633Y-70320185D01*
X215501388Y-70372989D01*
X215503142Y-70377018D01*
X215506329Y-70384711D01*
X215520605Y-70419178D01*
X215520609Y-70419185D01*
X215608210Y-70550288D01*
X215608213Y-70550292D01*
X215719707Y-70661786D01*
X215719711Y-70661789D01*
X215850814Y-70749390D01*
X215850827Y-70749397D01*
X215971057Y-70799197D01*
X215996503Y-70809737D01*
X216151153Y-70840499D01*
X216151156Y-70840500D01*
X216151158Y-70840500D01*
X216308844Y-70840500D01*
X216308845Y-70840499D01*
X216431241Y-70816153D01*
X228044500Y-70816153D01*
X228044500Y-70973846D01*
X228075261Y-71128489D01*
X228075264Y-71128501D01*
X228135602Y-71274172D01*
X228135609Y-71274185D01*
X228223210Y-71405288D01*
X228223213Y-71405292D01*
X228334707Y-71516786D01*
X228334711Y-71516789D01*
X228465814Y-71604390D01*
X228465827Y-71604397D01*
X228588973Y-71655405D01*
X228611503Y-71664737D01*
X228750679Y-71692421D01*
X228766153Y-71695499D01*
X228766156Y-71695500D01*
X228766158Y-71695500D01*
X228923844Y-71695500D01*
X228923845Y-71695499D01*
X229078497Y-71664737D01*
X229224179Y-71604394D01*
X229355289Y-71516789D01*
X229424603Y-71447474D01*
X229485924Y-71413991D01*
X229555616Y-71418975D01*
X229611550Y-71460846D01*
X229633900Y-71510965D01*
X229660261Y-71643491D01*
X229660264Y-71643501D01*
X229720602Y-71789172D01*
X229720609Y-71789185D01*
X229808210Y-71920288D01*
X229808213Y-71920292D01*
X229919707Y-72031786D01*
X229919711Y-72031789D01*
X230050814Y-72119390D01*
X230050827Y-72119397D01*
X230196498Y-72179735D01*
X230196503Y-72179737D01*
X230347312Y-72209735D01*
X230351153Y-72210499D01*
X230351156Y-72210500D01*
X230351158Y-72210500D01*
X230508844Y-72210500D01*
X230508845Y-72210499D01*
X230663497Y-72179737D01*
X230809179Y-72119394D01*
X230940289Y-72031789D01*
X231051789Y-71920289D01*
X231139394Y-71789179D01*
X231199737Y-71643497D01*
X231230500Y-71488842D01*
X231230500Y-71331158D01*
X231230500Y-71331155D01*
X231202274Y-71189258D01*
X231199737Y-71176503D01*
X231197521Y-71171153D01*
X236899500Y-71171153D01*
X236899500Y-71328846D01*
X236930261Y-71483489D01*
X236930264Y-71483501D01*
X236990602Y-71629172D01*
X236990609Y-71629185D01*
X237078210Y-71760288D01*
X237078213Y-71760292D01*
X237189707Y-71871786D01*
X237189711Y-71871789D01*
X237320814Y-71959390D01*
X237320827Y-71959397D01*
X237442288Y-72009707D01*
X237466503Y-72019737D01*
X237621153Y-72050499D01*
X237621156Y-72050500D01*
X237621158Y-72050500D01*
X237778844Y-72050500D01*
X237778845Y-72050499D01*
X237933497Y-72019737D01*
X238079179Y-71959394D01*
X238210289Y-71871789D01*
X238321789Y-71760289D01*
X238409394Y-71629179D01*
X238469737Y-71483497D01*
X238500500Y-71328842D01*
X238500500Y-71171158D01*
X238500500Y-71171155D01*
X238500499Y-71171153D01*
X238492014Y-71128497D01*
X238469737Y-71016503D01*
X238452068Y-70973846D01*
X238409397Y-70870827D01*
X238409390Y-70870814D01*
X238321789Y-70739711D01*
X238321786Y-70739707D01*
X238210292Y-70628213D01*
X238210288Y-70628210D01*
X238079185Y-70540609D01*
X238079172Y-70540602D01*
X237933501Y-70480264D01*
X237933489Y-70480261D01*
X237778845Y-70449500D01*
X237778842Y-70449500D01*
X237621158Y-70449500D01*
X237621155Y-70449500D01*
X237466510Y-70480261D01*
X237466498Y-70480264D01*
X237320827Y-70540602D01*
X237320814Y-70540609D01*
X237189711Y-70628210D01*
X237189707Y-70628213D01*
X237078213Y-70739707D01*
X237078210Y-70739711D01*
X236990609Y-70870814D01*
X236990602Y-70870827D01*
X236930264Y-71016498D01*
X236930261Y-71016510D01*
X236899500Y-71171153D01*
X231197521Y-71171153D01*
X231179854Y-71128501D01*
X231139397Y-71030827D01*
X231139390Y-71030814D01*
X231051789Y-70899711D01*
X231051786Y-70899707D01*
X230940292Y-70788213D01*
X230940288Y-70788210D01*
X230809185Y-70700609D01*
X230809172Y-70700602D01*
X230663501Y-70640264D01*
X230663489Y-70640261D01*
X230508845Y-70609500D01*
X230508842Y-70609500D01*
X230351158Y-70609500D01*
X230351155Y-70609500D01*
X230196510Y-70640261D01*
X230196498Y-70640264D01*
X230050827Y-70700602D01*
X230050814Y-70700609D01*
X229919711Y-70788210D01*
X229850397Y-70857524D01*
X229789073Y-70891008D01*
X229719382Y-70886023D01*
X229663448Y-70844152D01*
X229641099Y-70794033D01*
X229632219Y-70749390D01*
X229614737Y-70661503D01*
X229589260Y-70599996D01*
X229554397Y-70515827D01*
X229554390Y-70515814D01*
X229466789Y-70384711D01*
X229466786Y-70384707D01*
X229355292Y-70273213D01*
X229355288Y-70273210D01*
X229224185Y-70185609D01*
X229224172Y-70185602D01*
X229078501Y-70125264D01*
X229078489Y-70125261D01*
X228923845Y-70094500D01*
X228923842Y-70094500D01*
X228766158Y-70094500D01*
X228766155Y-70094500D01*
X228611510Y-70125261D01*
X228611498Y-70125264D01*
X228465827Y-70185602D01*
X228465814Y-70185609D01*
X228334711Y-70273210D01*
X228334707Y-70273213D01*
X228223213Y-70384707D01*
X228223210Y-70384711D01*
X228135609Y-70515814D01*
X228135602Y-70515827D01*
X228075264Y-70661498D01*
X228075261Y-70661510D01*
X228044500Y-70816153D01*
X216431241Y-70816153D01*
X216463497Y-70809737D01*
X216609179Y-70749394D01*
X216637293Y-70730609D01*
X216672681Y-70706964D01*
X216727605Y-70670264D01*
X216740289Y-70661789D01*
X216851789Y-70550289D01*
X216939394Y-70419179D01*
X216939677Y-70418497D01*
X216999735Y-70273501D01*
X216999737Y-70273497D01*
X217030500Y-70118842D01*
X217030500Y-69961158D01*
X217030500Y-69961155D01*
X217030499Y-69961153D01*
X216999738Y-69806510D01*
X216999737Y-69806503D01*
X216988879Y-69780290D01*
X216939397Y-69660827D01*
X216939390Y-69660814D01*
X216851789Y-69529711D01*
X216851786Y-69529707D01*
X216740292Y-69418213D01*
X216740286Y-69418208D01*
X216712204Y-69399444D01*
X216667400Y-69345832D01*
X216658693Y-69276507D01*
X216688848Y-69213479D01*
X216693379Y-69208698D01*
X216741789Y-69160289D01*
X216829394Y-69029179D01*
X216889737Y-68883497D01*
X216920500Y-68728842D01*
X216920500Y-68571158D01*
X216920500Y-68571155D01*
X216920499Y-68571153D01*
X216907025Y-68503415D01*
X216889737Y-68416503D01*
X216874825Y-68380501D01*
X216871284Y-68371952D01*
X216863815Y-68302483D01*
X216895091Y-68240004D01*
X216955180Y-68204352D01*
X216985845Y-68200500D01*
X224960160Y-68200500D01*
X224960201Y-68200517D01*
X225001134Y-68200500D01*
X225039882Y-68200500D01*
X225052813Y-68200500D01*
X225053019Y-68200477D01*
X246124486Y-68191727D01*
X246132628Y-68191991D01*
X246356696Y-68206677D01*
X246372752Y-68208792D01*
X246588998Y-68251806D01*
X246604649Y-68256000D01*
X246813419Y-68326868D01*
X246828401Y-68333073D01*
X246884015Y-68360499D01*
X247026134Y-68430585D01*
X247040182Y-68438695D01*
X247223496Y-68561182D01*
X247236356Y-68571050D01*
X247278430Y-68607948D01*
X247402114Y-68716416D01*
X247413583Y-68727885D01*
X247456302Y-68776596D01*
X247551292Y-68884912D01*
X247558946Y-68893639D01*
X247568820Y-68906507D01*
X247691304Y-69089818D01*
X247699414Y-69103865D01*
X247796925Y-69301596D01*
X247803134Y-69316586D01*
X247805667Y-69324049D01*
X247808573Y-69393859D01*
X247773277Y-69454157D01*
X247710983Y-69485801D01*
X247641471Y-69478742D01*
X247639360Y-69477751D01*
X247488501Y-69415264D01*
X247488489Y-69415261D01*
X247333845Y-69384500D01*
X247333842Y-69384500D01*
X247176158Y-69384500D01*
X247176155Y-69384500D01*
X247021510Y-69415261D01*
X247021498Y-69415264D01*
X246875827Y-69475602D01*
X246875814Y-69475609D01*
X246744711Y-69563210D01*
X246744707Y-69563213D01*
X246633213Y-69674707D01*
X246633210Y-69674711D01*
X246545609Y-69805814D01*
X246545602Y-69805827D01*
X246485264Y-69951498D01*
X246485261Y-69951510D01*
X246454500Y-70106153D01*
X246454500Y-70263846D01*
X246485261Y-70418489D01*
X246485264Y-70418501D01*
X246505787Y-70468048D01*
X246513256Y-70537517D01*
X246481980Y-70599996D01*
X246421891Y-70635648D01*
X246391226Y-70639500D01*
X246231155Y-70639500D01*
X246076510Y-70670261D01*
X246076498Y-70670264D01*
X245930827Y-70730602D01*
X245930814Y-70730609D01*
X245799711Y-70818210D01*
X245799707Y-70818213D01*
X245688213Y-70929707D01*
X245688210Y-70929711D01*
X245600609Y-71060814D01*
X245600602Y-71060827D01*
X245540264Y-71206498D01*
X245540261Y-71206510D01*
X245509500Y-71361153D01*
X245509500Y-71518846D01*
X245540261Y-71673489D01*
X245540264Y-71673501D01*
X245600602Y-71819172D01*
X245600609Y-71819185D01*
X245688210Y-71950288D01*
X245688213Y-71950292D01*
X245799707Y-72061786D01*
X245799711Y-72061789D01*
X245930814Y-72149390D01*
X245930827Y-72149397D01*
X246004078Y-72179738D01*
X246076503Y-72209737D01*
X246165693Y-72227478D01*
X246227604Y-72259862D01*
X246256063Y-72301643D01*
X246300602Y-72409172D01*
X246300609Y-72409185D01*
X246388210Y-72540288D01*
X246388213Y-72540292D01*
X246499707Y-72651786D01*
X246499711Y-72651789D01*
X246630814Y-72739390D01*
X246630827Y-72739397D01*
X246776498Y-72799735D01*
X246776503Y-72799737D01*
X246931153Y-72830499D01*
X246931156Y-72830500D01*
X246931158Y-72830500D01*
X247088844Y-72830500D01*
X247088845Y-72830499D01*
X247243497Y-72799737D01*
X247389179Y-72739394D01*
X247520289Y-72651789D01*
X247631789Y-72540289D01*
X247694791Y-72446000D01*
X247711236Y-72421389D01*
X247764848Y-72376584D01*
X247834173Y-72367877D01*
X247897201Y-72398031D01*
X247933920Y-72457475D01*
X247938338Y-72490277D01*
X247939499Y-116325570D01*
X247939183Y-116334419D01*
X247922630Y-116565864D01*
X247920112Y-116583376D01*
X247871734Y-116805768D01*
X247866750Y-116822744D01*
X247787209Y-117035999D01*
X247779859Y-117052092D01*
X247670784Y-117251849D01*
X247661219Y-117266732D01*
X247524825Y-117448933D01*
X247513239Y-117462304D01*
X247352304Y-117623239D01*
X247338933Y-117634825D01*
X247156732Y-117771219D01*
X247141849Y-117780784D01*
X246942092Y-117889859D01*
X246925999Y-117897209D01*
X246712744Y-117976750D01*
X246695768Y-117981734D01*
X246473376Y-118030112D01*
X246455864Y-118032630D01*
X246224418Y-118049184D01*
X246215572Y-118049500D01*
X157754067Y-118049500D01*
X157745957Y-118049235D01*
X157523221Y-118034636D01*
X157507140Y-118032518D01*
X157292225Y-117989769D01*
X157276558Y-117985571D01*
X157069060Y-117915135D01*
X157054074Y-117908928D01*
X156857535Y-117812005D01*
X156843489Y-117803895D01*
X156661294Y-117682157D01*
X156648425Y-117672283D01*
X156483671Y-117527797D01*
X156472202Y-117516328D01*
X156327716Y-117351574D01*
X156317842Y-117338705D01*
X156196104Y-117156510D01*
X156187994Y-117142464D01*
X156091071Y-116945925D01*
X156084864Y-116930939D01*
X156045318Y-116814439D01*
X156014426Y-116723434D01*
X156010230Y-116707774D01*
X155967479Y-116492848D01*
X155965364Y-116476790D01*
X155950765Y-116254043D01*
X155950500Y-116245933D01*
X155950500Y-115251153D01*
X172104500Y-115251153D01*
X172104500Y-115408846D01*
X172135261Y-115563489D01*
X172135264Y-115563501D01*
X172195602Y-115709172D01*
X172195609Y-115709185D01*
X172283210Y-115840288D01*
X172283213Y-115840292D01*
X172394707Y-115951786D01*
X172394711Y-115951789D01*
X172525814Y-116039390D01*
X172525827Y-116039397D01*
X172671498Y-116099735D01*
X172671503Y-116099737D01*
X172826153Y-116130499D01*
X172826156Y-116130500D01*
X172826158Y-116130500D01*
X172983844Y-116130500D01*
X172983845Y-116130499D01*
X173138497Y-116099737D01*
X173284179Y-116039394D01*
X173415289Y-115951789D01*
X173526789Y-115840289D01*
X173614394Y-115709179D01*
X173674737Y-115563497D01*
X173705500Y-115408842D01*
X173705500Y-115251158D01*
X173705500Y-115251155D01*
X173705499Y-115251153D01*
X173691147Y-115179000D01*
X173674737Y-115096503D01*
X173649755Y-115036190D01*
X173614397Y-114950827D01*
X173614390Y-114950814D01*
X173526789Y-114819711D01*
X173526786Y-114819707D01*
X173415292Y-114708213D01*
X173415288Y-114708210D01*
X173284185Y-114620609D01*
X173284172Y-114620602D01*
X173138501Y-114560264D01*
X173138489Y-114560261D01*
X172983845Y-114529500D01*
X172983842Y-114529500D01*
X172826158Y-114529500D01*
X172826155Y-114529500D01*
X172671510Y-114560261D01*
X172671498Y-114560264D01*
X172525827Y-114620602D01*
X172525814Y-114620609D01*
X172394711Y-114708210D01*
X172394707Y-114708213D01*
X172283213Y-114819707D01*
X172283210Y-114819711D01*
X172195609Y-114950814D01*
X172195602Y-114950827D01*
X172135264Y-115096498D01*
X172135261Y-115096510D01*
X172104500Y-115251153D01*
X155950500Y-115251153D01*
X155950500Y-113173155D01*
X161561000Y-113173155D01*
X161561000Y-113700000D01*
X162385854Y-113700000D01*
X162347370Y-113766657D01*
X162315000Y-113887465D01*
X162315000Y-114012535D01*
X162347370Y-114133343D01*
X162385854Y-114200000D01*
X161561000Y-114200000D01*
X161561000Y-114726844D01*
X161567401Y-114786372D01*
X161567403Y-114786379D01*
X161617645Y-114921086D01*
X161617649Y-114921093D01*
X161703809Y-115036187D01*
X161703812Y-115036190D01*
X161818906Y-115122350D01*
X161818913Y-115122354D01*
X161953620Y-115172596D01*
X161953627Y-115172598D01*
X162013155Y-115178999D01*
X162013172Y-115179000D01*
X162540000Y-115179000D01*
X162540000Y-114354145D01*
X162606657Y-114392630D01*
X162727465Y-114425000D01*
X162852535Y-114425000D01*
X162973343Y-114392630D01*
X163040000Y-114354145D01*
X163040000Y-115179000D01*
X163566828Y-115179000D01*
X163566844Y-115178999D01*
X163626372Y-115172598D01*
X163626379Y-115172596D01*
X163761086Y-115122354D01*
X163761093Y-115122350D01*
X163876187Y-115036190D01*
X163876190Y-115036187D01*
X163962350Y-114921093D01*
X163962354Y-114921086D01*
X164012596Y-114786379D01*
X164012598Y-114786372D01*
X164018999Y-114726844D01*
X164019000Y-114726827D01*
X164019000Y-114674002D01*
X164038685Y-114606963D01*
X164091489Y-114561208D01*
X164160647Y-114551264D01*
X164224203Y-114580289D01*
X164243317Y-114601116D01*
X164352190Y-114750966D01*
X164489034Y-114887810D01*
X164534844Y-114921093D01*
X164645596Y-115001560D01*
X164645597Y-115001560D01*
X164645601Y-115001563D01*
X164818036Y-115089422D01*
X165002091Y-115149226D01*
X165097663Y-115164363D01*
X165193231Y-115179500D01*
X165193236Y-115179500D01*
X165386769Y-115179500D01*
X165473648Y-115165739D01*
X165577909Y-115149226D01*
X165761964Y-115089422D01*
X165934399Y-115001563D01*
X166090966Y-114887810D01*
X166227810Y-114750966D01*
X166341563Y-114594399D01*
X166429422Y-114421964D01*
X166489226Y-114237909D01*
X166505787Y-114133343D01*
X166519500Y-114046769D01*
X166519500Y-113853230D01*
X166492325Y-113681659D01*
X166489226Y-113662091D01*
X166429422Y-113478036D01*
X166341563Y-113305601D01*
X166341560Y-113305597D01*
X166341560Y-113305596D01*
X166283727Y-113225997D01*
X166227810Y-113149034D01*
X166112696Y-113033920D01*
X175639499Y-113033920D01*
X175668340Y-113178907D01*
X175668343Y-113178917D01*
X175724912Y-113315488D01*
X175724919Y-113315501D01*
X175807048Y-113438415D01*
X175807051Y-113438419D01*
X175911580Y-113542948D01*
X175911584Y-113542951D01*
X176034498Y-113625080D01*
X176034511Y-113625087D01*
X176123860Y-113662096D01*
X176171087Y-113681658D01*
X176171091Y-113681658D01*
X176171092Y-113681659D01*
X176316079Y-113710500D01*
X176316082Y-113710500D01*
X176463920Y-113710500D01*
X176561462Y-113691096D01*
X176608913Y-113681658D01*
X176745495Y-113625084D01*
X176868416Y-113542951D01*
X176972951Y-113438416D01*
X177055084Y-113315495D01*
X177111658Y-113178913D01*
X177140500Y-113033918D01*
X177140500Y-112886082D01*
X177140500Y-112886079D01*
X177111659Y-112741092D01*
X177111658Y-112741091D01*
X177111658Y-112741087D01*
X177103131Y-112720500D01*
X177055087Y-112604511D01*
X177055080Y-112604498D01*
X176972951Y-112481584D01*
X176972948Y-112481580D01*
X176868419Y-112377051D01*
X176868415Y-112377048D01*
X176784617Y-112321056D01*
X176745501Y-112294919D01*
X176745488Y-112294912D01*
X176608917Y-112238343D01*
X176608907Y-112238340D01*
X176537022Y-112224041D01*
X182225000Y-112224041D01*
X182225000Y-112600000D01*
X182925000Y-112600000D01*
X182925000Y-113100000D01*
X182225000Y-113100000D01*
X182225000Y-113475958D01*
X182264387Y-113673974D01*
X182264390Y-113673983D01*
X182341652Y-113860513D01*
X182341659Y-113860526D01*
X182453829Y-114028399D01*
X182453832Y-114028403D01*
X182596596Y-114171167D01*
X182596600Y-114171170D01*
X182764473Y-114283340D01*
X182764486Y-114283347D01*
X182951016Y-114360609D01*
X182951025Y-114360612D01*
X183000000Y-114370353D01*
X183000000Y-113359618D01*
X183050446Y-113410064D01*
X183124555Y-113452851D01*
X183207213Y-113475000D01*
X183292787Y-113475000D01*
X183375445Y-113452851D01*
X183449554Y-113410064D01*
X183500000Y-113359618D01*
X183500000Y-114370352D01*
X183548974Y-114360612D01*
X183548983Y-114360609D01*
X183735513Y-114283347D01*
X183735526Y-114283340D01*
X183903399Y-114171170D01*
X183903403Y-114171167D01*
X184046167Y-114028403D01*
X184046170Y-114028399D01*
X184158340Y-113860526D01*
X184158347Y-113860513D01*
X184235609Y-113673983D01*
X184235612Y-113673974D01*
X184274999Y-113475958D01*
X184275000Y-113475955D01*
X184275000Y-113100000D01*
X183575000Y-113100000D01*
X183575000Y-112600000D01*
X184275000Y-112600000D01*
X184275000Y-112224045D01*
X184274999Y-112224041D01*
X190765000Y-112224041D01*
X190765000Y-112600000D01*
X191465000Y-112600000D01*
X191465000Y-113100000D01*
X190765000Y-113100000D01*
X190765000Y-113475958D01*
X190804387Y-113673974D01*
X190804390Y-113673983D01*
X190881652Y-113860513D01*
X190881659Y-113860526D01*
X190993829Y-114028399D01*
X190993832Y-114028403D01*
X191136596Y-114171167D01*
X191136600Y-114171170D01*
X191304473Y-114283340D01*
X191304486Y-114283347D01*
X191491016Y-114360609D01*
X191491025Y-114360612D01*
X191540000Y-114370353D01*
X191540000Y-113359618D01*
X191590446Y-113410064D01*
X191664555Y-113452851D01*
X191747213Y-113475000D01*
X191832787Y-113475000D01*
X191915445Y-113452851D01*
X191989554Y-113410064D01*
X192040000Y-113359618D01*
X192040000Y-114370352D01*
X192088974Y-114360612D01*
X192088983Y-114360609D01*
X192275513Y-114283347D01*
X192275526Y-114283340D01*
X192443399Y-114171170D01*
X192443403Y-114171167D01*
X192586167Y-114028403D01*
X192586170Y-114028399D01*
X192698340Y-113860526D01*
X192698347Y-113860513D01*
X192775609Y-113673983D01*
X192775612Y-113673974D01*
X192814999Y-113475958D01*
X192815000Y-113475955D01*
X192815000Y-113100000D01*
X192115000Y-113100000D01*
X192115000Y-112600000D01*
X192815000Y-112600000D01*
X192815000Y-112224045D01*
X192814999Y-112224041D01*
X192775612Y-112026025D01*
X192775609Y-112026016D01*
X192698347Y-111839486D01*
X192698340Y-111839473D01*
X192586170Y-111671600D01*
X192586167Y-111671596D01*
X192443403Y-111528832D01*
X192443399Y-111528829D01*
X192275526Y-111416659D01*
X192275513Y-111416652D01*
X192088984Y-111339390D01*
X192088977Y-111339388D01*
X192040000Y-111329645D01*
X192040000Y-112340382D01*
X191989554Y-112289936D01*
X191915445Y-112247149D01*
X191832787Y-112225000D01*
X191747213Y-112225000D01*
X191664555Y-112247149D01*
X191590446Y-112289936D01*
X191540000Y-112340382D01*
X191540000Y-111329646D01*
X191539999Y-111329645D01*
X191491022Y-111339388D01*
X191491015Y-111339390D01*
X191304486Y-111416652D01*
X191304473Y-111416659D01*
X191136600Y-111528829D01*
X191136596Y-111528832D01*
X190993832Y-111671596D01*
X190993829Y-111671600D01*
X190881659Y-111839473D01*
X190881652Y-111839486D01*
X190804390Y-112026016D01*
X190804387Y-112026025D01*
X190765000Y-112224041D01*
X184274999Y-112224041D01*
X184235612Y-112026025D01*
X184235609Y-112026016D01*
X184158347Y-111839486D01*
X184158340Y-111839473D01*
X184046170Y-111671600D01*
X184046167Y-111671596D01*
X183903403Y-111528832D01*
X183903399Y-111528829D01*
X183735526Y-111416659D01*
X183735513Y-111416652D01*
X183548984Y-111339390D01*
X183548977Y-111339388D01*
X183500000Y-111329645D01*
X183500000Y-112340382D01*
X183449554Y-112289936D01*
X183375445Y-112247149D01*
X183292787Y-112225000D01*
X183207213Y-112225000D01*
X183124555Y-112247149D01*
X183050446Y-112289936D01*
X183000000Y-112340382D01*
X183000000Y-111329646D01*
X182999999Y-111329645D01*
X182951022Y-111339388D01*
X182951015Y-111339390D01*
X182764486Y-111416652D01*
X182764473Y-111416659D01*
X182596600Y-111528829D01*
X182596596Y-111528832D01*
X182453832Y-111671596D01*
X182453829Y-111671600D01*
X182341659Y-111839473D01*
X182341652Y-111839486D01*
X182264390Y-112026016D01*
X182264387Y-112026025D01*
X182225000Y-112224041D01*
X176537022Y-112224041D01*
X176463920Y-112209500D01*
X176463918Y-112209500D01*
X176316082Y-112209500D01*
X176316080Y-112209500D01*
X176171092Y-112238340D01*
X176171082Y-112238343D01*
X176034511Y-112294912D01*
X176034498Y-112294919D01*
X175911584Y-112377048D01*
X175911580Y-112377051D01*
X175807051Y-112481580D01*
X175807048Y-112481584D01*
X175724919Y-112604498D01*
X175724912Y-112604511D01*
X175668343Y-112741082D01*
X175668340Y-112741092D01*
X175639500Y-112886079D01*
X175639500Y-112886082D01*
X175639500Y-113033918D01*
X175639500Y-113033920D01*
X175639499Y-113033920D01*
X166112696Y-113033920D01*
X166090966Y-113012190D01*
X165934399Y-112898437D01*
X165761964Y-112810578D01*
X165577909Y-112750774D01*
X165577903Y-112750773D01*
X165386769Y-112720500D01*
X165386764Y-112720500D01*
X165193236Y-112720500D01*
X165193231Y-112720500D01*
X165002096Y-112750773D01*
X165002094Y-112750773D01*
X165002091Y-112750774D01*
X164818036Y-112810578D01*
X164818033Y-112810579D01*
X164818031Y-112810580D01*
X164645599Y-112898438D01*
X164645596Y-112898439D01*
X164534845Y-112978906D01*
X164489034Y-113012190D01*
X164489032Y-113012192D01*
X164489031Y-113012192D01*
X164352192Y-113149031D01*
X164352192Y-113149032D01*
X164352190Y-113149034D01*
X164296273Y-113225997D01*
X164243318Y-113298883D01*
X164187988Y-113341548D01*
X164118374Y-113347527D01*
X164056579Y-113314921D01*
X164022222Y-113254082D01*
X164019000Y-113225997D01*
X164019000Y-113173172D01*
X164018999Y-113173155D01*
X164012598Y-113113627D01*
X164012596Y-113113620D01*
X163962354Y-112978913D01*
X163962350Y-112978906D01*
X163876190Y-112863812D01*
X163876187Y-112863809D01*
X163761093Y-112777649D01*
X163761086Y-112777645D01*
X163626379Y-112727403D01*
X163626372Y-112727401D01*
X163566844Y-112721000D01*
X163040000Y-112721000D01*
X163040000Y-113545854D01*
X162973343Y-113507370D01*
X162852535Y-113475000D01*
X162727465Y-113475000D01*
X162606657Y-113507370D01*
X162540000Y-113545854D01*
X162540000Y-112721000D01*
X162013155Y-112721000D01*
X161953627Y-112727401D01*
X161953620Y-112727403D01*
X161818913Y-112777645D01*
X161818906Y-112777649D01*
X161703812Y-112863809D01*
X161703809Y-112863812D01*
X161617649Y-112978906D01*
X161617645Y-112978913D01*
X161567403Y-113113620D01*
X161567401Y-113113627D01*
X161561000Y-113173155D01*
X155950500Y-113173155D01*
X155950500Y-111093920D01*
X175759499Y-111093920D01*
X175788340Y-111238907D01*
X175788343Y-111238917D01*
X175844912Y-111375488D01*
X175844919Y-111375501D01*
X175927048Y-111498415D01*
X175927051Y-111498419D01*
X176031580Y-111602948D01*
X176031584Y-111602951D01*
X176154498Y-111685080D01*
X176154511Y-111685087D01*
X176291082Y-111741656D01*
X176291087Y-111741658D01*
X176291091Y-111741658D01*
X176291092Y-111741659D01*
X176436079Y-111770500D01*
X176436082Y-111770500D01*
X176583920Y-111770500D01*
X176681462Y-111751096D01*
X176728913Y-111741658D01*
X176865495Y-111685084D01*
X176988416Y-111602951D01*
X177092951Y-111498416D01*
X177175084Y-111375495D01*
X177231658Y-111238913D01*
X177260500Y-111093918D01*
X177260500Y-110946082D01*
X177260500Y-110946079D01*
X177231659Y-110801092D01*
X177231658Y-110801091D01*
X177231658Y-110801087D01*
X177231656Y-110801082D01*
X177175087Y-110664511D01*
X177175080Y-110664498D01*
X177092951Y-110541584D01*
X177092948Y-110541580D01*
X176988419Y-110437051D01*
X176988415Y-110437048D01*
X176865501Y-110354919D01*
X176865488Y-110354912D01*
X176728917Y-110298343D01*
X176728907Y-110298340D01*
X176583920Y-110269500D01*
X176583918Y-110269500D01*
X176436082Y-110269500D01*
X176436080Y-110269500D01*
X176291092Y-110298340D01*
X176291082Y-110298343D01*
X176154511Y-110354912D01*
X176154498Y-110354919D01*
X176031584Y-110437048D01*
X176031580Y-110437051D01*
X175927051Y-110541580D01*
X175927048Y-110541584D01*
X175844919Y-110664498D01*
X175844912Y-110664511D01*
X175788343Y-110801082D01*
X175788340Y-110801092D01*
X175759500Y-110946079D01*
X175759500Y-110946082D01*
X175759500Y-111093918D01*
X175759500Y-111093920D01*
X175759499Y-111093920D01*
X155950500Y-111093920D01*
X155950500Y-108943920D01*
X171909499Y-108943920D01*
X171938340Y-109088907D01*
X171938343Y-109088917D01*
X171994912Y-109225488D01*
X171994919Y-109225501D01*
X172077048Y-109348415D01*
X172077051Y-109348419D01*
X172181580Y-109452948D01*
X172181584Y-109452951D01*
X172304498Y-109535080D01*
X172304511Y-109535087D01*
X172441082Y-109591656D01*
X172441087Y-109591658D01*
X172441091Y-109591658D01*
X172441092Y-109591659D01*
X172586079Y-109620500D01*
X172586082Y-109620500D01*
X172733920Y-109620500D01*
X172831462Y-109601096D01*
X172878913Y-109591658D01*
X173015495Y-109535084D01*
X173138416Y-109452951D01*
X173242951Y-109348416D01*
X173279427Y-109293824D01*
X173333038Y-109249021D01*
X173402363Y-109240312D01*
X173451420Y-109259614D01*
X173504498Y-109295080D01*
X173504511Y-109295087D01*
X173633260Y-109348416D01*
X173641087Y-109351658D01*
X173641091Y-109351658D01*
X173641092Y-109351659D01*
X173786079Y-109380500D01*
X173786082Y-109380500D01*
X173933920Y-109380500D01*
X174031462Y-109361096D01*
X174078913Y-109351658D01*
X174215495Y-109295084D01*
X174338416Y-109212951D01*
X174421705Y-109129661D01*
X174483026Y-109096177D01*
X174552717Y-109101161D01*
X174578275Y-109114240D01*
X174594500Y-109125081D01*
X174594511Y-109125087D01*
X174719052Y-109176673D01*
X174731087Y-109181658D01*
X174731091Y-109181658D01*
X174731092Y-109181659D01*
X174876079Y-109210500D01*
X174876082Y-109210500D01*
X175023920Y-109210500D01*
X175121462Y-109191096D01*
X175168913Y-109181658D01*
X175305495Y-109125084D01*
X175428416Y-109042951D01*
X175532951Y-108938416D01*
X175615084Y-108815495D01*
X175671658Y-108678913D01*
X175700500Y-108533918D01*
X175700500Y-108386082D01*
X175700500Y-108386079D01*
X175691897Y-108342830D01*
X175671659Y-108241092D01*
X175671658Y-108241091D01*
X175671658Y-108241087D01*
X175660486Y-108214115D01*
X175615087Y-108104511D01*
X175615080Y-108104498D01*
X175532951Y-107981584D01*
X175532948Y-107981580D01*
X175428419Y-107877051D01*
X175428415Y-107877048D01*
X175305501Y-107794919D01*
X175305488Y-107794912D01*
X175168917Y-107738343D01*
X175168907Y-107738340D01*
X175023920Y-107709500D01*
X175023918Y-107709500D01*
X174876082Y-107709500D01*
X174876080Y-107709500D01*
X174731092Y-107738340D01*
X174731082Y-107738343D01*
X174594511Y-107794912D01*
X174594498Y-107794919D01*
X174471584Y-107877048D01*
X174388294Y-107960338D01*
X174326970Y-107993822D01*
X174257279Y-107988838D01*
X174231724Y-107975759D01*
X174215495Y-107964915D01*
X174215493Y-107964914D01*
X174078917Y-107908343D01*
X174078907Y-107908340D01*
X173933920Y-107879500D01*
X173933918Y-107879500D01*
X173786082Y-107879500D01*
X173786080Y-107879500D01*
X173641092Y-107908340D01*
X173641082Y-107908343D01*
X173504511Y-107964912D01*
X173504498Y-107964919D01*
X173381584Y-108047048D01*
X173381580Y-108047051D01*
X173277051Y-108151580D01*
X173240572Y-108206175D01*
X173186959Y-108250979D01*
X173117634Y-108259686D01*
X173068579Y-108240385D01*
X173015501Y-108204919D01*
X173015488Y-108204912D01*
X172878917Y-108148343D01*
X172878907Y-108148340D01*
X172733920Y-108119500D01*
X172733918Y-108119500D01*
X172586082Y-108119500D01*
X172586080Y-108119500D01*
X172441092Y-108148340D01*
X172441082Y-108148343D01*
X172304511Y-108204912D01*
X172304498Y-108204919D01*
X172181584Y-108287048D01*
X172181580Y-108287051D01*
X172077051Y-108391580D01*
X172077048Y-108391584D01*
X171994919Y-108514498D01*
X171994912Y-108514511D01*
X171938343Y-108651082D01*
X171938340Y-108651092D01*
X171909500Y-108796079D01*
X171909500Y-108796082D01*
X171909500Y-108943918D01*
X171909500Y-108943920D01*
X171909499Y-108943920D01*
X155950500Y-108943920D01*
X155950500Y-106671153D01*
X160459500Y-106671153D01*
X160459500Y-106828846D01*
X160490261Y-106983489D01*
X160490264Y-106983501D01*
X160550602Y-107129172D01*
X160550609Y-107129185D01*
X160638210Y-107260288D01*
X160638213Y-107260292D01*
X160749707Y-107371786D01*
X160749711Y-107371789D01*
X160880814Y-107459390D01*
X160880827Y-107459397D01*
X160966782Y-107495000D01*
X161026503Y-107519737D01*
X161181153Y-107550499D01*
X161181156Y-107550500D01*
X161181158Y-107550500D01*
X161338844Y-107550500D01*
X161338845Y-107550499D01*
X161493497Y-107519737D01*
X161555533Y-107494041D01*
X182225000Y-107494041D01*
X182225000Y-107870000D01*
X182925000Y-107870000D01*
X182925000Y-108370000D01*
X182225000Y-108370000D01*
X182225000Y-108745958D01*
X182264387Y-108943974D01*
X182264390Y-108943983D01*
X182341652Y-109130513D01*
X182341659Y-109130526D01*
X182453829Y-109298399D01*
X182453832Y-109298403D01*
X182596596Y-109441167D01*
X182596600Y-109441170D01*
X182764473Y-109553340D01*
X182764486Y-109553347D01*
X182951016Y-109630609D01*
X182951025Y-109630612D01*
X183000000Y-109640353D01*
X183000000Y-108629618D01*
X183050446Y-108680064D01*
X183124555Y-108722851D01*
X183207213Y-108745000D01*
X183292787Y-108745000D01*
X183375445Y-108722851D01*
X183449554Y-108680064D01*
X183500000Y-108629618D01*
X183500000Y-109640352D01*
X183548974Y-109630612D01*
X183548983Y-109630609D01*
X183735513Y-109553347D01*
X183735526Y-109553340D01*
X183903399Y-109441170D01*
X183903403Y-109441167D01*
X184046167Y-109298403D01*
X184046170Y-109298399D01*
X184158340Y-109130526D01*
X184158347Y-109130513D01*
X184235609Y-108943983D01*
X184235612Y-108943974D01*
X184274999Y-108745958D01*
X184275000Y-108745955D01*
X184275000Y-108301796D01*
X184294685Y-108234757D01*
X184347489Y-108189002D01*
X184416647Y-108179058D01*
X184480203Y-108208083D01*
X184486681Y-108214115D01*
X184593771Y-108321205D01*
X184593779Y-108321211D01*
X184728976Y-108411547D01*
X184728980Y-108411549D01*
X184852681Y-108462787D01*
X184879211Y-108473776D01*
X184879215Y-108473776D01*
X184879216Y-108473777D01*
X185038692Y-108505500D01*
X185038695Y-108505500D01*
X185201307Y-108505500D01*
X185308598Y-108484157D01*
X185360789Y-108473776D01*
X185472548Y-108427483D01*
X185542016Y-108420015D01*
X185567449Y-108427482D01*
X185679211Y-108473776D01*
X185679215Y-108473776D01*
X185679216Y-108473777D01*
X185838692Y-108505500D01*
X185838695Y-108505500D01*
X186001307Y-108505500D01*
X186108598Y-108484157D01*
X186160789Y-108473776D01*
X186272548Y-108427483D01*
X186342016Y-108420015D01*
X186367449Y-108427482D01*
X186479211Y-108473776D01*
X186479215Y-108473776D01*
X186479216Y-108473777D01*
X186638692Y-108505500D01*
X186638695Y-108505500D01*
X186801307Y-108505500D01*
X186908598Y-108484157D01*
X186960789Y-108473776D01*
X187111021Y-108411548D01*
X187111023Y-108411547D01*
X187243055Y-108323326D01*
X187246225Y-108321208D01*
X187361208Y-108206225D01*
X187416898Y-108122877D01*
X187470509Y-108078074D01*
X187539834Y-108069366D01*
X187602862Y-108099520D01*
X187623099Y-108122875D01*
X187660640Y-108179058D01*
X187678793Y-108206227D01*
X187793771Y-108321205D01*
X187793779Y-108321211D01*
X187928976Y-108411547D01*
X187928980Y-108411549D01*
X188052681Y-108462787D01*
X188079211Y-108473776D01*
X188079215Y-108473776D01*
X188079216Y-108473777D01*
X188238692Y-108505500D01*
X188238695Y-108505500D01*
X188401307Y-108505500D01*
X188508598Y-108484157D01*
X188560789Y-108473776D01*
X188672548Y-108427483D01*
X188742016Y-108420015D01*
X188767449Y-108427482D01*
X188879211Y-108473776D01*
X188879215Y-108473776D01*
X188879216Y-108473777D01*
X189038692Y-108505500D01*
X189038695Y-108505500D01*
X189201307Y-108505500D01*
X189308598Y-108484157D01*
X189360789Y-108473776D01*
X189472548Y-108427483D01*
X189542016Y-108420015D01*
X189567449Y-108427482D01*
X189679211Y-108473776D01*
X189679215Y-108473776D01*
X189679216Y-108473777D01*
X189838692Y-108505500D01*
X189838695Y-108505500D01*
X190001307Y-108505500D01*
X190108598Y-108484157D01*
X190160789Y-108473776D01*
X190311021Y-108411548D01*
X190311023Y-108411547D01*
X190443055Y-108323326D01*
X190446225Y-108321208D01*
X190492928Y-108274505D01*
X190553319Y-108214115D01*
X190614642Y-108180630D01*
X190684334Y-108185614D01*
X190740267Y-108227486D01*
X190764684Y-108292950D01*
X190765000Y-108301796D01*
X190765000Y-108745958D01*
X190804387Y-108943974D01*
X190804390Y-108943983D01*
X190881652Y-109130513D01*
X190881659Y-109130526D01*
X190993829Y-109298399D01*
X190993832Y-109298403D01*
X191136596Y-109441167D01*
X191136600Y-109441170D01*
X191304473Y-109553340D01*
X191304486Y-109553347D01*
X191491016Y-109630609D01*
X191491025Y-109630612D01*
X191540000Y-109640353D01*
X191540000Y-108629618D01*
X191590446Y-108680064D01*
X191664555Y-108722851D01*
X191747213Y-108745000D01*
X191832787Y-108745000D01*
X191915445Y-108722851D01*
X191989554Y-108680064D01*
X192040000Y-108629618D01*
X192040000Y-109640352D01*
X192088974Y-109630612D01*
X192088983Y-109630609D01*
X192275513Y-109553347D01*
X192275526Y-109553340D01*
X192443399Y-109441170D01*
X192443403Y-109441167D01*
X192586167Y-109298403D01*
X192586170Y-109298399D01*
X192698340Y-109130526D01*
X192698347Y-109130513D01*
X192775609Y-108943983D01*
X192775612Y-108943974D01*
X192814999Y-108745958D01*
X192815000Y-108745955D01*
X192815000Y-108370000D01*
X192115000Y-108370000D01*
X192115000Y-107870000D01*
X192815000Y-107870000D01*
X192815000Y-107494045D01*
X192814999Y-107494041D01*
X192775612Y-107296025D01*
X192775609Y-107296016D01*
X192716190Y-107152564D01*
X192716170Y-107152518D01*
X192699036Y-107111153D01*
X204359500Y-107111153D01*
X204359500Y-107268846D01*
X204390261Y-107423489D01*
X204390264Y-107423501D01*
X204450602Y-107569172D01*
X204450609Y-107569185D01*
X204538210Y-107700288D01*
X204538213Y-107700292D01*
X204649707Y-107811786D01*
X204649711Y-107811789D01*
X204780814Y-107899390D01*
X204780827Y-107899397D01*
X204832473Y-107920789D01*
X204926503Y-107959737D01*
X205036335Y-107981584D01*
X205081153Y-107990499D01*
X205081156Y-107990500D01*
X205081158Y-107990500D01*
X205238844Y-107990500D01*
X205238845Y-107990499D01*
X205393497Y-107959737D01*
X205517574Y-107908343D01*
X205539172Y-107899397D01*
X205539172Y-107899396D01*
X205539179Y-107899394D01*
X205670289Y-107811789D01*
X205781789Y-107700289D01*
X205869394Y-107569179D01*
X205929737Y-107423497D01*
X205960500Y-107268842D01*
X205960500Y-107111158D01*
X205960500Y-107111155D01*
X205960499Y-107111153D01*
X205950800Y-107062393D01*
X205929737Y-106956503D01*
X205915496Y-106922122D01*
X205869397Y-106810827D01*
X205869390Y-106810814D01*
X205781789Y-106679711D01*
X205781786Y-106679707D01*
X205670292Y-106568213D01*
X205670288Y-106568210D01*
X205539185Y-106480609D01*
X205539172Y-106480602D01*
X205393501Y-106420264D01*
X205393489Y-106420261D01*
X205238845Y-106389500D01*
X205238842Y-106389500D01*
X205081158Y-106389500D01*
X205081155Y-106389500D01*
X204926510Y-106420261D01*
X204926498Y-106420264D01*
X204780827Y-106480602D01*
X204780814Y-106480609D01*
X204649711Y-106568210D01*
X204649707Y-106568213D01*
X204538213Y-106679707D01*
X204538210Y-106679711D01*
X204450609Y-106810814D01*
X204450602Y-106810827D01*
X204390264Y-106956498D01*
X204390261Y-106956510D01*
X204359500Y-107111153D01*
X192699036Y-107111153D01*
X192698342Y-107109477D01*
X192698340Y-107109473D01*
X192586170Y-106941600D01*
X192586167Y-106941596D01*
X192443403Y-106798832D01*
X192443399Y-106798829D01*
X192275526Y-106686659D01*
X192275513Y-106686652D01*
X192088984Y-106609390D01*
X192088977Y-106609388D01*
X192040000Y-106599645D01*
X192040000Y-107610382D01*
X191989554Y-107559936D01*
X191915445Y-107517149D01*
X191832787Y-107495000D01*
X191747213Y-107495000D01*
X191664555Y-107517149D01*
X191590446Y-107559936D01*
X191540000Y-107610382D01*
X191540000Y-106599646D01*
X191539999Y-106599645D01*
X191491022Y-106609388D01*
X191491015Y-106609390D01*
X191304486Y-106686652D01*
X191304475Y-106686658D01*
X191266516Y-106712022D01*
X191199838Y-106732899D01*
X191132458Y-106714414D01*
X191085769Y-106662435D01*
X191083065Y-106656372D01*
X191054980Y-106588571D01*
X190612770Y-107030782D01*
X190585303Y-107045780D01*
X190558789Y-107062434D01*
X190554878Y-107062393D01*
X190551447Y-107064267D01*
X190525267Y-107062394D01*
X190545000Y-107014755D01*
X190545000Y-106925245D01*
X190510746Y-106842548D01*
X190447452Y-106779254D01*
X190364755Y-106745000D01*
X190275245Y-106745000D01*
X190200539Y-106775943D01*
X190202403Y-106749889D01*
X190230904Y-106705542D01*
X190701427Y-106235018D01*
X190560644Y-106176704D01*
X190560636Y-106176702D01*
X190401259Y-106145000D01*
X190238740Y-106145000D01*
X190079363Y-106176702D01*
X190079351Y-106176705D01*
X189967452Y-106223055D01*
X189897983Y-106230524D01*
X189872548Y-106223055D01*
X189760648Y-106176705D01*
X189760636Y-106176702D01*
X189601259Y-106145000D01*
X189438740Y-106145000D01*
X189279363Y-106176702D01*
X189279360Y-106176703D01*
X189168103Y-106222786D01*
X189098633Y-106230254D01*
X189073199Y-106222785D01*
X188960793Y-106176225D01*
X188960783Y-106176222D01*
X188801307Y-106144500D01*
X188801305Y-106144500D01*
X188638695Y-106144500D01*
X188638693Y-106144500D01*
X188479216Y-106176222D01*
X188479210Y-106176224D01*
X188423640Y-106199242D01*
X188367451Y-106222516D01*
X188297984Y-106229985D01*
X188272550Y-106222517D01*
X188160789Y-106176224D01*
X188160783Y-106176222D01*
X188001307Y-106144500D01*
X188001305Y-106144500D01*
X187838695Y-106144500D01*
X187838693Y-106144500D01*
X187679216Y-106176222D01*
X187679210Y-106176224D01*
X187623640Y-106199242D01*
X187567451Y-106222516D01*
X187497984Y-106229985D01*
X187472550Y-106222517D01*
X187360789Y-106176224D01*
X187360783Y-106176222D01*
X187201307Y-106144500D01*
X187201305Y-106144500D01*
X187038695Y-106144500D01*
X187038693Y-106144500D01*
X186879216Y-106176222D01*
X186879210Y-106176224D01*
X186823640Y-106199242D01*
X186767451Y-106222516D01*
X186697984Y-106229985D01*
X186672550Y-106222517D01*
X186560789Y-106176224D01*
X186560783Y-106176222D01*
X186401307Y-106144500D01*
X186401305Y-106144500D01*
X186238695Y-106144500D01*
X186238693Y-106144500D01*
X186079216Y-106176222D01*
X186079215Y-106176223D01*
X186079214Y-106176223D01*
X186079211Y-106176224D01*
X186014049Y-106203214D01*
X185966799Y-106222786D01*
X185897329Y-106230254D01*
X185871895Y-106222785D01*
X185760648Y-106176705D01*
X185760636Y-106176702D01*
X185601259Y-106145000D01*
X185438740Y-106145000D01*
X185279363Y-106176702D01*
X185279351Y-106176705D01*
X185167452Y-106223055D01*
X185097983Y-106230524D01*
X185072548Y-106223055D01*
X184960648Y-106176705D01*
X184960636Y-106176702D01*
X184801259Y-106145000D01*
X184638740Y-106145000D01*
X184479363Y-106176701D01*
X184479354Y-106176704D01*
X184338571Y-106235018D01*
X184809095Y-106705541D01*
X184813433Y-106713486D01*
X184820682Y-106718913D01*
X184829916Y-106743672D01*
X184842580Y-106766864D01*
X184841934Y-106775894D01*
X184842407Y-106777164D01*
X184764755Y-106745000D01*
X184675245Y-106745000D01*
X184592548Y-106779254D01*
X184529254Y-106842548D01*
X184495000Y-106925245D01*
X184495000Y-107014755D01*
X184515352Y-107063890D01*
X184460377Y-107054467D01*
X184427229Y-107030783D01*
X183985018Y-106588571D01*
X183956934Y-106656372D01*
X183913093Y-106710775D01*
X183846799Y-106732840D01*
X183779099Y-106715561D01*
X183773482Y-106712021D01*
X183735526Y-106686659D01*
X183735513Y-106686652D01*
X183548984Y-106609390D01*
X183548977Y-106609388D01*
X183500000Y-106599645D01*
X183500000Y-107610382D01*
X183449554Y-107559936D01*
X183375445Y-107517149D01*
X183292787Y-107495000D01*
X183207213Y-107495000D01*
X183124555Y-107517149D01*
X183050446Y-107559936D01*
X183000000Y-107610382D01*
X183000000Y-106599646D01*
X182999999Y-106599645D01*
X182951022Y-106609388D01*
X182951015Y-106609390D01*
X182764486Y-106686652D01*
X182764473Y-106686659D01*
X182596600Y-106798829D01*
X182596596Y-106798832D01*
X182453832Y-106941596D01*
X182453829Y-106941600D01*
X182341659Y-107109473D01*
X182341652Y-107109486D01*
X182264390Y-107296016D01*
X182264387Y-107296025D01*
X182225000Y-107494041D01*
X161555533Y-107494041D01*
X161639179Y-107459394D01*
X161770289Y-107371789D01*
X161881789Y-107260289D01*
X161969394Y-107129179D01*
X161976859Y-107111158D01*
X162003939Y-107045780D01*
X162029737Y-106983497D01*
X162060500Y-106828842D01*
X162060500Y-106671158D01*
X162060500Y-106671155D01*
X162060499Y-106671153D01*
X162050094Y-106618844D01*
X162029737Y-106516503D01*
X162029735Y-106516498D01*
X161969397Y-106370827D01*
X161969390Y-106370814D01*
X161881789Y-106239711D01*
X161881786Y-106239707D01*
X161770292Y-106128213D01*
X161770288Y-106128210D01*
X161710361Y-106088168D01*
X161639185Y-106040609D01*
X161639172Y-106040602D01*
X161519790Y-105991153D01*
X163479500Y-105991153D01*
X163479500Y-106148846D01*
X163510261Y-106303489D01*
X163510264Y-106303501D01*
X163570602Y-106449172D01*
X163570609Y-106449185D01*
X163658210Y-106580288D01*
X163658213Y-106580292D01*
X163769707Y-106691786D01*
X163769711Y-106691789D01*
X163900814Y-106779390D01*
X163900827Y-106779397D01*
X164038821Y-106836555D01*
X164046503Y-106839737D01*
X164201153Y-106870499D01*
X164201156Y-106870500D01*
X164201158Y-106870500D01*
X164358844Y-106870500D01*
X164358845Y-106870499D01*
X164513497Y-106839737D01*
X164659179Y-106779394D01*
X164790289Y-106691789D01*
X164901789Y-106580289D01*
X164905033Y-106575433D01*
X164958643Y-106530626D01*
X165027967Y-106521916D01*
X165090996Y-106552067D01*
X165127718Y-106611509D01*
X165129755Y-106620128D01*
X165160261Y-106773491D01*
X165160264Y-106773501D01*
X165220602Y-106919172D01*
X165220609Y-106919185D01*
X165308210Y-107050288D01*
X165308213Y-107050292D01*
X165419707Y-107161786D01*
X165419711Y-107161789D01*
X165550814Y-107249390D01*
X165550827Y-107249397D01*
X165646388Y-107288979D01*
X165696503Y-107309737D01*
X165851153Y-107340499D01*
X165851156Y-107340500D01*
X165851158Y-107340500D01*
X166008844Y-107340500D01*
X166008845Y-107340499D01*
X166163497Y-107309737D01*
X166309179Y-107249394D01*
X166440289Y-107161789D01*
X166551789Y-107050289D01*
X166639394Y-106919179D01*
X166699737Y-106773497D01*
X166730500Y-106618842D01*
X166730500Y-106461158D01*
X166730500Y-106461155D01*
X166730499Y-106461153D01*
X166712529Y-106370814D01*
X166699737Y-106306503D01*
X166684824Y-106270499D01*
X166639397Y-106160827D01*
X166639390Y-106160814D01*
X166551789Y-106029711D01*
X166551786Y-106029707D01*
X166440292Y-105918213D01*
X166440288Y-105918210D01*
X166309185Y-105830609D01*
X166309172Y-105830602D01*
X166163501Y-105770264D01*
X166163489Y-105770261D01*
X166008845Y-105739500D01*
X166008842Y-105739500D01*
X165851158Y-105739500D01*
X165851155Y-105739500D01*
X165696510Y-105770261D01*
X165696498Y-105770264D01*
X165550827Y-105830602D01*
X165550814Y-105830609D01*
X165419711Y-105918210D01*
X165419707Y-105918213D01*
X165308213Y-106029707D01*
X165308206Y-106029716D01*
X165304958Y-106034577D01*
X165251343Y-106079378D01*
X165182018Y-106088081D01*
X165118992Y-106057922D01*
X165082277Y-105998476D01*
X165080244Y-105989870D01*
X165065990Y-105918210D01*
X165049737Y-105836503D01*
X165022299Y-105770261D01*
X164989397Y-105690827D01*
X164989390Y-105690814D01*
X164901789Y-105559711D01*
X164901786Y-105559707D01*
X164790292Y-105448213D01*
X164790288Y-105448210D01*
X164704897Y-105391153D01*
X203189500Y-105391153D01*
X203189500Y-105548846D01*
X203220261Y-105703489D01*
X203220264Y-105703501D01*
X203280602Y-105849172D01*
X203280609Y-105849185D01*
X203368210Y-105980288D01*
X203368213Y-105980292D01*
X203479707Y-106091786D01*
X203479711Y-106091789D01*
X203610814Y-106179390D01*
X203610827Y-106179397D01*
X203756440Y-106239711D01*
X203756503Y-106239737D01*
X203911153Y-106270499D01*
X203911156Y-106270500D01*
X203911158Y-106270500D01*
X204068844Y-106270500D01*
X204068845Y-106270499D01*
X204223497Y-106239737D01*
X204369179Y-106179394D01*
X204500289Y-106091789D01*
X204611789Y-105980289D01*
X204699394Y-105849179D01*
X204759737Y-105703497D01*
X204790500Y-105548842D01*
X204790500Y-105391158D01*
X204790500Y-105391155D01*
X204790499Y-105391153D01*
X204772419Y-105300261D01*
X204759737Y-105236503D01*
X204759735Y-105236498D01*
X204699397Y-105090827D01*
X204699390Y-105090814D01*
X204611789Y-104959711D01*
X204611786Y-104959707D01*
X204500292Y-104848213D01*
X204500288Y-104848210D01*
X204369185Y-104760609D01*
X204369172Y-104760602D01*
X204223501Y-104700264D01*
X204223489Y-104700261D01*
X204068845Y-104669500D01*
X204068842Y-104669500D01*
X203911158Y-104669500D01*
X203911155Y-104669500D01*
X203756510Y-104700261D01*
X203756498Y-104700264D01*
X203610827Y-104760602D01*
X203610814Y-104760609D01*
X203479711Y-104848210D01*
X203479707Y-104848213D01*
X203368213Y-104959707D01*
X203368210Y-104959711D01*
X203280609Y-105090814D01*
X203280602Y-105090827D01*
X203220264Y-105236498D01*
X203220261Y-105236510D01*
X203189500Y-105391153D01*
X164704897Y-105391153D01*
X164659185Y-105360609D01*
X164659172Y-105360602D01*
X164513501Y-105300264D01*
X164513489Y-105300261D01*
X164358845Y-105269500D01*
X164358842Y-105269500D01*
X164201158Y-105269500D01*
X164201155Y-105269500D01*
X164046510Y-105300261D01*
X164046498Y-105300264D01*
X163900827Y-105360602D01*
X163900814Y-105360609D01*
X163769711Y-105448210D01*
X163769707Y-105448213D01*
X163658213Y-105559707D01*
X163658210Y-105559711D01*
X163570609Y-105690814D01*
X163570602Y-105690827D01*
X163510264Y-105836498D01*
X163510261Y-105836510D01*
X163479500Y-105991153D01*
X161519790Y-105991153D01*
X161493501Y-105980264D01*
X161493489Y-105980261D01*
X161338845Y-105949500D01*
X161338842Y-105949500D01*
X161181158Y-105949500D01*
X161181155Y-105949500D01*
X161026510Y-105980261D01*
X161026498Y-105980264D01*
X160880827Y-106040602D01*
X160880814Y-106040609D01*
X160749711Y-106128210D01*
X160749707Y-106128213D01*
X160638213Y-106239707D01*
X160638210Y-106239711D01*
X160550609Y-106370814D01*
X160550602Y-106370827D01*
X160490264Y-106516498D01*
X160490261Y-106516510D01*
X160459500Y-106671153D01*
X155950500Y-106671153D01*
X155950500Y-104448920D01*
X184574499Y-104448920D01*
X184603340Y-104593907D01*
X184603343Y-104593917D01*
X184659912Y-104730488D01*
X184659919Y-104730501D01*
X184742048Y-104853415D01*
X184742051Y-104853419D01*
X184846580Y-104957948D01*
X184846584Y-104957951D01*
X184969498Y-105040080D01*
X184969511Y-105040087D01*
X185106082Y-105096656D01*
X185106087Y-105096658D01*
X185106091Y-105096658D01*
X185106092Y-105096659D01*
X185251079Y-105125500D01*
X185251082Y-105125500D01*
X185398920Y-105125500D01*
X185496462Y-105106096D01*
X185543913Y-105096658D01*
X185680495Y-105040084D01*
X185803416Y-104957951D01*
X185907951Y-104853416D01*
X185990084Y-104730495D01*
X186046658Y-104593913D01*
X186056096Y-104546462D01*
X186075500Y-104448920D01*
X186075500Y-104301079D01*
X186045470Y-104150113D01*
X186047897Y-104149630D01*
X186047373Y-104090624D01*
X186084623Y-104031513D01*
X186147919Y-104001924D01*
X186166656Y-104000500D01*
X186248920Y-104000500D01*
X186346462Y-103981096D01*
X186393913Y-103971658D01*
X186521251Y-103918913D01*
X186530488Y-103915087D01*
X186530488Y-103915086D01*
X186530495Y-103915084D01*
X186653416Y-103832951D01*
X186712447Y-103773920D01*
X188199499Y-103773920D01*
X188228340Y-103918907D01*
X188228343Y-103918917D01*
X188284912Y-104055488D01*
X188284919Y-104055501D01*
X188367048Y-104178415D01*
X188367051Y-104178419D01*
X188471580Y-104282948D01*
X188471584Y-104282951D01*
X188594498Y-104365080D01*
X188594511Y-104365087D01*
X188704149Y-104410500D01*
X188731087Y-104421658D01*
X188731091Y-104421658D01*
X188731092Y-104421659D01*
X188876079Y-104450500D01*
X188876082Y-104450500D01*
X189023920Y-104450500D01*
X189121462Y-104431096D01*
X189168913Y-104421658D01*
X189305495Y-104365084D01*
X189428416Y-104282951D01*
X189532951Y-104178416D01*
X189615084Y-104055495D01*
X189671658Y-103918913D01*
X189688758Y-103832948D01*
X189700500Y-103773920D01*
X189700500Y-103626079D01*
X189671659Y-103481092D01*
X189671658Y-103481091D01*
X189671658Y-103481087D01*
X189653556Y-103437385D01*
X189615087Y-103344511D01*
X189615080Y-103344498D01*
X189532951Y-103221584D01*
X189532948Y-103221580D01*
X189511372Y-103200004D01*
X189477887Y-103138681D01*
X189482871Y-103068989D01*
X189524743Y-103013056D01*
X189551592Y-102997766D01*
X189630495Y-102965084D01*
X189753416Y-102882951D01*
X189758380Y-102877986D01*
X189819699Y-102844500D01*
X189889391Y-102849481D01*
X189945327Y-102891349D01*
X189967350Y-102948059D01*
X189968311Y-102947868D01*
X189969397Y-102953329D01*
X189969466Y-102953506D01*
X189969498Y-102953839D01*
X190000261Y-103108489D01*
X190000264Y-103108501D01*
X190060602Y-103254172D01*
X190060609Y-103254185D01*
X190148210Y-103385288D01*
X190148213Y-103385292D01*
X190259707Y-103496786D01*
X190259711Y-103496789D01*
X190390814Y-103584390D01*
X190390827Y-103584397D01*
X190536498Y-103644735D01*
X190536503Y-103644737D01*
X190691153Y-103675499D01*
X190691156Y-103675500D01*
X190691158Y-103675500D01*
X190848844Y-103675500D01*
X190848845Y-103675499D01*
X191003497Y-103644737D01*
X191149179Y-103584394D01*
X191228860Y-103531153D01*
X204629500Y-103531153D01*
X204629500Y-103688846D01*
X204660261Y-103843489D01*
X204660264Y-103843501D01*
X204720602Y-103989172D01*
X204720609Y-103989185D01*
X204808210Y-104120288D01*
X204808213Y-104120292D01*
X204919707Y-104231786D01*
X204919711Y-104231789D01*
X205050814Y-104319390D01*
X205050827Y-104319397D01*
X205196498Y-104379735D01*
X205196503Y-104379737D01*
X205351153Y-104410499D01*
X205351156Y-104410500D01*
X205351158Y-104410500D01*
X205508844Y-104410500D01*
X205508845Y-104410499D01*
X205663497Y-104379737D01*
X205809179Y-104319394D01*
X205940289Y-104231789D01*
X206051789Y-104120289D01*
X206139394Y-103989179D01*
X206199737Y-103843497D01*
X206230500Y-103688842D01*
X206230500Y-103531158D01*
X206230500Y-103531155D01*
X206202274Y-103389258D01*
X206199737Y-103376503D01*
X206197521Y-103371153D01*
X206649500Y-103371153D01*
X206649500Y-103528846D01*
X206680261Y-103683489D01*
X206680264Y-103683501D01*
X206740602Y-103829172D01*
X206740609Y-103829185D01*
X206828210Y-103960288D01*
X206828213Y-103960292D01*
X206939707Y-104071786D01*
X206939711Y-104071789D01*
X207070814Y-104159390D01*
X207070827Y-104159397D01*
X207216498Y-104219735D01*
X207216503Y-104219737D01*
X207371153Y-104250499D01*
X207371156Y-104250500D01*
X207371158Y-104250500D01*
X207528844Y-104250500D01*
X207528845Y-104250499D01*
X207683497Y-104219737D01*
X207829179Y-104159394D01*
X207960289Y-104071789D01*
X208071789Y-103960289D01*
X208159394Y-103829179D01*
X208219737Y-103683497D01*
X208250500Y-103528842D01*
X208250500Y-103371158D01*
X208250500Y-103371155D01*
X208250499Y-103371153D01*
X208219737Y-103216503D01*
X208202993Y-103176079D01*
X208159397Y-103070827D01*
X208159390Y-103070814D01*
X208071789Y-102939711D01*
X208071786Y-102939707D01*
X207960292Y-102828213D01*
X207960288Y-102828210D01*
X207829185Y-102740609D01*
X207829172Y-102740602D01*
X207683501Y-102680264D01*
X207683489Y-102680261D01*
X207528845Y-102649500D01*
X207528842Y-102649500D01*
X207371158Y-102649500D01*
X207371155Y-102649500D01*
X207216510Y-102680261D01*
X207216498Y-102680264D01*
X207070827Y-102740602D01*
X207070814Y-102740609D01*
X206939711Y-102828210D01*
X206939707Y-102828213D01*
X206828213Y-102939707D01*
X206828210Y-102939711D01*
X206740609Y-103070814D01*
X206740602Y-103070827D01*
X206680264Y-103216498D01*
X206680261Y-103216510D01*
X206649500Y-103371153D01*
X206197521Y-103371153D01*
X206149072Y-103254185D01*
X206139397Y-103230827D01*
X206139390Y-103230814D01*
X206051789Y-103099711D01*
X206051786Y-103099707D01*
X205940292Y-102988213D01*
X205940288Y-102988210D01*
X205809185Y-102900609D01*
X205809172Y-102900602D01*
X205663501Y-102840264D01*
X205663489Y-102840261D01*
X205508845Y-102809500D01*
X205508842Y-102809500D01*
X205351158Y-102809500D01*
X205351155Y-102809500D01*
X205196510Y-102840261D01*
X205196498Y-102840264D01*
X205050827Y-102900602D01*
X205050814Y-102900609D01*
X204919711Y-102988210D01*
X204919707Y-102988213D01*
X204808213Y-103099707D01*
X204808210Y-103099711D01*
X204720609Y-103230814D01*
X204720602Y-103230827D01*
X204660264Y-103376498D01*
X204660261Y-103376510D01*
X204629500Y-103531153D01*
X191228860Y-103531153D01*
X191280289Y-103496789D01*
X191308171Y-103468907D01*
X191339694Y-103437385D01*
X191391786Y-103385292D01*
X191391789Y-103385289D01*
X191479394Y-103254179D01*
X191539737Y-103108497D01*
X191570500Y-102953842D01*
X191570500Y-102796158D01*
X191570500Y-102796155D01*
X191570499Y-102796153D01*
X191565611Y-102771580D01*
X191539737Y-102641503D01*
X191516452Y-102585288D01*
X191479397Y-102495827D01*
X191479390Y-102495814D01*
X191391789Y-102364711D01*
X191391786Y-102364707D01*
X191280292Y-102253213D01*
X191280288Y-102253210D01*
X191149185Y-102165609D01*
X191149172Y-102165602D01*
X191003501Y-102105264D01*
X191003489Y-102105261D01*
X190848845Y-102074500D01*
X190848842Y-102074500D01*
X190691158Y-102074500D01*
X190691155Y-102074500D01*
X190536510Y-102105261D01*
X190536498Y-102105264D01*
X190390827Y-102165602D01*
X190390814Y-102165609D01*
X190259711Y-102253210D01*
X190232897Y-102280024D01*
X190171573Y-102313508D01*
X190101882Y-102308522D01*
X190045949Y-102266650D01*
X190023600Y-102216532D01*
X190011131Y-102153846D01*
X189996658Y-102081087D01*
X189993930Y-102074500D01*
X189940087Y-101944511D01*
X189940080Y-101944498D01*
X189857951Y-101821584D01*
X189857948Y-101821580D01*
X189753419Y-101717051D01*
X189753415Y-101717048D01*
X189630501Y-101634919D01*
X189630488Y-101634912D01*
X189493917Y-101578343D01*
X189493907Y-101578340D01*
X189348920Y-101549500D01*
X189348918Y-101549500D01*
X189201082Y-101549500D01*
X189201080Y-101549500D01*
X189056092Y-101578340D01*
X189056082Y-101578343D01*
X188919511Y-101634912D01*
X188919498Y-101634919D01*
X188796584Y-101717048D01*
X188796580Y-101717051D01*
X188692051Y-101821580D01*
X188692048Y-101821584D01*
X188609919Y-101944498D01*
X188609912Y-101944511D01*
X188553343Y-102081082D01*
X188553340Y-102081092D01*
X188524500Y-102226079D01*
X188524500Y-102226082D01*
X188524500Y-102373918D01*
X188524500Y-102373920D01*
X188524499Y-102373920D01*
X188553340Y-102518907D01*
X188553343Y-102518917D01*
X188609912Y-102655488D01*
X188609919Y-102655501D01*
X188692048Y-102778415D01*
X188692051Y-102778419D01*
X188713627Y-102799995D01*
X188747112Y-102861318D01*
X188742128Y-102931010D01*
X188700256Y-102986943D01*
X188673399Y-103002237D01*
X188594507Y-103034914D01*
X188594498Y-103034919D01*
X188471584Y-103117048D01*
X188471580Y-103117051D01*
X188367051Y-103221580D01*
X188367048Y-103221584D01*
X188284919Y-103344498D01*
X188284912Y-103344511D01*
X188228343Y-103481082D01*
X188228340Y-103481092D01*
X188199500Y-103626079D01*
X188199500Y-103626082D01*
X188199500Y-103773918D01*
X188199500Y-103773920D01*
X188199499Y-103773920D01*
X186712447Y-103773920D01*
X186757951Y-103728416D01*
X186840084Y-103605495D01*
X186896658Y-103468913D01*
X186913292Y-103385289D01*
X186925500Y-103323920D01*
X186925500Y-103176079D01*
X186896659Y-103031092D01*
X186896658Y-103031091D01*
X186896658Y-103031087D01*
X186878373Y-102986943D01*
X186840087Y-102894511D01*
X186840080Y-102894498D01*
X186757951Y-102771584D01*
X186757948Y-102771580D01*
X186653419Y-102667051D01*
X186653415Y-102667048D01*
X186530501Y-102584919D01*
X186530488Y-102584912D01*
X186393917Y-102528343D01*
X186393907Y-102528340D01*
X186248920Y-102499500D01*
X186248918Y-102499500D01*
X186101082Y-102499500D01*
X186101080Y-102499500D01*
X185956092Y-102528340D01*
X185956082Y-102528343D01*
X185819511Y-102584912D01*
X185819498Y-102584919D01*
X185696584Y-102667048D01*
X185696580Y-102667051D01*
X185592051Y-102771580D01*
X185592048Y-102771584D01*
X185509919Y-102894498D01*
X185509912Y-102894511D01*
X185453343Y-103031082D01*
X185453340Y-103031092D01*
X185424500Y-103176079D01*
X185424500Y-103176082D01*
X185424500Y-103323918D01*
X185424500Y-103323920D01*
X185424499Y-103323920D01*
X185454530Y-103474887D01*
X185452102Y-103475369D01*
X185452627Y-103534376D01*
X185415377Y-103593487D01*
X185352081Y-103623076D01*
X185333344Y-103624500D01*
X185251080Y-103624500D01*
X185106092Y-103653340D01*
X185106082Y-103653343D01*
X184969511Y-103709912D01*
X184969498Y-103709919D01*
X184846584Y-103792048D01*
X184846580Y-103792051D01*
X184742051Y-103896580D01*
X184742048Y-103896584D01*
X184659919Y-104019498D01*
X184659912Y-104019511D01*
X184603343Y-104156082D01*
X184603340Y-104156092D01*
X184574500Y-104301079D01*
X184574500Y-104301082D01*
X184574500Y-104448918D01*
X184574500Y-104448920D01*
X184574499Y-104448920D01*
X155950500Y-104448920D01*
X155950500Y-101996153D01*
X179299500Y-101996153D01*
X179299500Y-102153846D01*
X179330261Y-102308489D01*
X179330264Y-102308501D01*
X179390602Y-102454172D01*
X179390609Y-102454185D01*
X179478210Y-102585288D01*
X179478213Y-102585292D01*
X179589707Y-102696786D01*
X179589711Y-102696789D01*
X179720814Y-102784390D01*
X179720827Y-102784397D01*
X179855704Y-102840264D01*
X179866503Y-102844737D01*
X180021153Y-102875499D01*
X180021156Y-102875500D01*
X180021158Y-102875500D01*
X180178844Y-102875500D01*
X180178845Y-102875499D01*
X180333497Y-102844737D01*
X180479179Y-102784394D01*
X180610289Y-102696789D01*
X180721789Y-102585289D01*
X180809394Y-102454179D01*
X180869737Y-102308497D01*
X180900500Y-102153842D01*
X180900500Y-101996158D01*
X180900500Y-101996155D01*
X180900499Y-101996153D01*
X180890227Y-101944511D01*
X180869737Y-101841503D01*
X180818187Y-101717049D01*
X180809397Y-101695827D01*
X180809390Y-101695814D01*
X180721789Y-101564711D01*
X180721786Y-101564707D01*
X180610292Y-101453213D01*
X180610288Y-101453210D01*
X180479185Y-101365609D01*
X180479172Y-101365602D01*
X180333501Y-101305264D01*
X180333489Y-101305261D01*
X180178845Y-101274500D01*
X180178842Y-101274500D01*
X180021158Y-101274500D01*
X180021155Y-101274500D01*
X179866510Y-101305261D01*
X179866498Y-101305264D01*
X179720827Y-101365602D01*
X179720814Y-101365609D01*
X179589711Y-101453210D01*
X179589707Y-101453213D01*
X179478213Y-101564707D01*
X179478210Y-101564711D01*
X179390609Y-101695814D01*
X179390602Y-101695827D01*
X179330264Y-101841498D01*
X179330261Y-101841510D01*
X179299500Y-101996153D01*
X155950500Y-101996153D01*
X155950500Y-99347670D01*
X161019499Y-99347670D01*
X161048340Y-99492657D01*
X161048343Y-99492667D01*
X161104912Y-99629238D01*
X161104919Y-99629251D01*
X161187048Y-99752165D01*
X161187051Y-99752169D01*
X161291580Y-99856698D01*
X161291584Y-99856701D01*
X161414498Y-99938830D01*
X161414511Y-99938837D01*
X161551082Y-99995406D01*
X161551087Y-99995408D01*
X161551091Y-99995408D01*
X161551092Y-99995409D01*
X161696079Y-100024250D01*
X161696082Y-100024250D01*
X161843920Y-100024250D01*
X161963319Y-100000499D01*
X161988913Y-99995408D01*
X162125495Y-99938834D01*
X162248416Y-99856701D01*
X162352951Y-99752166D01*
X162435084Y-99629245D01*
X162491658Y-99492663D01*
X162520500Y-99347668D01*
X162520500Y-99327670D01*
X163459499Y-99327670D01*
X163488340Y-99472657D01*
X163488343Y-99472667D01*
X163544912Y-99609238D01*
X163544919Y-99609251D01*
X163627048Y-99732165D01*
X163627051Y-99732169D01*
X163731580Y-99836698D01*
X163731584Y-99836701D01*
X163854498Y-99918830D01*
X163854511Y-99918837D01*
X163977391Y-99969735D01*
X163991087Y-99975408D01*
X163991091Y-99975408D01*
X163991092Y-99975409D01*
X164136079Y-100004250D01*
X164136082Y-100004250D01*
X164283920Y-100004250D01*
X164381462Y-99984846D01*
X164428913Y-99975408D01*
X164565495Y-99918834D01*
X164688416Y-99836701D01*
X164792951Y-99732166D01*
X164875084Y-99609245D01*
X164931658Y-99472663D01*
X164941096Y-99425212D01*
X164960500Y-99327670D01*
X164960500Y-99179829D01*
X164931659Y-99034842D01*
X164931658Y-99034841D01*
X164931658Y-99034837D01*
X164921261Y-99009737D01*
X164875087Y-98898261D01*
X164875080Y-98898248D01*
X164792951Y-98775334D01*
X164792948Y-98775330D01*
X164688419Y-98670801D01*
X164688415Y-98670798D01*
X164565501Y-98588669D01*
X164565488Y-98588662D01*
X164428917Y-98532093D01*
X164428907Y-98532090D01*
X164283920Y-98503250D01*
X164283918Y-98503250D01*
X164136082Y-98503250D01*
X164136080Y-98503250D01*
X163991092Y-98532090D01*
X163991082Y-98532093D01*
X163854511Y-98588662D01*
X163854498Y-98588669D01*
X163731584Y-98670798D01*
X163731580Y-98670801D01*
X163627051Y-98775330D01*
X163627048Y-98775334D01*
X163544919Y-98898248D01*
X163544912Y-98898261D01*
X163488343Y-99034832D01*
X163488340Y-99034842D01*
X163459500Y-99179829D01*
X163459500Y-99179832D01*
X163459500Y-99327668D01*
X163459500Y-99327670D01*
X163459499Y-99327670D01*
X162520500Y-99327670D01*
X162520500Y-99199832D01*
X162520499Y-99199829D01*
X162520121Y-99197925D01*
X162520121Y-99197922D01*
X162491659Y-99054842D01*
X162491658Y-99054841D01*
X162491658Y-99054837D01*
X162491656Y-99054832D01*
X162435087Y-98918261D01*
X162435080Y-98918248D01*
X162352951Y-98795334D01*
X162352948Y-98795330D01*
X162248419Y-98690801D01*
X162248415Y-98690798D01*
X162125501Y-98608669D01*
X162125488Y-98608662D01*
X161988917Y-98552093D01*
X161988907Y-98552090D01*
X161843920Y-98523250D01*
X161843918Y-98523250D01*
X161696082Y-98523250D01*
X161696080Y-98523250D01*
X161551092Y-98552090D01*
X161551082Y-98552093D01*
X161414511Y-98608662D01*
X161414498Y-98608669D01*
X161291584Y-98690798D01*
X161291580Y-98690801D01*
X161187051Y-98795330D01*
X161187048Y-98795334D01*
X161104919Y-98918248D01*
X161104912Y-98918261D01*
X161048343Y-99054832D01*
X161048340Y-99054842D01*
X161019500Y-99199829D01*
X161019500Y-99199830D01*
X161019500Y-99199832D01*
X161019500Y-99347668D01*
X161019500Y-99347670D01*
X161019499Y-99347670D01*
X155950500Y-99347670D01*
X155950500Y-97121153D01*
X176099500Y-97121153D01*
X176099500Y-97278846D01*
X176130261Y-97433489D01*
X176130264Y-97433501D01*
X176190602Y-97579172D01*
X176190609Y-97579185D01*
X176225304Y-97631109D01*
X176246182Y-97697786D01*
X176227698Y-97765167D01*
X176225304Y-97768891D01*
X176190609Y-97820814D01*
X176190602Y-97820827D01*
X176130264Y-97966498D01*
X176130261Y-97966510D01*
X176099500Y-98121153D01*
X176099500Y-98278846D01*
X176130261Y-98433489D01*
X176130264Y-98433501D01*
X176190602Y-98579172D01*
X176190609Y-98579185D01*
X176225304Y-98631109D01*
X176246182Y-98697786D01*
X176227698Y-98765167D01*
X176225304Y-98768891D01*
X176190609Y-98820814D01*
X176190602Y-98820827D01*
X176130264Y-98966498D01*
X176130261Y-98966510D01*
X176099500Y-99121153D01*
X176099500Y-99278846D01*
X176130261Y-99433489D01*
X176130264Y-99433501D01*
X176190602Y-99579172D01*
X176190609Y-99579185D01*
X176278210Y-99710288D01*
X176278213Y-99710292D01*
X176389707Y-99821786D01*
X176389711Y-99821789D01*
X176520814Y-99909390D01*
X176520827Y-99909397D01*
X176591903Y-99938837D01*
X176666503Y-99969737D01*
X176795549Y-99995406D01*
X176821153Y-100000499D01*
X176821156Y-100000500D01*
X176821158Y-100000500D01*
X176978844Y-100000500D01*
X176978845Y-100000499D01*
X177133497Y-99969737D01*
X177279179Y-99909394D01*
X177410289Y-99821789D01*
X177521789Y-99710289D01*
X177609394Y-99579179D01*
X177669737Y-99433497D01*
X177700500Y-99278842D01*
X177700500Y-99121158D01*
X177700500Y-99121155D01*
X177700499Y-99121153D01*
X177684456Y-99040499D01*
X177669737Y-98966503D01*
X177649749Y-98918248D01*
X177609396Y-98820825D01*
X177609394Y-98820822D01*
X177609394Y-98820821D01*
X177574694Y-98768889D01*
X177553816Y-98702215D01*
X177572300Y-98634835D01*
X177574676Y-98631136D01*
X177609394Y-98579179D01*
X177669737Y-98433497D01*
X177700500Y-98278842D01*
X177700500Y-98121158D01*
X177700500Y-98121155D01*
X177700499Y-98121153D01*
X177688173Y-98059185D01*
X177669737Y-97966503D01*
X177647783Y-97913501D01*
X177609396Y-97820825D01*
X177609394Y-97820822D01*
X177609394Y-97820821D01*
X177574694Y-97768889D01*
X177553816Y-97702215D01*
X177572300Y-97634835D01*
X177574676Y-97631136D01*
X177609394Y-97579179D01*
X177669737Y-97433497D01*
X177700500Y-97278842D01*
X177700500Y-97121158D01*
X177700500Y-97121155D01*
X177700499Y-97121153D01*
X182099500Y-97121153D01*
X182099500Y-97278846D01*
X182130261Y-97433489D01*
X182130264Y-97433501D01*
X182190602Y-97579172D01*
X182190609Y-97579185D01*
X182225304Y-97631109D01*
X182246182Y-97697786D01*
X182227698Y-97765167D01*
X182225304Y-97768891D01*
X182190609Y-97820814D01*
X182190602Y-97820827D01*
X182130264Y-97966498D01*
X182130261Y-97966510D01*
X182099500Y-98121153D01*
X182099500Y-98278846D01*
X182130261Y-98433489D01*
X182130264Y-98433501D01*
X182190602Y-98579172D01*
X182190609Y-98579185D01*
X182225304Y-98631109D01*
X182246182Y-98697786D01*
X182227698Y-98765167D01*
X182225304Y-98768891D01*
X182190609Y-98820814D01*
X182190602Y-98820827D01*
X182130264Y-98966498D01*
X182130261Y-98966510D01*
X182099500Y-99121153D01*
X182099500Y-99278846D01*
X182130261Y-99433489D01*
X182130264Y-99433501D01*
X182190602Y-99579172D01*
X182190609Y-99579185D01*
X182278210Y-99710288D01*
X182278213Y-99710292D01*
X182389707Y-99821786D01*
X182389711Y-99821789D01*
X182520814Y-99909390D01*
X182520827Y-99909397D01*
X182591903Y-99938837D01*
X182666503Y-99969737D01*
X182795549Y-99995406D01*
X182821153Y-100000499D01*
X182821156Y-100000500D01*
X182821158Y-100000500D01*
X182978844Y-100000500D01*
X182978845Y-100000499D01*
X183133497Y-99969737D01*
X183279179Y-99909394D01*
X183410289Y-99821789D01*
X183521789Y-99710289D01*
X183609394Y-99579179D01*
X183669737Y-99433497D01*
X183700500Y-99278842D01*
X183700500Y-99121158D01*
X183700500Y-99121155D01*
X183700499Y-99121153D01*
X183684456Y-99040499D01*
X183669737Y-98966503D01*
X183649749Y-98918248D01*
X183609396Y-98820825D01*
X183609394Y-98820822D01*
X183609394Y-98820821D01*
X183574694Y-98768889D01*
X183553816Y-98702215D01*
X183572300Y-98634835D01*
X183574676Y-98631136D01*
X183609394Y-98579179D01*
X183669737Y-98433497D01*
X183700500Y-98278842D01*
X183700500Y-98121158D01*
X183700500Y-98121155D01*
X183700499Y-98121153D01*
X183688173Y-98059185D01*
X183669737Y-97966503D01*
X183647783Y-97913501D01*
X183609396Y-97820825D01*
X183609394Y-97820822D01*
X183609394Y-97820821D01*
X183574694Y-97768889D01*
X183570085Y-97754170D01*
X183561015Y-97741691D01*
X183559856Y-97721506D01*
X183553816Y-97702215D01*
X183557838Y-97686328D01*
X183557013Y-97671936D01*
X183567776Y-97647082D01*
X183569812Y-97639045D01*
X183572096Y-97634998D01*
X183594711Y-97601153D01*
X194789500Y-97601153D01*
X194789500Y-97758846D01*
X194820261Y-97913489D01*
X194820264Y-97913501D01*
X194880602Y-98059172D01*
X194880609Y-98059185D01*
X194968210Y-98190288D01*
X194968213Y-98190292D01*
X195079707Y-98301786D01*
X195079711Y-98301789D01*
X195210814Y-98389390D01*
X195210827Y-98389397D01*
X195356498Y-98449735D01*
X195356503Y-98449737D01*
X195475912Y-98473489D01*
X195511153Y-98480499D01*
X195511156Y-98480500D01*
X195511158Y-98480500D01*
X195668844Y-98480500D01*
X195668845Y-98480499D01*
X195823497Y-98449737D01*
X195969179Y-98389394D01*
X196100289Y-98301789D01*
X196211789Y-98190289D01*
X196299394Y-98059179D01*
X196359737Y-97913497D01*
X196390500Y-97758842D01*
X196390500Y-97601158D01*
X196390500Y-97601155D01*
X196390499Y-97601153D01*
X196372137Y-97508842D01*
X196359737Y-97446503D01*
X196359735Y-97446498D01*
X196299397Y-97300827D01*
X196299390Y-97300814D01*
X196211789Y-97169711D01*
X196211786Y-97169707D01*
X196100292Y-97058213D01*
X196100288Y-97058210D01*
X195969185Y-96970609D01*
X195969172Y-96970602D01*
X195823501Y-96910264D01*
X195823489Y-96910261D01*
X195668845Y-96879500D01*
X195668842Y-96879500D01*
X195511158Y-96879500D01*
X195511155Y-96879500D01*
X195356510Y-96910261D01*
X195356498Y-96910264D01*
X195210827Y-96970602D01*
X195210814Y-96970609D01*
X195079711Y-97058210D01*
X195079707Y-97058213D01*
X194968213Y-97169707D01*
X194968210Y-97169711D01*
X194880609Y-97300814D01*
X194880602Y-97300827D01*
X194820264Y-97446498D01*
X194820261Y-97446510D01*
X194789500Y-97601153D01*
X183594711Y-97601153D01*
X183609394Y-97579179D01*
X183638528Y-97508844D01*
X183669735Y-97433501D01*
X183669737Y-97433497D01*
X183700500Y-97278842D01*
X183700500Y-97121158D01*
X183700500Y-97121155D01*
X183700499Y-97121153D01*
X183686509Y-97050821D01*
X183669737Y-96966503D01*
X183635529Y-96883917D01*
X183609397Y-96820827D01*
X183609390Y-96820814D01*
X183554670Y-96738920D01*
X191434499Y-96738920D01*
X191463340Y-96883907D01*
X191463343Y-96883917D01*
X191519912Y-97020488D01*
X191519919Y-97020501D01*
X191602048Y-97143415D01*
X191602051Y-97143419D01*
X191706580Y-97247948D01*
X191706584Y-97247951D01*
X191829498Y-97330080D01*
X191829511Y-97330087D01*
X191966082Y-97386656D01*
X191966087Y-97386658D01*
X191966091Y-97386658D01*
X191966092Y-97386659D01*
X192111079Y-97415500D01*
X192111082Y-97415500D01*
X192258920Y-97415500D01*
X192356462Y-97396096D01*
X192403913Y-97386658D01*
X192540495Y-97330084D01*
X192663416Y-97247951D01*
X192767951Y-97143416D01*
X192850084Y-97020495D01*
X192906658Y-96883913D01*
X192919208Y-96820821D01*
X192935500Y-96738920D01*
X192935500Y-96591079D01*
X192911595Y-96470903D01*
X192907750Y-96451577D01*
X209699500Y-96451577D01*
X209699500Y-96648422D01*
X209730290Y-96842826D01*
X209791117Y-97030029D01*
X209862287Y-97169707D01*
X209880476Y-97205405D01*
X209996172Y-97364646D01*
X210135354Y-97503828D01*
X210294595Y-97619524D01*
X210348681Y-97647082D01*
X210469970Y-97708882D01*
X210469972Y-97708882D01*
X210469975Y-97708884D01*
X210534074Y-97729711D01*
X210657173Y-97769709D01*
X210851578Y-97800500D01*
X210851583Y-97800500D01*
X211048422Y-97800500D01*
X211242826Y-97769709D01*
X211256805Y-97765167D01*
X211430025Y-97708884D01*
X211605405Y-97619524D01*
X211764646Y-97503828D01*
X211903828Y-97364646D01*
X211913631Y-97351153D01*
X214219500Y-97351153D01*
X214219500Y-97508846D01*
X214250261Y-97663489D01*
X214250264Y-97663501D01*
X214310602Y-97809172D01*
X214310609Y-97809185D01*
X214389111Y-97926671D01*
X214409989Y-97993349D01*
X214407626Y-98019753D01*
X214379500Y-98161153D01*
X214379500Y-98318846D01*
X214410261Y-98473489D01*
X214410264Y-98473501D01*
X214470602Y-98619172D01*
X214470609Y-98619185D01*
X214558210Y-98750288D01*
X214558213Y-98750292D01*
X214669707Y-98861786D01*
X214669711Y-98861789D01*
X214800814Y-98949390D01*
X214800827Y-98949397D01*
X214946498Y-99009735D01*
X214946503Y-99009737D01*
X215072714Y-99034842D01*
X215101153Y-99040499D01*
X215101156Y-99040500D01*
X215101158Y-99040500D01*
X215258844Y-99040500D01*
X215258845Y-99040499D01*
X215413497Y-99009737D01*
X215559179Y-98949394D01*
X215690289Y-98861789D01*
X215801789Y-98750289D01*
X215889394Y-98619179D01*
X215949737Y-98473497D01*
X215980500Y-98318842D01*
X215980500Y-98161158D01*
X215980500Y-98161155D01*
X215980499Y-98161153D01*
X215960215Y-98059179D01*
X215949737Y-98006503D01*
X215949735Y-98006498D01*
X215889397Y-97860827D01*
X215889390Y-97860814D01*
X215810888Y-97743328D01*
X215790010Y-97676651D01*
X215792373Y-97650245D01*
X215820500Y-97508844D01*
X215820500Y-97351155D01*
X215820499Y-97351153D01*
X215804790Y-97272178D01*
X215789737Y-97196503D01*
X215789735Y-97196498D01*
X215729397Y-97050827D01*
X215729390Y-97050814D01*
X215641789Y-96919711D01*
X215641786Y-96919707D01*
X215530292Y-96808213D01*
X215530288Y-96808210D01*
X215399185Y-96720609D01*
X215399172Y-96720602D01*
X215253501Y-96660264D01*
X215253489Y-96660261D01*
X215098845Y-96629500D01*
X215098842Y-96629500D01*
X214941158Y-96629500D01*
X214941155Y-96629500D01*
X214786510Y-96660261D01*
X214786498Y-96660264D01*
X214640827Y-96720602D01*
X214640814Y-96720609D01*
X214509711Y-96808210D01*
X214509707Y-96808213D01*
X214398213Y-96919707D01*
X214398210Y-96919711D01*
X214310609Y-97050814D01*
X214310602Y-97050827D01*
X214250264Y-97196498D01*
X214250261Y-97196510D01*
X214219500Y-97351153D01*
X211913631Y-97351153D01*
X212019524Y-97205405D01*
X212108884Y-97030025D01*
X212169709Y-96842826D01*
X212175191Y-96808213D01*
X212200500Y-96648422D01*
X212200500Y-96451577D01*
X212169709Y-96257173D01*
X212141487Y-96170317D01*
X212108884Y-96069975D01*
X212108882Y-96069972D01*
X212108882Y-96069970D01*
X212044362Y-95943343D01*
X212019524Y-95894595D01*
X211903828Y-95735354D01*
X211764646Y-95596172D01*
X211605405Y-95480476D01*
X211430029Y-95391117D01*
X211242826Y-95330290D01*
X211048422Y-95299500D01*
X211048417Y-95299500D01*
X210851583Y-95299500D01*
X210851578Y-95299500D01*
X210657173Y-95330290D01*
X210469970Y-95391117D01*
X210294594Y-95480476D01*
X210208610Y-95542948D01*
X210135354Y-95596172D01*
X210135352Y-95596174D01*
X210135351Y-95596174D01*
X209996174Y-95735351D01*
X209996174Y-95735352D01*
X209996172Y-95735354D01*
X209985168Y-95750500D01*
X209880476Y-95894594D01*
X209791117Y-96069970D01*
X209730290Y-96257173D01*
X209699500Y-96451577D01*
X192907750Y-96451577D01*
X192906659Y-96446091D01*
X192906656Y-96446082D01*
X192850087Y-96309511D01*
X192850080Y-96309498D01*
X192767951Y-96186584D01*
X192767948Y-96186580D01*
X192663419Y-96082051D01*
X192663415Y-96082048D01*
X192540501Y-95999919D01*
X192540488Y-95999912D01*
X192403917Y-95943343D01*
X192403907Y-95943340D01*
X192258920Y-95914500D01*
X192258918Y-95914500D01*
X192111082Y-95914500D01*
X191966087Y-95943342D01*
X191939903Y-95954187D01*
X191939901Y-95954188D01*
X191829507Y-95999914D01*
X191829498Y-95999919D01*
X191706584Y-96082048D01*
X191706580Y-96082051D01*
X191602051Y-96186580D01*
X191602048Y-96186584D01*
X191519919Y-96309498D01*
X191519912Y-96309511D01*
X191463343Y-96446082D01*
X191463340Y-96446092D01*
X191434500Y-96591079D01*
X191434500Y-96591082D01*
X191434500Y-96738918D01*
X191434500Y-96738920D01*
X191434499Y-96738920D01*
X183554670Y-96738920D01*
X183521789Y-96689711D01*
X183521786Y-96689707D01*
X183410292Y-96578213D01*
X183410288Y-96578210D01*
X183279185Y-96490609D01*
X183279172Y-96490602D01*
X183133501Y-96430264D01*
X183133489Y-96430261D01*
X182978845Y-96399500D01*
X182978842Y-96399500D01*
X182821158Y-96399500D01*
X182821155Y-96399500D01*
X182666510Y-96430261D01*
X182666498Y-96430264D01*
X182520827Y-96490602D01*
X182520814Y-96490609D01*
X182389711Y-96578210D01*
X182389707Y-96578213D01*
X182278213Y-96689707D01*
X182278210Y-96689711D01*
X182190609Y-96820814D01*
X182190602Y-96820827D01*
X182130264Y-96966498D01*
X182130261Y-96966510D01*
X182099500Y-97121153D01*
X177700499Y-97121153D01*
X177686509Y-97050821D01*
X177669737Y-96966503D01*
X177635529Y-96883917D01*
X177609397Y-96820827D01*
X177609390Y-96820814D01*
X177521789Y-96689711D01*
X177521786Y-96689707D01*
X177410292Y-96578213D01*
X177410288Y-96578210D01*
X177279185Y-96490609D01*
X177279172Y-96490602D01*
X177133501Y-96430264D01*
X177133489Y-96430261D01*
X176978845Y-96399500D01*
X176978842Y-96399500D01*
X176821158Y-96399500D01*
X176821155Y-96399500D01*
X176666510Y-96430261D01*
X176666498Y-96430264D01*
X176520827Y-96490602D01*
X176520814Y-96490609D01*
X176389711Y-96578210D01*
X176389707Y-96578213D01*
X176278213Y-96689707D01*
X176278210Y-96689711D01*
X176190609Y-96820814D01*
X176190602Y-96820827D01*
X176130264Y-96966498D01*
X176130261Y-96966510D01*
X176099500Y-97121153D01*
X155950500Y-97121153D01*
X155950500Y-94401577D01*
X157499500Y-94401577D01*
X157499500Y-94598422D01*
X157530290Y-94792826D01*
X157591117Y-94980029D01*
X157680476Y-95155405D01*
X157796172Y-95314646D01*
X157935354Y-95453828D01*
X158094595Y-95569524D01*
X158146895Y-95596172D01*
X158269970Y-95658882D01*
X158269972Y-95658882D01*
X158269975Y-95658884D01*
X158340060Y-95681656D01*
X158457173Y-95719709D01*
X158651578Y-95750500D01*
X158651583Y-95750500D01*
X158848422Y-95750500D01*
X159042826Y-95719709D01*
X159071168Y-95710500D01*
X159230025Y-95658884D01*
X159405405Y-95569524D01*
X159564646Y-95453828D01*
X159703828Y-95314646D01*
X159819524Y-95155405D01*
X159881423Y-95033920D01*
X191119499Y-95033920D01*
X191148340Y-95178907D01*
X191148343Y-95178917D01*
X191204912Y-95315488D01*
X191204919Y-95315501D01*
X191287048Y-95438415D01*
X191287051Y-95438419D01*
X191391580Y-95542948D01*
X191391584Y-95542951D01*
X191514498Y-95625080D01*
X191514511Y-95625087D01*
X191624900Y-95670811D01*
X191651087Y-95681658D01*
X191651091Y-95681658D01*
X191651092Y-95681659D01*
X191796079Y-95710500D01*
X191796082Y-95710500D01*
X191893795Y-95710500D01*
X191943918Y-95710500D01*
X192088913Y-95681658D01*
X192225495Y-95625084D01*
X192348416Y-95542951D01*
X192452951Y-95438416D01*
X192535084Y-95315495D01*
X192591658Y-95178913D01*
X192620500Y-95033918D01*
X192620500Y-94886082D01*
X192620500Y-94886079D01*
X192591659Y-94741092D01*
X192591658Y-94741091D01*
X192591658Y-94741087D01*
X192591656Y-94741082D01*
X192535087Y-94604511D01*
X192535080Y-94604498D01*
X192452951Y-94481584D01*
X192452948Y-94481580D01*
X192348419Y-94377051D01*
X192348415Y-94377048D01*
X192225501Y-94294919D01*
X192225488Y-94294912D01*
X192088917Y-94238343D01*
X192088907Y-94238340D01*
X191943920Y-94209500D01*
X191943918Y-94209500D01*
X191796082Y-94209500D01*
X191796080Y-94209500D01*
X191651092Y-94238340D01*
X191651082Y-94238343D01*
X191514511Y-94294912D01*
X191514498Y-94294919D01*
X191391584Y-94377048D01*
X191391580Y-94377051D01*
X191287051Y-94481580D01*
X191287048Y-94481584D01*
X191204919Y-94604498D01*
X191204912Y-94604511D01*
X191148343Y-94741082D01*
X191148340Y-94741092D01*
X191119500Y-94886079D01*
X191119500Y-94886082D01*
X191119500Y-95033918D01*
X191119500Y-95033920D01*
X191119499Y-95033920D01*
X159881423Y-95033920D01*
X159908884Y-94980025D01*
X159969709Y-94792826D01*
X160000500Y-94598422D01*
X160000500Y-94401577D01*
X159969709Y-94207173D01*
X159942658Y-94123920D01*
X182959499Y-94123920D01*
X182988340Y-94268907D01*
X182988343Y-94268917D01*
X183044912Y-94405488D01*
X183044919Y-94405501D01*
X183127048Y-94528415D01*
X183127051Y-94528419D01*
X183231580Y-94632948D01*
X183231584Y-94632951D01*
X183354498Y-94715080D01*
X183354511Y-94715087D01*
X183476049Y-94765429D01*
X183491087Y-94771658D01*
X183491091Y-94771658D01*
X183491092Y-94771659D01*
X183636079Y-94800500D01*
X183636082Y-94800500D01*
X183783920Y-94800500D01*
X183881462Y-94781096D01*
X183928913Y-94771658D01*
X183936415Y-94768550D01*
X183943952Y-94765429D01*
X184065488Y-94715087D01*
X184065488Y-94715086D01*
X184065495Y-94715084D01*
X184188416Y-94632951D01*
X184292951Y-94528416D01*
X184375084Y-94405495D01*
X184431658Y-94268913D01*
X184447904Y-94187240D01*
X184460500Y-94123920D01*
X184460500Y-93976079D01*
X184448392Y-93915211D01*
X184454619Y-93845619D01*
X184497481Y-93790442D01*
X184501083Y-93787941D01*
X184522844Y-93773400D01*
X184589522Y-93752525D01*
X184656902Y-93771011D01*
X184703590Y-93822991D01*
X184715732Y-93876505D01*
X184715732Y-94010150D01*
X184715732Y-94010152D01*
X184715731Y-94010152D01*
X184744572Y-94155139D01*
X184744575Y-94155149D01*
X184801144Y-94291720D01*
X184801151Y-94291733D01*
X184883280Y-94414647D01*
X184883283Y-94414651D01*
X184987812Y-94519180D01*
X184987816Y-94519183D01*
X185110730Y-94601312D01*
X185110743Y-94601319D01*
X185247314Y-94657888D01*
X185247319Y-94657890D01*
X185247323Y-94657890D01*
X185247324Y-94657891D01*
X185392311Y-94686732D01*
X185392314Y-94686732D01*
X185540152Y-94686732D01*
X185637694Y-94667328D01*
X185685145Y-94657890D01*
X185821727Y-94601316D01*
X185944648Y-94519183D01*
X186049183Y-94414648D01*
X186131316Y-94291727D01*
X186177088Y-94181223D01*
X186220926Y-94126823D01*
X186287220Y-94104757D01*
X186303805Y-94105276D01*
X186306079Y-94105500D01*
X186306082Y-94105500D01*
X186453920Y-94105500D01*
X186558112Y-94084774D01*
X186598913Y-94076658D01*
X186735495Y-94020084D01*
X186858416Y-93937951D01*
X186962951Y-93833416D01*
X187045084Y-93710495D01*
X187101658Y-93573913D01*
X187130500Y-93428918D01*
X187130500Y-93423615D01*
X218324500Y-93423615D01*
X218324500Y-93576384D01*
X218354300Y-93726197D01*
X218354302Y-93726205D01*
X218412759Y-93867334D01*
X218412764Y-93867343D01*
X218497629Y-93994351D01*
X218497632Y-93994355D01*
X218605644Y-94102367D01*
X218605648Y-94102370D01*
X218732656Y-94187235D01*
X218732662Y-94187238D01*
X218732663Y-94187239D01*
X218873795Y-94245698D01*
X218990475Y-94268907D01*
X219023615Y-94275499D01*
X219023619Y-94275500D01*
X219023620Y-94275500D01*
X219176381Y-94275500D01*
X219176382Y-94275499D01*
X219326205Y-94245698D01*
X219467337Y-94187239D01*
X219594352Y-94102370D01*
X219702370Y-93994352D01*
X219787239Y-93867337D01*
X219845698Y-93726205D01*
X219875500Y-93576380D01*
X219875500Y-93423620D01*
X219874202Y-93417094D01*
X219874202Y-93417091D01*
X219870602Y-93398992D01*
X239074500Y-93398992D01*
X239074500Y-93601007D01*
X239113907Y-93799119D01*
X239113909Y-93799127D01*
X239191212Y-93985752D01*
X239191217Y-93985762D01*
X239303441Y-94153718D01*
X239446281Y-94296558D01*
X239614237Y-94408782D01*
X239614241Y-94408784D01*
X239614244Y-94408786D01*
X239800873Y-94486091D01*
X239967224Y-94519180D01*
X239998992Y-94525499D01*
X239998996Y-94525500D01*
X239998997Y-94525500D01*
X240201004Y-94525500D01*
X240201005Y-94525499D01*
X240399127Y-94486091D01*
X240585756Y-94408786D01*
X240753718Y-94296558D01*
X240896558Y-94153718D01*
X241008786Y-93985756D01*
X241086091Y-93799127D01*
X241125500Y-93601003D01*
X241125500Y-93398997D01*
X241086091Y-93200873D01*
X241008786Y-93014244D01*
X241008784Y-93014241D01*
X241008782Y-93014237D01*
X240896558Y-92846281D01*
X240753718Y-92703441D01*
X240585762Y-92591217D01*
X240585752Y-92591212D01*
X240399127Y-92513909D01*
X240399119Y-92513907D01*
X240201007Y-92474500D01*
X240201003Y-92474500D01*
X239998997Y-92474500D01*
X239998992Y-92474500D01*
X239800880Y-92513907D01*
X239800872Y-92513909D01*
X239614247Y-92591212D01*
X239614237Y-92591217D01*
X239446281Y-92703441D01*
X239303441Y-92846281D01*
X239191217Y-93014237D01*
X239191212Y-93014247D01*
X239113909Y-93200872D01*
X239113907Y-93200880D01*
X239074500Y-93398992D01*
X219870602Y-93398992D01*
X219845699Y-93273802D01*
X219845698Y-93273795D01*
X219787239Y-93132663D01*
X219787238Y-93132662D01*
X219787235Y-93132656D01*
X219702370Y-93005648D01*
X219702367Y-93005644D01*
X219594355Y-92897632D01*
X219594351Y-92897629D01*
X219467343Y-92812764D01*
X219467334Y-92812759D01*
X219326205Y-92754302D01*
X219326197Y-92754300D01*
X219176384Y-92724500D01*
X219176380Y-92724500D01*
X219023620Y-92724500D01*
X219023615Y-92724500D01*
X218873802Y-92754300D01*
X218873794Y-92754302D01*
X218732665Y-92812759D01*
X218732656Y-92812764D01*
X218605648Y-92897629D01*
X218605644Y-92897632D01*
X218497632Y-93005644D01*
X218497629Y-93005648D01*
X218412764Y-93132656D01*
X218412759Y-93132665D01*
X218354302Y-93273794D01*
X218354300Y-93273802D01*
X218324500Y-93423615D01*
X187130500Y-93423615D01*
X187130500Y-93281082D01*
X187130500Y-93281079D01*
X187101659Y-93136092D01*
X187101658Y-93136091D01*
X187101658Y-93136087D01*
X187090855Y-93110006D01*
X187045087Y-92999511D01*
X187045080Y-92999498D01*
X186962951Y-92876584D01*
X186962948Y-92876580D01*
X186858419Y-92772051D01*
X186858415Y-92772048D01*
X186735501Y-92689919D01*
X186735488Y-92689912D01*
X186598917Y-92633343D01*
X186598907Y-92633340D01*
X186453920Y-92604500D01*
X186453918Y-92604500D01*
X186306082Y-92604500D01*
X186306080Y-92604500D01*
X186161092Y-92633340D01*
X186161082Y-92633343D01*
X186024511Y-92689912D01*
X186024498Y-92689919D01*
X185901584Y-92772048D01*
X185901580Y-92772051D01*
X185797051Y-92876580D01*
X185797048Y-92876584D01*
X185714919Y-92999498D01*
X185714914Y-92999508D01*
X185669144Y-93110006D01*
X185625302Y-93164410D01*
X185559008Y-93186474D01*
X185542436Y-93185957D01*
X185540150Y-93185732D01*
X185392314Y-93185732D01*
X185392312Y-93185732D01*
X185247324Y-93214572D01*
X185247314Y-93214575D01*
X185110743Y-93271144D01*
X185110725Y-93271154D01*
X185033390Y-93322828D01*
X184966713Y-93343706D01*
X184899333Y-93325221D01*
X184852643Y-93273242D01*
X184840500Y-93219726D01*
X184840500Y-93086079D01*
X184811659Y-92941092D01*
X184811658Y-92941091D01*
X184811658Y-92941087D01*
X184811656Y-92941082D01*
X184755087Y-92804511D01*
X184755080Y-92804498D01*
X184672951Y-92681584D01*
X184672948Y-92681580D01*
X184568419Y-92577051D01*
X184568415Y-92577048D01*
X184445501Y-92494919D01*
X184445488Y-92494912D01*
X184308917Y-92438343D01*
X184308907Y-92438340D01*
X184163920Y-92409500D01*
X184163918Y-92409500D01*
X184016082Y-92409500D01*
X184016080Y-92409500D01*
X183871092Y-92438340D01*
X183871082Y-92438343D01*
X183734511Y-92494912D01*
X183734498Y-92494919D01*
X183611584Y-92577048D01*
X183611580Y-92577051D01*
X183507051Y-92681580D01*
X183507048Y-92681584D01*
X183424919Y-92804498D01*
X183424912Y-92804511D01*
X183368343Y-92941082D01*
X183368340Y-92941092D01*
X183339500Y-93086079D01*
X183339500Y-93233922D01*
X183351607Y-93294788D01*
X183345380Y-93364380D01*
X183302517Y-93419557D01*
X183298882Y-93422080D01*
X183231586Y-93467046D01*
X183231580Y-93467051D01*
X183127051Y-93571580D01*
X183127048Y-93571584D01*
X183044919Y-93694498D01*
X183044912Y-93694511D01*
X182988343Y-93831082D01*
X182988340Y-93831092D01*
X182959500Y-93976079D01*
X182959500Y-93976082D01*
X182959500Y-94123918D01*
X182959500Y-94123920D01*
X182959499Y-94123920D01*
X159942658Y-94123920D01*
X159936600Y-94105276D01*
X159908884Y-94019975D01*
X159908882Y-94019972D01*
X159908882Y-94019970D01*
X159835783Y-93876505D01*
X159819524Y-93844595D01*
X159703828Y-93685354D01*
X159564646Y-93546172D01*
X159405405Y-93430476D01*
X159391949Y-93423620D01*
X159230029Y-93341117D01*
X159042826Y-93280290D01*
X158848422Y-93249500D01*
X158848417Y-93249500D01*
X158651583Y-93249500D01*
X158651578Y-93249500D01*
X158457173Y-93280290D01*
X158269970Y-93341117D01*
X158094594Y-93430476D01*
X158044254Y-93467051D01*
X157935354Y-93546172D01*
X157935352Y-93546174D01*
X157935351Y-93546174D01*
X157796174Y-93685351D01*
X157796174Y-93685352D01*
X157796172Y-93685354D01*
X157789519Y-93694511D01*
X157680476Y-93844594D01*
X157591117Y-94019970D01*
X157530290Y-94207173D01*
X157499500Y-94401577D01*
X155950500Y-94401577D01*
X155950500Y-89323920D01*
X201979499Y-89323920D01*
X202008340Y-89468907D01*
X202008343Y-89468917D01*
X202064912Y-89605488D01*
X202064919Y-89605501D01*
X202147048Y-89728415D01*
X202147051Y-89728419D01*
X202251580Y-89832948D01*
X202251584Y-89832951D01*
X202374498Y-89915080D01*
X202374511Y-89915087D01*
X202511082Y-89971656D01*
X202511087Y-89971658D01*
X202511091Y-89971658D01*
X202511092Y-89971659D01*
X202656079Y-90000500D01*
X202656082Y-90000500D01*
X202803920Y-90000500D01*
X202901462Y-89981096D01*
X202948913Y-89971658D01*
X203085495Y-89915084D01*
X203208416Y-89832951D01*
X203312951Y-89728416D01*
X203395084Y-89605495D01*
X203451658Y-89468913D01*
X203480500Y-89323918D01*
X203480500Y-89176082D01*
X203480500Y-89176079D01*
X203451659Y-89031092D01*
X203451658Y-89031091D01*
X203451658Y-89031087D01*
X203451656Y-89031082D01*
X203395087Y-88894511D01*
X203395080Y-88894498D01*
X203312951Y-88771584D01*
X203312948Y-88771580D01*
X203208419Y-88667051D01*
X203208415Y-88667048D01*
X203085501Y-88584919D01*
X203085488Y-88584912D01*
X202948917Y-88528343D01*
X202948907Y-88528340D01*
X202803920Y-88499500D01*
X202803918Y-88499500D01*
X202656082Y-88499500D01*
X202656080Y-88499500D01*
X202511092Y-88528340D01*
X202511082Y-88528343D01*
X202374511Y-88584912D01*
X202374498Y-88584919D01*
X202251584Y-88667048D01*
X202251580Y-88667051D01*
X202147051Y-88771580D01*
X202147048Y-88771584D01*
X202064919Y-88894498D01*
X202064912Y-88894511D01*
X202008343Y-89031082D01*
X202008340Y-89031092D01*
X201979500Y-89176079D01*
X201979500Y-89176082D01*
X201979500Y-89323918D01*
X201979500Y-89323920D01*
X201979499Y-89323920D01*
X155950500Y-89323920D01*
X155950500Y-87423920D01*
X241399499Y-87423920D01*
X241428340Y-87568907D01*
X241428343Y-87568917D01*
X241484912Y-87705488D01*
X241484919Y-87705501D01*
X241567048Y-87828415D01*
X241567051Y-87828419D01*
X241671580Y-87932948D01*
X241671584Y-87932951D01*
X241794498Y-88015080D01*
X241794511Y-88015087D01*
X241931082Y-88071656D01*
X241931087Y-88071658D01*
X241931091Y-88071658D01*
X241931092Y-88071659D01*
X242076079Y-88100500D01*
X242076082Y-88100500D01*
X242223920Y-88100500D01*
X242321462Y-88081096D01*
X242368913Y-88071658D01*
X242505495Y-88015084D01*
X242628416Y-87932951D01*
X242732951Y-87828416D01*
X242815084Y-87705495D01*
X242871658Y-87568913D01*
X242900500Y-87423918D01*
X242900500Y-87276082D01*
X242900500Y-87276079D01*
X242871659Y-87131092D01*
X242871658Y-87131091D01*
X242871658Y-87131087D01*
X242844317Y-87065080D01*
X242815087Y-86994511D01*
X242815080Y-86994498D01*
X242732951Y-86871584D01*
X242732948Y-86871580D01*
X242628419Y-86767051D01*
X242628415Y-86767048D01*
X242505501Y-86684919D01*
X242505488Y-86684912D01*
X242368917Y-86628343D01*
X242368907Y-86628340D01*
X242223920Y-86599500D01*
X242223918Y-86599500D01*
X242076082Y-86599500D01*
X242076080Y-86599500D01*
X241931092Y-86628340D01*
X241931082Y-86628343D01*
X241794511Y-86684912D01*
X241794498Y-86684919D01*
X241671584Y-86767048D01*
X241671580Y-86767051D01*
X241567051Y-86871580D01*
X241567048Y-86871584D01*
X241484919Y-86994498D01*
X241484912Y-86994511D01*
X241428343Y-87131082D01*
X241428340Y-87131092D01*
X241399500Y-87276079D01*
X241399500Y-87276082D01*
X241399500Y-87423918D01*
X241399500Y-87423920D01*
X241399499Y-87423920D01*
X155950500Y-87423920D01*
X155950500Y-86473920D01*
X158424499Y-86473920D01*
X158453340Y-86618907D01*
X158453343Y-86618917D01*
X158509912Y-86755488D01*
X158509919Y-86755501D01*
X158592048Y-86878415D01*
X158592051Y-86878419D01*
X158696580Y-86982948D01*
X158696584Y-86982951D01*
X158819498Y-87065080D01*
X158819511Y-87065087D01*
X158956082Y-87121656D01*
X158956087Y-87121658D01*
X158956091Y-87121658D01*
X158956092Y-87121659D01*
X159101079Y-87150500D01*
X159101082Y-87150500D01*
X159248920Y-87150500D01*
X159259613Y-87148373D01*
X159351514Y-87130091D01*
X159393913Y-87121658D01*
X159530495Y-87065084D01*
X159653416Y-86982951D01*
X159757951Y-86878416D01*
X159840084Y-86755495D01*
X159896658Y-86618913D01*
X159918375Y-86509737D01*
X159925500Y-86473920D01*
X159925500Y-86326079D01*
X159896659Y-86181092D01*
X159896658Y-86181091D01*
X159896658Y-86181087D01*
X159875617Y-86130289D01*
X159840087Y-86044511D01*
X159840080Y-86044498D01*
X159757951Y-85921584D01*
X159757948Y-85921580D01*
X159653419Y-85817051D01*
X159653415Y-85817048D01*
X159565295Y-85758168D01*
X159530501Y-85734919D01*
X159530488Y-85734912D01*
X159393917Y-85678343D01*
X159393907Y-85678340D01*
X159307503Y-85661153D01*
X228739500Y-85661153D01*
X228739500Y-85818846D01*
X228770261Y-85973489D01*
X228770264Y-85973501D01*
X228830602Y-86119172D01*
X228830609Y-86119185D01*
X228918210Y-86250288D01*
X228918213Y-86250292D01*
X229029707Y-86361786D01*
X229029711Y-86361789D01*
X229160814Y-86449390D01*
X229160827Y-86449397D01*
X229220032Y-86473920D01*
X229306503Y-86509737D01*
X229461153Y-86540499D01*
X229461156Y-86540500D01*
X229461158Y-86540500D01*
X229618844Y-86540500D01*
X229618845Y-86540499D01*
X229773497Y-86509737D01*
X229919179Y-86449394D01*
X230050289Y-86361789D01*
X230161789Y-86250289D01*
X230249394Y-86119179D01*
X230309737Y-85973497D01*
X230340500Y-85818842D01*
X230340500Y-85661158D01*
X230340500Y-85661155D01*
X230320231Y-85559258D01*
X230320231Y-85559257D01*
X230316630Y-85541153D01*
X238289500Y-85541153D01*
X238289500Y-85698846D01*
X238320261Y-85853489D01*
X238320264Y-85853501D01*
X238380602Y-85999172D01*
X238380609Y-85999185D01*
X238468210Y-86130288D01*
X238468213Y-86130292D01*
X238579707Y-86241786D01*
X238579711Y-86241789D01*
X238710814Y-86329390D01*
X238710827Y-86329397D01*
X238856498Y-86389735D01*
X238856503Y-86389737D01*
X239011153Y-86420499D01*
X239011156Y-86420500D01*
X239011158Y-86420500D01*
X239168844Y-86420500D01*
X239168845Y-86420499D01*
X239323497Y-86389737D01*
X239469179Y-86329394D01*
X239600289Y-86241789D01*
X239711789Y-86130289D01*
X239799394Y-85999179D01*
X239859737Y-85853497D01*
X239890500Y-85698842D01*
X239890500Y-85541158D01*
X239890500Y-85541155D01*
X239890499Y-85541153D01*
X239884402Y-85510500D01*
X239859737Y-85386503D01*
X239837073Y-85331786D01*
X239799397Y-85240827D01*
X239799390Y-85240814D01*
X239711789Y-85109711D01*
X239711786Y-85109707D01*
X239600292Y-84998213D01*
X239600288Y-84998210D01*
X239469185Y-84910609D01*
X239469172Y-84910602D01*
X239323501Y-84850264D01*
X239323489Y-84850261D01*
X239168845Y-84819500D01*
X239168842Y-84819500D01*
X239011158Y-84819500D01*
X239011155Y-84819500D01*
X238856510Y-84850261D01*
X238856498Y-84850264D01*
X238710827Y-84910602D01*
X238710814Y-84910609D01*
X238579711Y-84998210D01*
X238579707Y-84998213D01*
X238468213Y-85109707D01*
X238468210Y-85109711D01*
X238380609Y-85240814D01*
X238380602Y-85240827D01*
X238320264Y-85386498D01*
X238320261Y-85386510D01*
X238289500Y-85541153D01*
X230316630Y-85541153D01*
X230309738Y-85506510D01*
X230309737Y-85506503D01*
X230298650Y-85479737D01*
X230249397Y-85360827D01*
X230249390Y-85360814D01*
X230161789Y-85229711D01*
X230161786Y-85229707D01*
X230050292Y-85118213D01*
X230050288Y-85118210D01*
X229919185Y-85030609D01*
X229919172Y-85030602D01*
X229773501Y-84970264D01*
X229773489Y-84970261D01*
X229618845Y-84939500D01*
X229618842Y-84939500D01*
X229461158Y-84939500D01*
X229461155Y-84939500D01*
X229306510Y-84970261D01*
X229306498Y-84970264D01*
X229160827Y-85030602D01*
X229160814Y-85030609D01*
X229029711Y-85118210D01*
X229029707Y-85118213D01*
X228918213Y-85229707D01*
X228918210Y-85229711D01*
X228830609Y-85360814D01*
X228830602Y-85360827D01*
X228770264Y-85506498D01*
X228770261Y-85506510D01*
X228739500Y-85661153D01*
X159307503Y-85661153D01*
X159248920Y-85649500D01*
X159248918Y-85649500D01*
X159101082Y-85649500D01*
X159101080Y-85649500D01*
X158956092Y-85678340D01*
X158956082Y-85678343D01*
X158819511Y-85734912D01*
X158819498Y-85734919D01*
X158696584Y-85817048D01*
X158696580Y-85817051D01*
X158592051Y-85921580D01*
X158592048Y-85921584D01*
X158509919Y-86044498D01*
X158509912Y-86044511D01*
X158453343Y-86181082D01*
X158453340Y-86181092D01*
X158424500Y-86326079D01*
X158424500Y-86326082D01*
X158424500Y-86473918D01*
X158424500Y-86473920D01*
X158424499Y-86473920D01*
X155950500Y-86473920D01*
X155950500Y-84631153D01*
X192449500Y-84631153D01*
X192449500Y-84788846D01*
X192480261Y-84943489D01*
X192480264Y-84943501D01*
X192540602Y-85089172D01*
X192540609Y-85089185D01*
X192628210Y-85220288D01*
X192628213Y-85220292D01*
X192739707Y-85331786D01*
X192739711Y-85331789D01*
X192870814Y-85419390D01*
X192870827Y-85419397D01*
X193016498Y-85479735D01*
X193016503Y-85479737D01*
X193151039Y-85506498D01*
X193171153Y-85510499D01*
X193171156Y-85510500D01*
X193171158Y-85510500D01*
X193328844Y-85510500D01*
X193328845Y-85510499D01*
X193483497Y-85479737D01*
X193629179Y-85419394D01*
X193760289Y-85331789D01*
X193871789Y-85220289D01*
X193959394Y-85089179D01*
X194019737Y-84943497D01*
X194050500Y-84788842D01*
X194050500Y-84631158D01*
X194050500Y-84631155D01*
X194050499Y-84631153D01*
X194023746Y-84496658D01*
X194019737Y-84476503D01*
X193970632Y-84357951D01*
X193959397Y-84330827D01*
X193959390Y-84330814D01*
X193871789Y-84199711D01*
X193871786Y-84199707D01*
X193760292Y-84088213D01*
X193760288Y-84088210D01*
X193629185Y-84000609D01*
X193629172Y-84000602D01*
X193483501Y-83940264D01*
X193483489Y-83940261D01*
X193328845Y-83909500D01*
X193328842Y-83909500D01*
X193171158Y-83909500D01*
X193171155Y-83909500D01*
X193016510Y-83940261D01*
X193016498Y-83940264D01*
X192870827Y-84000602D01*
X192870814Y-84000609D01*
X192739711Y-84088210D01*
X192739707Y-84088213D01*
X192628213Y-84199707D01*
X192628210Y-84199711D01*
X192540609Y-84330814D01*
X192540602Y-84330827D01*
X192480264Y-84476498D01*
X192480261Y-84476510D01*
X192449500Y-84631153D01*
X155950500Y-84631153D01*
X155950500Y-83848920D01*
X158199499Y-83848920D01*
X158228340Y-83993907D01*
X158228343Y-83993917D01*
X158284912Y-84130488D01*
X158284919Y-84130501D01*
X158367048Y-84253415D01*
X158367051Y-84253419D01*
X158471580Y-84357948D01*
X158471584Y-84357951D01*
X158594498Y-84440080D01*
X158594511Y-84440087D01*
X158682416Y-84476498D01*
X158731087Y-84496658D01*
X158731091Y-84496658D01*
X158731092Y-84496659D01*
X158876079Y-84525500D01*
X158876082Y-84525500D01*
X159023920Y-84525500D01*
X159134775Y-84503449D01*
X159157070Y-84499013D01*
X159168913Y-84496658D01*
X159305495Y-84440084D01*
X159428416Y-84357951D01*
X159532951Y-84253416D01*
X159615084Y-84130495D01*
X159671658Y-83993913D01*
X159694632Y-83878419D01*
X159700500Y-83848920D01*
X159700500Y-83701079D01*
X159671659Y-83556092D01*
X159671658Y-83556091D01*
X159671658Y-83556087D01*
X159671656Y-83556082D01*
X159637624Y-83473920D01*
X177999499Y-83473920D01*
X178028340Y-83618907D01*
X178028343Y-83618917D01*
X178084912Y-83755488D01*
X178084919Y-83755501D01*
X178167048Y-83878415D01*
X178167051Y-83878419D01*
X178271580Y-83982948D01*
X178271584Y-83982951D01*
X178394498Y-84065080D01*
X178394511Y-84065087D01*
X178531082Y-84121656D01*
X178531087Y-84121658D01*
X178531091Y-84121658D01*
X178531092Y-84121659D01*
X178676079Y-84150500D01*
X178676082Y-84150500D01*
X178823920Y-84150500D01*
X178949598Y-84125500D01*
X178968913Y-84121658D01*
X179105495Y-84065084D01*
X179228416Y-83982951D01*
X179332951Y-83878416D01*
X179415084Y-83755495D01*
X179471658Y-83618913D01*
X179500500Y-83473918D01*
X179500500Y-83448920D01*
X181499499Y-83448920D01*
X181528340Y-83593907D01*
X181528343Y-83593917D01*
X181584912Y-83730488D01*
X181584919Y-83730501D01*
X181667048Y-83853415D01*
X181667051Y-83853419D01*
X181771580Y-83957948D01*
X181771584Y-83957951D01*
X181894498Y-84040080D01*
X181894511Y-84040087D01*
X182010694Y-84088211D01*
X182031087Y-84096658D01*
X182031091Y-84096658D01*
X182031092Y-84096659D01*
X182176079Y-84125500D01*
X182176082Y-84125500D01*
X182323920Y-84125500D01*
X182421462Y-84106096D01*
X182468913Y-84096658D01*
X182605495Y-84040084D01*
X182728416Y-83957951D01*
X182832951Y-83853416D01*
X182915084Y-83730495D01*
X182971658Y-83593913D01*
X183000500Y-83448918D01*
X183000500Y-83301082D01*
X183000500Y-83301079D01*
X182971659Y-83156092D01*
X182971658Y-83156091D01*
X182971658Y-83156087D01*
X182952535Y-83109919D01*
X182915087Y-83019511D01*
X182915080Y-83019498D01*
X182832951Y-82896584D01*
X182832948Y-82896580D01*
X182728419Y-82792051D01*
X182728415Y-82792048D01*
X182605501Y-82709919D01*
X182605488Y-82709912D01*
X182468917Y-82653343D01*
X182468907Y-82653340D01*
X182323920Y-82624500D01*
X182323918Y-82624500D01*
X182176082Y-82624500D01*
X182176080Y-82624500D01*
X182031092Y-82653340D01*
X182031082Y-82653343D01*
X181894511Y-82709912D01*
X181894498Y-82709919D01*
X181771584Y-82792048D01*
X181771580Y-82792051D01*
X181667051Y-82896580D01*
X181667048Y-82896584D01*
X181584919Y-83019498D01*
X181584912Y-83019511D01*
X181528343Y-83156082D01*
X181528340Y-83156092D01*
X181499500Y-83301079D01*
X181499500Y-83301082D01*
X181499500Y-83448918D01*
X181499500Y-83448920D01*
X181499499Y-83448920D01*
X179500500Y-83448920D01*
X179500500Y-83326082D01*
X179500500Y-83326079D01*
X179500499Y-83326077D01*
X179499128Y-83319181D01*
X179471659Y-83181092D01*
X179471658Y-83181091D01*
X179471658Y-83181087D01*
X179461301Y-83156082D01*
X179415087Y-83044511D01*
X179415080Y-83044498D01*
X179332951Y-82921584D01*
X179332948Y-82921580D01*
X179228419Y-82817051D01*
X179228415Y-82817048D01*
X179105501Y-82734919D01*
X179105488Y-82734912D01*
X178968917Y-82678343D01*
X178968907Y-82678340D01*
X178823920Y-82649500D01*
X178823918Y-82649500D01*
X178676082Y-82649500D01*
X178676080Y-82649500D01*
X178531092Y-82678340D01*
X178531082Y-82678343D01*
X178394511Y-82734912D01*
X178394498Y-82734919D01*
X178271584Y-82817048D01*
X178271580Y-82817051D01*
X178167051Y-82921580D01*
X178167048Y-82921584D01*
X178084919Y-83044498D01*
X178084912Y-83044511D01*
X178028343Y-83181082D01*
X178028340Y-83181092D01*
X177999500Y-83326079D01*
X177999500Y-83326082D01*
X177999500Y-83473918D01*
X177999500Y-83473920D01*
X177999499Y-83473920D01*
X159637624Y-83473920D01*
X159615087Y-83419511D01*
X159615085Y-83419507D01*
X159615084Y-83419505D01*
X159548050Y-83319181D01*
X159532951Y-83296583D01*
X159428419Y-83192051D01*
X159428415Y-83192048D01*
X159305501Y-83109919D01*
X159305488Y-83109912D01*
X159168917Y-83053343D01*
X159168907Y-83053340D01*
X159023920Y-83024500D01*
X159023918Y-83024500D01*
X158876082Y-83024500D01*
X158876080Y-83024500D01*
X158731092Y-83053340D01*
X158731082Y-83053343D01*
X158594511Y-83109912D01*
X158594498Y-83109919D01*
X158471584Y-83192048D01*
X158471580Y-83192051D01*
X158367051Y-83296580D01*
X158367048Y-83296584D01*
X158284919Y-83419498D01*
X158284912Y-83419511D01*
X158228343Y-83556082D01*
X158228340Y-83556092D01*
X158199500Y-83701079D01*
X158199500Y-83701082D01*
X158199500Y-83848918D01*
X158199500Y-83848920D01*
X158199499Y-83848920D01*
X155950500Y-83848920D01*
X155950500Y-81223920D01*
X166324499Y-81223920D01*
X166353340Y-81368907D01*
X166353343Y-81368917D01*
X166409912Y-81505488D01*
X166409919Y-81505501D01*
X166492048Y-81628415D01*
X166492051Y-81628419D01*
X166596580Y-81732948D01*
X166596584Y-81732951D01*
X166719498Y-81815080D01*
X166719511Y-81815087D01*
X166835006Y-81862926D01*
X166856087Y-81871658D01*
X166856091Y-81871658D01*
X166856092Y-81871659D01*
X167001079Y-81900500D01*
X167001082Y-81900500D01*
X167148920Y-81900500D01*
X167274598Y-81875500D01*
X167293913Y-81871658D01*
X167390050Y-81831836D01*
X167459516Y-81824368D01*
X167484941Y-81831833D01*
X167581087Y-81871658D01*
X167581091Y-81871658D01*
X167581092Y-81871659D01*
X167726079Y-81900500D01*
X167726082Y-81900500D01*
X167873920Y-81900500D01*
X167999598Y-81875500D01*
X168018913Y-81871658D01*
X168102549Y-81837014D01*
X168172016Y-81829546D01*
X168197447Y-81837013D01*
X168281087Y-81871658D01*
X168281091Y-81871658D01*
X168281092Y-81871659D01*
X168426079Y-81900500D01*
X168426082Y-81900500D01*
X168573920Y-81900500D01*
X168699598Y-81875500D01*
X168718913Y-81871658D01*
X168820225Y-81829692D01*
X168889695Y-81822224D01*
X168915129Y-81829692D01*
X168956087Y-81846658D01*
X168956091Y-81846658D01*
X168956092Y-81846659D01*
X169101079Y-81875500D01*
X169101082Y-81875500D01*
X169248920Y-81875500D01*
X169346462Y-81856096D01*
X169393913Y-81846658D01*
X169486025Y-81808503D01*
X169555492Y-81801035D01*
X169591937Y-81813711D01*
X169594511Y-81815087D01*
X169710006Y-81862926D01*
X169731087Y-81871658D01*
X169731091Y-81871658D01*
X169731092Y-81871659D01*
X169876079Y-81900500D01*
X169876082Y-81900500D01*
X170023920Y-81900500D01*
X170149598Y-81875500D01*
X170168913Y-81871658D01*
X170252549Y-81837014D01*
X170322016Y-81829546D01*
X170347447Y-81837013D01*
X170431087Y-81871658D01*
X170431091Y-81871658D01*
X170431092Y-81871659D01*
X170576079Y-81900500D01*
X170576082Y-81900500D01*
X170723920Y-81900500D01*
X170849598Y-81875500D01*
X170868913Y-81871658D01*
X170934868Y-81844337D01*
X171004336Y-81836868D01*
X171029769Y-81844335D01*
X171156087Y-81896658D01*
X171156091Y-81896658D01*
X171156092Y-81896659D01*
X171301079Y-81925500D01*
X171301082Y-81925500D01*
X171448920Y-81925500D01*
X171574598Y-81900500D01*
X171593913Y-81896658D01*
X171730495Y-81840084D01*
X171853416Y-81757951D01*
X171957951Y-81653416D01*
X172040084Y-81530495D01*
X172096658Y-81393913D01*
X172104618Y-81353895D01*
X228479474Y-81353895D01*
X228508315Y-81498882D01*
X228508318Y-81498892D01*
X228564887Y-81635463D01*
X228564894Y-81635476D01*
X228647023Y-81758390D01*
X228647026Y-81758394D01*
X228751555Y-81862923D01*
X228751559Y-81862926D01*
X228874473Y-81945055D01*
X228874486Y-81945062D01*
X229011057Y-82001631D01*
X229011062Y-82001633D01*
X229011066Y-82001633D01*
X229011067Y-82001634D01*
X229156054Y-82030475D01*
X229156057Y-82030475D01*
X229303895Y-82030475D01*
X229401437Y-82011071D01*
X229448888Y-82001633D01*
X229585470Y-81945059D01*
X229708391Y-81862926D01*
X229812926Y-81758391D01*
X229895059Y-81635470D01*
X229951633Y-81498888D01*
X229972514Y-81393917D01*
X229980475Y-81353895D01*
X229980475Y-81206054D01*
X229951634Y-81061067D01*
X229951633Y-81061066D01*
X229951633Y-81061062D01*
X229927757Y-81003419D01*
X229895062Y-80924486D01*
X229895055Y-80924473D01*
X229812926Y-80801559D01*
X229812923Y-80801555D01*
X229708394Y-80697026D01*
X229708390Y-80697023D01*
X229585476Y-80614894D01*
X229585463Y-80614887D01*
X229448892Y-80558318D01*
X229448882Y-80558315D01*
X229303895Y-80529475D01*
X229303893Y-80529475D01*
X229156057Y-80529475D01*
X229156055Y-80529475D01*
X229011067Y-80558315D01*
X229011057Y-80558318D01*
X228874486Y-80614887D01*
X228874473Y-80614894D01*
X228751559Y-80697023D01*
X228751555Y-80697026D01*
X228647026Y-80801555D01*
X228647023Y-80801559D01*
X228564894Y-80924473D01*
X228564887Y-80924486D01*
X228508318Y-81061057D01*
X228508315Y-81061067D01*
X228479475Y-81206054D01*
X228479475Y-81206057D01*
X228479475Y-81353893D01*
X228479475Y-81353895D01*
X228479474Y-81353895D01*
X172104618Y-81353895D01*
X172106096Y-81346462D01*
X172125500Y-81248920D01*
X172125500Y-81101079D01*
X172096659Y-80956092D01*
X172096658Y-80956091D01*
X172096658Y-80956087D01*
X172086301Y-80931082D01*
X172040087Y-80819511D01*
X172040080Y-80819498D01*
X171957951Y-80696584D01*
X171957948Y-80696580D01*
X171860288Y-80598920D01*
X198049499Y-80598920D01*
X198078340Y-80743907D01*
X198078343Y-80743917D01*
X198134912Y-80880488D01*
X198134919Y-80880501D01*
X198217048Y-81003415D01*
X198217051Y-81003419D01*
X198321580Y-81107948D01*
X198321584Y-81107951D01*
X198444498Y-81190080D01*
X198444511Y-81190087D01*
X198526192Y-81223920D01*
X198581087Y-81246658D01*
X198581091Y-81246658D01*
X198581092Y-81246659D01*
X198726079Y-81275500D01*
X198726082Y-81275500D01*
X198873920Y-81275500D01*
X199007551Y-81248918D01*
X199018913Y-81246658D01*
X199155495Y-81190084D01*
X199278416Y-81107951D01*
X199382951Y-81003416D01*
X199465084Y-80880495D01*
X199521658Y-80743913D01*
X199531096Y-80696462D01*
X199550500Y-80598920D01*
X199550500Y-80451079D01*
X199521659Y-80306092D01*
X199521658Y-80306091D01*
X199521658Y-80306087D01*
X199498317Y-80249737D01*
X199465087Y-80169511D01*
X199465080Y-80169498D01*
X199382951Y-80046584D01*
X199382948Y-80046580D01*
X199278419Y-79942051D01*
X199278415Y-79942048D01*
X199155501Y-79859919D01*
X199155488Y-79859912D01*
X199018917Y-79803343D01*
X199018907Y-79803340D01*
X198873920Y-79774500D01*
X198873918Y-79774500D01*
X198726082Y-79774500D01*
X198726080Y-79774500D01*
X198581092Y-79803340D01*
X198581082Y-79803343D01*
X198444511Y-79859912D01*
X198444498Y-79859919D01*
X198321584Y-79942048D01*
X198321580Y-79942051D01*
X198217051Y-80046580D01*
X198217048Y-80046584D01*
X198134919Y-80169498D01*
X198134912Y-80169511D01*
X198078343Y-80306082D01*
X198078340Y-80306092D01*
X198049500Y-80451079D01*
X198049500Y-80451082D01*
X198049500Y-80598918D01*
X198049500Y-80598920D01*
X198049499Y-80598920D01*
X171860288Y-80598920D01*
X171853416Y-80592048D01*
X171787630Y-80548092D01*
X171730501Y-80509919D01*
X171730488Y-80509912D01*
X171593917Y-80453343D01*
X171593907Y-80453340D01*
X171448920Y-80424500D01*
X171448918Y-80424500D01*
X171301082Y-80424500D01*
X171301080Y-80424500D01*
X171156092Y-80453340D01*
X171156086Y-80453342D01*
X171090128Y-80480662D01*
X171020658Y-80488129D01*
X170995225Y-80480661D01*
X170868917Y-80428343D01*
X170868907Y-80428340D01*
X170723920Y-80399500D01*
X170723918Y-80399500D01*
X170576082Y-80399500D01*
X170576080Y-80399500D01*
X170431093Y-80428340D01*
X170431085Y-80428342D01*
X170347452Y-80462984D01*
X170277982Y-80470453D01*
X170252548Y-80462984D01*
X170168914Y-80428342D01*
X170168906Y-80428340D01*
X170023920Y-80399500D01*
X170023918Y-80399500D01*
X169876082Y-80399500D01*
X169876080Y-80399500D01*
X169731092Y-80428340D01*
X169731082Y-80428343D01*
X169638975Y-80466495D01*
X169569506Y-80473964D01*
X169533067Y-80461291D01*
X169530488Y-80459912D01*
X169393917Y-80403343D01*
X169393907Y-80403340D01*
X169248920Y-80374500D01*
X169248918Y-80374500D01*
X169101082Y-80374500D01*
X169101080Y-80374500D01*
X168956092Y-80403340D01*
X168956087Y-80403342D01*
X168854772Y-80445307D01*
X168785303Y-80452775D01*
X168759869Y-80445306D01*
X168718917Y-80428343D01*
X168718907Y-80428340D01*
X168573920Y-80399500D01*
X168573918Y-80399500D01*
X168426082Y-80399500D01*
X168426080Y-80399500D01*
X168281093Y-80428340D01*
X168281085Y-80428342D01*
X168197452Y-80462984D01*
X168127982Y-80470453D01*
X168102548Y-80462984D01*
X168018914Y-80428342D01*
X168018906Y-80428340D01*
X167873920Y-80399500D01*
X167873918Y-80399500D01*
X167726082Y-80399500D01*
X167726080Y-80399500D01*
X167581092Y-80428340D01*
X167581091Y-80428341D01*
X167581090Y-80428341D01*
X167581087Y-80428342D01*
X167520736Y-80453340D01*
X167484952Y-80468162D01*
X167415482Y-80475630D01*
X167390048Y-80468162D01*
X167366953Y-80458596D01*
X167293913Y-80428342D01*
X167293908Y-80428341D01*
X167293907Y-80428340D01*
X167148920Y-80399500D01*
X167148918Y-80399500D01*
X167001082Y-80399500D01*
X167001080Y-80399500D01*
X166856092Y-80428340D01*
X166856082Y-80428343D01*
X166719511Y-80484912D01*
X166719498Y-80484919D01*
X166596584Y-80567048D01*
X166596580Y-80567051D01*
X166492051Y-80671580D01*
X166492048Y-80671584D01*
X166409919Y-80794498D01*
X166409912Y-80794511D01*
X166353343Y-80931082D01*
X166353340Y-80931092D01*
X166324500Y-81076079D01*
X166324500Y-81076082D01*
X166324500Y-81223918D01*
X166324500Y-81223920D01*
X166324499Y-81223920D01*
X155950500Y-81223920D01*
X155950500Y-78936153D01*
X192714500Y-78936153D01*
X192714500Y-79093846D01*
X192745261Y-79248489D01*
X192745264Y-79248501D01*
X192805602Y-79394172D01*
X192805609Y-79394185D01*
X192893210Y-79525288D01*
X192893213Y-79525292D01*
X193004707Y-79636786D01*
X193004711Y-79636789D01*
X193135814Y-79724390D01*
X193135827Y-79724397D01*
X193281498Y-79784735D01*
X193281503Y-79784737D01*
X193436153Y-79815499D01*
X193436156Y-79815500D01*
X193436158Y-79815500D01*
X193593844Y-79815500D01*
X193593845Y-79815499D01*
X193748497Y-79784737D01*
X193894179Y-79724394D01*
X194025289Y-79636789D01*
X194136789Y-79525289D01*
X194224394Y-79394179D01*
X194284737Y-79248497D01*
X194315500Y-79093842D01*
X194315500Y-79043920D01*
X216119499Y-79043920D01*
X216148340Y-79188907D01*
X216148343Y-79188917D01*
X216204912Y-79325488D01*
X216204919Y-79325501D01*
X216287048Y-79448415D01*
X216287051Y-79448419D01*
X216391580Y-79552948D01*
X216391584Y-79552951D01*
X216514498Y-79635080D01*
X216514511Y-79635087D01*
X216651082Y-79691656D01*
X216651087Y-79691658D01*
X216651091Y-79691658D01*
X216651092Y-79691659D01*
X216796079Y-79720500D01*
X216796082Y-79720500D01*
X216943920Y-79720500D01*
X217077913Y-79693846D01*
X217088913Y-79691658D01*
X217194547Y-79647902D01*
X217225488Y-79635087D01*
X217225488Y-79635086D01*
X217225495Y-79635084D01*
X217348416Y-79552951D01*
X217452951Y-79448416D01*
X217484531Y-79401153D01*
X223409500Y-79401153D01*
X223409500Y-79558846D01*
X223440261Y-79713489D01*
X223440264Y-79713501D01*
X223500602Y-79859172D01*
X223500609Y-79859185D01*
X223588210Y-79990288D01*
X223588213Y-79990292D01*
X223699707Y-80101786D01*
X223699711Y-80101789D01*
X223830814Y-80189390D01*
X223830827Y-80189397D01*
X223976498Y-80249735D01*
X223976503Y-80249737D01*
X224131153Y-80280499D01*
X224131156Y-80280500D01*
X224131158Y-80280500D01*
X224288844Y-80280500D01*
X224288845Y-80280499D01*
X224443497Y-80249737D01*
X224589179Y-80189394D01*
X224720289Y-80101789D01*
X224750925Y-80071153D01*
X230539500Y-80071153D01*
X230539500Y-80228846D01*
X230570261Y-80383489D01*
X230570264Y-80383501D01*
X230630602Y-80529172D01*
X230630609Y-80529185D01*
X230718210Y-80660288D01*
X230718213Y-80660292D01*
X230829707Y-80771786D01*
X230829711Y-80771789D01*
X230960814Y-80859390D01*
X230960827Y-80859397D01*
X231106498Y-80919735D01*
X231106503Y-80919737D01*
X231261153Y-80950499D01*
X231261156Y-80950500D01*
X231261158Y-80950500D01*
X231418844Y-80950500D01*
X231418845Y-80950499D01*
X231573497Y-80919737D01*
X231719179Y-80859394D01*
X231850289Y-80771789D01*
X231961789Y-80660289D01*
X232049394Y-80529179D01*
X232109737Y-80383497D01*
X232140500Y-80228842D01*
X232140500Y-80071158D01*
X232140500Y-80071155D01*
X232140499Y-80071153D01*
X232125186Y-79994172D01*
X232109737Y-79916503D01*
X232109735Y-79916498D01*
X232049397Y-79770827D01*
X232049390Y-79770814D01*
X231961789Y-79639711D01*
X231961786Y-79639707D01*
X231850292Y-79528213D01*
X231850288Y-79528210D01*
X231719185Y-79440609D01*
X231719172Y-79440602D01*
X231573501Y-79380264D01*
X231573489Y-79380261D01*
X231418845Y-79349500D01*
X231418842Y-79349500D01*
X231261158Y-79349500D01*
X231261155Y-79349500D01*
X231106510Y-79380261D01*
X231106498Y-79380264D01*
X230960827Y-79440602D01*
X230960814Y-79440609D01*
X230829711Y-79528210D01*
X230829707Y-79528213D01*
X230718213Y-79639707D01*
X230718210Y-79639711D01*
X230630609Y-79770814D01*
X230630602Y-79770827D01*
X230570264Y-79916498D01*
X230570261Y-79916510D01*
X230539500Y-80071153D01*
X224750925Y-80071153D01*
X224831789Y-79990289D01*
X224919394Y-79859179D01*
X224979737Y-79713497D01*
X225010500Y-79558842D01*
X225010500Y-79401158D01*
X225010500Y-79401155D01*
X225010499Y-79401153D01*
X225006343Y-79380261D01*
X224979737Y-79246503D01*
X224975315Y-79235827D01*
X224919397Y-79100827D01*
X224919390Y-79100814D01*
X224831789Y-78969711D01*
X224831786Y-78969707D01*
X224720292Y-78858213D01*
X224720288Y-78858210D01*
X224589185Y-78770609D01*
X224589172Y-78770602D01*
X224443501Y-78710264D01*
X224443489Y-78710261D01*
X224288845Y-78679500D01*
X224288842Y-78679500D01*
X224131158Y-78679500D01*
X224131155Y-78679500D01*
X223976510Y-78710261D01*
X223976498Y-78710264D01*
X223830827Y-78770602D01*
X223830814Y-78770609D01*
X223699711Y-78858210D01*
X223699707Y-78858213D01*
X223588213Y-78969707D01*
X223588210Y-78969711D01*
X223500609Y-79100814D01*
X223500602Y-79100827D01*
X223440264Y-79246498D01*
X223440261Y-79246510D01*
X223409500Y-79401153D01*
X217484531Y-79401153D01*
X217498491Y-79380261D01*
X217534630Y-79326175D01*
X217534630Y-79326174D01*
X217534632Y-79326171D01*
X217535084Y-79325495D01*
X217591658Y-79188913D01*
X217609181Y-79100821D01*
X217620500Y-79043920D01*
X217620500Y-78896079D01*
X217591659Y-78751092D01*
X217591658Y-78751091D01*
X217591658Y-78751087D01*
X217587570Y-78741218D01*
X217535087Y-78614511D01*
X217535080Y-78614498D01*
X217452951Y-78491584D01*
X217452948Y-78491580D01*
X217348419Y-78387051D01*
X217348415Y-78387048D01*
X217225501Y-78304919D01*
X217225488Y-78304912D01*
X217088917Y-78248343D01*
X217088907Y-78248340D01*
X216943920Y-78219500D01*
X216943918Y-78219500D01*
X216796082Y-78219500D01*
X216796080Y-78219500D01*
X216651092Y-78248340D01*
X216651082Y-78248343D01*
X216514511Y-78304912D01*
X216514498Y-78304919D01*
X216391584Y-78387048D01*
X216391580Y-78387051D01*
X216287051Y-78491580D01*
X216287048Y-78491584D01*
X216204919Y-78614498D01*
X216204912Y-78614511D01*
X216148343Y-78751082D01*
X216148340Y-78751092D01*
X216119500Y-78896079D01*
X216119500Y-78896082D01*
X216119500Y-79043918D01*
X216119500Y-79043920D01*
X216119499Y-79043920D01*
X194315500Y-79043920D01*
X194315500Y-78936158D01*
X194315500Y-78936155D01*
X194311129Y-78914182D01*
X194311129Y-78914181D01*
X194296006Y-78838156D01*
X194284737Y-78781503D01*
X194280222Y-78770602D01*
X194224397Y-78635827D01*
X194224390Y-78635814D01*
X194136789Y-78504711D01*
X194136786Y-78504707D01*
X194025292Y-78393213D01*
X194025288Y-78393210D01*
X193894185Y-78305609D01*
X193894172Y-78305602D01*
X193748501Y-78245264D01*
X193748489Y-78245261D01*
X193593845Y-78214500D01*
X193593842Y-78214500D01*
X193436158Y-78214500D01*
X193436155Y-78214500D01*
X193281510Y-78245261D01*
X193281498Y-78245264D01*
X193135827Y-78305602D01*
X193135814Y-78305609D01*
X193004711Y-78393210D01*
X193004707Y-78393213D01*
X192893213Y-78504707D01*
X192893210Y-78504711D01*
X192805609Y-78635814D01*
X192805602Y-78635827D01*
X192745264Y-78781498D01*
X192745261Y-78781510D01*
X192714500Y-78936153D01*
X155950500Y-78936153D01*
X155950500Y-78003920D01*
X214309499Y-78003920D01*
X214338340Y-78148907D01*
X214338343Y-78148917D01*
X214394912Y-78285488D01*
X214394919Y-78285501D01*
X214477048Y-78408415D01*
X214477051Y-78408419D01*
X214581580Y-78512948D01*
X214581584Y-78512951D01*
X214704498Y-78595080D01*
X214704511Y-78595087D01*
X214834933Y-78649109D01*
X214841087Y-78651658D01*
X214841091Y-78651658D01*
X214841092Y-78651659D01*
X214986079Y-78680500D01*
X214986082Y-78680500D01*
X215133920Y-78680500D01*
X215231462Y-78661096D01*
X215278913Y-78651658D01*
X215415495Y-78595084D01*
X215538416Y-78512951D01*
X215642951Y-78408416D01*
X215725084Y-78285495D01*
X215781658Y-78148913D01*
X215807071Y-78021158D01*
X215807072Y-78021153D01*
X241349500Y-78021153D01*
X241349500Y-78178846D01*
X241380261Y-78333489D01*
X241380264Y-78333501D01*
X241440602Y-78479172D01*
X241440609Y-78479185D01*
X241528210Y-78610288D01*
X241528213Y-78610292D01*
X241639707Y-78721786D01*
X241639711Y-78721789D01*
X241770814Y-78809390D01*
X241770818Y-78809392D01*
X241770821Y-78809394D01*
X241901806Y-78863649D01*
X241956205Y-78907487D01*
X241978271Y-78973781D01*
X241960992Y-79041480D01*
X241942032Y-79065888D01*
X241903214Y-79104706D01*
X241903210Y-79104711D01*
X241815609Y-79235814D01*
X241815602Y-79235827D01*
X241755264Y-79381498D01*
X241755261Y-79381510D01*
X241724500Y-79536153D01*
X241724500Y-79693846D01*
X241755261Y-79848489D01*
X241755264Y-79848501D01*
X241815602Y-79994172D01*
X241815609Y-79994185D01*
X241903210Y-80125288D01*
X241903213Y-80125292D01*
X242014707Y-80236786D01*
X242014711Y-80236789D01*
X242145814Y-80324390D01*
X242145827Y-80324397D01*
X242288490Y-80383489D01*
X242291503Y-80384737D01*
X242446153Y-80415499D01*
X242446156Y-80415500D01*
X242446158Y-80415500D01*
X242603844Y-80415500D01*
X242603845Y-80415499D01*
X242758497Y-80384737D01*
X242904179Y-80324394D01*
X243035289Y-80236789D01*
X243146789Y-80125289D01*
X243234394Y-79994179D01*
X243294737Y-79848497D01*
X243325500Y-79693842D01*
X243325500Y-79536158D01*
X243325500Y-79536155D01*
X243325499Y-79536153D01*
X243323338Y-79525288D01*
X243294737Y-79381503D01*
X243271818Y-79326171D01*
X243234397Y-79235827D01*
X243234390Y-79235814D01*
X243146789Y-79104711D01*
X243146786Y-79104707D01*
X243035292Y-78993213D01*
X243035288Y-78993210D01*
X242904185Y-78905609D01*
X242904172Y-78905602D01*
X242773197Y-78851352D01*
X242718793Y-78807512D01*
X242696728Y-78741218D01*
X242714007Y-78673518D01*
X242732969Y-78649109D01*
X242771786Y-78610292D01*
X242771789Y-78610289D01*
X242859394Y-78479179D01*
X242919737Y-78333497D01*
X242950500Y-78178842D01*
X242950500Y-78021158D01*
X242950500Y-78021155D01*
X242950499Y-78021153D01*
X242919738Y-77866510D01*
X242919737Y-77866503D01*
X242915419Y-77856079D01*
X242859397Y-77720827D01*
X242859390Y-77720814D01*
X242771789Y-77589711D01*
X242771786Y-77589707D01*
X242660292Y-77478213D01*
X242660288Y-77478210D01*
X242529185Y-77390609D01*
X242529172Y-77390602D01*
X242383501Y-77330264D01*
X242383489Y-77330261D01*
X242228845Y-77299500D01*
X242228842Y-77299500D01*
X242071158Y-77299500D01*
X242071155Y-77299500D01*
X241916510Y-77330261D01*
X241916498Y-77330264D01*
X241770827Y-77390602D01*
X241770814Y-77390609D01*
X241639711Y-77478210D01*
X241639707Y-77478213D01*
X241528213Y-77589707D01*
X241528210Y-77589711D01*
X241440609Y-77720814D01*
X241440602Y-77720827D01*
X241380264Y-77866498D01*
X241380261Y-77866510D01*
X241349500Y-78021153D01*
X215807072Y-78021153D01*
X215810500Y-78003920D01*
X215810500Y-77856079D01*
X215781659Y-77711092D01*
X215781658Y-77711091D01*
X215781658Y-77711087D01*
X215731381Y-77589707D01*
X215725087Y-77574511D01*
X215725080Y-77574498D01*
X215642951Y-77451584D01*
X215642948Y-77451580D01*
X215538419Y-77347051D01*
X215538415Y-77347048D01*
X215476720Y-77305824D01*
X215431915Y-77252211D01*
X215423208Y-77182886D01*
X215453363Y-77119859D01*
X215512806Y-77083140D01*
X215521394Y-77081110D01*
X215568913Y-77071658D01*
X215698549Y-77017961D01*
X235964880Y-77017961D01*
X235964880Y-77017962D01*
X235968429Y-77020334D01*
X236095813Y-77073097D01*
X236095823Y-77073100D01*
X236231053Y-77100000D01*
X236368946Y-77100000D01*
X236504176Y-77073100D01*
X236504186Y-77073097D01*
X236631570Y-77020334D01*
X236631572Y-77020332D01*
X236635119Y-77017961D01*
X237064880Y-77017961D01*
X237064880Y-77017962D01*
X237068429Y-77020334D01*
X237195813Y-77073097D01*
X237195823Y-77073100D01*
X237331053Y-77100000D01*
X237468946Y-77100000D01*
X237604176Y-77073100D01*
X237604186Y-77073097D01*
X237731570Y-77020334D01*
X237731572Y-77020332D01*
X237735119Y-77017961D01*
X237400001Y-76682842D01*
X237400000Y-76682842D01*
X237064880Y-77017961D01*
X236635119Y-77017961D01*
X236300001Y-76682842D01*
X236300000Y-76682842D01*
X235964880Y-77017961D01*
X215698549Y-77017961D01*
X215705495Y-77015084D01*
X215828416Y-76932951D01*
X215828419Y-76932948D01*
X215877301Y-76884067D01*
X215932948Y-76828419D01*
X215932951Y-76828416D01*
X216015084Y-76705495D01*
X216071658Y-76568913D01*
X216090621Y-76473581D01*
X216091739Y-76467961D01*
X235414880Y-76467961D01*
X235414880Y-76467962D01*
X235418425Y-76470331D01*
X235551446Y-76525429D01*
X235550863Y-76526836D01*
X235603032Y-76561015D01*
X235623725Y-76598903D01*
X235624570Y-76598554D01*
X235679668Y-76731573D01*
X235679668Y-76731574D01*
X235682037Y-76735119D01*
X236017157Y-76400000D01*
X236017157Y-76399999D01*
X235987321Y-76370163D01*
X236150000Y-76370163D01*
X236150000Y-76429837D01*
X236172836Y-76484968D01*
X236215032Y-76527164D01*
X236270163Y-76550000D01*
X236329837Y-76550000D01*
X236384968Y-76527164D01*
X236427164Y-76484968D01*
X236450000Y-76429837D01*
X236450000Y-76400000D01*
X236582842Y-76400000D01*
X236850000Y-76667157D01*
X236850001Y-76667157D01*
X237117157Y-76400001D01*
X237117157Y-76399999D01*
X237087321Y-76370163D01*
X237250000Y-76370163D01*
X237250000Y-76429837D01*
X237272836Y-76484968D01*
X237315032Y-76527164D01*
X237370163Y-76550000D01*
X237429837Y-76550000D01*
X237484968Y-76527164D01*
X237527164Y-76484968D01*
X237550000Y-76429837D01*
X237550000Y-76400000D01*
X237682842Y-76400000D01*
X238017961Y-76735119D01*
X238020332Y-76731572D01*
X238020334Y-76731570D01*
X238075430Y-76598554D01*
X238076832Y-76599135D01*
X238111029Y-76546956D01*
X238148903Y-76526274D01*
X238148554Y-76525430D01*
X238281570Y-76470334D01*
X238281572Y-76470332D01*
X238285119Y-76467961D01*
X237950001Y-76132842D01*
X237950000Y-76132842D01*
X237682842Y-76400000D01*
X237550000Y-76400000D01*
X237550000Y-76370163D01*
X237527164Y-76315032D01*
X237484968Y-76272836D01*
X237429837Y-76250000D01*
X237370163Y-76250000D01*
X237315032Y-76272836D01*
X237272836Y-76315032D01*
X237250000Y-76370163D01*
X237087321Y-76370163D01*
X236850000Y-76132842D01*
X236582842Y-76400000D01*
X236450000Y-76400000D01*
X236450000Y-76370163D01*
X236427164Y-76315032D01*
X236384968Y-76272836D01*
X236329837Y-76250000D01*
X236270163Y-76250000D01*
X236215032Y-76272836D01*
X236172836Y-76315032D01*
X236150000Y-76370163D01*
X235987321Y-76370163D01*
X235875737Y-76258579D01*
X235875737Y-76258580D01*
X235749998Y-76132842D01*
X235414880Y-76467961D01*
X216091739Y-76467961D01*
X216100500Y-76423920D01*
X216100500Y-76276079D01*
X216071659Y-76131092D01*
X216071658Y-76131091D01*
X216071658Y-76131087D01*
X216039803Y-76054182D01*
X216015087Y-75994511D01*
X216015080Y-75994498D01*
X215964597Y-75918946D01*
X235049999Y-75918946D01*
X235076899Y-76054176D01*
X235076901Y-76054182D01*
X235129668Y-76181573D01*
X235129668Y-76181574D01*
X235132037Y-76185119D01*
X235467157Y-75850000D01*
X235437320Y-75820163D01*
X235600000Y-75820163D01*
X235600000Y-75879837D01*
X235622836Y-75934968D01*
X235665032Y-75977164D01*
X235720163Y-76000000D01*
X235779837Y-76000000D01*
X235834968Y-75977164D01*
X235877164Y-75934968D01*
X235900000Y-75879837D01*
X235900000Y-75850000D01*
X236032842Y-75850000D01*
X236166406Y-75983564D01*
X236166421Y-75983578D01*
X236300000Y-76117157D01*
X236300001Y-76117157D01*
X236433578Y-75983579D01*
X236567157Y-75850000D01*
X236567157Y-75849999D01*
X236537321Y-75820163D01*
X236700000Y-75820163D01*
X236700000Y-75879837D01*
X236722836Y-75934968D01*
X236765032Y-75977164D01*
X236820163Y-76000000D01*
X236879837Y-76000000D01*
X236934968Y-75977164D01*
X236977164Y-75934968D01*
X237000000Y-75879837D01*
X237000000Y-75850000D01*
X237132842Y-75850000D01*
X237266406Y-75983564D01*
X237266421Y-75983578D01*
X237400000Y-76117157D01*
X237400001Y-76117157D01*
X237533578Y-75983579D01*
X237667157Y-75850000D01*
X237667157Y-75849999D01*
X237637321Y-75820163D01*
X237800000Y-75820163D01*
X237800000Y-75879837D01*
X237822836Y-75934968D01*
X237865032Y-75977164D01*
X237920163Y-76000000D01*
X237979837Y-76000000D01*
X238034968Y-75977164D01*
X238077164Y-75934968D01*
X238100000Y-75879837D01*
X238100000Y-75850000D01*
X238232842Y-75850000D01*
X238567961Y-76185119D01*
X238570332Y-76181572D01*
X238570334Y-76181570D01*
X238623097Y-76054186D01*
X238623100Y-76054176D01*
X238650000Y-75918946D01*
X238650000Y-75781053D01*
X238623100Y-75645823D01*
X238623097Y-75645813D01*
X238570334Y-75518429D01*
X238567961Y-75514880D01*
X238232842Y-75850000D01*
X238100000Y-75850000D01*
X238100000Y-75820163D01*
X238077164Y-75765032D01*
X238034968Y-75722836D01*
X237979837Y-75700000D01*
X237920163Y-75700000D01*
X237865032Y-75722836D01*
X237822836Y-75765032D01*
X237800000Y-75820163D01*
X237637321Y-75820163D01*
X237400000Y-75582842D01*
X237132842Y-75850000D01*
X237000000Y-75850000D01*
X237000000Y-75820163D01*
X236977164Y-75765032D01*
X236934968Y-75722836D01*
X236879837Y-75700000D01*
X236820163Y-75700000D01*
X236765032Y-75722836D01*
X236722836Y-75765032D01*
X236700000Y-75820163D01*
X236537321Y-75820163D01*
X236300000Y-75582842D01*
X236032842Y-75850000D01*
X235900000Y-75850000D01*
X235900000Y-75820163D01*
X235877164Y-75765032D01*
X235834968Y-75722836D01*
X235779837Y-75700000D01*
X235720163Y-75700000D01*
X235665032Y-75722836D01*
X235622836Y-75765032D01*
X235600000Y-75820163D01*
X235437320Y-75820163D01*
X235132037Y-75514880D01*
X235132036Y-75514880D01*
X235129667Y-75518427D01*
X235129666Y-75518428D01*
X235076902Y-75645813D01*
X235076899Y-75645823D01*
X235050000Y-75781053D01*
X235050000Y-75918946D01*
X235049999Y-75918946D01*
X215964597Y-75918946D01*
X215932951Y-75871584D01*
X215932948Y-75871580D01*
X215828419Y-75767051D01*
X215828415Y-75767048D01*
X215705501Y-75684919D01*
X215705488Y-75684912D01*
X215568917Y-75628343D01*
X215568907Y-75628340D01*
X215423920Y-75599500D01*
X215423918Y-75599500D01*
X215276082Y-75599500D01*
X215276080Y-75599500D01*
X215131092Y-75628340D01*
X215131082Y-75628343D01*
X214994511Y-75684912D01*
X214994498Y-75684919D01*
X214871584Y-75767048D01*
X214871580Y-75767051D01*
X214767051Y-75871580D01*
X214767048Y-75871584D01*
X214684919Y-75994498D01*
X214684912Y-75994511D01*
X214628343Y-76131082D01*
X214628340Y-76131092D01*
X214599500Y-76276079D01*
X214599500Y-76276082D01*
X214599500Y-76423918D01*
X214599500Y-76423920D01*
X214599499Y-76423920D01*
X214628340Y-76568907D01*
X214628343Y-76568917D01*
X214684912Y-76705488D01*
X214684919Y-76705501D01*
X214767048Y-76828415D01*
X214767051Y-76828419D01*
X214871580Y-76932948D01*
X214871584Y-76932951D01*
X214933279Y-76974175D01*
X214978084Y-77027787D01*
X214986791Y-77097112D01*
X214956636Y-77160140D01*
X214897193Y-77196859D01*
X214888581Y-77198894D01*
X214841091Y-77208340D01*
X214841082Y-77208343D01*
X214704511Y-77264912D01*
X214704498Y-77264919D01*
X214581584Y-77347048D01*
X214581580Y-77347051D01*
X214477051Y-77451580D01*
X214477048Y-77451584D01*
X214394919Y-77574498D01*
X214394912Y-77574511D01*
X214338343Y-77711082D01*
X214338340Y-77711092D01*
X214309500Y-77856079D01*
X214309500Y-77856082D01*
X214309500Y-78003918D01*
X214309500Y-78003920D01*
X214309499Y-78003920D01*
X155950500Y-78003920D01*
X155950500Y-75363074D01*
X165645500Y-75363074D01*
X165645500Y-75536926D01*
X165646033Y-75540289D01*
X165672697Y-75708639D01*
X165672697Y-75708642D01*
X165726418Y-75873978D01*
X165757494Y-75934968D01*
X165805347Y-76028884D01*
X165907535Y-76169533D01*
X166030467Y-76292465D01*
X166171116Y-76394653D01*
X166319648Y-76470334D01*
X166326021Y-76473581D01*
X166491358Y-76527302D01*
X166491359Y-76527302D01*
X166491362Y-76527303D01*
X166663074Y-76554500D01*
X166663075Y-76554500D01*
X166836925Y-76554500D01*
X166836926Y-76554500D01*
X167008638Y-76527303D01*
X167008641Y-76527302D01*
X167008642Y-76527302D01*
X167173978Y-76473581D01*
X167173978Y-76473580D01*
X167173981Y-76473580D01*
X167328884Y-76394653D01*
X167469533Y-76292465D01*
X167592465Y-76169533D01*
X167694653Y-76028884D01*
X167773580Y-75873981D01*
X167787708Y-75830499D01*
X167827302Y-75708642D01*
X167827302Y-75708641D01*
X167827303Y-75708638D01*
X167854500Y-75536926D01*
X167854500Y-75363074D01*
X167827303Y-75191362D01*
X167827302Y-75191358D01*
X167827302Y-75191357D01*
X167773581Y-75026021D01*
X167735101Y-74950500D01*
X167694653Y-74871116D01*
X167592963Y-74731153D01*
X216329500Y-74731153D01*
X216329500Y-74888846D01*
X216360261Y-75043489D01*
X216360264Y-75043501D01*
X216420602Y-75189172D01*
X216420609Y-75189185D01*
X216508210Y-75320288D01*
X216508213Y-75320292D01*
X216619707Y-75431786D01*
X216619711Y-75431789D01*
X216750814Y-75519390D01*
X216750827Y-75519397D01*
X216866132Y-75567157D01*
X216896503Y-75579737D01*
X216995858Y-75599500D01*
X217051153Y-75610499D01*
X217051156Y-75610500D01*
X217051158Y-75610500D01*
X217208844Y-75610500D01*
X217208845Y-75610499D01*
X217363497Y-75579737D01*
X217509179Y-75519394D01*
X217640289Y-75431789D01*
X217751789Y-75320289D01*
X217778191Y-75280774D01*
X217831802Y-75235969D01*
X217901127Y-75227260D01*
X217928744Y-75235102D01*
X218036503Y-75279737D01*
X218083759Y-75289137D01*
X218157291Y-75303764D01*
X218219202Y-75336149D01*
X218247661Y-75377928D01*
X218260604Y-75409175D01*
X218260609Y-75409185D01*
X218348210Y-75540288D01*
X218348213Y-75540292D01*
X218459707Y-75651786D01*
X218459711Y-75651789D01*
X218590814Y-75739390D01*
X218590827Y-75739397D01*
X218657591Y-75767051D01*
X218736503Y-75799737D01*
X218839191Y-75820163D01*
X218891153Y-75830499D01*
X218891156Y-75830500D01*
X218891158Y-75830500D01*
X219048844Y-75830500D01*
X219048845Y-75830499D01*
X219203497Y-75799737D01*
X219349179Y-75739394D01*
X219480289Y-75651789D01*
X219591789Y-75540289D01*
X219679394Y-75409179D01*
X219724617Y-75299999D01*
X235482842Y-75299999D01*
X235482842Y-75300001D01*
X235749998Y-75567157D01*
X235885369Y-75431788D01*
X236017157Y-75299999D01*
X235987321Y-75270163D01*
X236150000Y-75270163D01*
X236150000Y-75329837D01*
X236172836Y-75384968D01*
X236215032Y-75427164D01*
X236270163Y-75450000D01*
X236329837Y-75450000D01*
X236384968Y-75427164D01*
X236427164Y-75384968D01*
X236450000Y-75329837D01*
X236450000Y-75300000D01*
X236582842Y-75300000D01*
X236714631Y-75431789D01*
X236850000Y-75567157D01*
X236985369Y-75431789D01*
X237117157Y-75300001D01*
X237117157Y-75299999D01*
X237087321Y-75270163D01*
X237250000Y-75270163D01*
X237250000Y-75329837D01*
X237272836Y-75384968D01*
X237315032Y-75427164D01*
X237370163Y-75450000D01*
X237429837Y-75450000D01*
X237484968Y-75427164D01*
X237527164Y-75384968D01*
X237550000Y-75329837D01*
X237550000Y-75300000D01*
X237682842Y-75300000D01*
X237814631Y-75431789D01*
X237950000Y-75567157D01*
X237950001Y-75567157D01*
X238217157Y-75300001D01*
X238217157Y-75299999D01*
X237950001Y-75032842D01*
X237950000Y-75032842D01*
X237682842Y-75300000D01*
X237550000Y-75300000D01*
X237550000Y-75270163D01*
X237527164Y-75215032D01*
X237484968Y-75172836D01*
X237429837Y-75150000D01*
X237370163Y-75150000D01*
X237315032Y-75172836D01*
X237272836Y-75215032D01*
X237250000Y-75270163D01*
X237087321Y-75270163D01*
X236850000Y-75032842D01*
X236582842Y-75300000D01*
X236450000Y-75300000D01*
X236450000Y-75270163D01*
X236427164Y-75215032D01*
X236384968Y-75172836D01*
X236329837Y-75150000D01*
X236270163Y-75150000D01*
X236215032Y-75172836D01*
X236172836Y-75215032D01*
X236150000Y-75270163D01*
X235987321Y-75270163D01*
X235875737Y-75158579D01*
X235875737Y-75158580D01*
X235749998Y-75032842D01*
X235482842Y-75299999D01*
X219724617Y-75299999D01*
X219739737Y-75263497D01*
X219748510Y-75219394D01*
X219770500Y-75108844D01*
X219770500Y-74951155D01*
X219770499Y-74951153D01*
X219764250Y-74919737D01*
X219739737Y-74796503D01*
X219720475Y-74749999D01*
X219679397Y-74650827D01*
X219679390Y-74650814D01*
X219591789Y-74519711D01*
X219591786Y-74519707D01*
X219480292Y-74408213D01*
X219480288Y-74408210D01*
X219349185Y-74320609D01*
X219349172Y-74320602D01*
X219203501Y-74260264D01*
X219203491Y-74260261D01*
X219082707Y-74236235D01*
X219077359Y-74233437D01*
X219071322Y-74233405D01*
X219046759Y-74217431D01*
X219020796Y-74203850D01*
X219016510Y-74197759D01*
X219012749Y-74195313D01*
X218998762Y-74172533D01*
X218993828Y-74165520D01*
X218993060Y-74163816D01*
X218979394Y-74130821D01*
X218975757Y-74125379D01*
X218975756Y-74125375D01*
X218939526Y-74071153D01*
X220099500Y-74071153D01*
X220099500Y-74228846D01*
X220130261Y-74383489D01*
X220130264Y-74383501D01*
X220190602Y-74529172D01*
X220190609Y-74529185D01*
X220278210Y-74660288D01*
X220278213Y-74660292D01*
X220389707Y-74771786D01*
X220389711Y-74771789D01*
X220520814Y-74859390D01*
X220520827Y-74859397D01*
X220618853Y-74900000D01*
X220666503Y-74919737D01*
X220821153Y-74950499D01*
X220821156Y-74950500D01*
X220821158Y-74950500D01*
X220978844Y-74950500D01*
X220978845Y-74950499D01*
X221133497Y-74919737D01*
X221279179Y-74859394D01*
X221410289Y-74771789D01*
X221521789Y-74660289D01*
X221609394Y-74529179D01*
X221669737Y-74383497D01*
X221700500Y-74228842D01*
X221700500Y-74071158D01*
X221700500Y-74071155D01*
X221700499Y-74071153D01*
X221694355Y-74040264D01*
X221669737Y-73916503D01*
X221649824Y-73868428D01*
X221609397Y-73770827D01*
X221609390Y-73770814D01*
X221521789Y-73639711D01*
X221521786Y-73639707D01*
X221410292Y-73528213D01*
X221410288Y-73528210D01*
X221324897Y-73471153D01*
X222209500Y-73471153D01*
X222209500Y-73628846D01*
X222240261Y-73783489D01*
X222240264Y-73783501D01*
X222300602Y-73929172D01*
X222300609Y-73929185D01*
X222388210Y-74060288D01*
X222388213Y-74060292D01*
X222499707Y-74171786D01*
X222499711Y-74171789D01*
X222630814Y-74259390D01*
X222630827Y-74259397D01*
X222776498Y-74319735D01*
X222776503Y-74319737D01*
X222922823Y-74348842D01*
X222931153Y-74350499D01*
X222931156Y-74350500D01*
X222931158Y-74350500D01*
X223088844Y-74350500D01*
X223088845Y-74350499D01*
X223243497Y-74319737D01*
X223389179Y-74259394D01*
X223491309Y-74191153D01*
X228691963Y-74191153D01*
X228691963Y-74348846D01*
X228722724Y-74503489D01*
X228722727Y-74503501D01*
X228783065Y-74649172D01*
X228783072Y-74649185D01*
X228870673Y-74780288D01*
X228870676Y-74780292D01*
X228982170Y-74891786D01*
X228982174Y-74891789D01*
X229113277Y-74979390D01*
X229113290Y-74979397D01*
X229225852Y-75026021D01*
X229258966Y-75039737D01*
X229413616Y-75070499D01*
X229413619Y-75070500D01*
X229413621Y-75070500D01*
X229571307Y-75070500D01*
X229571308Y-75070499D01*
X229725960Y-75039737D01*
X229871642Y-74979394D01*
X230002752Y-74891789D01*
X230075595Y-74818946D01*
X235049999Y-74818946D01*
X235076899Y-74954176D01*
X235076901Y-74954182D01*
X235129668Y-75081573D01*
X235129668Y-75081574D01*
X235132037Y-75085119D01*
X235467157Y-74750000D01*
X235437320Y-74720163D01*
X235600000Y-74720163D01*
X235600000Y-74779837D01*
X235622836Y-74834968D01*
X235665032Y-74877164D01*
X235720163Y-74900000D01*
X235779837Y-74900000D01*
X235834968Y-74877164D01*
X235877164Y-74834968D01*
X235900000Y-74779837D01*
X235900000Y-74750000D01*
X236032842Y-74750000D01*
X236153958Y-74871116D01*
X236300000Y-75017157D01*
X236446041Y-74871116D01*
X236567157Y-74749999D01*
X236537321Y-74720163D01*
X236700000Y-74720163D01*
X236700000Y-74779837D01*
X236722836Y-74834968D01*
X236765032Y-74877164D01*
X236820163Y-74900000D01*
X236879837Y-74900000D01*
X236934968Y-74877164D01*
X236977164Y-74834968D01*
X237000000Y-74779837D01*
X237000000Y-74750000D01*
X237132842Y-74750000D01*
X237253958Y-74871116D01*
X237400000Y-75017157D01*
X237546041Y-74871116D01*
X237667157Y-74749999D01*
X237637321Y-74720163D01*
X237800000Y-74720163D01*
X237800000Y-74779837D01*
X237822836Y-74834968D01*
X237865032Y-74877164D01*
X237920163Y-74900000D01*
X237979837Y-74900000D01*
X238034968Y-74877164D01*
X238077164Y-74834968D01*
X238100000Y-74779837D01*
X238100000Y-74750000D01*
X238232842Y-74750000D01*
X238567961Y-75085119D01*
X238570332Y-75081572D01*
X238570334Y-75081570D01*
X238623097Y-74954186D01*
X238623100Y-74954176D01*
X238650000Y-74818946D01*
X238650000Y-74681053D01*
X238623100Y-74545823D01*
X238623097Y-74545813D01*
X238570334Y-74418429D01*
X238567961Y-74414880D01*
X238232842Y-74750000D01*
X238100000Y-74750000D01*
X238100000Y-74720163D01*
X238077164Y-74665032D01*
X238034968Y-74622836D01*
X237979837Y-74600000D01*
X237920163Y-74600000D01*
X237865032Y-74622836D01*
X237822836Y-74665032D01*
X237800000Y-74720163D01*
X237637321Y-74720163D01*
X237400000Y-74482842D01*
X237132842Y-74750000D01*
X237000000Y-74750000D01*
X237000000Y-74720163D01*
X236977164Y-74665032D01*
X236934968Y-74622836D01*
X236879837Y-74600000D01*
X236820163Y-74600000D01*
X236765032Y-74622836D01*
X236722836Y-74665032D01*
X236700000Y-74720163D01*
X236537321Y-74720163D01*
X236300000Y-74482842D01*
X236032842Y-74750000D01*
X235900000Y-74750000D01*
X235900000Y-74720163D01*
X235877164Y-74665032D01*
X235834968Y-74622836D01*
X235779837Y-74600000D01*
X235720163Y-74600000D01*
X235665032Y-74622836D01*
X235622836Y-74665032D01*
X235600000Y-74720163D01*
X235437320Y-74720163D01*
X235132037Y-74414880D01*
X235132036Y-74414880D01*
X235129667Y-74418427D01*
X235129666Y-74418428D01*
X235076902Y-74545813D01*
X235076899Y-74545823D01*
X235050000Y-74681053D01*
X235050000Y-74818946D01*
X235049999Y-74818946D01*
X230075595Y-74818946D01*
X230114252Y-74780289D01*
X230201857Y-74649179D01*
X230262200Y-74503497D01*
X230292963Y-74348842D01*
X230292963Y-74191158D01*
X230281203Y-74132036D01*
X235414880Y-74132036D01*
X235414880Y-74132037D01*
X235749998Y-74467157D01*
X235897421Y-74319736D01*
X236017157Y-74199998D01*
X235987322Y-74170163D01*
X236150000Y-74170163D01*
X236150000Y-74229837D01*
X236172836Y-74284968D01*
X236215032Y-74327164D01*
X236270163Y-74350000D01*
X236329837Y-74350000D01*
X236384968Y-74327164D01*
X236427164Y-74284968D01*
X236450000Y-74229837D01*
X236450000Y-74199998D01*
X236582842Y-74199998D01*
X236702580Y-74319737D01*
X236702579Y-74319737D01*
X236850000Y-74467157D01*
X236997420Y-74319737D01*
X237117157Y-74199998D01*
X237087322Y-74170163D01*
X237250000Y-74170163D01*
X237250000Y-74229837D01*
X237272836Y-74284968D01*
X237315032Y-74327164D01*
X237370163Y-74350000D01*
X237429837Y-74350000D01*
X237484968Y-74327164D01*
X237527164Y-74284968D01*
X237550000Y-74229837D01*
X237550000Y-74199998D01*
X237682842Y-74199998D01*
X237802580Y-74319737D01*
X237802579Y-74319737D01*
X237950000Y-74467157D01*
X237950001Y-74467157D01*
X238285119Y-74132037D01*
X238281574Y-74129668D01*
X238148554Y-74074570D01*
X238149134Y-74073168D01*
X238096949Y-74038963D01*
X238076276Y-74001094D01*
X238075429Y-74001446D01*
X238020331Y-73868425D01*
X238017962Y-73864880D01*
X238017961Y-73864880D01*
X237682842Y-74199998D01*
X237550000Y-74199998D01*
X237550000Y-74170163D01*
X237527164Y-74115032D01*
X237484968Y-74072836D01*
X237429837Y-74050000D01*
X237370163Y-74050000D01*
X237315032Y-74072836D01*
X237272836Y-74115032D01*
X237250000Y-74170163D01*
X237087322Y-74170163D01*
X236850001Y-73932842D01*
X236850000Y-73932842D01*
X236582842Y-74199998D01*
X236450000Y-74199998D01*
X236450000Y-74170163D01*
X236427164Y-74115032D01*
X236384968Y-74072836D01*
X236329837Y-74050000D01*
X236270163Y-74050000D01*
X236215032Y-74072836D01*
X236172836Y-74115032D01*
X236150000Y-74170163D01*
X235987322Y-74170163D01*
X235682037Y-73864880D01*
X235682036Y-73864880D01*
X235679667Y-73868427D01*
X235679666Y-73868428D01*
X235624570Y-74001445D01*
X235623171Y-74000865D01*
X235588951Y-74053059D01*
X235551096Y-74073728D01*
X235551445Y-74074570D01*
X235418428Y-74129666D01*
X235418427Y-74129667D01*
X235414880Y-74132036D01*
X230281203Y-74132036D01*
X230262200Y-74036503D01*
X230246601Y-73998844D01*
X230201860Y-73890828D01*
X230201859Y-73890827D01*
X230201857Y-73890821D01*
X230201851Y-73890812D01*
X230198071Y-73885154D01*
X230177194Y-73818476D01*
X230195680Y-73751097D01*
X230198230Y-73747138D01*
X230204955Y-73737122D01*
X230221789Y-73720289D01*
X230309394Y-73589179D01*
X230312353Y-73582036D01*
X235964880Y-73582036D01*
X235964880Y-73582037D01*
X236300000Y-73917157D01*
X236300001Y-73917157D01*
X236635119Y-73582037D01*
X236635118Y-73582036D01*
X237064880Y-73582036D01*
X237064880Y-73582037D01*
X237400000Y-73917157D01*
X237400001Y-73917157D01*
X237735119Y-73582037D01*
X237731574Y-73579668D01*
X237604182Y-73526901D01*
X237604176Y-73526899D01*
X237468946Y-73500000D01*
X237331054Y-73500000D01*
X237195823Y-73526899D01*
X237195813Y-73526902D01*
X237068428Y-73579666D01*
X237068427Y-73579667D01*
X237064880Y-73582036D01*
X236635118Y-73582036D01*
X236631574Y-73579668D01*
X236504182Y-73526901D01*
X236504176Y-73526899D01*
X236368946Y-73500000D01*
X236231054Y-73500000D01*
X236095823Y-73526899D01*
X236095813Y-73526902D01*
X235968428Y-73579666D01*
X235968427Y-73579667D01*
X235964880Y-73582036D01*
X230312353Y-73582036D01*
X230325623Y-73550000D01*
X230346333Y-73500000D01*
X230369737Y-73443497D01*
X230400500Y-73288842D01*
X230400500Y-73131158D01*
X230400500Y-73131155D01*
X230400499Y-73131153D01*
X230376789Y-73011958D01*
X230369737Y-72976503D01*
X230337706Y-72899172D01*
X230309397Y-72830827D01*
X230309390Y-72830814D01*
X230221789Y-72699711D01*
X230221786Y-72699707D01*
X230110292Y-72588213D01*
X230110288Y-72588210D01*
X229979185Y-72500609D01*
X229979172Y-72500602D01*
X229833501Y-72440264D01*
X229833489Y-72440261D01*
X229678845Y-72409500D01*
X229678842Y-72409500D01*
X229521158Y-72409500D01*
X229521155Y-72409500D01*
X229366510Y-72440261D01*
X229366498Y-72440264D01*
X229220827Y-72500602D01*
X229220814Y-72500609D01*
X229089711Y-72588210D01*
X229089707Y-72588213D01*
X228978213Y-72699707D01*
X228978210Y-72699711D01*
X228890609Y-72830814D01*
X228890602Y-72830827D01*
X228830264Y-72976498D01*
X228830261Y-72976510D01*
X228799500Y-73131153D01*
X228799500Y-73288846D01*
X228830261Y-73443489D01*
X228830264Y-73443501D01*
X228890602Y-73589171D01*
X228890604Y-73589175D01*
X228890606Y-73589179D01*
X228890609Y-73589183D01*
X228894393Y-73594847D01*
X228915268Y-73661525D01*
X228896781Y-73728905D01*
X228878973Y-73751412D01*
X228870671Y-73759714D01*
X228783072Y-73890814D01*
X228783065Y-73890827D01*
X228722727Y-74036498D01*
X228722724Y-74036510D01*
X228691963Y-74191153D01*
X223491309Y-74191153D01*
X223520289Y-74171789D01*
X223556478Y-74135600D01*
X223594694Y-74097385D01*
X223631786Y-74060292D01*
X223631789Y-74060289D01*
X223719394Y-73929179D01*
X223779737Y-73783497D01*
X223810500Y-73628842D01*
X223810500Y-73471158D01*
X223810500Y-73471155D01*
X223810499Y-73471153D01*
X223804422Y-73440602D01*
X223779737Y-73316503D01*
X223772160Y-73298210D01*
X223719396Y-73170825D01*
X223719395Y-73170824D01*
X223719394Y-73170821D01*
X223694671Y-73133821D01*
X223673794Y-73067146D01*
X223692278Y-72999766D01*
X223694635Y-72996097D01*
X223759394Y-72899179D01*
X223819737Y-72753497D01*
X223850500Y-72598842D01*
X223850500Y-72441158D01*
X223850500Y-72441155D01*
X223850499Y-72441153D01*
X223844139Y-72409179D01*
X223819737Y-72286503D01*
X223795288Y-72227478D01*
X223759397Y-72140827D01*
X223759390Y-72140814D01*
X223671789Y-72009711D01*
X223671786Y-72009707D01*
X223560292Y-71898213D01*
X223560288Y-71898210D01*
X223429185Y-71810609D01*
X223429172Y-71810602D01*
X223283501Y-71750264D01*
X223283489Y-71750261D01*
X223128845Y-71719500D01*
X223128842Y-71719500D01*
X222971158Y-71719500D01*
X222971155Y-71719500D01*
X222816510Y-71750261D01*
X222816498Y-71750264D01*
X222670827Y-71810602D01*
X222670814Y-71810609D01*
X222539711Y-71898210D01*
X222539707Y-71898213D01*
X222428213Y-72009707D01*
X222428210Y-72009711D01*
X222340609Y-72140814D01*
X222340602Y-72140827D01*
X222280264Y-72286498D01*
X222280261Y-72286510D01*
X222249500Y-72441153D01*
X222249500Y-72598846D01*
X222280261Y-72753489D01*
X222280264Y-72753501D01*
X222340602Y-72899172D01*
X222340609Y-72899184D01*
X222365327Y-72936177D01*
X222386205Y-73002854D01*
X222367721Y-73070234D01*
X222365327Y-73073959D01*
X222300609Y-73170814D01*
X222300602Y-73170827D01*
X222240264Y-73316498D01*
X222240261Y-73316510D01*
X222209500Y-73471153D01*
X221324897Y-73471153D01*
X221279185Y-73440609D01*
X221279172Y-73440602D01*
X221133501Y-73380264D01*
X221133489Y-73380261D01*
X220978845Y-73349500D01*
X220978842Y-73349500D01*
X220821158Y-73349500D01*
X220821155Y-73349500D01*
X220666510Y-73380261D01*
X220666498Y-73380264D01*
X220520827Y-73440602D01*
X220520814Y-73440609D01*
X220389711Y-73528210D01*
X220389707Y-73528213D01*
X220278213Y-73639707D01*
X220278210Y-73639711D01*
X220190609Y-73770814D01*
X220190602Y-73770827D01*
X220130264Y-73916498D01*
X220130261Y-73916510D01*
X220099500Y-74071153D01*
X218939526Y-74071153D01*
X218891789Y-73999711D01*
X218891786Y-73999707D01*
X218780292Y-73888213D01*
X218780288Y-73888210D01*
X218649185Y-73800609D01*
X218649172Y-73800602D01*
X218503501Y-73740264D01*
X218503489Y-73740261D01*
X218348845Y-73709500D01*
X218348842Y-73709500D01*
X218191158Y-73709500D01*
X218191155Y-73709500D01*
X218036510Y-73740261D01*
X218036498Y-73740264D01*
X217890827Y-73800602D01*
X217890814Y-73800609D01*
X217759711Y-73888210D01*
X217759707Y-73888213D01*
X217648213Y-73999707D01*
X217621807Y-74039227D01*
X217568194Y-74084031D01*
X217498869Y-74092738D01*
X217471253Y-74084896D01*
X217363501Y-74040264D01*
X217363489Y-74040261D01*
X217208845Y-74009500D01*
X217208842Y-74009500D01*
X217051158Y-74009500D01*
X217051155Y-74009500D01*
X216896510Y-74040261D01*
X216896498Y-74040264D01*
X216750827Y-74100602D01*
X216750814Y-74100609D01*
X216619711Y-74188210D01*
X216619707Y-74188213D01*
X216508213Y-74299707D01*
X216508210Y-74299711D01*
X216420609Y-74430814D01*
X216420602Y-74430827D01*
X216360264Y-74576498D01*
X216360261Y-74576510D01*
X216329500Y-74731153D01*
X167592963Y-74731153D01*
X167592465Y-74730467D01*
X167469533Y-74607535D01*
X167459162Y-74600000D01*
X167390208Y-74549901D01*
X167369523Y-74523076D01*
X166750001Y-73903553D01*
X166750000Y-73903553D01*
X166146376Y-74507174D01*
X166146152Y-74508242D01*
X166109789Y-74549903D01*
X166030467Y-74607534D01*
X165907537Y-74730464D01*
X165907537Y-74730465D01*
X165907535Y-74730467D01*
X165871338Y-74780288D01*
X165805347Y-74871115D01*
X165726418Y-75026021D01*
X165672697Y-75191357D01*
X165672697Y-75191360D01*
X165658699Y-75279738D01*
X165645500Y-75363074D01*
X155950500Y-75363074D01*
X155950500Y-73463107D01*
X165646000Y-73463107D01*
X165646000Y-73636892D01*
X165673183Y-73808521D01*
X165726884Y-73973793D01*
X165805776Y-74128624D01*
X165805777Y-74128626D01*
X165810844Y-74135600D01*
X165810846Y-74135601D01*
X166396446Y-73550001D01*
X166396446Y-73549999D01*
X166350369Y-73503922D01*
X166400000Y-73503922D01*
X166400000Y-73596078D01*
X166423852Y-73685095D01*
X166469930Y-73764905D01*
X166535095Y-73830070D01*
X166614905Y-73876148D01*
X166703922Y-73900000D01*
X166796078Y-73900000D01*
X166885095Y-73876148D01*
X166964905Y-73830070D01*
X167030070Y-73764905D01*
X167076148Y-73685095D01*
X167100000Y-73596078D01*
X167100000Y-73549999D01*
X167103553Y-73549999D01*
X167103553Y-73550000D01*
X167689153Y-74135600D01*
X167694224Y-74128624D01*
X167773115Y-73973793D01*
X167816213Y-73841153D01*
X214389500Y-73841153D01*
X214389500Y-73998846D01*
X214420261Y-74153489D01*
X214420264Y-74153501D01*
X214480602Y-74299172D01*
X214480609Y-74299185D01*
X214568210Y-74430288D01*
X214568213Y-74430292D01*
X214679707Y-74541786D01*
X214679711Y-74541789D01*
X214810814Y-74629390D01*
X214810827Y-74629397D01*
X214956498Y-74689735D01*
X214956503Y-74689737D01*
X215109464Y-74720163D01*
X215111153Y-74720499D01*
X215111156Y-74720500D01*
X215111158Y-74720500D01*
X215268844Y-74720500D01*
X215268845Y-74720499D01*
X215423497Y-74689737D01*
X215569179Y-74629394D01*
X215578994Y-74622836D01*
X215580301Y-74621963D01*
X215580301Y-74621962D01*
X215700289Y-74541789D01*
X215811789Y-74430289D01*
X215899394Y-74299179D01*
X215959737Y-74153497D01*
X215990500Y-73998842D01*
X215990500Y-73841158D01*
X215990500Y-73841155D01*
X215990499Y-73841153D01*
X215976509Y-73770821D01*
X215959737Y-73686503D01*
X215959154Y-73685095D01*
X215899397Y-73540827D01*
X215899390Y-73540814D01*
X215811789Y-73409711D01*
X215811786Y-73409707D01*
X215700292Y-73298213D01*
X215700288Y-73298210D01*
X215569185Y-73210609D01*
X215569172Y-73210602D01*
X215423501Y-73150264D01*
X215423489Y-73150261D01*
X215268845Y-73119500D01*
X215268842Y-73119500D01*
X215111158Y-73119500D01*
X215111155Y-73119500D01*
X214956510Y-73150261D01*
X214956498Y-73150264D01*
X214810827Y-73210602D01*
X214810814Y-73210609D01*
X214679711Y-73298210D01*
X214679707Y-73298213D01*
X214568213Y-73409707D01*
X214568210Y-73409711D01*
X214480609Y-73540814D01*
X214480602Y-73540827D01*
X214420264Y-73686498D01*
X214420261Y-73686510D01*
X214389500Y-73841153D01*
X167816213Y-73841153D01*
X167826816Y-73808521D01*
X167854000Y-73636892D01*
X167854000Y-73463107D01*
X167826816Y-73291478D01*
X167773115Y-73126206D01*
X167694228Y-72971382D01*
X167689153Y-72964398D01*
X167103553Y-73549999D01*
X167100000Y-73549999D01*
X167100000Y-73503922D01*
X167076148Y-73414905D01*
X167030070Y-73335095D01*
X166964905Y-73269930D01*
X166885095Y-73223852D01*
X166796078Y-73200000D01*
X166703922Y-73200000D01*
X166614905Y-73223852D01*
X166535095Y-73269930D01*
X166469930Y-73335095D01*
X166423852Y-73414905D01*
X166400000Y-73503922D01*
X166350369Y-73503922D01*
X165810845Y-72964398D01*
X165810844Y-72964398D01*
X165805775Y-72971375D01*
X165726884Y-73126206D01*
X165673183Y-73291478D01*
X165646000Y-73463107D01*
X155950500Y-73463107D01*
X155950500Y-72610844D01*
X166164398Y-72610844D01*
X166164398Y-72610845D01*
X166750000Y-73196446D01*
X166750001Y-73196446D01*
X167335601Y-72610846D01*
X167335600Y-72610844D01*
X167328626Y-72605777D01*
X167328624Y-72605776D01*
X167173793Y-72526884D01*
X167008521Y-72473183D01*
X166836892Y-72446000D01*
X166663108Y-72446000D01*
X166491478Y-72473183D01*
X166326206Y-72526884D01*
X166171375Y-72605775D01*
X166164398Y-72610844D01*
X155950500Y-72610844D01*
X155950500Y-70901577D01*
X157749500Y-70901577D01*
X157749500Y-71098422D01*
X157780290Y-71292826D01*
X157841117Y-71480029D01*
X157924409Y-71643497D01*
X157930476Y-71655405D01*
X158046172Y-71814646D01*
X158185354Y-71953828D01*
X158344595Y-72069524D01*
X158421761Y-72108842D01*
X158519970Y-72158882D01*
X158519972Y-72158882D01*
X158519975Y-72158884D01*
X158584154Y-72179737D01*
X158707173Y-72219709D01*
X158901578Y-72250500D01*
X158901583Y-72250500D01*
X159098422Y-72250500D01*
X159292826Y-72219709D01*
X159323516Y-72209737D01*
X159480025Y-72158884D01*
X159655405Y-72069524D01*
X159814646Y-71953828D01*
X159953828Y-71814646D01*
X160069524Y-71655405D01*
X160158884Y-71480025D01*
X160219709Y-71292826D01*
X160222662Y-71274179D01*
X160250500Y-71098422D01*
X160250500Y-70901577D01*
X160219709Y-70707173D01*
X160185941Y-70603247D01*
X160158884Y-70519975D01*
X160158882Y-70519972D01*
X160158882Y-70519970D01*
X160069523Y-70344594D01*
X160051789Y-70320185D01*
X159953828Y-70185354D01*
X159814646Y-70046172D01*
X159655405Y-69930476D01*
X159480029Y-69841117D01*
X159292826Y-69780290D01*
X159098422Y-69749500D01*
X159098417Y-69749500D01*
X158901583Y-69749500D01*
X158901578Y-69749500D01*
X158707173Y-69780290D01*
X158519970Y-69841117D01*
X158344594Y-69930476D01*
X158278607Y-69978419D01*
X158185354Y-70046172D01*
X158185352Y-70046174D01*
X158185351Y-70046174D01*
X158046174Y-70185351D01*
X158046174Y-70185352D01*
X158046172Y-70185354D01*
X158019795Y-70221659D01*
X157930476Y-70344594D01*
X157841117Y-70519970D01*
X157780290Y-70707173D01*
X157749500Y-70901577D01*
X155950500Y-70901577D01*
X155950500Y-69573920D01*
X202999499Y-69573920D01*
X203028340Y-69718907D01*
X203028343Y-69718917D01*
X203084912Y-69855488D01*
X203084919Y-69855501D01*
X203167048Y-69978415D01*
X203167051Y-69978419D01*
X203271580Y-70082948D01*
X203271584Y-70082951D01*
X203394498Y-70165080D01*
X203394511Y-70165087D01*
X203515206Y-70215080D01*
X203531087Y-70221658D01*
X203531091Y-70221658D01*
X203531092Y-70221659D01*
X203676079Y-70250500D01*
X203676082Y-70250500D01*
X203823920Y-70250500D01*
X203921462Y-70231096D01*
X203968913Y-70221658D01*
X204105495Y-70165084D01*
X204228416Y-70082951D01*
X204332951Y-69978416D01*
X204415084Y-69855495D01*
X204471658Y-69718913D01*
X204483212Y-69660827D01*
X204500500Y-69573920D01*
X204500500Y-69426079D01*
X204471659Y-69281092D01*
X204471658Y-69281091D01*
X204471658Y-69281087D01*
X204421622Y-69160289D01*
X204415087Y-69144511D01*
X204415080Y-69144498D01*
X204332951Y-69021584D01*
X204332948Y-69021580D01*
X204228419Y-68917051D01*
X204228415Y-68917048D01*
X204105501Y-68834919D01*
X204105488Y-68834912D01*
X203968917Y-68778343D01*
X203968907Y-68778340D01*
X203823920Y-68749500D01*
X203823918Y-68749500D01*
X203676082Y-68749500D01*
X203676080Y-68749500D01*
X203531092Y-68778340D01*
X203531082Y-68778343D01*
X203394511Y-68834912D01*
X203394498Y-68834919D01*
X203271584Y-68917048D01*
X203271580Y-68917051D01*
X203167051Y-69021580D01*
X203167048Y-69021584D01*
X203084919Y-69144498D01*
X203084912Y-69144511D01*
X203028343Y-69281082D01*
X203028340Y-69281092D01*
X202999500Y-69426079D01*
X202999500Y-69426082D01*
X202999500Y-69573918D01*
X202999500Y-69573920D01*
X202999499Y-69573920D01*
X155950500Y-69573920D01*
X155950500Y-67481153D01*
X174989500Y-67481153D01*
X174989500Y-67638846D01*
X175020261Y-67793489D01*
X175020264Y-67793501D01*
X175080602Y-67939172D01*
X175080609Y-67939185D01*
X175168210Y-68070288D01*
X175168213Y-68070292D01*
X175279707Y-68181786D01*
X175279711Y-68181789D01*
X175410814Y-68269390D01*
X175410827Y-68269397D01*
X175549574Y-68326867D01*
X175556503Y-68329737D01*
X175711153Y-68360499D01*
X175711156Y-68360500D01*
X175711158Y-68360500D01*
X175868844Y-68360500D01*
X175868845Y-68360499D01*
X176023497Y-68329737D01*
X176169179Y-68269394D01*
X176300289Y-68181789D01*
X176383158Y-68098920D01*
X194249499Y-68098920D01*
X194278340Y-68243907D01*
X194278343Y-68243917D01*
X194334912Y-68380488D01*
X194334919Y-68380501D01*
X194417048Y-68503415D01*
X194417051Y-68503419D01*
X194521580Y-68607948D01*
X194521584Y-68607951D01*
X194644498Y-68690080D01*
X194644511Y-68690087D01*
X194781082Y-68746656D01*
X194781087Y-68746658D01*
X194781091Y-68746658D01*
X194781092Y-68746659D01*
X194926079Y-68775500D01*
X194926082Y-68775500D01*
X195073920Y-68775500D01*
X195171462Y-68756096D01*
X195218913Y-68746658D01*
X195355495Y-68690084D01*
X195478416Y-68607951D01*
X195582951Y-68503416D01*
X195665084Y-68380495D01*
X195665234Y-68380133D01*
X195665362Y-68379973D01*
X195667954Y-68375125D01*
X195668873Y-68375616D01*
X195709071Y-68325726D01*
X195775364Y-68303657D01*
X195843065Y-68320932D01*
X195882900Y-68358687D01*
X195954548Y-68465915D01*
X195954551Y-68465919D01*
X196059080Y-68570448D01*
X196059084Y-68570451D01*
X196181998Y-68652580D01*
X196182011Y-68652587D01*
X196272538Y-68690084D01*
X196318587Y-68709158D01*
X196318591Y-68709158D01*
X196318592Y-68709159D01*
X196463579Y-68738000D01*
X196463582Y-68738000D01*
X196611420Y-68738000D01*
X196719925Y-68716416D01*
X196756413Y-68709158D01*
X196892995Y-68652584D01*
X197015916Y-68570451D01*
X197120451Y-68465916D01*
X197202584Y-68342995D01*
X197208077Y-68329735D01*
X197237782Y-68258019D01*
X197259158Y-68206413D01*
X197286235Y-68070292D01*
X197288000Y-68061420D01*
X197288000Y-67913579D01*
X197259159Y-67768592D01*
X197259158Y-67768591D01*
X197259158Y-67768587D01*
X197246565Y-67738184D01*
X197202587Y-67632011D01*
X197202580Y-67631998D01*
X197120451Y-67509084D01*
X197120448Y-67509080D01*
X197015919Y-67404551D01*
X197015915Y-67404548D01*
X196893001Y-67322419D01*
X196892988Y-67322412D01*
X196756417Y-67265843D01*
X196756407Y-67265840D01*
X196611420Y-67237000D01*
X196611418Y-67237000D01*
X196463582Y-67237000D01*
X196463580Y-67237000D01*
X196318592Y-67265840D01*
X196318582Y-67265843D01*
X196182011Y-67322412D01*
X196181998Y-67322419D01*
X196059084Y-67404548D01*
X196059080Y-67404551D01*
X195954551Y-67509080D01*
X195954548Y-67509084D01*
X195872419Y-67631998D01*
X195872411Y-67632013D01*
X195872256Y-67632389D01*
X195872122Y-67632554D01*
X195869546Y-67637375D01*
X195868631Y-67636885D01*
X195828407Y-67686787D01*
X195762110Y-67708843D01*
X195694413Y-67691554D01*
X195654599Y-67653812D01*
X195582951Y-67546584D01*
X195582948Y-67546580D01*
X195478419Y-67442051D01*
X195478415Y-67442048D01*
X195355501Y-67359919D01*
X195355488Y-67359912D01*
X195218917Y-67303343D01*
X195218907Y-67303340D01*
X195073920Y-67274500D01*
X195073918Y-67274500D01*
X194926082Y-67274500D01*
X194926080Y-67274500D01*
X194781092Y-67303340D01*
X194781082Y-67303343D01*
X194644511Y-67359912D01*
X194644498Y-67359919D01*
X194521584Y-67442048D01*
X194521580Y-67442051D01*
X194417051Y-67546580D01*
X194417048Y-67546584D01*
X194334919Y-67669498D01*
X194334912Y-67669511D01*
X194278343Y-67806082D01*
X194278340Y-67806092D01*
X194249500Y-67951079D01*
X194249500Y-67951082D01*
X194249500Y-68098918D01*
X194249500Y-68098920D01*
X194249499Y-68098920D01*
X176383158Y-68098920D01*
X176411789Y-68070289D01*
X176499394Y-67939179D01*
X176559737Y-67793497D01*
X176590500Y-67638842D01*
X176590500Y-67481158D01*
X176590500Y-67481155D01*
X176590499Y-67481153D01*
X176582720Y-67442048D01*
X176559737Y-67326503D01*
X176558044Y-67322416D01*
X176499397Y-67180827D01*
X176499390Y-67180814D01*
X176411789Y-67049711D01*
X176411786Y-67049707D01*
X176300292Y-66938213D01*
X176300288Y-66938210D01*
X176169185Y-66850609D01*
X176169172Y-66850602D01*
X176023501Y-66790264D01*
X176023489Y-66790261D01*
X175868845Y-66759500D01*
X175868842Y-66759500D01*
X175711158Y-66759500D01*
X175711155Y-66759500D01*
X175556510Y-66790261D01*
X175556498Y-66790264D01*
X175410827Y-66850602D01*
X175410814Y-66850609D01*
X175279711Y-66938210D01*
X175279707Y-66938213D01*
X175168213Y-67049707D01*
X175168210Y-67049711D01*
X175080609Y-67180814D01*
X175080602Y-67180827D01*
X175020264Y-67326498D01*
X175020261Y-67326510D01*
X174989500Y-67481153D01*
X155950500Y-67481153D01*
X155950500Y-64483920D01*
X160759499Y-64483920D01*
X160788340Y-64628907D01*
X160788343Y-64628917D01*
X160844912Y-64765488D01*
X160844919Y-64765501D01*
X160927048Y-64888415D01*
X160927051Y-64888419D01*
X161031580Y-64992948D01*
X161031584Y-64992951D01*
X161154498Y-65075080D01*
X161154511Y-65075087D01*
X161291082Y-65131656D01*
X161291087Y-65131658D01*
X161291091Y-65131658D01*
X161291092Y-65131659D01*
X161436079Y-65160500D01*
X161436082Y-65160500D01*
X161583920Y-65160500D01*
X161681462Y-65141096D01*
X161728913Y-65131658D01*
X161865495Y-65075084D01*
X161988416Y-64992951D01*
X162092951Y-64888416D01*
X162175084Y-64765495D01*
X162231658Y-64628913D01*
X162260500Y-64483918D01*
X162260500Y-64336082D01*
X162260500Y-64336079D01*
X162231659Y-64191092D01*
X162231658Y-64191091D01*
X162231658Y-64191087D01*
X162210497Y-64140000D01*
X162175087Y-64054511D01*
X162175080Y-64054498D01*
X162092951Y-63931584D01*
X162092948Y-63931580D01*
X161988419Y-63827051D01*
X161988415Y-63827048D01*
X161923560Y-63783713D01*
X163109500Y-63783713D01*
X163109500Y-63996286D01*
X163140353Y-64191087D01*
X163142754Y-64206243D01*
X163184941Y-64336082D01*
X163208444Y-64408414D01*
X163304951Y-64597820D01*
X163429890Y-64769786D01*
X163580213Y-64920109D01*
X163752179Y-65045048D01*
X163752181Y-65045049D01*
X163752184Y-65045051D01*
X163941588Y-65141557D01*
X164143757Y-65207246D01*
X164353713Y-65240500D01*
X164353714Y-65240500D01*
X164566286Y-65240500D01*
X164566287Y-65240500D01*
X164776243Y-65207246D01*
X164978412Y-65141557D01*
X165167816Y-65045051D01*
X165254478Y-64982088D01*
X165339786Y-64920109D01*
X165339788Y-64920106D01*
X165339792Y-64920104D01*
X165490104Y-64769792D01*
X165490106Y-64769788D01*
X165490109Y-64769786D01*
X165615048Y-64597820D01*
X165615047Y-64597820D01*
X165615051Y-64597816D01*
X165619514Y-64589054D01*
X165667488Y-64538259D01*
X165735308Y-64521463D01*
X165801444Y-64543999D01*
X165840486Y-64589056D01*
X165844951Y-64597820D01*
X165969890Y-64769786D01*
X166120213Y-64920109D01*
X166292179Y-65045048D01*
X166292181Y-65045049D01*
X166292184Y-65045051D01*
X166481588Y-65141557D01*
X166683757Y-65207246D01*
X166893713Y-65240500D01*
X166893714Y-65240500D01*
X167106286Y-65240500D01*
X167106287Y-65240500D01*
X167316243Y-65207246D01*
X167518412Y-65141557D01*
X167707816Y-65045051D01*
X167794478Y-64982088D01*
X167879786Y-64920109D01*
X167879788Y-64920106D01*
X167879792Y-64920104D01*
X168030104Y-64769792D01*
X168030106Y-64769788D01*
X168030109Y-64769786D01*
X168155048Y-64597820D01*
X168155047Y-64597820D01*
X168155051Y-64597816D01*
X168159514Y-64589054D01*
X168207488Y-64538259D01*
X168275308Y-64521463D01*
X168341444Y-64543999D01*
X168380486Y-64589056D01*
X168384951Y-64597820D01*
X168509890Y-64769786D01*
X168660213Y-64920109D01*
X168832179Y-65045048D01*
X168832181Y-65045049D01*
X168832184Y-65045051D01*
X169021588Y-65141557D01*
X169223757Y-65207246D01*
X169433713Y-65240500D01*
X169433714Y-65240500D01*
X169646286Y-65240500D01*
X169646287Y-65240500D01*
X169856243Y-65207246D01*
X170058412Y-65141557D01*
X170247816Y-65045051D01*
X170334478Y-64982088D01*
X170419786Y-64920109D01*
X170419788Y-64920106D01*
X170419792Y-64920104D01*
X170570104Y-64769792D01*
X170570106Y-64769788D01*
X170570109Y-64769786D01*
X170695048Y-64597820D01*
X170695047Y-64597820D01*
X170695051Y-64597816D01*
X170699514Y-64589054D01*
X170747488Y-64538259D01*
X170815308Y-64521463D01*
X170881444Y-64543999D01*
X170920486Y-64589056D01*
X170924951Y-64597820D01*
X171049890Y-64769786D01*
X171200213Y-64920109D01*
X171372179Y-65045048D01*
X171372181Y-65045049D01*
X171372184Y-65045051D01*
X171561588Y-65141557D01*
X171763757Y-65207246D01*
X171973713Y-65240500D01*
X171973714Y-65240500D01*
X172186286Y-65240500D01*
X172186287Y-65240500D01*
X172396243Y-65207246D01*
X172598412Y-65141557D01*
X172787816Y-65045051D01*
X172874478Y-64982088D01*
X172959784Y-64920110D01*
X172959784Y-64920109D01*
X172959792Y-64920104D01*
X173073717Y-64806178D01*
X173135036Y-64772696D01*
X173204728Y-64777680D01*
X173260662Y-64819551D01*
X173277577Y-64850528D01*
X173326646Y-64982088D01*
X173326649Y-64982093D01*
X173412809Y-65097187D01*
X173412812Y-65097190D01*
X173527906Y-65183350D01*
X173527913Y-65183354D01*
X173662620Y-65233596D01*
X173662627Y-65233598D01*
X173722155Y-65239999D01*
X173722172Y-65240000D01*
X174370000Y-65240000D01*
X174370000Y-64323012D01*
X174427007Y-64355925D01*
X174554174Y-64390000D01*
X174685826Y-64390000D01*
X174812993Y-64355925D01*
X174870000Y-64323012D01*
X174870000Y-65240000D01*
X175517828Y-65240000D01*
X175517844Y-65239999D01*
X175577372Y-65233598D01*
X175577379Y-65233596D01*
X175712086Y-65183354D01*
X175712093Y-65183350D01*
X175827187Y-65097190D01*
X175827190Y-65097187D01*
X175913350Y-64982093D01*
X175913354Y-64982086D01*
X175941992Y-64905305D01*
X175963596Y-64847379D01*
X175963598Y-64847372D01*
X175969999Y-64787844D01*
X175970000Y-64787827D01*
X175970000Y-64140000D01*
X175053012Y-64140000D01*
X175085925Y-64082993D01*
X175120000Y-63955826D01*
X175120000Y-63852155D01*
X180950000Y-63852155D01*
X180950000Y-64500000D01*
X181866988Y-64500000D01*
X181834075Y-64557007D01*
X181800000Y-64684174D01*
X181800000Y-64815826D01*
X181834075Y-64942993D01*
X181866988Y-65000000D01*
X180950000Y-65000000D01*
X180950000Y-65647844D01*
X180956401Y-65707372D01*
X180956403Y-65707379D01*
X181006645Y-65842086D01*
X181006649Y-65842093D01*
X181092809Y-65957187D01*
X181092812Y-65957190D01*
X181207906Y-66043350D01*
X181207913Y-66043354D01*
X181342620Y-66093596D01*
X181342627Y-66093598D01*
X181402155Y-66099999D01*
X181402172Y-66100000D01*
X182050000Y-66100000D01*
X182050000Y-65183012D01*
X182107007Y-65215925D01*
X182234174Y-65250000D01*
X182365826Y-65250000D01*
X182492993Y-65215925D01*
X182550000Y-65183012D01*
X182550000Y-66100000D01*
X183197828Y-66100000D01*
X183197844Y-66099999D01*
X183257372Y-66093598D01*
X183257379Y-66093596D01*
X183392086Y-66043354D01*
X183392093Y-66043350D01*
X183507187Y-65957190D01*
X183507190Y-65957187D01*
X183593350Y-65842093D01*
X183593354Y-65842086D01*
X183642422Y-65710529D01*
X183684293Y-65654595D01*
X183749757Y-65630178D01*
X183818030Y-65645030D01*
X183846285Y-65666181D01*
X183960213Y-65780109D01*
X184132179Y-65905048D01*
X184132181Y-65905049D01*
X184132184Y-65905051D01*
X184321588Y-66001557D01*
X184523757Y-66067246D01*
X184733713Y-66100500D01*
X184733714Y-66100500D01*
X184946286Y-66100500D01*
X184946287Y-66100500D01*
X185156243Y-66067246D01*
X185358412Y-66001557D01*
X185547816Y-65905051D01*
X185634471Y-65842093D01*
X185719786Y-65780109D01*
X185719788Y-65780106D01*
X185719792Y-65780104D01*
X185870104Y-65629792D01*
X185870106Y-65629788D01*
X185870109Y-65629786D01*
X185995048Y-65457820D01*
X185995047Y-65457820D01*
X185995051Y-65457816D01*
X185999514Y-65449054D01*
X186047488Y-65398259D01*
X186115308Y-65381463D01*
X186181444Y-65403999D01*
X186220486Y-65449056D01*
X186224951Y-65457820D01*
X186349890Y-65629786D01*
X186500213Y-65780109D01*
X186672179Y-65905048D01*
X186672181Y-65905049D01*
X186672184Y-65905051D01*
X186861588Y-66001557D01*
X187063757Y-66067246D01*
X187273713Y-66100500D01*
X187273714Y-66100500D01*
X187486286Y-66100500D01*
X187486287Y-66100500D01*
X187696243Y-66067246D01*
X187898412Y-66001557D01*
X188087816Y-65905051D01*
X188174471Y-65842093D01*
X188259786Y-65780109D01*
X188259788Y-65780106D01*
X188259792Y-65780104D01*
X188410104Y-65629792D01*
X188410106Y-65629788D01*
X188410109Y-65629786D01*
X188535048Y-65457820D01*
X188535047Y-65457820D01*
X188535051Y-65457816D01*
X188539514Y-65449054D01*
X188587488Y-65398259D01*
X188655308Y-65381463D01*
X188721444Y-65403999D01*
X188760486Y-65449056D01*
X188764951Y-65457820D01*
X188889890Y-65629786D01*
X189040213Y-65780109D01*
X189212179Y-65905048D01*
X189212181Y-65905049D01*
X189212184Y-65905051D01*
X189401588Y-66001557D01*
X189603757Y-66067246D01*
X189813713Y-66100500D01*
X189813714Y-66100500D01*
X190026286Y-66100500D01*
X190026287Y-66100500D01*
X190236243Y-66067246D01*
X190438412Y-66001557D01*
X190627816Y-65905051D01*
X190714471Y-65842093D01*
X190799786Y-65780109D01*
X190799788Y-65780106D01*
X190799792Y-65780104D01*
X190950104Y-65629792D01*
X190950106Y-65629788D01*
X190950109Y-65629786D01*
X191075048Y-65457820D01*
X191075047Y-65457820D01*
X191075051Y-65457816D01*
X191171557Y-65268412D01*
X191237246Y-65066243D01*
X191270500Y-64856287D01*
X191270500Y-64643713D01*
X191237246Y-64433757D01*
X191171557Y-64231588D01*
X191075051Y-64042184D01*
X191075049Y-64042181D01*
X191075048Y-64042179D01*
X190950109Y-63870213D01*
X190799786Y-63719890D01*
X190627820Y-63594951D01*
X190438414Y-63498444D01*
X190438413Y-63498443D01*
X190438412Y-63498443D01*
X190236243Y-63432754D01*
X190236241Y-63432753D01*
X190236240Y-63432753D01*
X190074957Y-63407208D01*
X190026287Y-63399500D01*
X189813713Y-63399500D01*
X189765042Y-63407208D01*
X189603760Y-63432753D01*
X189603757Y-63432754D01*
X189427878Y-63489901D01*
X189401585Y-63498444D01*
X189212179Y-63594951D01*
X189040213Y-63719890D01*
X188889890Y-63870213D01*
X188764949Y-64042182D01*
X188760484Y-64050946D01*
X188712509Y-64101742D01*
X188644688Y-64118536D01*
X188578553Y-64095998D01*
X188539516Y-64050946D01*
X188535050Y-64042182D01*
X188410109Y-63870213D01*
X188259786Y-63719890D01*
X188087820Y-63594951D01*
X187898414Y-63498444D01*
X187898413Y-63498443D01*
X187898412Y-63498443D01*
X187696243Y-63432754D01*
X187696241Y-63432753D01*
X187696240Y-63432753D01*
X187534957Y-63407208D01*
X187486287Y-63399500D01*
X187273713Y-63399500D01*
X187225042Y-63407208D01*
X187063760Y-63432753D01*
X187063757Y-63432754D01*
X186887878Y-63489901D01*
X186861585Y-63498444D01*
X186672179Y-63594951D01*
X186500213Y-63719890D01*
X186349890Y-63870213D01*
X186224949Y-64042182D01*
X186220484Y-64050946D01*
X186172509Y-64101742D01*
X186104688Y-64118536D01*
X186038553Y-64095998D01*
X185999516Y-64050946D01*
X185995050Y-64042182D01*
X185870109Y-63870213D01*
X185719786Y-63719890D01*
X185547820Y-63594951D01*
X185358414Y-63498444D01*
X185358413Y-63498443D01*
X185358412Y-63498443D01*
X185156243Y-63432754D01*
X185156241Y-63432753D01*
X185156240Y-63432753D01*
X184994957Y-63407208D01*
X184946287Y-63399500D01*
X184733713Y-63399500D01*
X184685042Y-63407208D01*
X184523760Y-63432753D01*
X184523757Y-63432754D01*
X184347878Y-63489901D01*
X184321585Y-63498444D01*
X184132179Y-63594951D01*
X183960215Y-63719889D01*
X183846285Y-63833819D01*
X183784962Y-63867303D01*
X183715270Y-63862319D01*
X183659337Y-63820447D01*
X183642422Y-63789470D01*
X183593354Y-63657913D01*
X183593350Y-63657906D01*
X183507190Y-63542812D01*
X183507187Y-63542809D01*
X183392093Y-63456649D01*
X183392086Y-63456645D01*
X183257379Y-63406403D01*
X183257372Y-63406401D01*
X183197844Y-63400000D01*
X182550000Y-63400000D01*
X182550000Y-64316988D01*
X182492993Y-64284075D01*
X182365826Y-64250000D01*
X182234174Y-64250000D01*
X182107007Y-64284075D01*
X182050000Y-64316988D01*
X182050000Y-63400000D01*
X181402155Y-63400000D01*
X181342627Y-63406401D01*
X181342620Y-63406403D01*
X181207913Y-63456645D01*
X181207906Y-63456649D01*
X181092812Y-63542809D01*
X181092809Y-63542812D01*
X181006649Y-63657906D01*
X181006645Y-63657913D01*
X180956403Y-63792620D01*
X180956401Y-63792627D01*
X180950000Y-63852155D01*
X175120000Y-63852155D01*
X175120000Y-63824174D01*
X175085925Y-63697007D01*
X175053012Y-63640000D01*
X175970000Y-63640000D01*
X175970000Y-62992172D01*
X175969999Y-62992155D01*
X175963598Y-62932627D01*
X175963596Y-62932620D01*
X175913354Y-62797913D01*
X175913350Y-62797906D01*
X175827190Y-62682812D01*
X175827187Y-62682809D01*
X175712093Y-62596649D01*
X175712086Y-62596645D01*
X175577379Y-62546403D01*
X175577372Y-62546401D01*
X175517844Y-62540000D01*
X174870000Y-62540000D01*
X174870000Y-63456988D01*
X174812993Y-63424075D01*
X174685826Y-63390000D01*
X174554174Y-63390000D01*
X174427007Y-63424075D01*
X174370000Y-63456988D01*
X174370000Y-62540000D01*
X173722155Y-62540000D01*
X173662627Y-62546401D01*
X173662620Y-62546403D01*
X173527913Y-62596645D01*
X173527906Y-62596649D01*
X173412812Y-62682809D01*
X173412809Y-62682812D01*
X173326649Y-62797906D01*
X173326646Y-62797912D01*
X173277577Y-62929471D01*
X173235705Y-62985404D01*
X173170241Y-63009821D01*
X173101968Y-62994969D01*
X173073714Y-62973818D01*
X172959786Y-62859890D01*
X172787820Y-62734951D01*
X172598414Y-62638444D01*
X172598413Y-62638443D01*
X172598412Y-62638443D01*
X172396243Y-62572754D01*
X172396241Y-62572753D01*
X172396240Y-62572753D01*
X172234957Y-62547208D01*
X172186287Y-62539500D01*
X171973713Y-62539500D01*
X171925042Y-62547208D01*
X171763760Y-62572753D01*
X171561585Y-62638444D01*
X171372179Y-62734951D01*
X171200213Y-62859890D01*
X171049890Y-63010213D01*
X170924949Y-63182182D01*
X170920484Y-63190946D01*
X170872509Y-63241742D01*
X170804688Y-63258536D01*
X170738553Y-63235998D01*
X170699516Y-63190946D01*
X170695050Y-63182182D01*
X170570109Y-63010213D01*
X170419786Y-62859890D01*
X170247820Y-62734951D01*
X170058414Y-62638444D01*
X170058413Y-62638443D01*
X170058412Y-62638443D01*
X169856243Y-62572754D01*
X169856241Y-62572753D01*
X169856240Y-62572753D01*
X169694957Y-62547208D01*
X169646287Y-62539500D01*
X169433713Y-62539500D01*
X169385042Y-62547208D01*
X169223760Y-62572753D01*
X169021585Y-62638444D01*
X168832179Y-62734951D01*
X168660213Y-62859890D01*
X168509890Y-63010213D01*
X168384949Y-63182182D01*
X168380484Y-63190946D01*
X168332509Y-63241742D01*
X168264688Y-63258536D01*
X168198553Y-63235998D01*
X168159516Y-63190946D01*
X168155050Y-63182182D01*
X168030109Y-63010213D01*
X167879786Y-62859890D01*
X167707820Y-62734951D01*
X167518414Y-62638444D01*
X167518413Y-62638443D01*
X167518412Y-62638443D01*
X167316243Y-62572754D01*
X167316241Y-62572753D01*
X167316240Y-62572753D01*
X167154957Y-62547208D01*
X167106287Y-62539500D01*
X166893713Y-62539500D01*
X166845042Y-62547208D01*
X166683760Y-62572753D01*
X166481585Y-62638444D01*
X166292179Y-62734951D01*
X166120213Y-62859890D01*
X165969890Y-63010213D01*
X165844949Y-63182182D01*
X165840484Y-63190946D01*
X165792509Y-63241742D01*
X165724688Y-63258536D01*
X165658553Y-63235998D01*
X165619516Y-63190946D01*
X165615050Y-63182182D01*
X165490109Y-63010213D01*
X165339786Y-62859890D01*
X165167820Y-62734951D01*
X164978414Y-62638444D01*
X164978413Y-62638443D01*
X164978412Y-62638443D01*
X164776243Y-62572754D01*
X164776241Y-62572753D01*
X164776240Y-62572753D01*
X164614957Y-62547208D01*
X164566287Y-62539500D01*
X164353713Y-62539500D01*
X164305042Y-62547208D01*
X164143760Y-62572753D01*
X163941585Y-62638444D01*
X163752179Y-62734951D01*
X163580213Y-62859890D01*
X163429890Y-63010213D01*
X163304951Y-63182179D01*
X163208444Y-63371585D01*
X163142753Y-63573760D01*
X163109500Y-63783713D01*
X161923560Y-63783713D01*
X161865501Y-63744919D01*
X161865488Y-63744912D01*
X161728917Y-63688343D01*
X161728907Y-63688340D01*
X161583920Y-63659500D01*
X161583918Y-63659500D01*
X161436082Y-63659500D01*
X161436080Y-63659500D01*
X161291092Y-63688340D01*
X161291082Y-63688343D01*
X161154511Y-63744912D01*
X161154498Y-63744919D01*
X161031584Y-63827048D01*
X161031580Y-63827051D01*
X160927051Y-63931580D01*
X160927048Y-63931584D01*
X160844919Y-64054498D01*
X160844912Y-64054511D01*
X160788343Y-64191082D01*
X160788340Y-64191092D01*
X160759500Y-64336079D01*
X160759500Y-64336082D01*
X160759500Y-64483918D01*
X160759500Y-64483920D01*
X160759499Y-64483920D01*
X155950500Y-64483920D01*
X155950500Y-63504066D01*
X155950765Y-63495956D01*
X155953341Y-63456649D01*
X155965364Y-63273207D01*
X155967479Y-63257153D01*
X156010232Y-63042215D01*
X156014425Y-63026568D01*
X156084867Y-62819052D01*
X156091068Y-62804081D01*
X156187996Y-62607530D01*
X156196100Y-62593494D01*
X156317845Y-62411289D01*
X156327711Y-62398430D01*
X156472207Y-62233665D01*
X156483665Y-62222207D01*
X156648430Y-62077711D01*
X156661289Y-62067845D01*
X156843494Y-61946100D01*
X156857530Y-61937996D01*
X157054081Y-61841068D01*
X157069052Y-61834867D01*
X157276568Y-61764425D01*
X157292215Y-61760232D01*
X157507153Y-61717479D01*
X157523209Y-61715364D01*
X157728058Y-61701938D01*
X157745958Y-61700765D01*
X157754067Y-61700500D01*
X157789882Y-61700500D01*
X206460118Y-61700500D01*
X206495933Y-61700500D01*
X206504043Y-61700765D01*
G37*
%TD.AperFunction*%
%TD*%
M02*
