%TF.GenerationSoftware,KiCad,Pcbnew,9.0.9*%
%TF.CreationDate,2026-07-13T22:37:57+05:30*%
%TF.ProjectId,STM32_IOT_project,53544d33-325f-4494-9f54-5f70726f6a65,rev?*%
%TF.SameCoordinates,Original*%
%TF.FileFunction,Copper,L2,Inr*%
%TF.FilePolarity,Positive*%
%FSLAX46Y46*%
G04 Gerber Fmt 4.6, Leading zero omitted, Abs format (unit mm)*
G04 Created by KiCad (PCBNEW 9.0.9) date 2026-07-13 22:37:57*
%MOMM*%
%LPD*%
G01*
G04 APERTURE LIST*
%TA.AperFunction,ComponentPad*%
%ADD10C,1.208000*%
%TD*%
%TA.AperFunction,ComponentPad*%
%ADD11C,0.400000*%
%TD*%
%TA.AperFunction,ComponentPad*%
%ADD12R,1.700000X1.700000*%
%TD*%
%TA.AperFunction,ComponentPad*%
%ADD13C,1.700000*%
%TD*%
%TA.AperFunction,ComponentPad*%
%ADD14C,0.650000*%
%TD*%
%TA.AperFunction,ComponentPad*%
%ADD15O,1.050000X2.100000*%
%TD*%
%TA.AperFunction,ComponentPad*%
%ADD16R,1.458000X1.458000*%
%TD*%
%TA.AperFunction,ComponentPad*%
%ADD17C,1.458000*%
%TD*%
%TA.AperFunction,ViaPad*%
%ADD18C,0.500000*%
%TD*%
%TA.AperFunction,ViaPad*%
%ADD19C,0.600000*%
%TD*%
%TA.AperFunction,Conductor*%
%ADD20C,0.254000*%
%TD*%
G04 APERTURE END LIST*
D10*
%TO.N,GND*%
%TO.C,MK1*%
X166750000Y-73550000D03*
%TO.N,Net-(U8-IN+)*%
X166750000Y-75450000D03*
%TD*%
D11*
%TO.N,GND*%
%TO.C,U3*%
X236300000Y-74200000D03*
X237400000Y-74200000D03*
X235750000Y-74750000D03*
X236850000Y-74750000D03*
X237950000Y-74750000D03*
X236300000Y-75300000D03*
X237400000Y-75300000D03*
X235750000Y-75850000D03*
X236850000Y-75850000D03*
X237950000Y-75850000D03*
X236300000Y-76400000D03*
X237400000Y-76400000D03*
%TD*%
D12*
%TO.N,GND*%
%TO.C,J4*%
X182300000Y-64750000D03*
D13*
%TO.N,/ESP32-C3-02/SCL*%
X184840000Y-64750000D03*
%TO.N,/ESP32-C3-02/SDA*%
X187380000Y-64750000D03*
%TO.N,+3.3V*%
X189920000Y-64750000D03*
%TD*%
D14*
%TO.N,GND*%
%TO.C,J1*%
X190320000Y-106970000D03*
%TO.N,unconnected-(J1-SSTXP2-PadB2)*%
X189920000Y-107680000D03*
%TO.N,unconnected-(J1-SSTXN2-PadB3)*%
X189120000Y-107680000D03*
%TO.N,/VBUS*%
X188720000Y-106970000D03*
%TO.N,Net-(J1-CC2)*%
X188320000Y-107680000D03*
%TO.N,/USB_DP*%
X187920000Y-106970000D03*
%TO.N,/USB_DN*%
X187120000Y-106970000D03*
%TO.N,unconnected-(J1-SBU2-PadB8)*%
X186720000Y-107680000D03*
%TO.N,/VBUS*%
X186320000Y-106970000D03*
%TO.N,unconnected-(J1-SSRXN1-PadB10)*%
X185920000Y-107680000D03*
%TO.N,unconnected-(J1-SSRXP1-PadB11)*%
X185120000Y-107680000D03*
%TO.N,GND*%
X184720000Y-106970000D03*
X189520000Y-106970000D03*
X185520000Y-106970000D03*
D15*
X183250000Y-108120000D03*
X191790000Y-108120000D03*
X183250000Y-112850000D03*
X191790000Y-112850000D03*
%TD*%
D12*
%TO.N,GND*%
%TO.C,J5*%
X174620000Y-63890000D03*
D13*
%TO.N,/ESP32-C3-02/GPIO19*%
X172080000Y-63890000D03*
%TO.N,/ESP32-C3-02/GPIO18*%
X169540000Y-63890000D03*
%TO.N,/ESP32-C3-02/GPIO8*%
X167000000Y-63890000D03*
%TO.N,+3.3V*%
X164460000Y-63890000D03*
%TD*%
D16*
%TO.N,GND*%
%TO.C,J2*%
X162790000Y-113950000D03*
D17*
%TO.N,/VBAT*%
X165290000Y-113950000D03*
%TD*%
D18*
%TO.N,/ESP32-C3-02/TX_RX*%
X183710000Y-94050000D03*
%TO.N,/ESP32-C3-02/RX_TX*%
X184090000Y-93160000D03*
%TO.N,/ESP32-C3-02/RTS*%
X185466232Y-93936232D03*
%TO.N,/ESP32-C3-02/DTR*%
X186380000Y-93355000D03*
%TO.N,Net-(U1-~{PG})*%
X174950000Y-108460000D03*
%TO.N,Net-(U1-STAT1{slash}~{LBO})*%
X172660000Y-108870000D03*
%TO.N,Net-(U1-STAT2)*%
X173860000Y-108630000D03*
%TO.N,/+5V_USB*%
X176510000Y-111020000D03*
D19*
X172905000Y-115330000D03*
D18*
%TO.N,GND*%
X176490000Y-111960000D03*
%TO.N,/+5V_USB*%
X176390000Y-112960000D03*
D19*
%TO.N,/VBUS*%
X190770000Y-102875000D03*
%TO.N,/+5V_USB*%
X180100000Y-102075000D03*
%TO.N,+3.3V*%
X195590000Y-97680000D03*
%TO.N,/VBUS*%
X182900000Y-97200000D03*
X182900000Y-98200000D03*
D18*
X185325000Y-104375000D03*
X189275000Y-102300000D03*
D19*
X182900000Y-99200000D03*
D18*
%TO.N,GND*%
X163125000Y-89925000D03*
X187520000Y-111870000D03*
X160600000Y-89900000D03*
X183900000Y-104425000D03*
X166475000Y-93325000D03*
X195375000Y-64350000D03*
X165525000Y-89975000D03*
X161290000Y-115200000D03*
X196025000Y-65025000D03*
X176500000Y-70380000D03*
X174350000Y-102937500D03*
X181170000Y-106750000D03*
X199190000Y-68170000D03*
X214970000Y-113950000D03*
X212150000Y-110730000D03*
X224950000Y-85380000D03*
X241940000Y-89340000D03*
X202550000Y-86850000D03*
X176400000Y-76690000D03*
X186139922Y-101460078D03*
X166500000Y-94625000D03*
X194500000Y-100475000D03*
X171900000Y-102937500D03*
X205120000Y-110770000D03*
X169500000Y-102937500D03*
X201890000Y-91750000D03*
X161290000Y-112700000D03*
X178560000Y-63890000D03*
X188880000Y-84520000D03*
X170260000Y-73560000D03*
X186540000Y-98640000D03*
X229200000Y-80320000D03*
X188240000Y-79990000D03*
X205410000Y-113300000D03*
X233190000Y-85520000D03*
X161290000Y-113950000D03*
X166425000Y-91975000D03*
X184170000Y-100500000D03*
X220630000Y-88400000D03*
X166375000Y-90750000D03*
X222250000Y-71575000D03*
X207240000Y-113330000D03*
%TO.N,+3.3V*%
X169950000Y-81150000D03*
X196537500Y-67987500D03*
X158950000Y-83775000D03*
D19*
X193515000Y-79015000D03*
D18*
X182250000Y-83375000D03*
X215060000Y-77930000D03*
X202730000Y-89250000D03*
X203750000Y-69500000D03*
X178750000Y-83400000D03*
X171375000Y-81175000D03*
X167075000Y-81150000D03*
D19*
X193250000Y-84710000D03*
X239090000Y-85620000D03*
X216120000Y-68650000D03*
D18*
X159175000Y-86400000D03*
X195000000Y-68025000D03*
X170650000Y-81150000D03*
X216870000Y-78970000D03*
X168500000Y-81150000D03*
X167800000Y-81150000D03*
D19*
X175790000Y-67560000D03*
X229540000Y-85740000D03*
D18*
X161510000Y-64410000D03*
X169175000Y-81125000D03*
X198800000Y-80525000D03*
D19*
%TO.N,/+5V_USB*%
X176900000Y-99200000D03*
D18*
X161770000Y-99273750D03*
X164210000Y-99253750D03*
D19*
X176900000Y-98200000D03*
X176900000Y-97200000D03*
%TO.N,/ESP32-C3-02/MIC_OUT*%
X218270000Y-74510000D03*
X215190000Y-73920000D03*
%TO.N,/ESP32-C3-02/BOOT*%
X231340000Y-80150000D03*
X215180000Y-98240000D03*
%TO.N,/ESP32-C3-02/EN*%
X223050000Y-72520000D03*
X215020000Y-97430000D03*
X228845000Y-70895000D03*
X218970000Y-75030000D03*
D18*
%TO.N,/USB_DN*%
X188950000Y-103700000D03*
%TO.N,/USB_DP*%
X186175000Y-103250000D03*
D19*
%TO.N,/ESP32-C3-02/SCL*%
X237700000Y-71250000D03*
D18*
X215450000Y-69550000D03*
D19*
%TO.N,/ESP32-C3-02/SDA*%
X230430000Y-71410000D03*
X216230000Y-70040000D03*
%TO.N,/ESP32-C3-02/CD_SD*%
X247010000Y-72030000D03*
D18*
X242150000Y-87350000D03*
D19*
%TO.N,/ESP32-C3-02/GPIO19*%
X223010000Y-73550000D03*
X229600000Y-73210000D03*
%TO.N,/ESP32-C3-02/PHOTO_C*%
X246310000Y-71440000D03*
X247255000Y-70185000D03*
%TO.N,/ESP32-C3-02/RTS*%
X205430000Y-103610000D03*
%TO.N,/ESP32-C3-02/DTR*%
X207450000Y-103450000D03*
X205160000Y-107190000D03*
X203990000Y-105470000D03*
%TO.N,Net-(U1-STAT1{slash}~{LBO})*%
X161260000Y-106750000D03*
%TO.N,Net-(U1-STAT2)*%
X164280000Y-106070000D03*
%TO.N,Net-(U1-~{PG})*%
X165930000Y-106540000D03*
D18*
%TO.N,/ESP32-C3-02/CS*%
X229229975Y-81279975D03*
X215350000Y-76350000D03*
D19*
%TO.N,/ESP32-C3-02/GPIO8*%
X217130000Y-74810000D03*
X224210000Y-79480000D03*
%TO.N,/ESP32-C3-02/RX_TX*%
X242150000Y-78100000D03*
%TO.N,/ESP32-C3-02/TX_RX*%
X242525000Y-79615000D03*
%TO.N,/ESP32-C3-02/GPIO18*%
X229492463Y-74270000D03*
X220900000Y-74150000D03*
D18*
%TO.N,Net-(U4-VBUS)*%
X191870000Y-94960000D03*
X192185000Y-96665000D03*
%TD*%
D20*
%TO.N,/USB_DP*%
X187920000Y-105570000D02*
X186175000Y-103825000D01*
X186175000Y-103825000D02*
X186175000Y-103250000D01*
X187920000Y-106970000D02*
X187920000Y-105570000D01*
%TD*%
%TA.AperFunction,Conductor*%
%TO.N,/+5V_USB*%
G36*
X179512661Y-96241233D02*
G01*
X179559819Y-96292788D01*
X179572427Y-96344903D01*
X179597672Y-97643593D01*
X179660000Y-100850000D01*
X181849176Y-100954246D01*
X181915202Y-100977097D01*
X181958394Y-101032018D01*
X181967245Y-101080929D01*
X181860000Y-105789992D01*
X181860000Y-105790015D01*
X181869300Y-106084721D01*
X181851740Y-106152348D01*
X181800405Y-106199746D01*
X181731595Y-106211865D01*
X181667155Y-106184859D01*
X181657681Y-106176313D01*
X181648419Y-106167051D01*
X181648415Y-106167048D01*
X181525501Y-106084919D01*
X181525488Y-106084912D01*
X181388917Y-106028343D01*
X181388907Y-106028340D01*
X181243920Y-105999500D01*
X181243918Y-105999500D01*
X181096082Y-105999500D01*
X181096080Y-105999500D01*
X180951092Y-106028340D01*
X180951082Y-106028343D01*
X180814511Y-106084912D01*
X180814498Y-106084919D01*
X180691584Y-106167048D01*
X180691580Y-106167051D01*
X180587051Y-106271580D01*
X180587048Y-106271584D01*
X180504919Y-106394498D01*
X180504912Y-106394511D01*
X180448343Y-106531082D01*
X180448340Y-106531092D01*
X180419500Y-106676079D01*
X180419500Y-106676082D01*
X180419500Y-106823918D01*
X180419500Y-106823920D01*
X180419499Y-106823920D01*
X180448340Y-106968907D01*
X180448343Y-106968917D01*
X180504912Y-107105488D01*
X180504919Y-107105501D01*
X180587048Y-107228415D01*
X180587051Y-107228419D01*
X180691580Y-107332948D01*
X180691584Y-107332951D01*
X180814498Y-107415080D01*
X180814511Y-107415087D01*
X180921469Y-107459390D01*
X180951087Y-107471658D01*
X180951091Y-107471658D01*
X180951092Y-107471659D01*
X181096079Y-107500500D01*
X181096082Y-107500500D01*
X181243920Y-107500500D01*
X181341462Y-107481096D01*
X181388913Y-107471658D01*
X181525495Y-107415084D01*
X181648416Y-107332951D01*
X181698146Y-107283221D01*
X181759469Y-107249735D01*
X181829160Y-107254719D01*
X181885094Y-107296590D01*
X181909512Y-107362054D01*
X181909766Y-107366990D01*
X182175959Y-115801980D01*
X182158399Y-115869607D01*
X182107065Y-115917004D01*
X182051916Y-115929891D01*
X161937801Y-115912823D01*
X161870778Y-115893082D01*
X161825068Y-115840239D01*
X161815183Y-115771072D01*
X161844262Y-115707541D01*
X161850212Y-115701154D01*
X161872951Y-115678416D01*
X161955084Y-115555495D01*
X162011658Y-115418913D01*
X162039428Y-115279308D01*
X162071813Y-115217397D01*
X162132529Y-115182822D01*
X162161045Y-115179499D01*
X163566871Y-115179499D01*
X163566872Y-115179499D01*
X163626483Y-115173091D01*
X163761331Y-115122796D01*
X163876546Y-115036546D01*
X163962796Y-114921331D01*
X164013091Y-114786483D01*
X164019500Y-114726873D01*
X164019499Y-114674689D01*
X164039182Y-114607653D01*
X164091986Y-114561898D01*
X164161144Y-114551953D01*
X164224700Y-114580977D01*
X164243817Y-114601805D01*
X164288047Y-114662681D01*
X164352190Y-114750966D01*
X164489034Y-114887810D01*
X164577422Y-114952028D01*
X164645596Y-115001560D01*
X164645597Y-115001560D01*
X164645601Y-115001563D01*
X164818036Y-115089422D01*
X165002091Y-115149226D01*
X165097663Y-115164363D01*
X165193231Y-115179500D01*
X165193236Y-115179500D01*
X165386769Y-115179500D01*
X165473648Y-115165739D01*
X165577909Y-115149226D01*
X165761964Y-115089422D01*
X165934399Y-115001563D01*
X166090966Y-114887810D01*
X166227810Y-114750966D01*
X166341563Y-114594399D01*
X166429422Y-114421964D01*
X166489226Y-114237909D01*
X166505739Y-114133648D01*
X166519500Y-114046769D01*
X166519500Y-113853230D01*
X166502986Y-113748975D01*
X166489226Y-113662091D01*
X166429422Y-113478036D01*
X166341563Y-113305601D01*
X166341560Y-113305597D01*
X166341560Y-113305596D01*
X166291953Y-113237319D01*
X166227810Y-113149034D01*
X166090966Y-113012190D01*
X166032040Y-112969378D01*
X165934403Y-112898439D01*
X165934400Y-112898438D01*
X165934401Y-112898438D01*
X165934399Y-112898437D01*
X165761964Y-112810578D01*
X165577909Y-112750774D01*
X165577903Y-112750773D01*
X165386769Y-112720500D01*
X165386764Y-112720500D01*
X165193236Y-112720500D01*
X165193231Y-112720500D01*
X165002096Y-112750773D01*
X165002094Y-112750773D01*
X165002091Y-112750774D01*
X164818036Y-112810578D01*
X164818033Y-112810579D01*
X164818031Y-112810580D01*
X164645599Y-112898438D01*
X164645596Y-112898439D01*
X164535169Y-112978671D01*
X164489034Y-113012190D01*
X164489032Y-113012192D01*
X164489031Y-113012192D01*
X164352192Y-113149031D01*
X164352192Y-113149032D01*
X164352190Y-113149034D01*
X164296772Y-113225310D01*
X164243817Y-113298196D01*
X164188487Y-113340861D01*
X164118873Y-113346840D01*
X164057078Y-113314234D01*
X164022721Y-113253395D01*
X164019499Y-113225310D01*
X164019499Y-113173129D01*
X164019498Y-113173123D01*
X164016908Y-113149031D01*
X164013091Y-113113517D01*
X163991452Y-113055501D01*
X163962797Y-112978671D01*
X163962793Y-112978664D01*
X163876547Y-112863455D01*
X163876544Y-112863452D01*
X163761335Y-112777206D01*
X163761328Y-112777202D01*
X163626482Y-112726908D01*
X163626483Y-112726908D01*
X163566883Y-112720501D01*
X163566881Y-112720500D01*
X163566873Y-112720500D01*
X163566865Y-112720500D01*
X162161045Y-112720500D01*
X162094006Y-112700815D01*
X162048251Y-112648011D01*
X162039428Y-112620692D01*
X162011659Y-112481092D01*
X162011658Y-112481091D01*
X162011658Y-112481087D01*
X162011656Y-112481082D01*
X161955087Y-112344511D01*
X161955080Y-112344498D01*
X161872951Y-112221584D01*
X161872948Y-112221580D01*
X161768419Y-112117051D01*
X161768415Y-112117048D01*
X161645501Y-112034919D01*
X161645488Y-112034912D01*
X161643093Y-112033920D01*
X175739499Y-112033920D01*
X175768340Y-112178907D01*
X175768343Y-112178917D01*
X175824912Y-112315488D01*
X175824919Y-112315501D01*
X175907048Y-112438415D01*
X175907051Y-112438419D01*
X176011580Y-112542948D01*
X176011584Y-112542951D01*
X176134498Y-112625080D01*
X176134511Y-112625087D01*
X176271082Y-112681656D01*
X176271087Y-112681658D01*
X176271091Y-112681658D01*
X176271092Y-112681659D01*
X176416079Y-112710500D01*
X176416082Y-112710500D01*
X176563920Y-112710500D01*
X176661462Y-112691096D01*
X176708913Y-112681658D01*
X176845495Y-112625084D01*
X176968416Y-112542951D01*
X177072951Y-112438416D01*
X177155084Y-112315495D01*
X177211658Y-112178913D01*
X177240301Y-112034919D01*
X177240500Y-112033920D01*
X177240500Y-111886079D01*
X177211659Y-111741092D01*
X177211658Y-111741091D01*
X177211658Y-111741087D01*
X177211656Y-111741082D01*
X177155087Y-111604511D01*
X177155080Y-111604498D01*
X177072951Y-111481584D01*
X177072948Y-111481580D01*
X176968419Y-111377051D01*
X176968415Y-111377048D01*
X176845501Y-111294919D01*
X176845488Y-111294912D01*
X176708917Y-111238343D01*
X176708907Y-111238340D01*
X176563920Y-111209500D01*
X176563918Y-111209500D01*
X176416082Y-111209500D01*
X176416080Y-111209500D01*
X176271092Y-111238340D01*
X176271082Y-111238343D01*
X176134511Y-111294912D01*
X176134498Y-111294919D01*
X176011584Y-111377048D01*
X176011580Y-111377051D01*
X175907051Y-111481580D01*
X175907048Y-111481584D01*
X175824919Y-111604498D01*
X175824912Y-111604511D01*
X175768343Y-111741082D01*
X175768340Y-111741092D01*
X175739500Y-111886079D01*
X175739500Y-111886082D01*
X175739500Y-112033918D01*
X175739500Y-112033920D01*
X175739499Y-112033920D01*
X161643093Y-112033920D01*
X161548046Y-111994551D01*
X161508917Y-111978343D01*
X161508907Y-111978340D01*
X161363920Y-111949500D01*
X161363918Y-111949500D01*
X161216082Y-111949500D01*
X161216080Y-111949500D01*
X161071092Y-111978340D01*
X161071082Y-111978343D01*
X160934511Y-112034912D01*
X160934498Y-112034919D01*
X160811584Y-112117048D01*
X160811580Y-112117051D01*
X160707051Y-112221580D01*
X160707048Y-112221584D01*
X160624919Y-112344498D01*
X160624912Y-112344511D01*
X160568343Y-112481082D01*
X160568340Y-112481092D01*
X160539500Y-112626079D01*
X160539500Y-112626082D01*
X160539500Y-112773918D01*
X160539500Y-112773920D01*
X160539499Y-112773920D01*
X160568340Y-112918907D01*
X160568343Y-112918917D01*
X160624912Y-113055488D01*
X160624919Y-113055501D01*
X160707048Y-113178415D01*
X160707051Y-113178419D01*
X160765951Y-113237319D01*
X160799436Y-113298642D01*
X160794452Y-113368334D01*
X160765951Y-113412681D01*
X160707051Y-113471580D01*
X160707048Y-113471584D01*
X160624919Y-113594498D01*
X160624912Y-113594511D01*
X160568343Y-113731082D01*
X160568340Y-113731092D01*
X160539500Y-113876079D01*
X160539500Y-113876082D01*
X160539500Y-114023918D01*
X160539500Y-114023920D01*
X160539499Y-114023920D01*
X160568340Y-114168907D01*
X160568343Y-114168917D01*
X160624912Y-114305488D01*
X160624919Y-114305501D01*
X160707048Y-114428415D01*
X160707051Y-114428419D01*
X160765951Y-114487319D01*
X160799436Y-114548642D01*
X160794452Y-114618334D01*
X160765951Y-114662681D01*
X160707051Y-114721580D01*
X160707048Y-114721584D01*
X160624919Y-114844498D01*
X160624912Y-114844511D01*
X160568343Y-114981082D01*
X160568340Y-114981092D01*
X160539500Y-115126079D01*
X160539500Y-115126082D01*
X160539500Y-115273918D01*
X160539500Y-115273920D01*
X160539499Y-115273920D01*
X160568340Y-115418907D01*
X160568343Y-115418917D01*
X160624912Y-115555488D01*
X160624919Y-115555501D01*
X160707048Y-115678415D01*
X160707051Y-115678419D01*
X160728673Y-115700041D01*
X160762158Y-115761364D01*
X160757174Y-115831056D01*
X160715302Y-115886989D01*
X160649838Y-115911406D01*
X160640887Y-115911722D01*
X158733020Y-115910104D01*
X158665997Y-115890363D01*
X158620287Y-115837520D01*
X158609128Y-115786986D01*
X158560675Y-108943920D01*
X171909499Y-108943920D01*
X171938340Y-109088907D01*
X171938343Y-109088917D01*
X171994912Y-109225488D01*
X171994919Y-109225501D01*
X172077048Y-109348415D01*
X172077051Y-109348419D01*
X172181580Y-109452948D01*
X172181584Y-109452951D01*
X172304498Y-109535080D01*
X172304511Y-109535087D01*
X172441082Y-109591656D01*
X172441087Y-109591658D01*
X172441091Y-109591658D01*
X172441092Y-109591659D01*
X172586079Y-109620500D01*
X172586082Y-109620500D01*
X172733920Y-109620500D01*
X172831462Y-109601096D01*
X172878913Y-109591658D01*
X173015495Y-109535084D01*
X173138416Y-109452951D01*
X173242951Y-109348416D01*
X173279427Y-109293824D01*
X173333038Y-109249021D01*
X173402363Y-109240312D01*
X173451420Y-109259614D01*
X173504498Y-109295080D01*
X173504511Y-109295087D01*
X173633260Y-109348416D01*
X173641087Y-109351658D01*
X173641091Y-109351658D01*
X173641092Y-109351659D01*
X173786079Y-109380500D01*
X173786082Y-109380500D01*
X173933920Y-109380500D01*
X174031462Y-109361096D01*
X174078913Y-109351658D01*
X174215495Y-109295084D01*
X174338416Y-109212951D01*
X174421705Y-109129661D01*
X174483026Y-109096177D01*
X174552717Y-109101161D01*
X174578275Y-109114240D01*
X174594500Y-109125081D01*
X174594511Y-109125087D01*
X174719052Y-109176673D01*
X174731087Y-109181658D01*
X174731091Y-109181658D01*
X174731092Y-109181659D01*
X174876079Y-109210500D01*
X174876082Y-109210500D01*
X175023920Y-109210500D01*
X175121462Y-109191096D01*
X175168913Y-109181658D01*
X175305495Y-109125084D01*
X175428416Y-109042951D01*
X175532951Y-108938416D01*
X175615084Y-108815495D01*
X175671658Y-108678913D01*
X175700500Y-108533918D01*
X175700500Y-108386082D01*
X175700500Y-108386079D01*
X175671659Y-108241092D01*
X175671658Y-108241091D01*
X175671658Y-108241087D01*
X175634583Y-108151580D01*
X175615087Y-108104511D01*
X175615080Y-108104498D01*
X175532951Y-107981584D01*
X175532948Y-107981580D01*
X175428419Y-107877051D01*
X175428415Y-107877048D01*
X175305501Y-107794919D01*
X175305488Y-107794912D01*
X175168917Y-107738343D01*
X175168907Y-107738340D01*
X175023920Y-107709500D01*
X175023918Y-107709500D01*
X174876082Y-107709500D01*
X174876080Y-107709500D01*
X174731092Y-107738340D01*
X174731082Y-107738343D01*
X174594511Y-107794912D01*
X174594498Y-107794919D01*
X174471584Y-107877048D01*
X174388294Y-107960338D01*
X174326970Y-107993822D01*
X174257279Y-107988838D01*
X174231724Y-107975759D01*
X174215495Y-107964915D01*
X174215493Y-107964914D01*
X174078917Y-107908343D01*
X174078907Y-107908340D01*
X173933920Y-107879500D01*
X173933918Y-107879500D01*
X173786082Y-107879500D01*
X173786080Y-107879500D01*
X173641092Y-107908340D01*
X173641082Y-107908343D01*
X173504511Y-107964912D01*
X173504498Y-107964919D01*
X173381584Y-108047048D01*
X173381580Y-108047051D01*
X173277051Y-108151580D01*
X173240572Y-108206175D01*
X173186959Y-108250979D01*
X173117634Y-108259686D01*
X173068579Y-108240385D01*
X173015501Y-108204919D01*
X173015488Y-108204912D01*
X172878917Y-108148343D01*
X172878907Y-108148340D01*
X172733920Y-108119500D01*
X172733918Y-108119500D01*
X172586082Y-108119500D01*
X172586080Y-108119500D01*
X172441092Y-108148340D01*
X172441082Y-108148343D01*
X172304511Y-108204912D01*
X172304498Y-108204919D01*
X172181584Y-108287048D01*
X172181580Y-108287051D01*
X172077051Y-108391580D01*
X172077048Y-108391584D01*
X171994919Y-108514498D01*
X171994912Y-108514511D01*
X171938343Y-108651082D01*
X171938340Y-108651092D01*
X171909500Y-108796079D01*
X171909500Y-108796082D01*
X171909500Y-108943918D01*
X171909500Y-108943920D01*
X171909499Y-108943920D01*
X158560675Y-108943920D01*
X158544582Y-106671153D01*
X160459500Y-106671153D01*
X160459500Y-106828846D01*
X160490261Y-106983489D01*
X160490264Y-106983501D01*
X160550602Y-107129172D01*
X160550609Y-107129185D01*
X160638210Y-107260288D01*
X160638213Y-107260292D01*
X160749707Y-107371786D01*
X160749711Y-107371789D01*
X160880814Y-107459390D01*
X160880827Y-107459397D01*
X160980060Y-107500500D01*
X161026503Y-107519737D01*
X161181153Y-107550499D01*
X161181156Y-107550500D01*
X161181158Y-107550500D01*
X161338844Y-107550500D01*
X161338845Y-107550499D01*
X161493497Y-107519737D01*
X161639179Y-107459394D01*
X161770289Y-107371789D01*
X161881789Y-107260289D01*
X161969394Y-107129179D01*
X162029737Y-106983497D01*
X162060500Y-106828842D01*
X162060500Y-106671158D01*
X162060500Y-106671155D01*
X162060499Y-106671153D01*
X162050094Y-106618844D01*
X162029737Y-106516503D01*
X162006813Y-106461158D01*
X161969397Y-106370827D01*
X161969390Y-106370814D01*
X161881789Y-106239711D01*
X161881786Y-106239707D01*
X161770292Y-106128213D01*
X161770288Y-106128210D01*
X161710361Y-106088168D01*
X161639185Y-106040609D01*
X161639172Y-106040602D01*
X161519790Y-105991153D01*
X163479500Y-105991153D01*
X163479500Y-106148846D01*
X163510261Y-106303489D01*
X163510264Y-106303501D01*
X163570602Y-106449172D01*
X163570609Y-106449185D01*
X163658210Y-106580288D01*
X163658213Y-106580292D01*
X163769707Y-106691786D01*
X163769711Y-106691789D01*
X163900814Y-106779390D01*
X163900827Y-106779397D01*
X164046498Y-106839735D01*
X164046503Y-106839737D01*
X164201153Y-106870499D01*
X164201156Y-106870500D01*
X164201158Y-106870500D01*
X164358844Y-106870500D01*
X164358845Y-106870499D01*
X164513497Y-106839737D01*
X164659179Y-106779394D01*
X164790289Y-106691789D01*
X164901789Y-106580289D01*
X164905033Y-106575433D01*
X164958643Y-106530626D01*
X165027967Y-106521916D01*
X165090996Y-106552067D01*
X165127718Y-106611509D01*
X165129755Y-106620128D01*
X165160261Y-106773491D01*
X165160264Y-106773501D01*
X165220602Y-106919172D01*
X165220609Y-106919185D01*
X165308210Y-107050288D01*
X165308213Y-107050292D01*
X165419707Y-107161786D01*
X165419711Y-107161789D01*
X165550814Y-107249390D01*
X165550827Y-107249397D01*
X165632487Y-107283221D01*
X165696503Y-107309737D01*
X165813192Y-107332948D01*
X165851153Y-107340499D01*
X165851156Y-107340500D01*
X165851158Y-107340500D01*
X166008844Y-107340500D01*
X166008845Y-107340499D01*
X166163497Y-107309737D01*
X166309179Y-107249394D01*
X166440289Y-107161789D01*
X166551789Y-107050289D01*
X166639394Y-106919179D01*
X166699737Y-106773497D01*
X166730500Y-106618842D01*
X166730500Y-106461158D01*
X166730500Y-106461155D01*
X166730499Y-106461153D01*
X166699738Y-106306510D01*
X166699737Y-106306503D01*
X166672071Y-106239711D01*
X166639397Y-106160827D01*
X166639390Y-106160814D01*
X166551789Y-106029711D01*
X166551786Y-106029707D01*
X166440292Y-105918213D01*
X166440288Y-105918210D01*
X166309185Y-105830609D01*
X166309172Y-105830602D01*
X166163501Y-105770264D01*
X166163489Y-105770261D01*
X166008845Y-105739500D01*
X166008842Y-105739500D01*
X165851158Y-105739500D01*
X165851155Y-105739500D01*
X165696510Y-105770261D01*
X165696498Y-105770264D01*
X165550827Y-105830602D01*
X165550814Y-105830609D01*
X165419711Y-105918210D01*
X165419707Y-105918213D01*
X165308213Y-106029707D01*
X165308206Y-106029716D01*
X165304958Y-106034577D01*
X165251343Y-106079378D01*
X165182018Y-106088081D01*
X165118992Y-106057922D01*
X165082277Y-105998476D01*
X165080244Y-105989870D01*
X165049738Y-105836510D01*
X165049737Y-105836503D01*
X165022299Y-105770261D01*
X164989397Y-105690827D01*
X164989390Y-105690814D01*
X164901789Y-105559711D01*
X164901786Y-105559707D01*
X164790292Y-105448213D01*
X164790288Y-105448210D01*
X164659185Y-105360609D01*
X164659172Y-105360602D01*
X164513501Y-105300264D01*
X164513489Y-105300261D01*
X164358845Y-105269500D01*
X164358842Y-105269500D01*
X164201158Y-105269500D01*
X164201155Y-105269500D01*
X164046510Y-105300261D01*
X164046498Y-105300264D01*
X163900827Y-105360602D01*
X163900814Y-105360609D01*
X163769711Y-105448210D01*
X163769707Y-105448213D01*
X163658213Y-105559707D01*
X163658210Y-105559711D01*
X163570609Y-105690814D01*
X163570602Y-105690827D01*
X163510264Y-105836498D01*
X163510261Y-105836510D01*
X163479500Y-105991153D01*
X161519790Y-105991153D01*
X161493501Y-105980264D01*
X161493489Y-105980261D01*
X161338845Y-105949500D01*
X161338842Y-105949500D01*
X161181158Y-105949500D01*
X161181155Y-105949500D01*
X161026510Y-105980261D01*
X161026498Y-105980264D01*
X160880827Y-106040602D01*
X160880814Y-106040609D01*
X160749711Y-106128210D01*
X160749707Y-106128213D01*
X160638213Y-106239707D01*
X160638210Y-106239711D01*
X160550609Y-106370814D01*
X160550602Y-106370827D01*
X160490264Y-106516498D01*
X160490261Y-106516510D01*
X160459500Y-106671153D01*
X158544582Y-106671153D01*
X158518669Y-103011420D01*
X168749499Y-103011420D01*
X168778340Y-103156407D01*
X168778343Y-103156417D01*
X168834912Y-103292988D01*
X168834919Y-103293001D01*
X168917048Y-103415915D01*
X168917051Y-103415919D01*
X169021580Y-103520448D01*
X169021584Y-103520451D01*
X169144498Y-103602580D01*
X169144511Y-103602587D01*
X169281082Y-103659156D01*
X169281087Y-103659158D01*
X169281091Y-103659158D01*
X169281092Y-103659159D01*
X169426079Y-103688000D01*
X169426082Y-103688000D01*
X169573920Y-103688000D01*
X169671462Y-103668596D01*
X169718913Y-103659158D01*
X169855495Y-103602584D01*
X169978416Y-103520451D01*
X170082951Y-103415916D01*
X170165084Y-103292995D01*
X170221658Y-103156413D01*
X170250500Y-103011420D01*
X171149499Y-103011420D01*
X171178340Y-103156407D01*
X171178343Y-103156417D01*
X171234912Y-103292988D01*
X171234919Y-103293001D01*
X171317048Y-103415915D01*
X171317051Y-103415919D01*
X171421580Y-103520448D01*
X171421584Y-103520451D01*
X171544498Y-103602580D01*
X171544511Y-103602587D01*
X171681082Y-103659156D01*
X171681087Y-103659158D01*
X171681091Y-103659158D01*
X171681092Y-103659159D01*
X171826079Y-103688000D01*
X171826082Y-103688000D01*
X171973920Y-103688000D01*
X172071462Y-103668596D01*
X172118913Y-103659158D01*
X172255495Y-103602584D01*
X172378416Y-103520451D01*
X172482951Y-103415916D01*
X172565084Y-103292995D01*
X172621658Y-103156413D01*
X172650500Y-103011420D01*
X173599499Y-103011420D01*
X173628340Y-103156407D01*
X173628343Y-103156417D01*
X173684912Y-103292988D01*
X173684919Y-103293001D01*
X173767048Y-103415915D01*
X173767051Y-103415919D01*
X173871580Y-103520448D01*
X173871584Y-103520451D01*
X173994498Y-103602580D01*
X173994511Y-103602587D01*
X174131082Y-103659156D01*
X174131087Y-103659158D01*
X174131091Y-103659158D01*
X174131092Y-103659159D01*
X174276079Y-103688000D01*
X174276082Y-103688000D01*
X174423920Y-103688000D01*
X174521462Y-103668596D01*
X174568913Y-103659158D01*
X174705495Y-103602584D01*
X174828416Y-103520451D01*
X174932951Y-103415916D01*
X175015084Y-103292995D01*
X175071658Y-103156413D01*
X175100500Y-103011418D01*
X175100500Y-102863582D01*
X175100500Y-102863579D01*
X175071659Y-102718592D01*
X175071658Y-102718591D01*
X175071658Y-102718587D01*
X175071656Y-102718582D01*
X175015087Y-102582011D01*
X175015080Y-102581998D01*
X174932951Y-102459084D01*
X174932948Y-102459080D01*
X174828419Y-102354551D01*
X174828415Y-102354548D01*
X174705501Y-102272419D01*
X174705488Y-102272412D01*
X174568917Y-102215843D01*
X174568907Y-102215840D01*
X174423920Y-102187000D01*
X174423918Y-102187000D01*
X174276082Y-102187000D01*
X174276080Y-102187000D01*
X174131092Y-102215840D01*
X174131082Y-102215843D01*
X173994511Y-102272412D01*
X173994498Y-102272419D01*
X173871584Y-102354548D01*
X173871580Y-102354551D01*
X173767051Y-102459080D01*
X173767048Y-102459084D01*
X173684919Y-102581998D01*
X173684912Y-102582011D01*
X173628343Y-102718582D01*
X173628340Y-102718592D01*
X173599500Y-102863579D01*
X173599500Y-102863582D01*
X173599500Y-103011418D01*
X173599500Y-103011420D01*
X173599499Y-103011420D01*
X172650500Y-103011420D01*
X172650500Y-103011418D01*
X172650500Y-102863582D01*
X172650500Y-102863579D01*
X172621659Y-102718592D01*
X172621658Y-102718591D01*
X172621658Y-102718587D01*
X172621656Y-102718582D01*
X172565087Y-102582011D01*
X172565080Y-102581998D01*
X172482951Y-102459084D01*
X172482948Y-102459080D01*
X172378419Y-102354551D01*
X172378415Y-102354548D01*
X172255501Y-102272419D01*
X172255488Y-102272412D01*
X172118917Y-102215843D01*
X172118907Y-102215840D01*
X171973920Y-102187000D01*
X171973918Y-102187000D01*
X171826082Y-102187000D01*
X171826080Y-102187000D01*
X171681092Y-102215840D01*
X171681082Y-102215843D01*
X171544511Y-102272412D01*
X171544498Y-102272419D01*
X171421584Y-102354548D01*
X171421580Y-102354551D01*
X171317051Y-102459080D01*
X171317048Y-102459084D01*
X171234919Y-102581998D01*
X171234912Y-102582011D01*
X171178343Y-102718582D01*
X171178340Y-102718592D01*
X171149500Y-102863579D01*
X171149500Y-102863582D01*
X171149500Y-103011418D01*
X171149500Y-103011420D01*
X171149499Y-103011420D01*
X170250500Y-103011420D01*
X170250500Y-103011418D01*
X170250500Y-102863582D01*
X170250500Y-102863579D01*
X170221659Y-102718592D01*
X170221658Y-102718591D01*
X170221658Y-102718587D01*
X170221656Y-102718582D01*
X170165087Y-102582011D01*
X170165080Y-102581998D01*
X170082951Y-102459084D01*
X170082948Y-102459080D01*
X169978419Y-102354551D01*
X169978415Y-102354548D01*
X169855501Y-102272419D01*
X169855488Y-102272412D01*
X169718917Y-102215843D01*
X169718907Y-102215840D01*
X169573920Y-102187000D01*
X169573918Y-102187000D01*
X169426082Y-102187000D01*
X169426080Y-102187000D01*
X169281092Y-102215840D01*
X169281082Y-102215843D01*
X169144511Y-102272412D01*
X169144498Y-102272419D01*
X169021584Y-102354548D01*
X169021580Y-102354551D01*
X168917051Y-102459080D01*
X168917048Y-102459084D01*
X168834919Y-102581998D01*
X168834912Y-102582011D01*
X168778343Y-102718582D01*
X168778340Y-102718592D01*
X168749500Y-102863579D01*
X168749500Y-102863582D01*
X168749500Y-103011418D01*
X168749500Y-103011420D01*
X168749499Y-103011420D01*
X158518669Y-103011420D01*
X158480662Y-97643590D01*
X158499872Y-97576416D01*
X158552350Y-97530288D01*
X158569817Y-97523711D01*
X161334578Y-96714513D01*
X161366060Y-96709568D01*
X179445117Y-96223358D01*
X179512661Y-96241233D01*
G37*
%TD.AperFunction*%
%TD*%
%TA.AperFunction,Conductor*%
%TO.N,+3.3V*%
G36*
X206504043Y-61700765D02*
G01*
X206726790Y-61715364D01*
X206742848Y-61717479D01*
X206957781Y-61760231D01*
X206973434Y-61764426D01*
X207180941Y-61834865D01*
X207195925Y-61841071D01*
X207392464Y-61937994D01*
X207406510Y-61946104D01*
X207588705Y-62067842D01*
X207601574Y-62077716D01*
X207766328Y-62222202D01*
X207777797Y-62233671D01*
X207922283Y-62398425D01*
X207932157Y-62411294D01*
X208053895Y-62593489D01*
X208062005Y-62607535D01*
X208158928Y-62804074D01*
X208165135Y-62819060D01*
X208235571Y-63026558D01*
X208239769Y-63042225D01*
X208282518Y-63257140D01*
X208284636Y-63273221D01*
X208299235Y-63495956D01*
X208299500Y-63504066D01*
X208299500Y-66133108D01*
X208331589Y-66397381D01*
X208395297Y-66655857D01*
X208407730Y-66688639D01*
X208489696Y-66904764D01*
X208489698Y-66904768D01*
X208489699Y-66904770D01*
X208489699Y-66904771D01*
X208556477Y-67032005D01*
X208613411Y-67140483D01*
X208613414Y-67140487D01*
X208613415Y-67140489D01*
X208764633Y-67359568D01*
X208764638Y-67359574D01*
X208941165Y-67558832D01*
X208941167Y-67558834D01*
X209140425Y-67735361D01*
X209140431Y-67735366D01*
X209312715Y-67854284D01*
X209359517Y-67886589D01*
X209595236Y-68010304D01*
X209788905Y-68083753D01*
X209844142Y-68104702D01*
X209844144Y-68104702D01*
X209844148Y-68104704D01*
X210102624Y-68168412D01*
X210324511Y-68195353D01*
X210366892Y-68200500D01*
X210366894Y-68200500D01*
X210460118Y-68200500D01*
X224960160Y-68200500D01*
X224960201Y-68200517D01*
X225001134Y-68200500D01*
X225039882Y-68200500D01*
X225052813Y-68200500D01*
X225053019Y-68200477D01*
X246124486Y-68191727D01*
X246132628Y-68191991D01*
X246356696Y-68206677D01*
X246372752Y-68208792D01*
X246588998Y-68251806D01*
X246604649Y-68256000D01*
X246813419Y-68326868D01*
X246828403Y-68333074D01*
X247026134Y-68430585D01*
X247040182Y-68438695D01*
X247223496Y-68561182D01*
X247236360Y-68571053D01*
X247402114Y-68716416D01*
X247413583Y-68727885D01*
X247476388Y-68799500D01*
X247557209Y-68891659D01*
X247558946Y-68893639D01*
X247568820Y-68906507D01*
X247691304Y-69089818D01*
X247699414Y-69103865D01*
X247796925Y-69301596D01*
X247803134Y-69316586D01*
X247805667Y-69324049D01*
X247808573Y-69393859D01*
X247773277Y-69454157D01*
X247710983Y-69485801D01*
X247641471Y-69478742D01*
X247639360Y-69477751D01*
X247488501Y-69415264D01*
X247488489Y-69415261D01*
X247333845Y-69384500D01*
X247333842Y-69384500D01*
X247176158Y-69384500D01*
X247176155Y-69384500D01*
X247021510Y-69415261D01*
X247021498Y-69415264D01*
X246875827Y-69475602D01*
X246875814Y-69475609D01*
X246744711Y-69563210D01*
X246744707Y-69563213D01*
X246633213Y-69674707D01*
X246633210Y-69674711D01*
X246545609Y-69805814D01*
X246545602Y-69805827D01*
X246485264Y-69951498D01*
X246485261Y-69951510D01*
X246454500Y-70106153D01*
X246454500Y-70263846D01*
X246485261Y-70418489D01*
X246485264Y-70418501D01*
X246505787Y-70468048D01*
X246513256Y-70537517D01*
X246481980Y-70599996D01*
X246421891Y-70635648D01*
X246391226Y-70639500D01*
X246231155Y-70639500D01*
X246076510Y-70670261D01*
X246076498Y-70670264D01*
X245930827Y-70730602D01*
X245930814Y-70730609D01*
X245799711Y-70818210D01*
X245799707Y-70818213D01*
X245688213Y-70929707D01*
X245688210Y-70929711D01*
X245600609Y-71060814D01*
X245600602Y-71060827D01*
X245540264Y-71206498D01*
X245540261Y-71206510D01*
X245509500Y-71361153D01*
X245509500Y-71518846D01*
X245540261Y-71673489D01*
X245540264Y-71673501D01*
X245600602Y-71819172D01*
X245600609Y-71819185D01*
X245688210Y-71950288D01*
X245688213Y-71950292D01*
X245799707Y-72061786D01*
X245799711Y-72061789D01*
X245930814Y-72149390D01*
X245930827Y-72149397D01*
X246004078Y-72179738D01*
X246076503Y-72209737D01*
X246165693Y-72227478D01*
X246227604Y-72259862D01*
X246256063Y-72301643D01*
X246300602Y-72409172D01*
X246300609Y-72409185D01*
X246388210Y-72540288D01*
X246388213Y-72540292D01*
X246499707Y-72651786D01*
X246499711Y-72651789D01*
X246630814Y-72739390D01*
X246630827Y-72739397D01*
X246776498Y-72799735D01*
X246776503Y-72799737D01*
X246930977Y-72830464D01*
X246931153Y-72830499D01*
X246931156Y-72830500D01*
X246931158Y-72830500D01*
X247088844Y-72830500D01*
X247088845Y-72830499D01*
X247243497Y-72799737D01*
X247389179Y-72739394D01*
X247520289Y-72651789D01*
X247631789Y-72540289D01*
X247697552Y-72441868D01*
X247711236Y-72421389D01*
X247764848Y-72376584D01*
X247834173Y-72367877D01*
X247897201Y-72398031D01*
X247933920Y-72457475D01*
X247938338Y-72490277D01*
X247939500Y-116315387D01*
X247939500Y-116325572D01*
X247939184Y-116334418D01*
X247922630Y-116565864D01*
X247920112Y-116583376D01*
X247871734Y-116805768D01*
X247866750Y-116822744D01*
X247787209Y-117035999D01*
X247779859Y-117052092D01*
X247670784Y-117251849D01*
X247661219Y-117266732D01*
X247524825Y-117448933D01*
X247513239Y-117462304D01*
X247352304Y-117623239D01*
X247338933Y-117634825D01*
X247156732Y-117771219D01*
X247141849Y-117780784D01*
X246942092Y-117889859D01*
X246925999Y-117897209D01*
X246712744Y-117976750D01*
X246695768Y-117981734D01*
X246473376Y-118030112D01*
X246455864Y-118032630D01*
X246224418Y-118049184D01*
X246215572Y-118049500D01*
X199528259Y-118049500D01*
X199461220Y-118029815D01*
X199415465Y-117977011D01*
X199404343Y-117930063D01*
X199236578Y-113373920D01*
X204659499Y-113373920D01*
X204688340Y-113518907D01*
X204688343Y-113518917D01*
X204744912Y-113655488D01*
X204744919Y-113655501D01*
X204827048Y-113778415D01*
X204827051Y-113778419D01*
X204931580Y-113882948D01*
X204931584Y-113882951D01*
X205054498Y-113965080D01*
X205054511Y-113965087D01*
X205191082Y-114021656D01*
X205191087Y-114021658D01*
X205191091Y-114021658D01*
X205191092Y-114021659D01*
X205336079Y-114050500D01*
X205336082Y-114050500D01*
X205483920Y-114050500D01*
X205617551Y-114023918D01*
X205628913Y-114021658D01*
X205765495Y-113965084D01*
X205888416Y-113882951D01*
X205992951Y-113778416D01*
X206075084Y-113655495D01*
X206131658Y-113518913D01*
X206154532Y-113403920D01*
X206489499Y-113403920D01*
X206518340Y-113548907D01*
X206518343Y-113548917D01*
X206574912Y-113685488D01*
X206574919Y-113685501D01*
X206657048Y-113808415D01*
X206657051Y-113808419D01*
X206761580Y-113912948D01*
X206761584Y-113912951D01*
X206884498Y-113995080D01*
X206884511Y-113995087D01*
X207009272Y-114046764D01*
X207021087Y-114051658D01*
X207021091Y-114051658D01*
X207021092Y-114051659D01*
X207166079Y-114080500D01*
X207166082Y-114080500D01*
X207313920Y-114080500D01*
X207411462Y-114061096D01*
X207458913Y-114051658D01*
X207525879Y-114023920D01*
X214219499Y-114023920D01*
X214248340Y-114168907D01*
X214248343Y-114168917D01*
X214304912Y-114305488D01*
X214304919Y-114305501D01*
X214387048Y-114428415D01*
X214387051Y-114428419D01*
X214491580Y-114532948D01*
X214491584Y-114532951D01*
X214614498Y-114615080D01*
X214614511Y-114615087D01*
X214751082Y-114671656D01*
X214751087Y-114671658D01*
X214751091Y-114671658D01*
X214751092Y-114671659D01*
X214896079Y-114700500D01*
X214896082Y-114700500D01*
X215043920Y-114700500D01*
X215141462Y-114681096D01*
X215188913Y-114671658D01*
X215325495Y-114615084D01*
X215448416Y-114532951D01*
X215552951Y-114428416D01*
X215635084Y-114305495D01*
X215691658Y-114168913D01*
X215712984Y-114061702D01*
X215720500Y-114023920D01*
X215720500Y-113876079D01*
X215691659Y-113731092D01*
X215691658Y-113731091D01*
X215691658Y-113731087D01*
X215672773Y-113685495D01*
X215635087Y-113594511D01*
X215635080Y-113594498D01*
X215552951Y-113471584D01*
X215552948Y-113471580D01*
X215448419Y-113367051D01*
X215448415Y-113367048D01*
X215325501Y-113284919D01*
X215325488Y-113284912D01*
X215188917Y-113228343D01*
X215188907Y-113228340D01*
X215043920Y-113199500D01*
X215043918Y-113199500D01*
X214896082Y-113199500D01*
X214896080Y-113199500D01*
X214751092Y-113228340D01*
X214751082Y-113228343D01*
X214614511Y-113284912D01*
X214614498Y-113284919D01*
X214491584Y-113367048D01*
X214491580Y-113367051D01*
X214387051Y-113471580D01*
X214387048Y-113471584D01*
X214304919Y-113594498D01*
X214304912Y-113594511D01*
X214248343Y-113731082D01*
X214248340Y-113731092D01*
X214219500Y-113876079D01*
X214219500Y-113876082D01*
X214219500Y-114023918D01*
X214219500Y-114023920D01*
X214219499Y-114023920D01*
X207525879Y-114023920D01*
X207595495Y-113995084D01*
X207718416Y-113912951D01*
X207822951Y-113808416D01*
X207905084Y-113685495D01*
X207961658Y-113548913D01*
X207990500Y-113403918D01*
X207990500Y-113256082D01*
X207990500Y-113256079D01*
X207961659Y-113111092D01*
X207961658Y-113111091D01*
X207961658Y-113111087D01*
X207949230Y-113081082D01*
X207905087Y-112974511D01*
X207905080Y-112974498D01*
X207822951Y-112851584D01*
X207822948Y-112851580D01*
X207718419Y-112747051D01*
X207718415Y-112747048D01*
X207595501Y-112664919D01*
X207595488Y-112664912D01*
X207458917Y-112608343D01*
X207458907Y-112608340D01*
X207313920Y-112579500D01*
X207313918Y-112579500D01*
X207166082Y-112579500D01*
X207166080Y-112579500D01*
X207021092Y-112608340D01*
X207021082Y-112608343D01*
X206884511Y-112664912D01*
X206884498Y-112664919D01*
X206761584Y-112747048D01*
X206761580Y-112747051D01*
X206657051Y-112851580D01*
X206657048Y-112851584D01*
X206574919Y-112974498D01*
X206574912Y-112974511D01*
X206518343Y-113111082D01*
X206518340Y-113111092D01*
X206489500Y-113256079D01*
X206489500Y-113256082D01*
X206489500Y-113403918D01*
X206489500Y-113403920D01*
X206489499Y-113403920D01*
X206154532Y-113403920D01*
X206160500Y-113373920D01*
X206160500Y-113226079D01*
X206131659Y-113081092D01*
X206131658Y-113081091D01*
X206131658Y-113081087D01*
X206087513Y-112974511D01*
X206075087Y-112944511D01*
X206075080Y-112944498D01*
X205992951Y-112821584D01*
X205992948Y-112821580D01*
X205888419Y-112717051D01*
X205888415Y-112717048D01*
X205765501Y-112634919D01*
X205765488Y-112634912D01*
X205628917Y-112578343D01*
X205628907Y-112578340D01*
X205483920Y-112549500D01*
X205483918Y-112549500D01*
X205336082Y-112549500D01*
X205336080Y-112549500D01*
X205191092Y-112578340D01*
X205191082Y-112578343D01*
X205054511Y-112634912D01*
X205054498Y-112634919D01*
X204931584Y-112717048D01*
X204931580Y-112717051D01*
X204827051Y-112821580D01*
X204827048Y-112821584D01*
X204744919Y-112944498D01*
X204744912Y-112944511D01*
X204688343Y-113081082D01*
X204688340Y-113081092D01*
X204659500Y-113226079D01*
X204659500Y-113226082D01*
X204659500Y-113373918D01*
X204659500Y-113373920D01*
X204659499Y-113373920D01*
X199236578Y-113373920D01*
X199143419Y-110843920D01*
X204369499Y-110843920D01*
X204398340Y-110988907D01*
X204398343Y-110988917D01*
X204454912Y-111125488D01*
X204454919Y-111125501D01*
X204537048Y-111248415D01*
X204537051Y-111248419D01*
X204641580Y-111352948D01*
X204641584Y-111352951D01*
X204764498Y-111435080D01*
X204764511Y-111435087D01*
X204874149Y-111480500D01*
X204901087Y-111491658D01*
X204901091Y-111491658D01*
X204901092Y-111491659D01*
X205046079Y-111520500D01*
X205046082Y-111520500D01*
X205193920Y-111520500D01*
X205291462Y-111501096D01*
X205338913Y-111491658D01*
X205475495Y-111435084D01*
X205598416Y-111352951D01*
X205702951Y-111248416D01*
X205785084Y-111125495D01*
X205841658Y-110988913D01*
X205870500Y-110843918D01*
X205870500Y-110803920D01*
X211399499Y-110803920D01*
X211428340Y-110948907D01*
X211428343Y-110948917D01*
X211484912Y-111085488D01*
X211484919Y-111085501D01*
X211567048Y-111208415D01*
X211567051Y-111208419D01*
X211671580Y-111312948D01*
X211671584Y-111312951D01*
X211794498Y-111395080D01*
X211794511Y-111395087D01*
X211931082Y-111451656D01*
X211931087Y-111451658D01*
X211931091Y-111451658D01*
X211931092Y-111451659D01*
X212076079Y-111480500D01*
X212076082Y-111480500D01*
X212223920Y-111480500D01*
X212321462Y-111461096D01*
X212368913Y-111451658D01*
X212505495Y-111395084D01*
X212628416Y-111312951D01*
X212732951Y-111208416D01*
X212815084Y-111085495D01*
X212871658Y-110948913D01*
X212892543Y-110843920D01*
X212900500Y-110803920D01*
X212900500Y-110656079D01*
X212871659Y-110511092D01*
X212871658Y-110511091D01*
X212871658Y-110511087D01*
X212831650Y-110414498D01*
X212815087Y-110374511D01*
X212815080Y-110374498D01*
X212732951Y-110251584D01*
X212732948Y-110251580D01*
X212628419Y-110147051D01*
X212628415Y-110147048D01*
X212505501Y-110064919D01*
X212505488Y-110064912D01*
X212368917Y-110008343D01*
X212368907Y-110008340D01*
X212223920Y-109979500D01*
X212223918Y-109979500D01*
X212076082Y-109979500D01*
X212076080Y-109979500D01*
X211931092Y-110008340D01*
X211931082Y-110008343D01*
X211794511Y-110064912D01*
X211794498Y-110064919D01*
X211671584Y-110147048D01*
X211671580Y-110147051D01*
X211567051Y-110251580D01*
X211567048Y-110251584D01*
X211484919Y-110374498D01*
X211484912Y-110374511D01*
X211428343Y-110511082D01*
X211428340Y-110511092D01*
X211399500Y-110656079D01*
X211399500Y-110656082D01*
X211399500Y-110803918D01*
X211399500Y-110803920D01*
X211399499Y-110803920D01*
X205870500Y-110803920D01*
X205870500Y-110696082D01*
X205870499Y-110696079D01*
X205866144Y-110674183D01*
X205866144Y-110674182D01*
X205841659Y-110551092D01*
X205841658Y-110551091D01*
X205841658Y-110551087D01*
X205825092Y-110511092D01*
X205785087Y-110414511D01*
X205785080Y-110414498D01*
X205702951Y-110291584D01*
X205702948Y-110291580D01*
X205598419Y-110187051D01*
X205598415Y-110187048D01*
X205475501Y-110104919D01*
X205475488Y-110104912D01*
X205338917Y-110048343D01*
X205338907Y-110048340D01*
X205193920Y-110019500D01*
X205193918Y-110019500D01*
X205046082Y-110019500D01*
X205046080Y-110019500D01*
X204901092Y-110048340D01*
X204901082Y-110048343D01*
X204764511Y-110104912D01*
X204764498Y-110104919D01*
X204641584Y-110187048D01*
X204641580Y-110187051D01*
X204537051Y-110291580D01*
X204537048Y-110291584D01*
X204454919Y-110414498D01*
X204454912Y-110414511D01*
X204398343Y-110551082D01*
X204398340Y-110551092D01*
X204369500Y-110696079D01*
X204369500Y-110696080D01*
X204369500Y-110696082D01*
X204369500Y-110843918D01*
X204369500Y-110843920D01*
X204369499Y-110843920D01*
X199143419Y-110843920D01*
X199005972Y-107111153D01*
X204359500Y-107111153D01*
X204359500Y-107268846D01*
X204390261Y-107423489D01*
X204390264Y-107423501D01*
X204450602Y-107569172D01*
X204450609Y-107569185D01*
X204538210Y-107700288D01*
X204538213Y-107700292D01*
X204649707Y-107811786D01*
X204649711Y-107811789D01*
X204780814Y-107899390D01*
X204780827Y-107899397D01*
X204926498Y-107959735D01*
X204926503Y-107959737D01*
X205081153Y-107990499D01*
X205081156Y-107990500D01*
X205081158Y-107990500D01*
X205238844Y-107990500D01*
X205238845Y-107990499D01*
X205393497Y-107959737D01*
X205539179Y-107899394D01*
X205670289Y-107811789D01*
X205781789Y-107700289D01*
X205869394Y-107569179D01*
X205929737Y-107423497D01*
X205960500Y-107268842D01*
X205960500Y-107111158D01*
X205960500Y-107111155D01*
X205960499Y-107111153D01*
X205929738Y-106956510D01*
X205929737Y-106956503D01*
X205902984Y-106891914D01*
X205869397Y-106810827D01*
X205869390Y-106810814D01*
X205781789Y-106679711D01*
X205781786Y-106679707D01*
X205670292Y-106568213D01*
X205670288Y-106568210D01*
X205539185Y-106480609D01*
X205539172Y-106480602D01*
X205393501Y-106420264D01*
X205393489Y-106420261D01*
X205238845Y-106389500D01*
X205238842Y-106389500D01*
X205081158Y-106389500D01*
X205081155Y-106389500D01*
X204926510Y-106420261D01*
X204926498Y-106420264D01*
X204780827Y-106480602D01*
X204780814Y-106480609D01*
X204649711Y-106568210D01*
X204649707Y-106568213D01*
X204538213Y-106679707D01*
X204538210Y-106679711D01*
X204450609Y-106810814D01*
X204450602Y-106810827D01*
X204390264Y-106956498D01*
X204390261Y-106956510D01*
X204359500Y-107111153D01*
X199005972Y-107111153D01*
X198942639Y-105391153D01*
X203189500Y-105391153D01*
X203189500Y-105548846D01*
X203220261Y-105703489D01*
X203220264Y-105703501D01*
X203280602Y-105849172D01*
X203280609Y-105849185D01*
X203368210Y-105980288D01*
X203368213Y-105980292D01*
X203479707Y-106091786D01*
X203479711Y-106091789D01*
X203610814Y-106179390D01*
X203610827Y-106179397D01*
X203756498Y-106239735D01*
X203756503Y-106239737D01*
X203911153Y-106270499D01*
X203911156Y-106270500D01*
X203911158Y-106270500D01*
X204068844Y-106270500D01*
X204068845Y-106270499D01*
X204223497Y-106239737D01*
X204369179Y-106179394D01*
X204500289Y-106091789D01*
X204611789Y-105980289D01*
X204699394Y-105849179D01*
X204759737Y-105703497D01*
X204790500Y-105548842D01*
X204790500Y-105391158D01*
X204790500Y-105391155D01*
X204790499Y-105391153D01*
X204759738Y-105236510D01*
X204759737Y-105236503D01*
X204727037Y-105157558D01*
X204699397Y-105090827D01*
X204699390Y-105090814D01*
X204611789Y-104959711D01*
X204611786Y-104959707D01*
X204500292Y-104848213D01*
X204500288Y-104848210D01*
X204369185Y-104760609D01*
X204369172Y-104760602D01*
X204223501Y-104700264D01*
X204223489Y-104700261D01*
X204068845Y-104669500D01*
X204068842Y-104669500D01*
X203911158Y-104669500D01*
X203911155Y-104669500D01*
X203756510Y-104700261D01*
X203756498Y-104700264D01*
X203610827Y-104760602D01*
X203610814Y-104760609D01*
X203479711Y-104848210D01*
X203479707Y-104848213D01*
X203368213Y-104959707D01*
X203368210Y-104959711D01*
X203280609Y-105090814D01*
X203280602Y-105090827D01*
X203220264Y-105236498D01*
X203220261Y-105236510D01*
X203189500Y-105391153D01*
X198942639Y-105391153D01*
X198894058Y-104071786D01*
X198874151Y-103531153D01*
X204629500Y-103531153D01*
X204629500Y-103688846D01*
X204660261Y-103843489D01*
X204660264Y-103843501D01*
X204720602Y-103989172D01*
X204720609Y-103989185D01*
X204808210Y-104120288D01*
X204808213Y-104120292D01*
X204919707Y-104231786D01*
X204919711Y-104231789D01*
X205050814Y-104319390D01*
X205050827Y-104319397D01*
X205127323Y-104351082D01*
X205196503Y-104379737D01*
X205351153Y-104410499D01*
X205351156Y-104410500D01*
X205351158Y-104410500D01*
X205508844Y-104410500D01*
X205508845Y-104410499D01*
X205663497Y-104379737D01*
X205809179Y-104319394D01*
X205940289Y-104231789D01*
X206051789Y-104120289D01*
X206139394Y-103989179D01*
X206199737Y-103843497D01*
X206230500Y-103688842D01*
X206230500Y-103531158D01*
X206230500Y-103531155D01*
X206202274Y-103389258D01*
X206199737Y-103376503D01*
X206197521Y-103371153D01*
X206649500Y-103371153D01*
X206649500Y-103528846D01*
X206680261Y-103683489D01*
X206680264Y-103683501D01*
X206740602Y-103829172D01*
X206740609Y-103829185D01*
X206828210Y-103960288D01*
X206828213Y-103960292D01*
X206939707Y-104071786D01*
X206939711Y-104071789D01*
X207070814Y-104159390D01*
X207070827Y-104159397D01*
X207216498Y-104219735D01*
X207216503Y-104219737D01*
X207371153Y-104250499D01*
X207371156Y-104250500D01*
X207371158Y-104250500D01*
X207528844Y-104250500D01*
X207528845Y-104250499D01*
X207683497Y-104219737D01*
X207829179Y-104159394D01*
X207960289Y-104071789D01*
X208071789Y-103960289D01*
X208159394Y-103829179D01*
X208219737Y-103683497D01*
X208250500Y-103528842D01*
X208250500Y-103371158D01*
X208250500Y-103371155D01*
X208250499Y-103371153D01*
X208222585Y-103230821D01*
X208219737Y-103216503D01*
X208171359Y-103099707D01*
X208159397Y-103070827D01*
X208159390Y-103070814D01*
X208071789Y-102939711D01*
X208071786Y-102939707D01*
X207960292Y-102828213D01*
X207960288Y-102828210D01*
X207829185Y-102740609D01*
X207829172Y-102740602D01*
X207683501Y-102680264D01*
X207683489Y-102680261D01*
X207528845Y-102649500D01*
X207528842Y-102649500D01*
X207371158Y-102649500D01*
X207371155Y-102649500D01*
X207216510Y-102680261D01*
X207216498Y-102680264D01*
X207070827Y-102740602D01*
X207070814Y-102740609D01*
X206939711Y-102828210D01*
X206939707Y-102828213D01*
X206828213Y-102939707D01*
X206828210Y-102939711D01*
X206740609Y-103070814D01*
X206740602Y-103070827D01*
X206680264Y-103216498D01*
X206680261Y-103216510D01*
X206649500Y-103371153D01*
X206197521Y-103371153D01*
X206139397Y-103230827D01*
X206139390Y-103230814D01*
X206051789Y-103099711D01*
X206051786Y-103099707D01*
X205940292Y-102988213D01*
X205940288Y-102988210D01*
X205809185Y-102900609D01*
X205809172Y-102900602D01*
X205663501Y-102840264D01*
X205663489Y-102840261D01*
X205508845Y-102809500D01*
X205508842Y-102809500D01*
X205351158Y-102809500D01*
X205351155Y-102809500D01*
X205196510Y-102840261D01*
X205196498Y-102840264D01*
X205050827Y-102900602D01*
X205050814Y-102900609D01*
X204919711Y-102988210D01*
X204919707Y-102988213D01*
X204808213Y-103099707D01*
X204808210Y-103099711D01*
X204720609Y-103230814D01*
X204720602Y-103230827D01*
X204660264Y-103376498D01*
X204660261Y-103376510D01*
X204629500Y-103531153D01*
X198874151Y-103531153D01*
X198874095Y-103529629D01*
X198690000Y-98530000D01*
X198689999Y-98529999D01*
X187358069Y-98455773D01*
X187291160Y-98435650D01*
X187245752Y-98382548D01*
X187244320Y-98379229D01*
X187205085Y-98284507D01*
X187205080Y-98284498D01*
X187122951Y-98161584D01*
X187122948Y-98161580D01*
X187018419Y-98057051D01*
X187018415Y-98057048D01*
X186895501Y-97974919D01*
X186895488Y-97974912D01*
X186758917Y-97918343D01*
X186758907Y-97918340D01*
X186613920Y-97889500D01*
X186613918Y-97889500D01*
X186466082Y-97889500D01*
X186466080Y-97889500D01*
X186321092Y-97918340D01*
X186321082Y-97918343D01*
X186184511Y-97974912D01*
X186184498Y-97974919D01*
X186061584Y-98057048D01*
X186061580Y-98057051D01*
X185957051Y-98161580D01*
X185957048Y-98161584D01*
X185874919Y-98284498D01*
X185874916Y-98284505D01*
X185840111Y-98368530D01*
X185796269Y-98422933D01*
X185729975Y-98444997D01*
X185724738Y-98445073D01*
X185066874Y-98440765D01*
X184999965Y-98420642D01*
X184954557Y-98367540D01*
X184943857Y-98323285D01*
X184935346Y-98161584D01*
X184860469Y-96738920D01*
X191434499Y-96738920D01*
X191463340Y-96883907D01*
X191463343Y-96883917D01*
X191519912Y-97020488D01*
X191519919Y-97020501D01*
X191602048Y-97143415D01*
X191602051Y-97143419D01*
X191706580Y-97247948D01*
X191706584Y-97247951D01*
X191829498Y-97330080D01*
X191829511Y-97330087D01*
X191966082Y-97386656D01*
X191966087Y-97386658D01*
X191966091Y-97386658D01*
X191966092Y-97386659D01*
X192111079Y-97415500D01*
X192111082Y-97415500D01*
X192258920Y-97415500D01*
X192356462Y-97396096D01*
X192403913Y-97386658D01*
X192540495Y-97330084D01*
X192663416Y-97247951D01*
X192767951Y-97143416D01*
X192850084Y-97020495D01*
X192906658Y-96883913D01*
X192921716Y-96808213D01*
X192935500Y-96738920D01*
X192935500Y-96591079D01*
X192911595Y-96470903D01*
X192907750Y-96451577D01*
X209699500Y-96451577D01*
X209699500Y-96648422D01*
X209730290Y-96842826D01*
X209791117Y-97030029D01*
X209852558Y-97150613D01*
X209880476Y-97205405D01*
X209996172Y-97364646D01*
X210135354Y-97503828D01*
X210294595Y-97619524D01*
X210348852Y-97647169D01*
X210469970Y-97708882D01*
X210469972Y-97708882D01*
X210469975Y-97708884D01*
X210534074Y-97729711D01*
X210657173Y-97769709D01*
X210851578Y-97800500D01*
X210851583Y-97800500D01*
X211048422Y-97800500D01*
X211242826Y-97769709D01*
X211430025Y-97708884D01*
X211605405Y-97619524D01*
X211764646Y-97503828D01*
X211903828Y-97364646D01*
X211913631Y-97351153D01*
X214219500Y-97351153D01*
X214219500Y-97508846D01*
X214250261Y-97663489D01*
X214250264Y-97663501D01*
X214310602Y-97809172D01*
X214310609Y-97809185D01*
X214389111Y-97926671D01*
X214409989Y-97993349D01*
X214407626Y-98019753D01*
X214379500Y-98161153D01*
X214379500Y-98318846D01*
X214410261Y-98473489D01*
X214410264Y-98473501D01*
X214470602Y-98619172D01*
X214470609Y-98619185D01*
X214558210Y-98750288D01*
X214558213Y-98750292D01*
X214669707Y-98861786D01*
X214669711Y-98861789D01*
X214800814Y-98949390D01*
X214800827Y-98949397D01*
X214946498Y-99009735D01*
X214946503Y-99009737D01*
X215101153Y-99040499D01*
X215101156Y-99040500D01*
X215101158Y-99040500D01*
X215258844Y-99040500D01*
X215258845Y-99040499D01*
X215413497Y-99009737D01*
X215559179Y-98949394D01*
X215690289Y-98861789D01*
X215801789Y-98750289D01*
X215889394Y-98619179D01*
X215949737Y-98473497D01*
X215980500Y-98318842D01*
X215980500Y-98161158D01*
X215980500Y-98161155D01*
X215980499Y-98161153D01*
X215949737Y-98006503D01*
X215949735Y-98006498D01*
X215889397Y-97860827D01*
X215889390Y-97860814D01*
X215810888Y-97743328D01*
X215790010Y-97676651D01*
X215792373Y-97650245D01*
X215820500Y-97508844D01*
X215820500Y-97351155D01*
X215820499Y-97351153D01*
X215816307Y-97330080D01*
X215789737Y-97196503D01*
X215767748Y-97143416D01*
X215729397Y-97050827D01*
X215729390Y-97050814D01*
X215641789Y-96919711D01*
X215641786Y-96919707D01*
X215530292Y-96808213D01*
X215530288Y-96808210D01*
X215399185Y-96720609D01*
X215399172Y-96720602D01*
X215253501Y-96660264D01*
X215253489Y-96660261D01*
X215098845Y-96629500D01*
X215098842Y-96629500D01*
X214941158Y-96629500D01*
X214941155Y-96629500D01*
X214786510Y-96660261D01*
X214786498Y-96660264D01*
X214640827Y-96720602D01*
X214640814Y-96720609D01*
X214509711Y-96808210D01*
X214509707Y-96808213D01*
X214398213Y-96919707D01*
X214398210Y-96919711D01*
X214310609Y-97050814D01*
X214310602Y-97050827D01*
X214250264Y-97196498D01*
X214250261Y-97196510D01*
X214219500Y-97351153D01*
X211913631Y-97351153D01*
X212019524Y-97205405D01*
X212108884Y-97030025D01*
X212169709Y-96842826D01*
X212175191Y-96808213D01*
X212200500Y-96648422D01*
X212200500Y-96451577D01*
X212169709Y-96257173D01*
X212136702Y-96155591D01*
X212108884Y-96069975D01*
X212108882Y-96069972D01*
X212108882Y-96069970D01*
X212044362Y-95943343D01*
X212019524Y-95894595D01*
X211903828Y-95735354D01*
X211764646Y-95596172D01*
X211605405Y-95480476D01*
X211430029Y-95391117D01*
X211242826Y-95330290D01*
X211048422Y-95299500D01*
X211048417Y-95299500D01*
X210851583Y-95299500D01*
X210851578Y-95299500D01*
X210657173Y-95330290D01*
X210469970Y-95391117D01*
X210294594Y-95480476D01*
X210248094Y-95514261D01*
X210135354Y-95596172D01*
X210135352Y-95596174D01*
X210135351Y-95596174D01*
X209996174Y-95735351D01*
X209996174Y-95735352D01*
X209996172Y-95735354D01*
X209986510Y-95748653D01*
X209880476Y-95894594D01*
X209791117Y-96069970D01*
X209730290Y-96257173D01*
X209699500Y-96451577D01*
X192907750Y-96451577D01*
X192906659Y-96446091D01*
X192906656Y-96446082D01*
X192850087Y-96309511D01*
X192850080Y-96309498D01*
X192767951Y-96186584D01*
X192767948Y-96186580D01*
X192663419Y-96082051D01*
X192663415Y-96082048D01*
X192540501Y-95999919D01*
X192540488Y-95999912D01*
X192403917Y-95943343D01*
X192403907Y-95943340D01*
X192258920Y-95914500D01*
X192258918Y-95914500D01*
X192111082Y-95914500D01*
X191966087Y-95943342D01*
X191939903Y-95954187D01*
X191939901Y-95954188D01*
X191829507Y-95999914D01*
X191829498Y-95999919D01*
X191706584Y-96082048D01*
X191706580Y-96082051D01*
X191602051Y-96186580D01*
X191602048Y-96186584D01*
X191519919Y-96309498D01*
X191519912Y-96309511D01*
X191463343Y-96446082D01*
X191463340Y-96446092D01*
X191434500Y-96591079D01*
X191434500Y-96591082D01*
X191434500Y-96738918D01*
X191434500Y-96738920D01*
X191434499Y-96738920D01*
X184860469Y-96738920D01*
X184850000Y-96540000D01*
X184060313Y-96510752D01*
X183994048Y-96488600D01*
X183950279Y-96434138D01*
X183941030Y-96392438D01*
X183930333Y-96155596D01*
X183919897Y-96082051D01*
X183916744Y-96059830D01*
X183916383Y-96058337D01*
X183905663Y-96013910D01*
X183874087Y-95922496D01*
X183820485Y-95839090D01*
X183796303Y-95801462D01*
X183796300Y-95801458D01*
X183788987Y-95793018D01*
X183765521Y-95765937D01*
X183736497Y-95702384D01*
X183735350Y-95690058D01*
X183707280Y-95033920D01*
X191119499Y-95033920D01*
X191148340Y-95178907D01*
X191148343Y-95178917D01*
X191204912Y-95315488D01*
X191204919Y-95315501D01*
X191287048Y-95438415D01*
X191287051Y-95438419D01*
X191391580Y-95542948D01*
X191391584Y-95542951D01*
X191514498Y-95625080D01*
X191514511Y-95625087D01*
X191624900Y-95670811D01*
X191651087Y-95681658D01*
X191651091Y-95681658D01*
X191651092Y-95681659D01*
X191796079Y-95710500D01*
X191796082Y-95710500D01*
X191893795Y-95710500D01*
X191943918Y-95710500D01*
X192088913Y-95681658D01*
X192225495Y-95625084D01*
X192348416Y-95542951D01*
X192452951Y-95438416D01*
X192535084Y-95315495D01*
X192591658Y-95178913D01*
X192620500Y-95033918D01*
X192620500Y-94886082D01*
X192620500Y-94886079D01*
X192591659Y-94741092D01*
X192591658Y-94741091D01*
X192591658Y-94741087D01*
X192591656Y-94741082D01*
X192535087Y-94604511D01*
X192535080Y-94604498D01*
X192452951Y-94481584D01*
X192452948Y-94481580D01*
X192348419Y-94377051D01*
X192348415Y-94377048D01*
X192225501Y-94294919D01*
X192225488Y-94294912D01*
X192088917Y-94238343D01*
X192088907Y-94238340D01*
X191943920Y-94209500D01*
X191943918Y-94209500D01*
X191796082Y-94209500D01*
X191796080Y-94209500D01*
X191651092Y-94238340D01*
X191651082Y-94238343D01*
X191514511Y-94294912D01*
X191514498Y-94294919D01*
X191391584Y-94377048D01*
X191391580Y-94377051D01*
X191287051Y-94481580D01*
X191287048Y-94481584D01*
X191204919Y-94604498D01*
X191204912Y-94604511D01*
X191148343Y-94741082D01*
X191148340Y-94741092D01*
X191119500Y-94886079D01*
X191119500Y-94886082D01*
X191119500Y-95033918D01*
X191119500Y-95033920D01*
X191119499Y-95033920D01*
X183707280Y-95033920D01*
X183702567Y-94923765D01*
X183710342Y-94892383D01*
X183716744Y-94860677D01*
X183718695Y-94858666D01*
X183719369Y-94855948D01*
X183742878Y-94833748D01*
X183765404Y-94810538D01*
X183768789Y-94809280D01*
X183770169Y-94807978D01*
X183798285Y-94797710D01*
X183800259Y-94797249D01*
X183928913Y-94771658D01*
X184065495Y-94715084D01*
X184188416Y-94632951D01*
X184292951Y-94528416D01*
X184375084Y-94405495D01*
X184431658Y-94268913D01*
X184447904Y-94187240D01*
X184460500Y-94123920D01*
X184460500Y-93976079D01*
X184448392Y-93915211D01*
X184454619Y-93845619D01*
X184497481Y-93790442D01*
X184501083Y-93787941D01*
X184522844Y-93773400D01*
X184589522Y-93752525D01*
X184656902Y-93771011D01*
X184703590Y-93822991D01*
X184715732Y-93876505D01*
X184715732Y-94010150D01*
X184715732Y-94010152D01*
X184715731Y-94010152D01*
X184744572Y-94155139D01*
X184744575Y-94155149D01*
X184801144Y-94291720D01*
X184801151Y-94291733D01*
X184883280Y-94414647D01*
X184883283Y-94414651D01*
X184987812Y-94519180D01*
X184987816Y-94519183D01*
X185110730Y-94601312D01*
X185110743Y-94601319D01*
X185247314Y-94657888D01*
X185247319Y-94657890D01*
X185247323Y-94657890D01*
X185247324Y-94657891D01*
X185392311Y-94686732D01*
X185392314Y-94686732D01*
X185540152Y-94686732D01*
X185637694Y-94667328D01*
X185685145Y-94657890D01*
X185821727Y-94601316D01*
X185944648Y-94519183D01*
X186049183Y-94414648D01*
X186131316Y-94291727D01*
X186177088Y-94181223D01*
X186220926Y-94126823D01*
X186287220Y-94104757D01*
X186303805Y-94105276D01*
X186306079Y-94105500D01*
X186306082Y-94105500D01*
X186453920Y-94105500D01*
X186558112Y-94084774D01*
X186598913Y-94076658D01*
X186735495Y-94020084D01*
X186858416Y-93937951D01*
X186962951Y-93833416D01*
X187045084Y-93710495D01*
X187101658Y-93573913D01*
X187130500Y-93428918D01*
X187130500Y-93423615D01*
X218324500Y-93423615D01*
X218324500Y-93576384D01*
X218354300Y-93726197D01*
X218354302Y-93726205D01*
X218412759Y-93867334D01*
X218412764Y-93867343D01*
X218497629Y-93994351D01*
X218497632Y-93994355D01*
X218605644Y-94102367D01*
X218605648Y-94102370D01*
X218732656Y-94187235D01*
X218732662Y-94187238D01*
X218732663Y-94187239D01*
X218873795Y-94245698D01*
X219023615Y-94275499D01*
X219023619Y-94275500D01*
X219023620Y-94275500D01*
X219176381Y-94275500D01*
X219176382Y-94275499D01*
X219326205Y-94245698D01*
X219467337Y-94187239D01*
X219594352Y-94102370D01*
X219702370Y-93994352D01*
X219787239Y-93867337D01*
X219845698Y-93726205D01*
X219875500Y-93576380D01*
X219875500Y-93423620D01*
X219874202Y-93417094D01*
X219874202Y-93417091D01*
X219870602Y-93398992D01*
X239074500Y-93398992D01*
X239074500Y-93601007D01*
X239113907Y-93799119D01*
X239113909Y-93799127D01*
X239191212Y-93985752D01*
X239191217Y-93985762D01*
X239303441Y-94153718D01*
X239446281Y-94296558D01*
X239614237Y-94408782D01*
X239614241Y-94408784D01*
X239614244Y-94408786D01*
X239800873Y-94486091D01*
X239967224Y-94519180D01*
X239998992Y-94525499D01*
X239998996Y-94525500D01*
X239998997Y-94525500D01*
X240201004Y-94525500D01*
X240201005Y-94525499D01*
X240399127Y-94486091D01*
X240585756Y-94408786D01*
X240753718Y-94296558D01*
X240896558Y-94153718D01*
X240949034Y-94075181D01*
X241008782Y-93985762D01*
X241008782Y-93985761D01*
X241008786Y-93985756D01*
X241086091Y-93799127D01*
X241125500Y-93601003D01*
X241125500Y-93398997D01*
X241086091Y-93200873D01*
X241008786Y-93014244D01*
X241008784Y-93014241D01*
X241008782Y-93014237D01*
X240896558Y-92846281D01*
X240753718Y-92703441D01*
X240585762Y-92591217D01*
X240585752Y-92591212D01*
X240399127Y-92513909D01*
X240399119Y-92513907D01*
X240201007Y-92474500D01*
X240201003Y-92474500D01*
X239998997Y-92474500D01*
X239998992Y-92474500D01*
X239800880Y-92513907D01*
X239800872Y-92513909D01*
X239614247Y-92591212D01*
X239614237Y-92591217D01*
X239446281Y-92703441D01*
X239303441Y-92846281D01*
X239191217Y-93014237D01*
X239191212Y-93014247D01*
X239113909Y-93200872D01*
X239113907Y-93200880D01*
X239074500Y-93398992D01*
X219870602Y-93398992D01*
X219845699Y-93273802D01*
X219845698Y-93273795D01*
X219787239Y-93132663D01*
X219787238Y-93132662D01*
X219787235Y-93132656D01*
X219702370Y-93005648D01*
X219702367Y-93005644D01*
X219594355Y-92897632D01*
X219594351Y-92897629D01*
X219467343Y-92812764D01*
X219467334Y-92812759D01*
X219326205Y-92754302D01*
X219326197Y-92754300D01*
X219176384Y-92724500D01*
X219176380Y-92724500D01*
X219023620Y-92724500D01*
X219023615Y-92724500D01*
X218873802Y-92754300D01*
X218873794Y-92754302D01*
X218732665Y-92812759D01*
X218732656Y-92812764D01*
X218605648Y-92897629D01*
X218605644Y-92897632D01*
X218497632Y-93005644D01*
X218497629Y-93005648D01*
X218412764Y-93132656D01*
X218412759Y-93132665D01*
X218354302Y-93273794D01*
X218354300Y-93273802D01*
X218324500Y-93423615D01*
X187130500Y-93423615D01*
X187130500Y-93281082D01*
X187130500Y-93281079D01*
X187101659Y-93136092D01*
X187101658Y-93136091D01*
X187101658Y-93136087D01*
X187089230Y-93106082D01*
X187045087Y-92999511D01*
X187045080Y-92999498D01*
X186962951Y-92876584D01*
X186962948Y-92876580D01*
X186858419Y-92772051D01*
X186858415Y-92772048D01*
X186735501Y-92689919D01*
X186735488Y-92689912D01*
X186598917Y-92633343D01*
X186598907Y-92633340D01*
X186453920Y-92604500D01*
X186453918Y-92604500D01*
X186306082Y-92604500D01*
X186306080Y-92604500D01*
X186161092Y-92633340D01*
X186161082Y-92633343D01*
X186024511Y-92689912D01*
X186024498Y-92689919D01*
X185901584Y-92772048D01*
X185901580Y-92772051D01*
X185797051Y-92876580D01*
X185797048Y-92876584D01*
X185714919Y-92999498D01*
X185714914Y-92999508D01*
X185669144Y-93110006D01*
X185625302Y-93164410D01*
X185559008Y-93186474D01*
X185542436Y-93185957D01*
X185540150Y-93185732D01*
X185392314Y-93185732D01*
X185392312Y-93185732D01*
X185247324Y-93214572D01*
X185247314Y-93214575D01*
X185110743Y-93271144D01*
X185110725Y-93271154D01*
X185033390Y-93322828D01*
X184966713Y-93343706D01*
X184899333Y-93325221D01*
X184852643Y-93273242D01*
X184840500Y-93219726D01*
X184840500Y-93086079D01*
X184811659Y-92941092D01*
X184811658Y-92941091D01*
X184811658Y-92941087D01*
X184811656Y-92941082D01*
X184755087Y-92804511D01*
X184755080Y-92804498D01*
X184672951Y-92681584D01*
X184672948Y-92681580D01*
X184568419Y-92577051D01*
X184568415Y-92577048D01*
X184445501Y-92494919D01*
X184445488Y-92494912D01*
X184308917Y-92438343D01*
X184308907Y-92438340D01*
X184163920Y-92409500D01*
X184163918Y-92409500D01*
X184016082Y-92409500D01*
X184016080Y-92409500D01*
X183871092Y-92438340D01*
X183871082Y-92438343D01*
X183734511Y-92494912D01*
X183734498Y-92494919D01*
X183611584Y-92577048D01*
X183611580Y-92577051D01*
X183507051Y-92681580D01*
X183507044Y-92681589D01*
X183491038Y-92705543D01*
X183437425Y-92750347D01*
X183388301Y-92760649D01*
X173370000Y-92789999D01*
X173369999Y-92790000D01*
X173312427Y-95649427D01*
X173291397Y-95716057D01*
X173237682Y-95760739D01*
X173189406Y-95770927D01*
X164328190Y-95839090D01*
X164261001Y-95819922D01*
X164214841Y-95767472D01*
X164203428Y-95721989D01*
X163980000Y-91710000D01*
X156070660Y-91464944D01*
X156004262Y-91443192D01*
X155960165Y-91388997D01*
X155950500Y-91341003D01*
X155950500Y-89973920D01*
X159849499Y-89973920D01*
X159878340Y-90118907D01*
X159878343Y-90118917D01*
X159934912Y-90255488D01*
X159934919Y-90255501D01*
X160017048Y-90378415D01*
X160017051Y-90378419D01*
X160121580Y-90482948D01*
X160121584Y-90482951D01*
X160244498Y-90565080D01*
X160244511Y-90565087D01*
X160381082Y-90621656D01*
X160381087Y-90621658D01*
X160381091Y-90621658D01*
X160381092Y-90621659D01*
X160526079Y-90650500D01*
X160526082Y-90650500D01*
X160673920Y-90650500D01*
X160771462Y-90631096D01*
X160818913Y-90621658D01*
X160955495Y-90565084D01*
X161078416Y-90482951D01*
X161182951Y-90378416D01*
X161265084Y-90255495D01*
X161321658Y-90118913D01*
X161344301Y-90005084D01*
X161345527Y-89998920D01*
X162374499Y-89998920D01*
X162403340Y-90143907D01*
X162403343Y-90143917D01*
X162459912Y-90280488D01*
X162459919Y-90280501D01*
X162542048Y-90403415D01*
X162542051Y-90403419D01*
X162646580Y-90507948D01*
X162646584Y-90507951D01*
X162769498Y-90590080D01*
X162769511Y-90590087D01*
X162890206Y-90640080D01*
X162906087Y-90646658D01*
X162906091Y-90646658D01*
X162906092Y-90646659D01*
X163051079Y-90675500D01*
X163051082Y-90675500D01*
X163198920Y-90675500D01*
X163324598Y-90650500D01*
X163343913Y-90646658D01*
X163480495Y-90590084D01*
X163603416Y-90507951D01*
X163707951Y-90403416D01*
X163790084Y-90280495D01*
X163846658Y-90143913D01*
X163865554Y-90048920D01*
X164774499Y-90048920D01*
X164803340Y-90193907D01*
X164803343Y-90193917D01*
X164859912Y-90330488D01*
X164859919Y-90330501D01*
X164942048Y-90453415D01*
X164942051Y-90453419D01*
X165046580Y-90557948D01*
X165046584Y-90557951D01*
X165169498Y-90640080D01*
X165169511Y-90640087D01*
X165306082Y-90696656D01*
X165306087Y-90696658D01*
X165306091Y-90696658D01*
X165306092Y-90696659D01*
X165451079Y-90725500D01*
X165503159Y-90725500D01*
X165570198Y-90745185D01*
X165615953Y-90797989D01*
X165624776Y-90825308D01*
X165653340Y-90968907D01*
X165653343Y-90968917D01*
X165709912Y-91105488D01*
X165709919Y-91105501D01*
X165792048Y-91228415D01*
X165792051Y-91228419D01*
X165863451Y-91299819D01*
X165896936Y-91361142D01*
X165891952Y-91430834D01*
X165863451Y-91475181D01*
X165842051Y-91496580D01*
X165842048Y-91496584D01*
X165759919Y-91619498D01*
X165759912Y-91619511D01*
X165703343Y-91756082D01*
X165703340Y-91756092D01*
X165674500Y-91901079D01*
X165674500Y-91901082D01*
X165674500Y-92048918D01*
X165674500Y-92048920D01*
X165674499Y-92048920D01*
X165703340Y-92193907D01*
X165703343Y-92193917D01*
X165759912Y-92330488D01*
X165759919Y-92330501D01*
X165842048Y-92453415D01*
X165842051Y-92453419D01*
X165946580Y-92557948D01*
X165946586Y-92557953D01*
X165961285Y-92567775D01*
X166006090Y-92621388D01*
X166014796Y-92690713D01*
X165984640Y-92753740D01*
X165980075Y-92758557D01*
X165892048Y-92846584D01*
X165809919Y-92969498D01*
X165809912Y-92969511D01*
X165753343Y-93106082D01*
X165753340Y-93106092D01*
X165724500Y-93251079D01*
X165724500Y-93251082D01*
X165724500Y-93398918D01*
X165724500Y-93398920D01*
X165724499Y-93398920D01*
X165753340Y-93543907D01*
X165753343Y-93543917D01*
X165809912Y-93680488D01*
X165809919Y-93680501D01*
X165892048Y-93803415D01*
X165892051Y-93803419D01*
X165988451Y-93899819D01*
X166021936Y-93961142D01*
X166016952Y-94030834D01*
X165988451Y-94075181D01*
X165917051Y-94146580D01*
X165917048Y-94146584D01*
X165834919Y-94269498D01*
X165834912Y-94269511D01*
X165778343Y-94406082D01*
X165778340Y-94406092D01*
X165749500Y-94551079D01*
X165749500Y-94551082D01*
X165749500Y-94698918D01*
X165749500Y-94698920D01*
X165749499Y-94698920D01*
X165778340Y-94843907D01*
X165778343Y-94843917D01*
X165834912Y-94980488D01*
X165834919Y-94980501D01*
X165917048Y-95103415D01*
X165917051Y-95103419D01*
X166021580Y-95207948D01*
X166021584Y-95207951D01*
X166144498Y-95290080D01*
X166144511Y-95290087D01*
X166241571Y-95330290D01*
X166281087Y-95346658D01*
X166281091Y-95346658D01*
X166281092Y-95346659D01*
X166426079Y-95375500D01*
X166426082Y-95375500D01*
X166573920Y-95375500D01*
X166671462Y-95356096D01*
X166718913Y-95346658D01*
X166855495Y-95290084D01*
X166978416Y-95207951D01*
X167082951Y-95103416D01*
X167165084Y-94980495D01*
X167221658Y-94843913D01*
X167247284Y-94715087D01*
X167250500Y-94698920D01*
X167250500Y-94551079D01*
X167221659Y-94406092D01*
X167221658Y-94406091D01*
X167221658Y-94406087D01*
X167175608Y-94294912D01*
X167165087Y-94269511D01*
X167165080Y-94269498D01*
X167082951Y-94146584D01*
X167082948Y-94146580D01*
X166986548Y-94050180D01*
X166953063Y-93988857D01*
X166958047Y-93919165D01*
X166986547Y-93874819D01*
X167057951Y-93803416D01*
X167140084Y-93680495D01*
X167196658Y-93543913D01*
X167219532Y-93428920D01*
X167225500Y-93398920D01*
X167225500Y-93251079D01*
X167196659Y-93106092D01*
X167196658Y-93106091D01*
X167196658Y-93106087D01*
X167188372Y-93086082D01*
X167140087Y-92969511D01*
X167140080Y-92969498D01*
X167057951Y-92846584D01*
X167057948Y-92846580D01*
X166953419Y-92742051D01*
X166953414Y-92742047D01*
X166938712Y-92732223D01*
X166893909Y-92678610D01*
X166885203Y-92609285D01*
X166915360Y-92546258D01*
X166919906Y-92541460D01*
X167007951Y-92453416D01*
X167090084Y-92330495D01*
X167146658Y-92193913D01*
X167175500Y-92048918D01*
X167175500Y-91901082D01*
X167175500Y-91901079D01*
X167160151Y-91823920D01*
X201139499Y-91823920D01*
X201168340Y-91968907D01*
X201168343Y-91968917D01*
X201224912Y-92105488D01*
X201224919Y-92105501D01*
X201307048Y-92228415D01*
X201307051Y-92228419D01*
X201411580Y-92332948D01*
X201411584Y-92332951D01*
X201534498Y-92415080D01*
X201534511Y-92415087D01*
X201627054Y-92453419D01*
X201671087Y-92471658D01*
X201671091Y-92471658D01*
X201671092Y-92471659D01*
X201816079Y-92500500D01*
X201816082Y-92500500D01*
X201963920Y-92500500D01*
X202061462Y-92481096D01*
X202108913Y-92471658D01*
X202245495Y-92415084D01*
X202368416Y-92332951D01*
X202472951Y-92228416D01*
X202555084Y-92105495D01*
X202611658Y-91968913D01*
X202640500Y-91823918D01*
X202640500Y-91676082D01*
X202640500Y-91676079D01*
X202611659Y-91531092D01*
X202611658Y-91531091D01*
X202611658Y-91531087D01*
X202611656Y-91531082D01*
X202555087Y-91394511D01*
X202555080Y-91394498D01*
X202472951Y-91271584D01*
X202472948Y-91271580D01*
X202368419Y-91167051D01*
X202368415Y-91167048D01*
X202245501Y-91084919D01*
X202245488Y-91084912D01*
X202108917Y-91028343D01*
X202108907Y-91028340D01*
X201963920Y-90999500D01*
X201963918Y-90999500D01*
X201816082Y-90999500D01*
X201816080Y-90999500D01*
X201671092Y-91028340D01*
X201671082Y-91028343D01*
X201534511Y-91084912D01*
X201534498Y-91084919D01*
X201411584Y-91167048D01*
X201411580Y-91167051D01*
X201307051Y-91271580D01*
X201307048Y-91271584D01*
X201224919Y-91394498D01*
X201224912Y-91394511D01*
X201168343Y-91531082D01*
X201168340Y-91531092D01*
X201139500Y-91676079D01*
X201139500Y-91676082D01*
X201139500Y-91823918D01*
X201139500Y-91823920D01*
X201139499Y-91823920D01*
X167160151Y-91823920D01*
X167146659Y-91756092D01*
X167146658Y-91756091D01*
X167146658Y-91756087D01*
X167113518Y-91676079D01*
X167090087Y-91619511D01*
X167090080Y-91619498D01*
X167007951Y-91496584D01*
X167007948Y-91496580D01*
X166936549Y-91425181D01*
X166903064Y-91363858D01*
X166908048Y-91294166D01*
X166936549Y-91249819D01*
X166957948Y-91228419D01*
X166957951Y-91228416D01*
X167040084Y-91105495D01*
X167096658Y-90968913D01*
X167125500Y-90823918D01*
X167125500Y-90676082D01*
X167125500Y-90676079D01*
X167096659Y-90531092D01*
X167096658Y-90531091D01*
X167096658Y-90531087D01*
X167087074Y-90507948D01*
X167040087Y-90394511D01*
X167040080Y-90394498D01*
X166957951Y-90271584D01*
X166957948Y-90271580D01*
X166853419Y-90167051D01*
X166853415Y-90167048D01*
X166730501Y-90084919D01*
X166730488Y-90084912D01*
X166593917Y-90028343D01*
X166593907Y-90028340D01*
X166448920Y-89999500D01*
X166448918Y-89999500D01*
X166396841Y-89999500D01*
X166329802Y-89979815D01*
X166284047Y-89927011D01*
X166275224Y-89899692D01*
X166246659Y-89756092D01*
X166246658Y-89756091D01*
X166246658Y-89756087D01*
X166246656Y-89756082D01*
X166190087Y-89619511D01*
X166190080Y-89619498D01*
X166107951Y-89496584D01*
X166107948Y-89496580D01*
X166025288Y-89413920D01*
X241189499Y-89413920D01*
X241218340Y-89558907D01*
X241218343Y-89558917D01*
X241274912Y-89695488D01*
X241274919Y-89695501D01*
X241357048Y-89818415D01*
X241357051Y-89818419D01*
X241461580Y-89922948D01*
X241461584Y-89922951D01*
X241584498Y-90005080D01*
X241584511Y-90005087D01*
X241721082Y-90061656D01*
X241721087Y-90061658D01*
X241721091Y-90061658D01*
X241721092Y-90061659D01*
X241866079Y-90090500D01*
X241866082Y-90090500D01*
X242013920Y-90090500D01*
X242111462Y-90071096D01*
X242158913Y-90061658D01*
X242295495Y-90005084D01*
X242418416Y-89922951D01*
X242522951Y-89818416D01*
X242605084Y-89695495D01*
X242661658Y-89558913D01*
X242690500Y-89413918D01*
X242690500Y-89266082D01*
X242690500Y-89266079D01*
X242661659Y-89121092D01*
X242661658Y-89121091D01*
X242661658Y-89121087D01*
X242638459Y-89065080D01*
X242605087Y-88984511D01*
X242605080Y-88984498D01*
X242522951Y-88861584D01*
X242522948Y-88861580D01*
X242418419Y-88757051D01*
X242418415Y-88757048D01*
X242295501Y-88674919D01*
X242295488Y-88674912D01*
X242158917Y-88618343D01*
X242158907Y-88618340D01*
X242013920Y-88589500D01*
X242013918Y-88589500D01*
X241866082Y-88589500D01*
X241866080Y-88589500D01*
X241721092Y-88618340D01*
X241721082Y-88618343D01*
X241584511Y-88674912D01*
X241584498Y-88674919D01*
X241461584Y-88757048D01*
X241461580Y-88757051D01*
X241357051Y-88861580D01*
X241357048Y-88861584D01*
X241274919Y-88984498D01*
X241274912Y-88984511D01*
X241218343Y-89121082D01*
X241218340Y-89121092D01*
X241189500Y-89266079D01*
X241189500Y-89266082D01*
X241189500Y-89413918D01*
X241189500Y-89413920D01*
X241189499Y-89413920D01*
X166025288Y-89413920D01*
X166003419Y-89392051D01*
X166003415Y-89392048D01*
X165880501Y-89309919D01*
X165880488Y-89309912D01*
X165743917Y-89253343D01*
X165743907Y-89253340D01*
X165598920Y-89224500D01*
X165598918Y-89224500D01*
X165451082Y-89224500D01*
X165451080Y-89224500D01*
X165306092Y-89253340D01*
X165306082Y-89253343D01*
X165169511Y-89309912D01*
X165169498Y-89309919D01*
X165046584Y-89392048D01*
X165046580Y-89392051D01*
X164942051Y-89496580D01*
X164942048Y-89496584D01*
X164859919Y-89619498D01*
X164859912Y-89619511D01*
X164803343Y-89756082D01*
X164803340Y-89756092D01*
X164774500Y-89901079D01*
X164774500Y-89901082D01*
X164774500Y-90048918D01*
X164774500Y-90048920D01*
X164774499Y-90048920D01*
X163865554Y-90048920D01*
X163869647Y-90028342D01*
X163875500Y-89998920D01*
X163875500Y-89851079D01*
X163846659Y-89706092D01*
X163846658Y-89706091D01*
X163846658Y-89706087D01*
X163810792Y-89619498D01*
X163790087Y-89569511D01*
X163790080Y-89569498D01*
X163707951Y-89446584D01*
X163707948Y-89446580D01*
X163603419Y-89342051D01*
X163603415Y-89342048D01*
X163480501Y-89259919D01*
X163480488Y-89259912D01*
X163343917Y-89203343D01*
X163343907Y-89203340D01*
X163198920Y-89174500D01*
X163198918Y-89174500D01*
X163051082Y-89174500D01*
X163051080Y-89174500D01*
X162906092Y-89203340D01*
X162906082Y-89203343D01*
X162769511Y-89259912D01*
X162769498Y-89259919D01*
X162646584Y-89342048D01*
X162646580Y-89342051D01*
X162542051Y-89446580D01*
X162542048Y-89446584D01*
X162459919Y-89569498D01*
X162459912Y-89569511D01*
X162403343Y-89706082D01*
X162403340Y-89706092D01*
X162374500Y-89851079D01*
X162374500Y-89851082D01*
X162374500Y-89998918D01*
X162374500Y-89998920D01*
X162374499Y-89998920D01*
X161345527Y-89998920D01*
X161350500Y-89973920D01*
X161350500Y-89826079D01*
X161321659Y-89681092D01*
X161321658Y-89681091D01*
X161321658Y-89681087D01*
X161321656Y-89681082D01*
X161265087Y-89544511D01*
X161265080Y-89544498D01*
X161182951Y-89421584D01*
X161182948Y-89421580D01*
X161078419Y-89317051D01*
X161078415Y-89317048D01*
X160955501Y-89234919D01*
X160955488Y-89234912D01*
X160818917Y-89178343D01*
X160818907Y-89178340D01*
X160673920Y-89149500D01*
X160673918Y-89149500D01*
X160526082Y-89149500D01*
X160526080Y-89149500D01*
X160381092Y-89178340D01*
X160381082Y-89178343D01*
X160244511Y-89234912D01*
X160244498Y-89234919D01*
X160121584Y-89317048D01*
X160121580Y-89317051D01*
X160017051Y-89421580D01*
X160017048Y-89421584D01*
X159934919Y-89544498D01*
X159934912Y-89544511D01*
X159878343Y-89681082D01*
X159878340Y-89681092D01*
X159849500Y-89826079D01*
X159849500Y-89826082D01*
X159849500Y-89973918D01*
X159849500Y-89973920D01*
X159849499Y-89973920D01*
X155950500Y-89973920D01*
X155950500Y-88473920D01*
X219879499Y-88473920D01*
X219908340Y-88618907D01*
X219908343Y-88618917D01*
X219964912Y-88755488D01*
X219964919Y-88755501D01*
X220047048Y-88878415D01*
X220047051Y-88878419D01*
X220151580Y-88982948D01*
X220151584Y-88982951D01*
X220274498Y-89065080D01*
X220274511Y-89065087D01*
X220411082Y-89121656D01*
X220411087Y-89121658D01*
X220411091Y-89121658D01*
X220411092Y-89121659D01*
X220556079Y-89150500D01*
X220556082Y-89150500D01*
X220703920Y-89150500D01*
X220764885Y-89138373D01*
X220820811Y-89127247D01*
X220848913Y-89121658D01*
X220985495Y-89065084D01*
X221108416Y-88982951D01*
X221212951Y-88878416D01*
X221295084Y-88755495D01*
X221351658Y-88618913D01*
X221380500Y-88473918D01*
X221380500Y-88326082D01*
X221380500Y-88326079D01*
X221351659Y-88181092D01*
X221351658Y-88181091D01*
X221351658Y-88181087D01*
X221306332Y-88071659D01*
X221295087Y-88044511D01*
X221295080Y-88044498D01*
X221212951Y-87921584D01*
X221212948Y-87921580D01*
X221108419Y-87817051D01*
X221108415Y-87817048D01*
X220985501Y-87734919D01*
X220985488Y-87734912D01*
X220848917Y-87678343D01*
X220848907Y-87678340D01*
X220703920Y-87649500D01*
X220703918Y-87649500D01*
X220556082Y-87649500D01*
X220556080Y-87649500D01*
X220411092Y-87678340D01*
X220411082Y-87678343D01*
X220274511Y-87734912D01*
X220274498Y-87734919D01*
X220151584Y-87817048D01*
X220151580Y-87817051D01*
X220047051Y-87921580D01*
X220047048Y-87921584D01*
X219964919Y-88044498D01*
X219964912Y-88044511D01*
X219908343Y-88181082D01*
X219908340Y-88181092D01*
X219879500Y-88326079D01*
X219879500Y-88326082D01*
X219879500Y-88473918D01*
X219879500Y-88473920D01*
X219879499Y-88473920D01*
X155950500Y-88473920D01*
X155950500Y-86923920D01*
X201799499Y-86923920D01*
X201828340Y-87068907D01*
X201828343Y-87068917D01*
X201884912Y-87205488D01*
X201884919Y-87205501D01*
X201967048Y-87328415D01*
X201967051Y-87328419D01*
X202071580Y-87432948D01*
X202071584Y-87432951D01*
X202194498Y-87515080D01*
X202194511Y-87515087D01*
X202331082Y-87571656D01*
X202331087Y-87571658D01*
X202331091Y-87571658D01*
X202331092Y-87571659D01*
X202476079Y-87600500D01*
X202476082Y-87600500D01*
X202623920Y-87600500D01*
X202721462Y-87581096D01*
X202768913Y-87571658D01*
X202905495Y-87515084D01*
X203028416Y-87432951D01*
X203037447Y-87423920D01*
X241399499Y-87423920D01*
X241428340Y-87568907D01*
X241428343Y-87568917D01*
X241484912Y-87705488D01*
X241484919Y-87705501D01*
X241567048Y-87828415D01*
X241567051Y-87828419D01*
X241671580Y-87932948D01*
X241671584Y-87932951D01*
X241794498Y-88015080D01*
X241794511Y-88015087D01*
X241865548Y-88044511D01*
X241931087Y-88071658D01*
X241931091Y-88071658D01*
X241931092Y-88071659D01*
X242076079Y-88100500D01*
X242076082Y-88100500D01*
X242223920Y-88100500D01*
X242321462Y-88081096D01*
X242368913Y-88071658D01*
X242505495Y-88015084D01*
X242628416Y-87932951D01*
X242732951Y-87828416D01*
X242815084Y-87705495D01*
X242871658Y-87568913D01*
X242882366Y-87515080D01*
X242900500Y-87423920D01*
X242900500Y-87276079D01*
X242871659Y-87131092D01*
X242871658Y-87131091D01*
X242871658Y-87131087D01*
X242871656Y-87131082D01*
X242815087Y-86994511D01*
X242815080Y-86994498D01*
X242732951Y-86871584D01*
X242732948Y-86871580D01*
X242628419Y-86767051D01*
X242628415Y-86767048D01*
X242505501Y-86684919D01*
X242505488Y-86684912D01*
X242368917Y-86628343D01*
X242368907Y-86628340D01*
X242223920Y-86599500D01*
X242223918Y-86599500D01*
X242076082Y-86599500D01*
X242076080Y-86599500D01*
X241931092Y-86628340D01*
X241931082Y-86628343D01*
X241794511Y-86684912D01*
X241794498Y-86684919D01*
X241671584Y-86767048D01*
X241671580Y-86767051D01*
X241567051Y-86871580D01*
X241567048Y-86871584D01*
X241484919Y-86994498D01*
X241484912Y-86994511D01*
X241428343Y-87131082D01*
X241428340Y-87131092D01*
X241399500Y-87276079D01*
X241399500Y-87276082D01*
X241399500Y-87423918D01*
X241399500Y-87423920D01*
X241399499Y-87423920D01*
X203037447Y-87423920D01*
X203132951Y-87328416D01*
X203215084Y-87205495D01*
X203271658Y-87068913D01*
X203286459Y-86994505D01*
X203300500Y-86923920D01*
X203300500Y-86776079D01*
X203271659Y-86631092D01*
X203271658Y-86631091D01*
X203271658Y-86631087D01*
X203258574Y-86599500D01*
X203215087Y-86494511D01*
X203215080Y-86494498D01*
X203132951Y-86371584D01*
X203132948Y-86371580D01*
X203028419Y-86267051D01*
X203028415Y-86267048D01*
X202905501Y-86184919D01*
X202905488Y-86184912D01*
X202768917Y-86128343D01*
X202768907Y-86128340D01*
X202623920Y-86099500D01*
X202623918Y-86099500D01*
X202476082Y-86099500D01*
X202476080Y-86099500D01*
X202331092Y-86128340D01*
X202331082Y-86128343D01*
X202194511Y-86184912D01*
X202194498Y-86184919D01*
X202071584Y-86267048D01*
X202071580Y-86267051D01*
X201967051Y-86371580D01*
X201967048Y-86371584D01*
X201884919Y-86494498D01*
X201884912Y-86494511D01*
X201828343Y-86631082D01*
X201828340Y-86631092D01*
X201799500Y-86776079D01*
X201799500Y-86776082D01*
X201799500Y-86923918D01*
X201799500Y-86923920D01*
X201799499Y-86923920D01*
X155950500Y-86923920D01*
X155950500Y-85453920D01*
X224199499Y-85453920D01*
X224228340Y-85598907D01*
X224228343Y-85598917D01*
X224284912Y-85735488D01*
X224284919Y-85735501D01*
X224367048Y-85858415D01*
X224367051Y-85858419D01*
X224471580Y-85962948D01*
X224471584Y-85962951D01*
X224594498Y-86045080D01*
X224594511Y-86045087D01*
X224725877Y-86099500D01*
X224731087Y-86101658D01*
X224731091Y-86101658D01*
X224731092Y-86101659D01*
X224876079Y-86130500D01*
X224876082Y-86130500D01*
X225023920Y-86130500D01*
X225121462Y-86111096D01*
X225168913Y-86101658D01*
X225305495Y-86045084D01*
X225428416Y-85962951D01*
X225532951Y-85858416D01*
X225615084Y-85735495D01*
X225671658Y-85598913D01*
X225672651Y-85593920D01*
X232439499Y-85593920D01*
X232468340Y-85738907D01*
X232468343Y-85738917D01*
X232524912Y-85875488D01*
X232524919Y-85875501D01*
X232607048Y-85998415D01*
X232607051Y-85998419D01*
X232711580Y-86102948D01*
X232711584Y-86102951D01*
X232834498Y-86185080D01*
X232834511Y-86185087D01*
X232971082Y-86241656D01*
X232971087Y-86241658D01*
X232971091Y-86241658D01*
X232971092Y-86241659D01*
X233116079Y-86270500D01*
X233116082Y-86270500D01*
X233263920Y-86270500D01*
X233361462Y-86251096D01*
X233408913Y-86241658D01*
X233545495Y-86185084D01*
X233668416Y-86102951D01*
X233772951Y-85998416D01*
X233855084Y-85875495D01*
X233911658Y-85738913D01*
X233939506Y-85598917D01*
X233940500Y-85593920D01*
X233940500Y-85446079D01*
X233911659Y-85301092D01*
X233911658Y-85301091D01*
X233911658Y-85301087D01*
X233911656Y-85301082D01*
X233855087Y-85164511D01*
X233855080Y-85164498D01*
X233772951Y-85041584D01*
X233772948Y-85041580D01*
X233668419Y-84937051D01*
X233668415Y-84937048D01*
X233545501Y-84854919D01*
X233545488Y-84854912D01*
X233408917Y-84798343D01*
X233408907Y-84798340D01*
X233263920Y-84769500D01*
X233263918Y-84769500D01*
X233116082Y-84769500D01*
X233116080Y-84769500D01*
X232971092Y-84798340D01*
X232971082Y-84798343D01*
X232834511Y-84854912D01*
X232834498Y-84854919D01*
X232711584Y-84937048D01*
X232711580Y-84937051D01*
X232607051Y-85041580D01*
X232607048Y-85041584D01*
X232524919Y-85164498D01*
X232524912Y-85164511D01*
X232468343Y-85301082D01*
X232468340Y-85301092D01*
X232439500Y-85446079D01*
X232439500Y-85446082D01*
X232439500Y-85593918D01*
X232439500Y-85593920D01*
X232439499Y-85593920D01*
X225672651Y-85593920D01*
X225700500Y-85453918D01*
X225700500Y-85306082D01*
X225700500Y-85306079D01*
X225671659Y-85161092D01*
X225671658Y-85161091D01*
X225671658Y-85161087D01*
X225671656Y-85161082D01*
X225615087Y-85024511D01*
X225615080Y-85024498D01*
X225532951Y-84901584D01*
X225532948Y-84901580D01*
X225428419Y-84797051D01*
X225428415Y-84797048D01*
X225305501Y-84714919D01*
X225305488Y-84714912D01*
X225168917Y-84658343D01*
X225168907Y-84658340D01*
X225023920Y-84629500D01*
X225023918Y-84629500D01*
X224876082Y-84629500D01*
X224876080Y-84629500D01*
X224731092Y-84658340D01*
X224731082Y-84658343D01*
X224594511Y-84714912D01*
X224594498Y-84714919D01*
X224471584Y-84797048D01*
X224471580Y-84797051D01*
X224367051Y-84901580D01*
X224367048Y-84901584D01*
X224284919Y-85024498D01*
X224284912Y-85024511D01*
X224228343Y-85161082D01*
X224228340Y-85161092D01*
X224199500Y-85306079D01*
X224199500Y-85306082D01*
X224199500Y-85453918D01*
X224199500Y-85453920D01*
X224199499Y-85453920D01*
X155950500Y-85453920D01*
X155950500Y-84593920D01*
X188129499Y-84593920D01*
X188158340Y-84738907D01*
X188158343Y-84738917D01*
X188214912Y-84875488D01*
X188214919Y-84875501D01*
X188297048Y-84998415D01*
X188297051Y-84998419D01*
X188401580Y-85102948D01*
X188401584Y-85102951D01*
X188524498Y-85185080D01*
X188524511Y-85185087D01*
X188661082Y-85241656D01*
X188661087Y-85241658D01*
X188661091Y-85241658D01*
X188661092Y-85241659D01*
X188806079Y-85270500D01*
X188806082Y-85270500D01*
X188953920Y-85270500D01*
X189051462Y-85251096D01*
X189098913Y-85241658D01*
X189234660Y-85185430D01*
X189234661Y-85185430D01*
X189235099Y-85185247D01*
X189235495Y-85185084D01*
X189358416Y-85102951D01*
X189462951Y-84998416D01*
X189545084Y-84875495D01*
X189601658Y-84738913D01*
X189630500Y-84593918D01*
X189630500Y-84446082D01*
X189630500Y-84446079D01*
X189601659Y-84301092D01*
X189601658Y-84301091D01*
X189601658Y-84301087D01*
X189601656Y-84301082D01*
X189545087Y-84164511D01*
X189545080Y-84164498D01*
X189462951Y-84041584D01*
X189462948Y-84041580D01*
X189358419Y-83937051D01*
X189358415Y-83937048D01*
X189235501Y-83854919D01*
X189235488Y-83854912D01*
X189098917Y-83798343D01*
X189098907Y-83798340D01*
X188953920Y-83769500D01*
X188953918Y-83769500D01*
X188806082Y-83769500D01*
X188806080Y-83769500D01*
X188661092Y-83798340D01*
X188661082Y-83798343D01*
X188524511Y-83854912D01*
X188524498Y-83854919D01*
X188401584Y-83937048D01*
X188401580Y-83937051D01*
X188297051Y-84041580D01*
X188297048Y-84041584D01*
X188214919Y-84164498D01*
X188214912Y-84164511D01*
X188158343Y-84301082D01*
X188158340Y-84301092D01*
X188129500Y-84446079D01*
X188129500Y-84446082D01*
X188129500Y-84593918D01*
X188129500Y-84593920D01*
X188129499Y-84593920D01*
X155950500Y-84593920D01*
X155950500Y-80063920D01*
X187489499Y-80063920D01*
X187518340Y-80208907D01*
X187518343Y-80208917D01*
X187574912Y-80345488D01*
X187574919Y-80345501D01*
X187657048Y-80468415D01*
X187657051Y-80468419D01*
X187761580Y-80572948D01*
X187761584Y-80572951D01*
X187884498Y-80655080D01*
X187884511Y-80655087D01*
X188013856Y-80708663D01*
X188021087Y-80711658D01*
X188021091Y-80711658D01*
X188021092Y-80711659D01*
X188166079Y-80740500D01*
X188166082Y-80740500D01*
X188313920Y-80740500D01*
X188411462Y-80721096D01*
X188458913Y-80711658D01*
X188582929Y-80660289D01*
X188595488Y-80655087D01*
X188595488Y-80655086D01*
X188595495Y-80655084D01*
X188718416Y-80572951D01*
X188822951Y-80468416D01*
X188872728Y-80393920D01*
X228449499Y-80393920D01*
X228478340Y-80538907D01*
X228478343Y-80538917D01*
X228534912Y-80675488D01*
X228534919Y-80675501D01*
X228587054Y-80753526D01*
X228607932Y-80820204D01*
X228589447Y-80887584D01*
X228587056Y-80891304D01*
X228564898Y-80924467D01*
X228564889Y-80924483D01*
X228508317Y-81061061D01*
X228508315Y-81061067D01*
X228479475Y-81206054D01*
X228479475Y-81206057D01*
X228479475Y-81353893D01*
X228479475Y-81353895D01*
X228479474Y-81353895D01*
X228508315Y-81498882D01*
X228508318Y-81498892D01*
X228564887Y-81635463D01*
X228564894Y-81635476D01*
X228647023Y-81758390D01*
X228647026Y-81758394D01*
X228751555Y-81862923D01*
X228751559Y-81862926D01*
X228874473Y-81945055D01*
X228874486Y-81945062D01*
X229011057Y-82001631D01*
X229011062Y-82001633D01*
X229011066Y-82001633D01*
X229011067Y-82001634D01*
X229156054Y-82030475D01*
X229156057Y-82030475D01*
X229303895Y-82030475D01*
X229401437Y-82011071D01*
X229448888Y-82001633D01*
X229585470Y-81945059D01*
X229708391Y-81862926D01*
X229812926Y-81758391D01*
X229895059Y-81635470D01*
X229951633Y-81498888D01*
X229980475Y-81353893D01*
X229980475Y-81206057D01*
X229980475Y-81206054D01*
X229951634Y-81061067D01*
X229951633Y-81061066D01*
X229951633Y-81061062D01*
X229905837Y-80950500D01*
X229895062Y-80924486D01*
X229895060Y-80924482D01*
X229895059Y-80924480D01*
X229842918Y-80846446D01*
X229822041Y-80779770D01*
X229840525Y-80712390D01*
X229842877Y-80708729D01*
X229865084Y-80675495D01*
X229921658Y-80538913D01*
X229931096Y-80491462D01*
X229950500Y-80393920D01*
X229950500Y-80246079D01*
X229926472Y-80125288D01*
X229921658Y-80101087D01*
X229909259Y-80071153D01*
X230539500Y-80071153D01*
X230539500Y-80228846D01*
X230570261Y-80383489D01*
X230570264Y-80383501D01*
X230630602Y-80529172D01*
X230630609Y-80529185D01*
X230718210Y-80660288D01*
X230718213Y-80660292D01*
X230829707Y-80771786D01*
X230829711Y-80771789D01*
X230960814Y-80859390D01*
X230960827Y-80859397D01*
X231106498Y-80919735D01*
X231106503Y-80919737D01*
X231261153Y-80950499D01*
X231261156Y-80950500D01*
X231261158Y-80950500D01*
X231418844Y-80950500D01*
X231418845Y-80950499D01*
X231573497Y-80919737D01*
X231719179Y-80859394D01*
X231850289Y-80771789D01*
X231961789Y-80660289D01*
X232049394Y-80529179D01*
X232109737Y-80383497D01*
X232140500Y-80228842D01*
X232140500Y-80071158D01*
X232140500Y-80071155D01*
X232140499Y-80071153D01*
X232125186Y-79994172D01*
X232109737Y-79916503D01*
X232109561Y-79916079D01*
X232049397Y-79770827D01*
X232049390Y-79770814D01*
X231961789Y-79639711D01*
X231961786Y-79639707D01*
X231850292Y-79528213D01*
X231850288Y-79528210D01*
X231719185Y-79440609D01*
X231719172Y-79440602D01*
X231573501Y-79380264D01*
X231573489Y-79380261D01*
X231418845Y-79349500D01*
X231418842Y-79349500D01*
X231261158Y-79349500D01*
X231261155Y-79349500D01*
X231106510Y-79380261D01*
X231106498Y-79380264D01*
X230960827Y-79440602D01*
X230960814Y-79440609D01*
X230829711Y-79528210D01*
X230829707Y-79528213D01*
X230718213Y-79639707D01*
X230718210Y-79639711D01*
X230630609Y-79770814D01*
X230630602Y-79770827D01*
X230570264Y-79916498D01*
X230570261Y-79916510D01*
X230539500Y-80071153D01*
X229909259Y-80071153D01*
X229906263Y-80063920D01*
X229865087Y-79964511D01*
X229865080Y-79964498D01*
X229782951Y-79841584D01*
X229782948Y-79841580D01*
X229678419Y-79737051D01*
X229678415Y-79737048D01*
X229555501Y-79654919D01*
X229555488Y-79654912D01*
X229418917Y-79598343D01*
X229418907Y-79598340D01*
X229273920Y-79569500D01*
X229273918Y-79569500D01*
X229126082Y-79569500D01*
X229126080Y-79569500D01*
X228981092Y-79598340D01*
X228981082Y-79598343D01*
X228844511Y-79654912D01*
X228844498Y-79654919D01*
X228721584Y-79737048D01*
X228721580Y-79737051D01*
X228617051Y-79841580D01*
X228617048Y-79841584D01*
X228534919Y-79964498D01*
X228534912Y-79964511D01*
X228478343Y-80101082D01*
X228478340Y-80101092D01*
X228449500Y-80246079D01*
X228449500Y-80246082D01*
X228449500Y-80393918D01*
X228449500Y-80393920D01*
X228449499Y-80393920D01*
X188872728Y-80393920D01*
X188905084Y-80345495D01*
X188961658Y-80208913D01*
X188978292Y-80125289D01*
X188990500Y-80063920D01*
X188990500Y-79916079D01*
X188961659Y-79771092D01*
X188961658Y-79771091D01*
X188961658Y-79771087D01*
X188937805Y-79713501D01*
X188905087Y-79634511D01*
X188905080Y-79634498D01*
X188822951Y-79511584D01*
X188822948Y-79511580D01*
X188718419Y-79407051D01*
X188718415Y-79407048D01*
X188709593Y-79401153D01*
X223409500Y-79401153D01*
X223409500Y-79558846D01*
X223440261Y-79713489D01*
X223440264Y-79713501D01*
X223500602Y-79859172D01*
X223500609Y-79859185D01*
X223588210Y-79990288D01*
X223588213Y-79990292D01*
X223699707Y-80101786D01*
X223699711Y-80101789D01*
X223830814Y-80189390D01*
X223830827Y-80189397D01*
X223967672Y-80246079D01*
X223976503Y-80249737D01*
X224131153Y-80280499D01*
X224131156Y-80280500D01*
X224131158Y-80280500D01*
X224288844Y-80280500D01*
X224288845Y-80280499D01*
X224443497Y-80249737D01*
X224589179Y-80189394D01*
X224685115Y-80125292D01*
X224720289Y-80101789D01*
X224831786Y-79990292D01*
X224831789Y-79990289D01*
X224919394Y-79859179D01*
X224979737Y-79713497D01*
X225010500Y-79558842D01*
X225010500Y-79401158D01*
X225010500Y-79401155D01*
X225010499Y-79401153D01*
X225006343Y-79380261D01*
X224979737Y-79246503D01*
X224975315Y-79235827D01*
X224919397Y-79100827D01*
X224919390Y-79100814D01*
X224831789Y-78969711D01*
X224831786Y-78969707D01*
X224720292Y-78858213D01*
X224720288Y-78858210D01*
X224589185Y-78770609D01*
X224589172Y-78770602D01*
X224443501Y-78710264D01*
X224443489Y-78710261D01*
X224288845Y-78679500D01*
X224288842Y-78679500D01*
X224131158Y-78679500D01*
X224131155Y-78679500D01*
X223976510Y-78710261D01*
X223976498Y-78710264D01*
X223830827Y-78770602D01*
X223830814Y-78770609D01*
X223699711Y-78858210D01*
X223699707Y-78858213D01*
X223588213Y-78969707D01*
X223588210Y-78969711D01*
X223500609Y-79100814D01*
X223500602Y-79100827D01*
X223440264Y-79246498D01*
X223440261Y-79246510D01*
X223409500Y-79401153D01*
X188709593Y-79401153D01*
X188595501Y-79324919D01*
X188595488Y-79324912D01*
X188458917Y-79268343D01*
X188458907Y-79268340D01*
X188313920Y-79239500D01*
X188313918Y-79239500D01*
X188166082Y-79239500D01*
X188166080Y-79239500D01*
X188021092Y-79268340D01*
X188021082Y-79268343D01*
X187884511Y-79324912D01*
X187884498Y-79324919D01*
X187761584Y-79407048D01*
X187761580Y-79407051D01*
X187657051Y-79511580D01*
X187657048Y-79511584D01*
X187574919Y-79634498D01*
X187574912Y-79634511D01*
X187518343Y-79771082D01*
X187518340Y-79771092D01*
X187489500Y-79916079D01*
X187489500Y-79916082D01*
X187489500Y-80063918D01*
X187489500Y-80063920D01*
X187489499Y-80063920D01*
X155950500Y-80063920D01*
X155950500Y-78021153D01*
X241349500Y-78021153D01*
X241349500Y-78178846D01*
X241380261Y-78333489D01*
X241380264Y-78333501D01*
X241440602Y-78479172D01*
X241440609Y-78479185D01*
X241528210Y-78610288D01*
X241528213Y-78610292D01*
X241639707Y-78721786D01*
X241639711Y-78721789D01*
X241770814Y-78809390D01*
X241770818Y-78809392D01*
X241770821Y-78809394D01*
X241901806Y-78863649D01*
X241956205Y-78907487D01*
X241978271Y-78973781D01*
X241960992Y-79041480D01*
X241942032Y-79065888D01*
X241903214Y-79104706D01*
X241903210Y-79104711D01*
X241815609Y-79235814D01*
X241815602Y-79235827D01*
X241755264Y-79381498D01*
X241755261Y-79381510D01*
X241724500Y-79536153D01*
X241724500Y-79693846D01*
X241755261Y-79848489D01*
X241755264Y-79848501D01*
X241815602Y-79994172D01*
X241815609Y-79994185D01*
X241903210Y-80125288D01*
X241903213Y-80125292D01*
X242014707Y-80236786D01*
X242014711Y-80236789D01*
X242145814Y-80324390D01*
X242145827Y-80324397D01*
X242288490Y-80383489D01*
X242291503Y-80384737D01*
X242446153Y-80415499D01*
X242446156Y-80415500D01*
X242446158Y-80415500D01*
X242603844Y-80415500D01*
X242603845Y-80415499D01*
X242758497Y-80384737D01*
X242904179Y-80324394D01*
X243035289Y-80236789D01*
X243146789Y-80125289D01*
X243234394Y-79994179D01*
X243294737Y-79848497D01*
X243325500Y-79693842D01*
X243325500Y-79536158D01*
X243325500Y-79536155D01*
X243325499Y-79536153D01*
X243306493Y-79440606D01*
X243294737Y-79381503D01*
X243281481Y-79349500D01*
X243234397Y-79235827D01*
X243234390Y-79235814D01*
X243146789Y-79104711D01*
X243146786Y-79104707D01*
X243035292Y-78993213D01*
X243035288Y-78993210D01*
X242904185Y-78905609D01*
X242904172Y-78905602D01*
X242773197Y-78851352D01*
X242718793Y-78807512D01*
X242696728Y-78741218D01*
X242714007Y-78673518D01*
X242732969Y-78649109D01*
X242771786Y-78610292D01*
X242771789Y-78610289D01*
X242859394Y-78479179D01*
X242919737Y-78333497D01*
X242950500Y-78178842D01*
X242950500Y-78021158D01*
X242950500Y-78021155D01*
X242950499Y-78021153D01*
X242919738Y-77866510D01*
X242919737Y-77866503D01*
X242919735Y-77866498D01*
X242859397Y-77720827D01*
X242859390Y-77720814D01*
X242771789Y-77589711D01*
X242771786Y-77589707D01*
X242660292Y-77478213D01*
X242660288Y-77478210D01*
X242529185Y-77390609D01*
X242529172Y-77390602D01*
X242383501Y-77330264D01*
X242383489Y-77330261D01*
X242228845Y-77299500D01*
X242228842Y-77299500D01*
X242071158Y-77299500D01*
X242071155Y-77299500D01*
X241916510Y-77330261D01*
X241916498Y-77330264D01*
X241770827Y-77390602D01*
X241770814Y-77390609D01*
X241639711Y-77478210D01*
X241639707Y-77478213D01*
X241528213Y-77589707D01*
X241528210Y-77589711D01*
X241440609Y-77720814D01*
X241440602Y-77720827D01*
X241380264Y-77866498D01*
X241380261Y-77866510D01*
X241349500Y-78021153D01*
X155950500Y-78021153D01*
X155950500Y-76763920D01*
X175649499Y-76763920D01*
X175678340Y-76908907D01*
X175678343Y-76908917D01*
X175734912Y-77045488D01*
X175734919Y-77045501D01*
X175817048Y-77168415D01*
X175817051Y-77168419D01*
X175921580Y-77272948D01*
X175921584Y-77272951D01*
X176044498Y-77355080D01*
X176044511Y-77355087D01*
X176130270Y-77390609D01*
X176181087Y-77411658D01*
X176181091Y-77411658D01*
X176181092Y-77411659D01*
X176326079Y-77440500D01*
X176326082Y-77440500D01*
X176473920Y-77440500D01*
X176571462Y-77421096D01*
X176618913Y-77411658D01*
X176755495Y-77355084D01*
X176878416Y-77272951D01*
X176982951Y-77168416D01*
X177065084Y-77045495D01*
X177121658Y-76908913D01*
X177137670Y-76828416D01*
X177150500Y-76763920D01*
X177150500Y-76616079D01*
X177121659Y-76471092D01*
X177121658Y-76471091D01*
X177121658Y-76471087D01*
X177102121Y-76423920D01*
X214599499Y-76423920D01*
X214628340Y-76568907D01*
X214628343Y-76568917D01*
X214684912Y-76705488D01*
X214684919Y-76705501D01*
X214767048Y-76828415D01*
X214767051Y-76828419D01*
X214871580Y-76932948D01*
X214871584Y-76932951D01*
X214994498Y-77015080D01*
X214994511Y-77015087D01*
X215067938Y-77045501D01*
X215131087Y-77071658D01*
X215131091Y-77071658D01*
X215131092Y-77071659D01*
X215276079Y-77100500D01*
X215276082Y-77100500D01*
X215423920Y-77100500D01*
X215521462Y-77081096D01*
X215568913Y-77071658D01*
X215674547Y-77027902D01*
X215705488Y-77015087D01*
X215705488Y-77015086D01*
X215705495Y-77015084D01*
X215828416Y-76932951D01*
X215932951Y-76828416D01*
X216015084Y-76705495D01*
X216071658Y-76568913D01*
X216090621Y-76473581D01*
X216100500Y-76423920D01*
X216100500Y-76276079D01*
X216071659Y-76131092D01*
X216071658Y-76131091D01*
X216071658Y-76131087D01*
X216039865Y-76054332D01*
X216015087Y-75994511D01*
X216015080Y-75994498D01*
X215932951Y-75871584D01*
X215932948Y-75871580D01*
X215828419Y-75767051D01*
X215828415Y-75767048D01*
X215705501Y-75684919D01*
X215705488Y-75684912D01*
X215568917Y-75628343D01*
X215568907Y-75628340D01*
X215423920Y-75599500D01*
X215423918Y-75599500D01*
X215276082Y-75599500D01*
X215276080Y-75599500D01*
X215131092Y-75628340D01*
X215131082Y-75628343D01*
X214994511Y-75684912D01*
X214994498Y-75684919D01*
X214871584Y-75767048D01*
X214871580Y-75767051D01*
X214767051Y-75871580D01*
X214767048Y-75871584D01*
X214684919Y-75994498D01*
X214684912Y-75994511D01*
X214628343Y-76131082D01*
X214628340Y-76131092D01*
X214599500Y-76276079D01*
X214599500Y-76276082D01*
X214599500Y-76423918D01*
X214599500Y-76423920D01*
X214599499Y-76423920D01*
X177102121Y-76423920D01*
X177089774Y-76394111D01*
X177065087Y-76334511D01*
X177065079Y-76334496D01*
X176982951Y-76211584D01*
X176982948Y-76211580D01*
X176878419Y-76107051D01*
X176878415Y-76107048D01*
X176755501Y-76024919D01*
X176755488Y-76024912D01*
X176618917Y-75968343D01*
X176618907Y-75968340D01*
X176473920Y-75939500D01*
X176473918Y-75939500D01*
X176326082Y-75939500D01*
X176326080Y-75939500D01*
X176181092Y-75968340D01*
X176181082Y-75968343D01*
X176044511Y-76024912D01*
X176044498Y-76024919D01*
X175921584Y-76107048D01*
X175921580Y-76107051D01*
X175817051Y-76211580D01*
X175817048Y-76211584D01*
X175734919Y-76334498D01*
X175734912Y-76334511D01*
X175678343Y-76471082D01*
X175678340Y-76471092D01*
X175649500Y-76616079D01*
X175649500Y-76616082D01*
X175649500Y-76763918D01*
X175649500Y-76763920D01*
X175649499Y-76763920D01*
X155950500Y-76763920D01*
X155950500Y-73463074D01*
X165645500Y-73463074D01*
X165645500Y-73636926D01*
X165655516Y-73700163D01*
X165672697Y-73808639D01*
X165672697Y-73808642D01*
X165726418Y-73973978D01*
X165778615Y-74076420D01*
X165805347Y-74128884D01*
X165907535Y-74269533D01*
X166030467Y-74392465D01*
X166030473Y-74392469D01*
X166040401Y-74399683D01*
X166083067Y-74455013D01*
X166089045Y-74524626D01*
X166056438Y-74586421D01*
X166040401Y-74600317D01*
X166030473Y-74607530D01*
X166030464Y-74607537D01*
X165907537Y-74730464D01*
X165907537Y-74730465D01*
X165907535Y-74730467D01*
X165907037Y-74731153D01*
X165805347Y-74871115D01*
X165726418Y-75026021D01*
X165672697Y-75191357D01*
X165672697Y-75191360D01*
X165658699Y-75279738D01*
X165645500Y-75363074D01*
X165645500Y-75536926D01*
X165646033Y-75540289D01*
X165672697Y-75708639D01*
X165672697Y-75708642D01*
X165726418Y-75873978D01*
X165774498Y-75968340D01*
X165805347Y-76028884D01*
X165907535Y-76169533D01*
X166030467Y-76292465D01*
X166171116Y-76394653D01*
X166228552Y-76423918D01*
X166326021Y-76473581D01*
X166491358Y-76527302D01*
X166491359Y-76527302D01*
X166491362Y-76527303D01*
X166663074Y-76554500D01*
X166663075Y-76554500D01*
X166836925Y-76554500D01*
X166836926Y-76554500D01*
X167008638Y-76527303D01*
X167008641Y-76527302D01*
X167008642Y-76527302D01*
X167117110Y-76492059D01*
X167173978Y-76473581D01*
X167173978Y-76473580D01*
X167173981Y-76473580D01*
X167328884Y-76394653D01*
X167469533Y-76292465D01*
X167592465Y-76169533D01*
X167694653Y-76028884D01*
X167773580Y-75873981D01*
X167827303Y-75708638D01*
X167854500Y-75536926D01*
X167854500Y-75363074D01*
X167827303Y-75191362D01*
X167827302Y-75191358D01*
X167827302Y-75191357D01*
X167773581Y-75026021D01*
X167749821Y-74979390D01*
X167694653Y-74871116D01*
X167592963Y-74731153D01*
X216329500Y-74731153D01*
X216329500Y-74888846D01*
X216360261Y-75043489D01*
X216360264Y-75043501D01*
X216420602Y-75189172D01*
X216420609Y-75189185D01*
X216508210Y-75320288D01*
X216508213Y-75320292D01*
X216619707Y-75431786D01*
X216619711Y-75431789D01*
X216750814Y-75519390D01*
X216750827Y-75519397D01*
X216896498Y-75579735D01*
X216896503Y-75579737D01*
X216995858Y-75599500D01*
X217051153Y-75610499D01*
X217051156Y-75610500D01*
X217051158Y-75610500D01*
X217208844Y-75610500D01*
X217208845Y-75610499D01*
X217363497Y-75579737D01*
X217509179Y-75519394D01*
X217640289Y-75431789D01*
X217751789Y-75320289D01*
X217778191Y-75280774D01*
X217831802Y-75235969D01*
X217901127Y-75227260D01*
X217928744Y-75235102D01*
X218036503Y-75279737D01*
X218083759Y-75289137D01*
X218157291Y-75303764D01*
X218219202Y-75336149D01*
X218247661Y-75377928D01*
X218260604Y-75409175D01*
X218260609Y-75409185D01*
X218348210Y-75540288D01*
X218348213Y-75540292D01*
X218459707Y-75651786D01*
X218459711Y-75651789D01*
X218590814Y-75739390D01*
X218590827Y-75739397D01*
X218657591Y-75767051D01*
X218736503Y-75799737D01*
X218891153Y-75830499D01*
X218891156Y-75830500D01*
X218891158Y-75830500D01*
X219048844Y-75830500D01*
X219048845Y-75830499D01*
X219203497Y-75799737D01*
X219349179Y-75739394D01*
X219480289Y-75651789D01*
X219591789Y-75540289D01*
X219679394Y-75409179D01*
X219739737Y-75263497D01*
X219770500Y-75108842D01*
X219770500Y-74951158D01*
X219770500Y-74951155D01*
X219770499Y-74951153D01*
X219764250Y-74919737D01*
X219739737Y-74796503D01*
X219729499Y-74771786D01*
X219679397Y-74650827D01*
X219679390Y-74650814D01*
X219591789Y-74519711D01*
X219591786Y-74519707D01*
X219480292Y-74408213D01*
X219480288Y-74408210D01*
X219349185Y-74320609D01*
X219349172Y-74320602D01*
X219203501Y-74260264D01*
X219203491Y-74260261D01*
X219082707Y-74236235D01*
X219077359Y-74233437D01*
X219071322Y-74233405D01*
X219046759Y-74217431D01*
X219020796Y-74203850D01*
X219016510Y-74197759D01*
X219012749Y-74195313D01*
X218998762Y-74172533D01*
X218993828Y-74165520D01*
X218993060Y-74163816D01*
X218979394Y-74130821D01*
X218975757Y-74125379D01*
X218975756Y-74125375D01*
X218939526Y-74071153D01*
X220099500Y-74071153D01*
X220099500Y-74228846D01*
X220130261Y-74383489D01*
X220130264Y-74383501D01*
X220190602Y-74529172D01*
X220190609Y-74529185D01*
X220278210Y-74660288D01*
X220278213Y-74660292D01*
X220389707Y-74771786D01*
X220389711Y-74771789D01*
X220520814Y-74859390D01*
X220520827Y-74859397D01*
X220666498Y-74919735D01*
X220666503Y-74919737D01*
X220821153Y-74950499D01*
X220821156Y-74950500D01*
X220821158Y-74950500D01*
X220978844Y-74950500D01*
X220978845Y-74950499D01*
X221133497Y-74919737D01*
X221279179Y-74859394D01*
X221410289Y-74771789D01*
X221521789Y-74660289D01*
X221609394Y-74529179D01*
X221669737Y-74383497D01*
X221700500Y-74228842D01*
X221700500Y-74071158D01*
X221700500Y-74071155D01*
X221700499Y-74071153D01*
X221694355Y-74040264D01*
X221669737Y-73916503D01*
X221669322Y-73915501D01*
X221609397Y-73770827D01*
X221609390Y-73770814D01*
X221521789Y-73639711D01*
X221521786Y-73639707D01*
X221410292Y-73528213D01*
X221410288Y-73528210D01*
X221279185Y-73440609D01*
X221279172Y-73440602D01*
X221133501Y-73380264D01*
X221133489Y-73380261D01*
X220978845Y-73349500D01*
X220978842Y-73349500D01*
X220821158Y-73349500D01*
X220821155Y-73349500D01*
X220666510Y-73380261D01*
X220666498Y-73380264D01*
X220520827Y-73440602D01*
X220520814Y-73440609D01*
X220389711Y-73528210D01*
X220389707Y-73528213D01*
X220278213Y-73639707D01*
X220278210Y-73639711D01*
X220190609Y-73770814D01*
X220190602Y-73770827D01*
X220130264Y-73916498D01*
X220130261Y-73916510D01*
X220099500Y-74071153D01*
X218939526Y-74071153D01*
X218891789Y-73999711D01*
X218891786Y-73999707D01*
X218780292Y-73888213D01*
X218780288Y-73888210D01*
X218649185Y-73800609D01*
X218649172Y-73800602D01*
X218503501Y-73740264D01*
X218503489Y-73740261D01*
X218348845Y-73709500D01*
X218348842Y-73709500D01*
X218191158Y-73709500D01*
X218191155Y-73709500D01*
X218036510Y-73740261D01*
X218036498Y-73740264D01*
X217890827Y-73800602D01*
X217890814Y-73800609D01*
X217759711Y-73888210D01*
X217759707Y-73888213D01*
X217648213Y-73999707D01*
X217621807Y-74039227D01*
X217568194Y-74084031D01*
X217498869Y-74092738D01*
X217471253Y-74084896D01*
X217363501Y-74040264D01*
X217363489Y-74040261D01*
X217208845Y-74009500D01*
X217208842Y-74009500D01*
X217051158Y-74009500D01*
X217051155Y-74009500D01*
X216896510Y-74040261D01*
X216896498Y-74040264D01*
X216750827Y-74100602D01*
X216750814Y-74100609D01*
X216619711Y-74188210D01*
X216619707Y-74188213D01*
X216508213Y-74299707D01*
X216508210Y-74299711D01*
X216420609Y-74430814D01*
X216420602Y-74430827D01*
X216360264Y-74576498D01*
X216360261Y-74576510D01*
X216329500Y-74731153D01*
X167592963Y-74731153D01*
X167592465Y-74730467D01*
X167469533Y-74607535D01*
X167459599Y-74600317D01*
X167416934Y-74544991D01*
X167410953Y-74475378D01*
X167443558Y-74413582D01*
X167459598Y-74399683D01*
X167469533Y-74392465D01*
X167592465Y-74269533D01*
X167694653Y-74128884D01*
X167773580Y-73973981D01*
X167788139Y-73929172D01*
X167827302Y-73808642D01*
X167827302Y-73808641D01*
X167827303Y-73808638D01*
X167854500Y-73636926D01*
X167854500Y-73633920D01*
X169509499Y-73633920D01*
X169538340Y-73778907D01*
X169538343Y-73778917D01*
X169594912Y-73915488D01*
X169594919Y-73915501D01*
X169677048Y-74038415D01*
X169677051Y-74038419D01*
X169781580Y-74142948D01*
X169781584Y-74142951D01*
X169904498Y-74225080D01*
X169904511Y-74225087D01*
X170011817Y-74269534D01*
X170041087Y-74281658D01*
X170041091Y-74281658D01*
X170041092Y-74281659D01*
X170186079Y-74310500D01*
X170186082Y-74310500D01*
X170333920Y-74310500D01*
X170431462Y-74291096D01*
X170478913Y-74281658D01*
X170606418Y-74228844D01*
X170615488Y-74225087D01*
X170615488Y-74225086D01*
X170615495Y-74225084D01*
X170738416Y-74142951D01*
X170842951Y-74038416D01*
X170925084Y-73915495D01*
X170955877Y-73841153D01*
X214389500Y-73841153D01*
X214389500Y-73998846D01*
X214420261Y-74153489D01*
X214420264Y-74153501D01*
X214480602Y-74299172D01*
X214480609Y-74299185D01*
X214568210Y-74430288D01*
X214568213Y-74430292D01*
X214679707Y-74541786D01*
X214679711Y-74541789D01*
X214810814Y-74629390D01*
X214810827Y-74629397D01*
X214956498Y-74689735D01*
X214956503Y-74689737D01*
X215111153Y-74720499D01*
X215111156Y-74720500D01*
X215111158Y-74720500D01*
X215268844Y-74720500D01*
X215268845Y-74720499D01*
X215423497Y-74689737D01*
X215569179Y-74629394D01*
X215573628Y-74626420D01*
X215580301Y-74621963D01*
X215580301Y-74621962D01*
X215700289Y-74541789D01*
X215811789Y-74430289D01*
X215899394Y-74299179D01*
X215959737Y-74153497D01*
X215990500Y-73998842D01*
X215990500Y-73841158D01*
X215990500Y-73841155D01*
X215990499Y-73841153D01*
X215984032Y-73808642D01*
X215959737Y-73686503D01*
X215959735Y-73686498D01*
X215899397Y-73540827D01*
X215899390Y-73540814D01*
X215811789Y-73409711D01*
X215811786Y-73409707D01*
X215700292Y-73298213D01*
X215700288Y-73298210D01*
X215569185Y-73210609D01*
X215569172Y-73210602D01*
X215423501Y-73150264D01*
X215423489Y-73150261D01*
X215268845Y-73119500D01*
X215268842Y-73119500D01*
X215111158Y-73119500D01*
X215111155Y-73119500D01*
X214956510Y-73150261D01*
X214956498Y-73150264D01*
X214810827Y-73210602D01*
X214810814Y-73210609D01*
X214679711Y-73298210D01*
X214679707Y-73298213D01*
X214568213Y-73409707D01*
X214568210Y-73409711D01*
X214480609Y-73540814D01*
X214480602Y-73540827D01*
X214420264Y-73686498D01*
X214420261Y-73686510D01*
X214389500Y-73841153D01*
X170955877Y-73841153D01*
X170981658Y-73778913D01*
X170993321Y-73720283D01*
X171010500Y-73633920D01*
X171010500Y-73486079D01*
X170981659Y-73341092D01*
X170981658Y-73341091D01*
X170981658Y-73341087D01*
X170963898Y-73298210D01*
X170925087Y-73204511D01*
X170925080Y-73204498D01*
X170842951Y-73081584D01*
X170842948Y-73081580D01*
X170738419Y-72977051D01*
X170738415Y-72977048D01*
X170615501Y-72894919D01*
X170615488Y-72894912D01*
X170478917Y-72838343D01*
X170478907Y-72838340D01*
X170333920Y-72809500D01*
X170333918Y-72809500D01*
X170186082Y-72809500D01*
X170186080Y-72809500D01*
X170041092Y-72838340D01*
X170041082Y-72838343D01*
X169904511Y-72894912D01*
X169904498Y-72894919D01*
X169781584Y-72977048D01*
X169781580Y-72977051D01*
X169677051Y-73081580D01*
X169677048Y-73081584D01*
X169594919Y-73204498D01*
X169594912Y-73204511D01*
X169538343Y-73341082D01*
X169538340Y-73341092D01*
X169509500Y-73486079D01*
X169509500Y-73486082D01*
X169509500Y-73633918D01*
X169509500Y-73633920D01*
X169509499Y-73633920D01*
X167854500Y-73633920D01*
X167854500Y-73463074D01*
X167827303Y-73291362D01*
X167827302Y-73291358D01*
X167827302Y-73291357D01*
X167773581Y-73126021D01*
X167710824Y-73002854D01*
X167694653Y-72971116D01*
X167592465Y-72830467D01*
X167469533Y-72707535D01*
X167328884Y-72605347D01*
X167295251Y-72588210D01*
X167173978Y-72526418D01*
X167008641Y-72472697D01*
X166879854Y-72452299D01*
X166836926Y-72445500D01*
X166663074Y-72445500D01*
X166605836Y-72454565D01*
X166491360Y-72472697D01*
X166491357Y-72472697D01*
X166326021Y-72526418D01*
X166171115Y-72605347D01*
X166107194Y-72651789D01*
X166030467Y-72707535D01*
X166030465Y-72707537D01*
X166030464Y-72707537D01*
X165907537Y-72830464D01*
X165907537Y-72830465D01*
X165907535Y-72830467D01*
X165901813Y-72838343D01*
X165805347Y-72971115D01*
X165726418Y-73126021D01*
X165672697Y-73291357D01*
X165672697Y-73291360D01*
X165658616Y-73380263D01*
X165645500Y-73463074D01*
X155950500Y-73463074D01*
X155950500Y-70901577D01*
X157749500Y-70901577D01*
X157749500Y-71098422D01*
X157780290Y-71292826D01*
X157841117Y-71480029D01*
X157924409Y-71643497D01*
X157930476Y-71655405D01*
X158046172Y-71814646D01*
X158185354Y-71953828D01*
X158344595Y-72069524D01*
X158421761Y-72108842D01*
X158519970Y-72158882D01*
X158519972Y-72158882D01*
X158519975Y-72158884D01*
X158584154Y-72179737D01*
X158707173Y-72219709D01*
X158901578Y-72250500D01*
X158901583Y-72250500D01*
X159098422Y-72250500D01*
X159292826Y-72219709D01*
X159323516Y-72209737D01*
X159480025Y-72158884D01*
X159655405Y-72069524D01*
X159814646Y-71953828D01*
X159953828Y-71814646D01*
X160069524Y-71655405D01*
X160072828Y-71648920D01*
X221499499Y-71648920D01*
X221528340Y-71793907D01*
X221528343Y-71793917D01*
X221584912Y-71930488D01*
X221584919Y-71930501D01*
X221667048Y-72053415D01*
X221667051Y-72053419D01*
X221771580Y-72157948D01*
X221771584Y-72157951D01*
X221894498Y-72240080D01*
X221894511Y-72240087D01*
X222031082Y-72296656D01*
X222031087Y-72296658D01*
X222031091Y-72296658D01*
X222031092Y-72296659D01*
X222149692Y-72320251D01*
X222211603Y-72352636D01*
X222246177Y-72413352D01*
X222249500Y-72441868D01*
X222249500Y-72598846D01*
X222280261Y-72753489D01*
X222280264Y-72753501D01*
X222340602Y-72899172D01*
X222340609Y-72899184D01*
X222365327Y-72936177D01*
X222386205Y-73002854D01*
X222367721Y-73070234D01*
X222365327Y-73073959D01*
X222300609Y-73170814D01*
X222300602Y-73170827D01*
X222240264Y-73316498D01*
X222240261Y-73316510D01*
X222209500Y-73471153D01*
X222209500Y-73628846D01*
X222240261Y-73783489D01*
X222240264Y-73783501D01*
X222300602Y-73929172D01*
X222300609Y-73929185D01*
X222388210Y-74060288D01*
X222388213Y-74060292D01*
X222499707Y-74171786D01*
X222499711Y-74171789D01*
X222630814Y-74259390D01*
X222630827Y-74259397D01*
X222776498Y-74319735D01*
X222776503Y-74319737D01*
X222922823Y-74348842D01*
X222931153Y-74350499D01*
X222931156Y-74350500D01*
X222931158Y-74350500D01*
X223088844Y-74350500D01*
X223088845Y-74350499D01*
X223243497Y-74319737D01*
X223389179Y-74259394D01*
X223491309Y-74191153D01*
X228691963Y-74191153D01*
X228691963Y-74348846D01*
X228722724Y-74503489D01*
X228722727Y-74503501D01*
X228783065Y-74649172D01*
X228783072Y-74649185D01*
X228870673Y-74780288D01*
X228870676Y-74780292D01*
X228982170Y-74891786D01*
X228982174Y-74891789D01*
X229113277Y-74979390D01*
X229113290Y-74979397D01*
X229225852Y-75026021D01*
X229258966Y-75039737D01*
X229413616Y-75070499D01*
X229413619Y-75070500D01*
X229413621Y-75070500D01*
X229571307Y-75070500D01*
X229571308Y-75070499D01*
X229725960Y-75039737D01*
X229871642Y-74979394D01*
X230002752Y-74891789D01*
X230075546Y-74818995D01*
X235049499Y-74818995D01*
X235076418Y-74954322D01*
X235076421Y-74954332D01*
X235129221Y-75081804D01*
X235129228Y-75081817D01*
X235205885Y-75196541D01*
X235205888Y-75196545D01*
X235221662Y-75212319D01*
X235255147Y-75273642D01*
X235250163Y-75343334D01*
X235221662Y-75387681D01*
X235205888Y-75403454D01*
X235205885Y-75403458D01*
X235129228Y-75518182D01*
X235129221Y-75518195D01*
X235076421Y-75645667D01*
X235076418Y-75645677D01*
X235049500Y-75781004D01*
X235049500Y-75781007D01*
X235049500Y-75918993D01*
X235049500Y-75918995D01*
X235049499Y-75918995D01*
X235076418Y-76054322D01*
X235076421Y-76054332D01*
X235129221Y-76181804D01*
X235129228Y-76181817D01*
X235205885Y-76296541D01*
X235205888Y-76296545D01*
X235303454Y-76394111D01*
X235303458Y-76394114D01*
X235418182Y-76470771D01*
X235418195Y-76470778D01*
X235551299Y-76525911D01*
X235550688Y-76527385D01*
X235602639Y-76561431D01*
X235623195Y-76599071D01*
X235624089Y-76598701D01*
X235679221Y-76731804D01*
X235679228Y-76731817D01*
X235755885Y-76846541D01*
X235755888Y-76846545D01*
X235853454Y-76944111D01*
X235853458Y-76944114D01*
X235968182Y-77020771D01*
X235968195Y-77020778D01*
X236091027Y-77071656D01*
X236095672Y-77073580D01*
X236095676Y-77073580D01*
X236095677Y-77073581D01*
X236231004Y-77100500D01*
X236231007Y-77100500D01*
X236368995Y-77100500D01*
X236460041Y-77082389D01*
X236504328Y-77073580D01*
X236631811Y-77020775D01*
X236746542Y-76944114D01*
X236746545Y-76944111D01*
X236762319Y-76928338D01*
X236823642Y-76894853D01*
X236893334Y-76899837D01*
X236937681Y-76928338D01*
X236953454Y-76944111D01*
X236953458Y-76944114D01*
X237068182Y-77020771D01*
X237068195Y-77020778D01*
X237191027Y-77071656D01*
X237195672Y-77073580D01*
X237195676Y-77073580D01*
X237195677Y-77073581D01*
X237331004Y-77100500D01*
X237331007Y-77100500D01*
X237468995Y-77100500D01*
X237560041Y-77082389D01*
X237604328Y-77073580D01*
X237731811Y-77020775D01*
X237846542Y-76944114D01*
X237944114Y-76846542D01*
X238020775Y-76731811D01*
X238031673Y-76705501D01*
X238075911Y-76598701D01*
X238077386Y-76599312D01*
X238111425Y-76547365D01*
X238149072Y-76526807D01*
X238148701Y-76525911D01*
X238281804Y-76470778D01*
X238281804Y-76470777D01*
X238281811Y-76470775D01*
X238396542Y-76394114D01*
X238494114Y-76296542D01*
X238570775Y-76181811D01*
X238623580Y-76054328D01*
X238650500Y-75918993D01*
X238650500Y-75781007D01*
X238650500Y-75781004D01*
X238623581Y-75645677D01*
X238623580Y-75645676D01*
X238623580Y-75645672D01*
X238616401Y-75628340D01*
X238570778Y-75518195D01*
X238570771Y-75518182D01*
X238494114Y-75403458D01*
X238494111Y-75403454D01*
X238478338Y-75387681D01*
X238444853Y-75326358D01*
X238449837Y-75256666D01*
X238478338Y-75212319D01*
X238494111Y-75196545D01*
X238494114Y-75196542D01*
X238570775Y-75081811D01*
X238623580Y-74954328D01*
X238636020Y-74891789D01*
X238650500Y-74818995D01*
X238650500Y-74681004D01*
X238623581Y-74545677D01*
X238623580Y-74545676D01*
X238623580Y-74545672D01*
X238616751Y-74529185D01*
X238570778Y-74418195D01*
X238570771Y-74418182D01*
X238494114Y-74303458D01*
X238494111Y-74303454D01*
X238396545Y-74205888D01*
X238396541Y-74205885D01*
X238281817Y-74129228D01*
X238281804Y-74129221D01*
X238148701Y-74074089D01*
X238149310Y-74072618D01*
X238097348Y-74038554D01*
X238076806Y-74000928D01*
X238075911Y-74001299D01*
X238020778Y-73868195D01*
X238020771Y-73868182D01*
X237944114Y-73753458D01*
X237944111Y-73753454D01*
X237846545Y-73655888D01*
X237846541Y-73655885D01*
X237731817Y-73579228D01*
X237731804Y-73579221D01*
X237604332Y-73526421D01*
X237604322Y-73526418D01*
X237468995Y-73499500D01*
X237468993Y-73499500D01*
X237331007Y-73499500D01*
X237331005Y-73499500D01*
X237195677Y-73526418D01*
X237195667Y-73526421D01*
X237068195Y-73579221D01*
X237068182Y-73579228D01*
X236953458Y-73655885D01*
X236953454Y-73655888D01*
X236937681Y-73671662D01*
X236876358Y-73705147D01*
X236806666Y-73700163D01*
X236762319Y-73671662D01*
X236746545Y-73655888D01*
X236746541Y-73655885D01*
X236631817Y-73579228D01*
X236631804Y-73579221D01*
X236504332Y-73526421D01*
X236504322Y-73526418D01*
X236368995Y-73499500D01*
X236368993Y-73499500D01*
X236231007Y-73499500D01*
X236231005Y-73499500D01*
X236095677Y-73526418D01*
X236095667Y-73526421D01*
X235968195Y-73579221D01*
X235968182Y-73579228D01*
X235853458Y-73655885D01*
X235853454Y-73655888D01*
X235755888Y-73753454D01*
X235755885Y-73753458D01*
X235679228Y-73868182D01*
X235679221Y-73868195D01*
X235624089Y-74001299D01*
X235622619Y-74000690D01*
X235588548Y-74052656D01*
X235550929Y-74073197D01*
X235551299Y-74074089D01*
X235418195Y-74129221D01*
X235418182Y-74129228D01*
X235303458Y-74205885D01*
X235303454Y-74205888D01*
X235205888Y-74303454D01*
X235205885Y-74303458D01*
X235129228Y-74418182D01*
X235129221Y-74418195D01*
X235076421Y-74545667D01*
X235076418Y-74545677D01*
X235049500Y-74681004D01*
X235049500Y-74681007D01*
X235049500Y-74818993D01*
X235049500Y-74818995D01*
X235049499Y-74818995D01*
X230075546Y-74818995D01*
X230114252Y-74780289D01*
X230201857Y-74649179D01*
X230262200Y-74503497D01*
X230292963Y-74348842D01*
X230292963Y-74191158D01*
X230292963Y-74191155D01*
X230292962Y-74191153D01*
X230287863Y-74165520D01*
X230262200Y-74036503D01*
X230247618Y-74001299D01*
X230201860Y-73890828D01*
X230201859Y-73890827D01*
X230201857Y-73890821D01*
X230201851Y-73890812D01*
X230198071Y-73885154D01*
X230177194Y-73818476D01*
X230195680Y-73751097D01*
X230213488Y-73728589D01*
X230221789Y-73720289D01*
X230309394Y-73589179D01*
X230369737Y-73443497D01*
X230400500Y-73288842D01*
X230400500Y-73131158D01*
X230400500Y-73131155D01*
X230400499Y-73131153D01*
X230376789Y-73011958D01*
X230369737Y-72976503D01*
X230312510Y-72838343D01*
X230309397Y-72830827D01*
X230309390Y-72830814D01*
X230221789Y-72699711D01*
X230221786Y-72699707D01*
X230110292Y-72588213D01*
X230110288Y-72588210D01*
X229979185Y-72500609D01*
X229979172Y-72500602D01*
X229833501Y-72440264D01*
X229833489Y-72440261D01*
X229678845Y-72409500D01*
X229678842Y-72409500D01*
X229521158Y-72409500D01*
X229521155Y-72409500D01*
X229366510Y-72440261D01*
X229366498Y-72440264D01*
X229220827Y-72500602D01*
X229220814Y-72500609D01*
X229089711Y-72588210D01*
X229089707Y-72588213D01*
X228978213Y-72699707D01*
X228978210Y-72699711D01*
X228890609Y-72830814D01*
X228890602Y-72830827D01*
X228830264Y-72976498D01*
X228830261Y-72976510D01*
X228799500Y-73131153D01*
X228799500Y-73288846D01*
X228830261Y-73443489D01*
X228830264Y-73443501D01*
X228890602Y-73589171D01*
X228890603Y-73589172D01*
X228890606Y-73589179D01*
X228890609Y-73589183D01*
X228894393Y-73594847D01*
X228915268Y-73661525D01*
X228896781Y-73728905D01*
X228878973Y-73751412D01*
X228870671Y-73759714D01*
X228783072Y-73890814D01*
X228783065Y-73890827D01*
X228722727Y-74036498D01*
X228722724Y-74036510D01*
X228691963Y-74191153D01*
X223491309Y-74191153D01*
X223520289Y-74171789D01*
X223549130Y-74142948D01*
X223594694Y-74097385D01*
X223631786Y-74060292D01*
X223631789Y-74060289D01*
X223719394Y-73929179D01*
X223779737Y-73783497D01*
X223810500Y-73628842D01*
X223810500Y-73471158D01*
X223810500Y-73471155D01*
X223810499Y-73471153D01*
X223798277Y-73409711D01*
X223779737Y-73316503D01*
X223735875Y-73210609D01*
X223719396Y-73170825D01*
X223719395Y-73170824D01*
X223719394Y-73170821D01*
X223694671Y-73133821D01*
X223673794Y-73067146D01*
X223692278Y-72999766D01*
X223694635Y-72996097D01*
X223759394Y-72899179D01*
X223761162Y-72894912D01*
X223787706Y-72830827D01*
X223819737Y-72753497D01*
X223850500Y-72598842D01*
X223850500Y-72441158D01*
X223850500Y-72441155D01*
X223850499Y-72441153D01*
X223844139Y-72409179D01*
X223819737Y-72286503D01*
X223795288Y-72227478D01*
X223759397Y-72140827D01*
X223759390Y-72140814D01*
X223671789Y-72009711D01*
X223671786Y-72009707D01*
X223560292Y-71898213D01*
X223560288Y-71898210D01*
X223429185Y-71810609D01*
X223429172Y-71810602D01*
X223283501Y-71750264D01*
X223283489Y-71750261D01*
X223128845Y-71719500D01*
X223128842Y-71719500D01*
X223124500Y-71719500D01*
X223057461Y-71699815D01*
X223011706Y-71647011D01*
X223000500Y-71595500D01*
X223000500Y-71501079D01*
X222971659Y-71356092D01*
X222971658Y-71356091D01*
X222971658Y-71356087D01*
X222961331Y-71331155D01*
X222915087Y-71219511D01*
X222915080Y-71219498D01*
X222832951Y-71096584D01*
X222832948Y-71096580D01*
X222728419Y-70992051D01*
X222728415Y-70992048D01*
X222610363Y-70913168D01*
X222605501Y-70909919D01*
X222605488Y-70909912D01*
X222468917Y-70853343D01*
X222468907Y-70853340D01*
X222323920Y-70824500D01*
X222323918Y-70824500D01*
X222176082Y-70824500D01*
X222176080Y-70824500D01*
X222031092Y-70853340D01*
X222031082Y-70853343D01*
X221894511Y-70909912D01*
X221894498Y-70909919D01*
X221771584Y-70992048D01*
X221771580Y-70992051D01*
X221667051Y-71096580D01*
X221667048Y-71096584D01*
X221584919Y-71219498D01*
X221584912Y-71219511D01*
X221528343Y-71356082D01*
X221528340Y-71356092D01*
X221499500Y-71501079D01*
X221499500Y-71501082D01*
X221499500Y-71648918D01*
X221499500Y-71648920D01*
X221499499Y-71648920D01*
X160072828Y-71648920D01*
X160158884Y-71480025D01*
X160219709Y-71292826D01*
X160222662Y-71274179D01*
X160250500Y-71098422D01*
X160250500Y-70901577D01*
X160219709Y-70707173D01*
X160185941Y-70603247D01*
X160158884Y-70519975D01*
X160158882Y-70519972D01*
X160158882Y-70519970D01*
X160125228Y-70453920D01*
X175749499Y-70453920D01*
X175778340Y-70598907D01*
X175778343Y-70598917D01*
X175834912Y-70735488D01*
X175834919Y-70735501D01*
X175917048Y-70858415D01*
X175917051Y-70858419D01*
X176021580Y-70962948D01*
X176021584Y-70962951D01*
X176144498Y-71045080D01*
X176144511Y-71045087D01*
X176281082Y-71101656D01*
X176281087Y-71101658D01*
X176281091Y-71101658D01*
X176281092Y-71101659D01*
X176426079Y-71130500D01*
X176426082Y-71130500D01*
X176573920Y-71130500D01*
X176671462Y-71111096D01*
X176718913Y-71101658D01*
X176855495Y-71045084D01*
X176978416Y-70962951D01*
X177082951Y-70858416D01*
X177165084Y-70735495D01*
X177221658Y-70598913D01*
X177238185Y-70515827D01*
X177250500Y-70453920D01*
X177250500Y-70306079D01*
X177221659Y-70161092D01*
X177221658Y-70161091D01*
X177221658Y-70161087D01*
X177210004Y-70132951D01*
X177165087Y-70024511D01*
X177165080Y-70024498D01*
X177082951Y-69901584D01*
X177082948Y-69901580D01*
X176978419Y-69797051D01*
X176978415Y-69797048D01*
X176855501Y-69714919D01*
X176855488Y-69714912D01*
X176718917Y-69658343D01*
X176718907Y-69658340D01*
X176573920Y-69629500D01*
X176573918Y-69629500D01*
X176426082Y-69629500D01*
X176426080Y-69629500D01*
X176281092Y-69658340D01*
X176281082Y-69658343D01*
X176144511Y-69714912D01*
X176144498Y-69714919D01*
X176021584Y-69797048D01*
X176021580Y-69797051D01*
X175917051Y-69901580D01*
X175917048Y-69901584D01*
X175834919Y-70024498D01*
X175834912Y-70024511D01*
X175778343Y-70161082D01*
X175778340Y-70161092D01*
X175749500Y-70306079D01*
X175749500Y-70306082D01*
X175749500Y-70453918D01*
X175749500Y-70453920D01*
X175749499Y-70453920D01*
X160125228Y-70453920D01*
X160075480Y-70356285D01*
X160075479Y-70356283D01*
X160069525Y-70344596D01*
X160051789Y-70320185D01*
X159953828Y-70185354D01*
X159814646Y-70046172D01*
X159655405Y-69930476D01*
X159480029Y-69841117D01*
X159292826Y-69780290D01*
X159098422Y-69749500D01*
X159098417Y-69749500D01*
X158901583Y-69749500D01*
X158901578Y-69749500D01*
X158707173Y-69780290D01*
X158519970Y-69841117D01*
X158344594Y-69930476D01*
X158302369Y-69961155D01*
X158185354Y-70046172D01*
X158185352Y-70046174D01*
X158185351Y-70046174D01*
X158046174Y-70185351D01*
X158046174Y-70185352D01*
X158046172Y-70185354D01*
X158045992Y-70185602D01*
X157930476Y-70344594D01*
X157841117Y-70519970D01*
X157780290Y-70707173D01*
X157749500Y-70901577D01*
X155950500Y-70901577D01*
X155950500Y-69623920D01*
X214699499Y-69623920D01*
X214728340Y-69768907D01*
X214728343Y-69768917D01*
X214784912Y-69905488D01*
X214784919Y-69905501D01*
X214867048Y-70028415D01*
X214867051Y-70028419D01*
X214971580Y-70132948D01*
X214971584Y-70132951D01*
X215094498Y-70215080D01*
X215094511Y-70215087D01*
X215212217Y-70263842D01*
X215231087Y-70271658D01*
X215231091Y-70271658D01*
X215231092Y-70271659D01*
X215376079Y-70300500D01*
X215376082Y-70300500D01*
X215388594Y-70300500D01*
X215455633Y-70320185D01*
X215501388Y-70372989D01*
X215503142Y-70377018D01*
X215506329Y-70384711D01*
X215520605Y-70419178D01*
X215520609Y-70419185D01*
X215608210Y-70550288D01*
X215608213Y-70550292D01*
X215719707Y-70661786D01*
X215719711Y-70661789D01*
X215850814Y-70749390D01*
X215850827Y-70749397D01*
X215971057Y-70799197D01*
X215996503Y-70809737D01*
X216151153Y-70840499D01*
X216151156Y-70840500D01*
X216151158Y-70840500D01*
X216308844Y-70840500D01*
X216308845Y-70840499D01*
X216431241Y-70816153D01*
X228044500Y-70816153D01*
X228044500Y-70973846D01*
X228075261Y-71128489D01*
X228075264Y-71128501D01*
X228135602Y-71274172D01*
X228135609Y-71274185D01*
X228223210Y-71405288D01*
X228223213Y-71405292D01*
X228334707Y-71516786D01*
X228334711Y-71516789D01*
X228465814Y-71604390D01*
X228465827Y-71604397D01*
X228588973Y-71655405D01*
X228611503Y-71664737D01*
X228750679Y-71692421D01*
X228766153Y-71695499D01*
X228766156Y-71695500D01*
X228766158Y-71695500D01*
X228923844Y-71695500D01*
X228923845Y-71695499D01*
X229078497Y-71664737D01*
X229224179Y-71604394D01*
X229355289Y-71516789D01*
X229424603Y-71447474D01*
X229485924Y-71413991D01*
X229555616Y-71418975D01*
X229611550Y-71460846D01*
X229633900Y-71510965D01*
X229660261Y-71643491D01*
X229660264Y-71643501D01*
X229720602Y-71789172D01*
X229720609Y-71789185D01*
X229808210Y-71920288D01*
X229808213Y-71920292D01*
X229919707Y-72031786D01*
X229919711Y-72031789D01*
X230050814Y-72119390D01*
X230050827Y-72119397D01*
X230196498Y-72179735D01*
X230196503Y-72179737D01*
X230347312Y-72209735D01*
X230351153Y-72210499D01*
X230351156Y-72210500D01*
X230351158Y-72210500D01*
X230508844Y-72210500D01*
X230508845Y-72210499D01*
X230663497Y-72179737D01*
X230809179Y-72119394D01*
X230940289Y-72031789D01*
X231051789Y-71920289D01*
X231139394Y-71789179D01*
X231199737Y-71643497D01*
X231230500Y-71488842D01*
X231230500Y-71331158D01*
X231230500Y-71331155D01*
X231202274Y-71189258D01*
X231199737Y-71176503D01*
X231197521Y-71171153D01*
X236899500Y-71171153D01*
X236899500Y-71328846D01*
X236930261Y-71483489D01*
X236930264Y-71483501D01*
X236990602Y-71629172D01*
X236990609Y-71629185D01*
X237078210Y-71760288D01*
X237078213Y-71760292D01*
X237189707Y-71871786D01*
X237189711Y-71871789D01*
X237320814Y-71959390D01*
X237320827Y-71959397D01*
X237442288Y-72009707D01*
X237466503Y-72019737D01*
X237621153Y-72050499D01*
X237621156Y-72050500D01*
X237621158Y-72050500D01*
X237778844Y-72050500D01*
X237778845Y-72050499D01*
X237933497Y-72019737D01*
X238079179Y-71959394D01*
X238210289Y-71871789D01*
X238321789Y-71760289D01*
X238409394Y-71629179D01*
X238469737Y-71483497D01*
X238500500Y-71328842D01*
X238500500Y-71171158D01*
X238500500Y-71171155D01*
X238500499Y-71171153D01*
X238497673Y-71156947D01*
X238469737Y-71016503D01*
X238459608Y-70992049D01*
X238409397Y-70870827D01*
X238409390Y-70870814D01*
X238321789Y-70739711D01*
X238321786Y-70739707D01*
X238210292Y-70628213D01*
X238210288Y-70628210D01*
X238079185Y-70540609D01*
X238079172Y-70540602D01*
X237933501Y-70480264D01*
X237933489Y-70480261D01*
X237778845Y-70449500D01*
X237778842Y-70449500D01*
X237621158Y-70449500D01*
X237621155Y-70449500D01*
X237466510Y-70480261D01*
X237466498Y-70480264D01*
X237320827Y-70540602D01*
X237320814Y-70540609D01*
X237189711Y-70628210D01*
X237189707Y-70628213D01*
X237078213Y-70739707D01*
X237078210Y-70739711D01*
X236990609Y-70870814D01*
X236990602Y-70870827D01*
X236930264Y-71016498D01*
X236930261Y-71016510D01*
X236899500Y-71171153D01*
X231197521Y-71171153D01*
X231179854Y-71128501D01*
X231139397Y-71030827D01*
X231139390Y-71030814D01*
X231051789Y-70899711D01*
X231051786Y-70899707D01*
X230940292Y-70788213D01*
X230940288Y-70788210D01*
X230809185Y-70700609D01*
X230809172Y-70700602D01*
X230663501Y-70640264D01*
X230663489Y-70640261D01*
X230508845Y-70609500D01*
X230508842Y-70609500D01*
X230351158Y-70609500D01*
X230351155Y-70609500D01*
X230196510Y-70640261D01*
X230196498Y-70640264D01*
X230050827Y-70700602D01*
X230050814Y-70700609D01*
X229919711Y-70788210D01*
X229850397Y-70857524D01*
X229789073Y-70891008D01*
X229719382Y-70886023D01*
X229663448Y-70844152D01*
X229641099Y-70794033D01*
X229632219Y-70749390D01*
X229614737Y-70661503D01*
X229588809Y-70598907D01*
X229554397Y-70515827D01*
X229554390Y-70515814D01*
X229466789Y-70384711D01*
X229466786Y-70384707D01*
X229355292Y-70273213D01*
X229355288Y-70273210D01*
X229224185Y-70185609D01*
X229224172Y-70185602D01*
X229078501Y-70125264D01*
X229078489Y-70125261D01*
X228923845Y-70094500D01*
X228923842Y-70094500D01*
X228766158Y-70094500D01*
X228766155Y-70094500D01*
X228611510Y-70125261D01*
X228611498Y-70125264D01*
X228465827Y-70185602D01*
X228465814Y-70185609D01*
X228334711Y-70273210D01*
X228334707Y-70273213D01*
X228223213Y-70384707D01*
X228223210Y-70384711D01*
X228135609Y-70515814D01*
X228135602Y-70515827D01*
X228075264Y-70661498D01*
X228075261Y-70661510D01*
X228044500Y-70816153D01*
X216431241Y-70816153D01*
X216463497Y-70809737D01*
X216609179Y-70749394D01*
X216740289Y-70661789D01*
X216851789Y-70550289D01*
X216939394Y-70419179D01*
X216939677Y-70418497D01*
X216999735Y-70273501D01*
X216999737Y-70273497D01*
X217030500Y-70118842D01*
X217030500Y-69961158D01*
X217030500Y-69961155D01*
X217030499Y-69961153D01*
X216999738Y-69806510D01*
X216999737Y-69806503D01*
X216988879Y-69780290D01*
X216939397Y-69660827D01*
X216939390Y-69660814D01*
X216851789Y-69529711D01*
X216851786Y-69529707D01*
X216740292Y-69418213D01*
X216740288Y-69418210D01*
X216609185Y-69330609D01*
X216609172Y-69330602D01*
X216463501Y-69270264D01*
X216463489Y-69270261D01*
X216308845Y-69239500D01*
X216308842Y-69239500D01*
X216211428Y-69239500D01*
X216144389Y-69219815D01*
X216108326Y-69184390D01*
X216032954Y-69071588D01*
X216032948Y-69071580D01*
X215928419Y-68967051D01*
X215928415Y-68967048D01*
X215805501Y-68884919D01*
X215805488Y-68884912D01*
X215668917Y-68828343D01*
X215668907Y-68828340D01*
X215523920Y-68799500D01*
X215523918Y-68799500D01*
X215376082Y-68799500D01*
X215376080Y-68799500D01*
X215231092Y-68828340D01*
X215231082Y-68828343D01*
X215094511Y-68884912D01*
X215094498Y-68884919D01*
X214971584Y-68967048D01*
X214971580Y-68967051D01*
X214867051Y-69071580D01*
X214867048Y-69071584D01*
X214784919Y-69194498D01*
X214784912Y-69194511D01*
X214728343Y-69331082D01*
X214728340Y-69331092D01*
X214699500Y-69476079D01*
X214699500Y-69476082D01*
X214699500Y-69623918D01*
X214699500Y-69623920D01*
X214699499Y-69623920D01*
X155950500Y-69623920D01*
X155950500Y-68243920D01*
X198439499Y-68243920D01*
X198468340Y-68388907D01*
X198468343Y-68388917D01*
X198524912Y-68525488D01*
X198524919Y-68525501D01*
X198607048Y-68648415D01*
X198607051Y-68648419D01*
X198711580Y-68752948D01*
X198711584Y-68752951D01*
X198834498Y-68835080D01*
X198834511Y-68835087D01*
X198971082Y-68891656D01*
X198971087Y-68891658D01*
X198971091Y-68891658D01*
X198971092Y-68891659D01*
X199116079Y-68920500D01*
X199116082Y-68920500D01*
X199263920Y-68920500D01*
X199368233Y-68899750D01*
X199408913Y-68891658D01*
X199545495Y-68835084D01*
X199668416Y-68752951D01*
X199772951Y-68648416D01*
X199855084Y-68525495D01*
X199911658Y-68388913D01*
X199937695Y-68258019D01*
X199940500Y-68243920D01*
X199940500Y-68096079D01*
X199911659Y-67951092D01*
X199911658Y-67951091D01*
X199911658Y-67951087D01*
X199884940Y-67886584D01*
X199855087Y-67814511D01*
X199855080Y-67814498D01*
X199772951Y-67691584D01*
X199772948Y-67691580D01*
X199668419Y-67587051D01*
X199668415Y-67587048D01*
X199545501Y-67504919D01*
X199545488Y-67504912D01*
X199408917Y-67448343D01*
X199408907Y-67448340D01*
X199263920Y-67419500D01*
X199263918Y-67419500D01*
X199116082Y-67419500D01*
X199116080Y-67419500D01*
X198971092Y-67448340D01*
X198971082Y-67448343D01*
X198834511Y-67504912D01*
X198834498Y-67504919D01*
X198711584Y-67587048D01*
X198711580Y-67587051D01*
X198607051Y-67691580D01*
X198607048Y-67691584D01*
X198524919Y-67814498D01*
X198524912Y-67814511D01*
X198468343Y-67951082D01*
X198468340Y-67951092D01*
X198439500Y-68096079D01*
X198439500Y-68096082D01*
X198439500Y-68243918D01*
X198439500Y-68243920D01*
X198439499Y-68243920D01*
X155950500Y-68243920D01*
X155950500Y-63783753D01*
X163110000Y-63783753D01*
X163110000Y-63996246D01*
X163143242Y-64206127D01*
X163143242Y-64206130D01*
X163208904Y-64408217D01*
X163305375Y-64597550D01*
X163344728Y-64651716D01*
X163977037Y-64019408D01*
X163994075Y-64082993D01*
X164059901Y-64197007D01*
X164152993Y-64290099D01*
X164267007Y-64355925D01*
X164330590Y-64372962D01*
X163698282Y-65005269D01*
X163698282Y-65005270D01*
X163752449Y-65044624D01*
X163941782Y-65141095D01*
X164143870Y-65206757D01*
X164353754Y-65240000D01*
X164566246Y-65240000D01*
X164776127Y-65206757D01*
X164776130Y-65206757D01*
X164978217Y-65141095D01*
X165167554Y-65044622D01*
X165221716Y-65005270D01*
X165221717Y-65005270D01*
X164589408Y-64372962D01*
X164652993Y-64355925D01*
X164767007Y-64290099D01*
X164860099Y-64197007D01*
X164925925Y-64082993D01*
X164942962Y-64019409D01*
X165575270Y-64651717D01*
X165575270Y-64651716D01*
X165614622Y-64597555D01*
X165619232Y-64588507D01*
X165667205Y-64537709D01*
X165735025Y-64520912D01*
X165801161Y-64543447D01*
X165840204Y-64588504D01*
X165844949Y-64597817D01*
X165969890Y-64769786D01*
X166120213Y-64920109D01*
X166292179Y-65045048D01*
X166292181Y-65045049D01*
X166292184Y-65045051D01*
X166481588Y-65141557D01*
X166683757Y-65207246D01*
X166893713Y-65240500D01*
X166893714Y-65240500D01*
X167106286Y-65240500D01*
X167106287Y-65240500D01*
X167316243Y-65207246D01*
X167518412Y-65141557D01*
X167707816Y-65045051D01*
X167794138Y-64982335D01*
X167879786Y-64920109D01*
X167879788Y-64920106D01*
X167879792Y-64920104D01*
X168030104Y-64769792D01*
X168030106Y-64769788D01*
X168030109Y-64769786D01*
X168155048Y-64597820D01*
X168155050Y-64597817D01*
X168155051Y-64597816D01*
X168159514Y-64589054D01*
X168207488Y-64538259D01*
X168275308Y-64521463D01*
X168341444Y-64543999D01*
X168380486Y-64589056D01*
X168384951Y-64597820D01*
X168509890Y-64769786D01*
X168660213Y-64920109D01*
X168832179Y-65045048D01*
X168832181Y-65045049D01*
X168832184Y-65045051D01*
X169021588Y-65141557D01*
X169223757Y-65207246D01*
X169433713Y-65240500D01*
X169433714Y-65240500D01*
X169646286Y-65240500D01*
X169646287Y-65240500D01*
X169856243Y-65207246D01*
X170058412Y-65141557D01*
X170247816Y-65045051D01*
X170334138Y-64982335D01*
X170419786Y-64920109D01*
X170419788Y-64920106D01*
X170419792Y-64920104D01*
X170570104Y-64769792D01*
X170570106Y-64769788D01*
X170570109Y-64769786D01*
X170695048Y-64597820D01*
X170695050Y-64597817D01*
X170695051Y-64597816D01*
X170699514Y-64589054D01*
X170747488Y-64538259D01*
X170815308Y-64521463D01*
X170881444Y-64543999D01*
X170920486Y-64589056D01*
X170924951Y-64597820D01*
X171049890Y-64769786D01*
X171200213Y-64920109D01*
X171372179Y-65045048D01*
X171372181Y-65045049D01*
X171372184Y-65045051D01*
X171561588Y-65141557D01*
X171763757Y-65207246D01*
X171973713Y-65240500D01*
X171973714Y-65240500D01*
X172186286Y-65240500D01*
X172186287Y-65240500D01*
X172396243Y-65207246D01*
X172598412Y-65141557D01*
X172787816Y-65045051D01*
X172928288Y-64942993D01*
X172959784Y-64920110D01*
X172959784Y-64920109D01*
X172959792Y-64920104D01*
X173073329Y-64806566D01*
X173134648Y-64773084D01*
X173204340Y-64778068D01*
X173260274Y-64819939D01*
X173277189Y-64850917D01*
X173326202Y-64982328D01*
X173326206Y-64982335D01*
X173412452Y-65097544D01*
X173412455Y-65097547D01*
X173527664Y-65183793D01*
X173527671Y-65183797D01*
X173662517Y-65234091D01*
X173662516Y-65234091D01*
X173669444Y-65234835D01*
X173722127Y-65240500D01*
X175517872Y-65240499D01*
X175577483Y-65234091D01*
X175712331Y-65183796D01*
X175827546Y-65097546D01*
X175913796Y-64982331D01*
X175964091Y-64847483D01*
X175970500Y-64787873D01*
X175970500Y-63963920D01*
X177809499Y-63963920D01*
X177838340Y-64108907D01*
X177838343Y-64108917D01*
X177894912Y-64245488D01*
X177894919Y-64245501D01*
X177977048Y-64368415D01*
X177977051Y-64368419D01*
X178081580Y-64472948D01*
X178081584Y-64472951D01*
X178204498Y-64555080D01*
X178204511Y-64555087D01*
X178307679Y-64597820D01*
X178341087Y-64611658D01*
X178341091Y-64611658D01*
X178341092Y-64611659D01*
X178486079Y-64640500D01*
X178486082Y-64640500D01*
X178633920Y-64640500D01*
X178731462Y-64621096D01*
X178778913Y-64611658D01*
X178884547Y-64567902D01*
X178915488Y-64555087D01*
X178915488Y-64555086D01*
X178915495Y-64555084D01*
X179038416Y-64472951D01*
X179142951Y-64368416D01*
X179225084Y-64245495D01*
X179230845Y-64231588D01*
X179272475Y-64131082D01*
X179281658Y-64108913D01*
X179294879Y-64042449D01*
X179310500Y-63963920D01*
X179310500Y-63852135D01*
X180949500Y-63852135D01*
X180949500Y-65647870D01*
X180949501Y-65647876D01*
X180955908Y-65707483D01*
X181006202Y-65842328D01*
X181006206Y-65842335D01*
X181092452Y-65957544D01*
X181092455Y-65957547D01*
X181207664Y-66043793D01*
X181207671Y-66043797D01*
X181342517Y-66094091D01*
X181342516Y-66094091D01*
X181349444Y-66094835D01*
X181402127Y-66100500D01*
X183197872Y-66100499D01*
X183257483Y-66094091D01*
X183392331Y-66043796D01*
X183507546Y-65957546D01*
X183593796Y-65842331D01*
X183642810Y-65710916D01*
X183684681Y-65654984D01*
X183750145Y-65630566D01*
X183818418Y-65645417D01*
X183846673Y-65666569D01*
X183960213Y-65780109D01*
X184132179Y-65905048D01*
X184132181Y-65905049D01*
X184132184Y-65905051D01*
X184321588Y-66001557D01*
X184523757Y-66067246D01*
X184733713Y-66100500D01*
X184733714Y-66100500D01*
X184946286Y-66100500D01*
X184946287Y-66100500D01*
X185156243Y-66067246D01*
X185358412Y-66001557D01*
X185547816Y-65905051D01*
X185634138Y-65842335D01*
X185719786Y-65780109D01*
X185719788Y-65780106D01*
X185719792Y-65780104D01*
X185870104Y-65629792D01*
X185870106Y-65629788D01*
X185870109Y-65629786D01*
X185995048Y-65457820D01*
X185995047Y-65457820D01*
X185995051Y-65457816D01*
X185999514Y-65449054D01*
X186047488Y-65398259D01*
X186115308Y-65381463D01*
X186181444Y-65403999D01*
X186220486Y-65449056D01*
X186224951Y-65457820D01*
X186349890Y-65629786D01*
X186500213Y-65780109D01*
X186672179Y-65905048D01*
X186672181Y-65905049D01*
X186672184Y-65905051D01*
X186861588Y-66001557D01*
X187063757Y-66067246D01*
X187273713Y-66100500D01*
X187273714Y-66100500D01*
X187486286Y-66100500D01*
X187486287Y-66100500D01*
X187696243Y-66067246D01*
X187898412Y-66001557D01*
X188087816Y-65905051D01*
X188174138Y-65842335D01*
X188259786Y-65780109D01*
X188259788Y-65780106D01*
X188259792Y-65780104D01*
X188410104Y-65629792D01*
X188410106Y-65629788D01*
X188410109Y-65629786D01*
X188495890Y-65511717D01*
X188535051Y-65457816D01*
X188539793Y-65448508D01*
X188587763Y-65397711D01*
X188655583Y-65380911D01*
X188721719Y-65403445D01*
X188760763Y-65448500D01*
X188765373Y-65457547D01*
X188804728Y-65511716D01*
X189437037Y-64879408D01*
X189454075Y-64942993D01*
X189519901Y-65057007D01*
X189612993Y-65150099D01*
X189727007Y-65215925D01*
X189790590Y-65232962D01*
X189158282Y-65865269D01*
X189158282Y-65865270D01*
X189212449Y-65904624D01*
X189401782Y-66001095D01*
X189603870Y-66066757D01*
X189813754Y-66100000D01*
X190026246Y-66100000D01*
X190236127Y-66066757D01*
X190236130Y-66066757D01*
X190438217Y-66001095D01*
X190627554Y-65904622D01*
X190681716Y-65865270D01*
X190681717Y-65865270D01*
X190049408Y-65232962D01*
X190112993Y-65215925D01*
X190227007Y-65150099D01*
X190320099Y-65057007D01*
X190385925Y-64942993D01*
X190402962Y-64879408D01*
X191035270Y-65511717D01*
X191035270Y-65511716D01*
X191074622Y-65457554D01*
X191171095Y-65268217D01*
X191236757Y-65066130D01*
X191236757Y-65066127D01*
X191270000Y-64856246D01*
X191270000Y-64643753D01*
X191236757Y-64433872D01*
X191236757Y-64433869D01*
X191233524Y-64423920D01*
X194624499Y-64423920D01*
X194653340Y-64568907D01*
X194653343Y-64568917D01*
X194709912Y-64705488D01*
X194709919Y-64705501D01*
X194792048Y-64828415D01*
X194792051Y-64828419D01*
X194896580Y-64932948D01*
X194896584Y-64932951D01*
X195019498Y-65015080D01*
X195019511Y-65015087D01*
X195120716Y-65057007D01*
X195156087Y-65071658D01*
X195192471Y-65078895D01*
X195254380Y-65111279D01*
X195288955Y-65171994D01*
X195289896Y-65176320D01*
X195303340Y-65243907D01*
X195303343Y-65243917D01*
X195359912Y-65380488D01*
X195359919Y-65380501D01*
X195442048Y-65503415D01*
X195442051Y-65503419D01*
X195546580Y-65607948D01*
X195546584Y-65607951D01*
X195669498Y-65690080D01*
X195669511Y-65690087D01*
X195806082Y-65746656D01*
X195806087Y-65746658D01*
X195806091Y-65746658D01*
X195806092Y-65746659D01*
X195951079Y-65775500D01*
X195951082Y-65775500D01*
X196098920Y-65775500D01*
X196196462Y-65756096D01*
X196243913Y-65746658D01*
X196380495Y-65690084D01*
X196503416Y-65607951D01*
X196607951Y-65503416D01*
X196690084Y-65380495D01*
X196746658Y-65243913D01*
X196765319Y-65150099D01*
X196775500Y-65098920D01*
X196775500Y-64951079D01*
X196746659Y-64806092D01*
X196746658Y-64806091D01*
X196746658Y-64806087D01*
X196704989Y-64705488D01*
X196690087Y-64669511D01*
X196690080Y-64669498D01*
X196607951Y-64546584D01*
X196607948Y-64546580D01*
X196503419Y-64442051D01*
X196503415Y-64442048D01*
X196380501Y-64359919D01*
X196380488Y-64359912D01*
X196243915Y-64303342D01*
X196243910Y-64303341D01*
X196207526Y-64296103D01*
X196145616Y-64263716D01*
X196111043Y-64203000D01*
X196110103Y-64198677D01*
X196096659Y-64131094D01*
X196096659Y-64131092D01*
X196096658Y-64131087D01*
X196096656Y-64131082D01*
X196040087Y-63994511D01*
X196040080Y-63994498D01*
X195957951Y-63871584D01*
X195957948Y-63871580D01*
X195853419Y-63767051D01*
X195853415Y-63767048D01*
X195730501Y-63684919D01*
X195730488Y-63684912D01*
X195593917Y-63628343D01*
X195593907Y-63628340D01*
X195448920Y-63599500D01*
X195448918Y-63599500D01*
X195301082Y-63599500D01*
X195301080Y-63599500D01*
X195156092Y-63628340D01*
X195156082Y-63628343D01*
X195019511Y-63684912D01*
X195019498Y-63684919D01*
X194896584Y-63767048D01*
X194896580Y-63767051D01*
X194792051Y-63871580D01*
X194792048Y-63871584D01*
X194709919Y-63994498D01*
X194709912Y-63994511D01*
X194653343Y-64131082D01*
X194653340Y-64131092D01*
X194624500Y-64276079D01*
X194624500Y-64276082D01*
X194624500Y-64423918D01*
X194624500Y-64423920D01*
X194624499Y-64423920D01*
X191233524Y-64423920D01*
X191195960Y-64308308D01*
X191171095Y-64231782D01*
X191074624Y-64042449D01*
X191035270Y-63988282D01*
X191035269Y-63988282D01*
X190402962Y-64620590D01*
X190385925Y-64557007D01*
X190320099Y-64442993D01*
X190227007Y-64349901D01*
X190112993Y-64284075D01*
X190049409Y-64267037D01*
X190681716Y-63634728D01*
X190627550Y-63595375D01*
X190438217Y-63498904D01*
X190236129Y-63433242D01*
X190026246Y-63400000D01*
X189813754Y-63400000D01*
X189603872Y-63433242D01*
X189603869Y-63433242D01*
X189401782Y-63498904D01*
X189212439Y-63595380D01*
X189158282Y-63634727D01*
X189158282Y-63634728D01*
X189790591Y-64267037D01*
X189727007Y-64284075D01*
X189612993Y-64349901D01*
X189519901Y-64442993D01*
X189454075Y-64557007D01*
X189437037Y-64620591D01*
X188804728Y-63988282D01*
X188804727Y-63988282D01*
X188765380Y-64042440D01*
X188765376Y-64042446D01*
X188760760Y-64051505D01*
X188712781Y-64102297D01*
X188644959Y-64119087D01*
X188578826Y-64096543D01*
X188539794Y-64051493D01*
X188535051Y-64042184D01*
X188535049Y-64042181D01*
X188535048Y-64042179D01*
X188410109Y-63870213D01*
X188259786Y-63719890D01*
X188087820Y-63594951D01*
X187898414Y-63498444D01*
X187898413Y-63498443D01*
X187898412Y-63498443D01*
X187696243Y-63432754D01*
X187696241Y-63432753D01*
X187696240Y-63432753D01*
X187534957Y-63407208D01*
X187486287Y-63399500D01*
X187273713Y-63399500D01*
X187225042Y-63407208D01*
X187063760Y-63432753D01*
X186979540Y-63460118D01*
X186887878Y-63489901D01*
X186861585Y-63498444D01*
X186672179Y-63594951D01*
X186500213Y-63719890D01*
X186349890Y-63870213D01*
X186224949Y-64042182D01*
X186220484Y-64050946D01*
X186172509Y-64101742D01*
X186104688Y-64118536D01*
X186038553Y-64095998D01*
X185999516Y-64050946D01*
X185995050Y-64042182D01*
X185870109Y-63870213D01*
X185719786Y-63719890D01*
X185547820Y-63594951D01*
X185358414Y-63498444D01*
X185358413Y-63498443D01*
X185358412Y-63498443D01*
X185156243Y-63432754D01*
X185156241Y-63432753D01*
X185156240Y-63432753D01*
X184994957Y-63407208D01*
X184946287Y-63399500D01*
X184733713Y-63399500D01*
X184685042Y-63407208D01*
X184523760Y-63432753D01*
X184439540Y-63460118D01*
X184347878Y-63489901D01*
X184321585Y-63498444D01*
X184132179Y-63594951D01*
X183960215Y-63719889D01*
X183846673Y-63833431D01*
X183785350Y-63866915D01*
X183715658Y-63861931D01*
X183659725Y-63820059D01*
X183642810Y-63789082D01*
X183593797Y-63657671D01*
X183593793Y-63657664D01*
X183507547Y-63542455D01*
X183507544Y-63542452D01*
X183392335Y-63456206D01*
X183392328Y-63456202D01*
X183257482Y-63405908D01*
X183257483Y-63405908D01*
X183197883Y-63399501D01*
X183197881Y-63399500D01*
X183197873Y-63399500D01*
X183197864Y-63399500D01*
X181402129Y-63399500D01*
X181402123Y-63399501D01*
X181342516Y-63405908D01*
X181207671Y-63456202D01*
X181207664Y-63456206D01*
X181092455Y-63542452D01*
X181092452Y-63542455D01*
X181006206Y-63657664D01*
X181006202Y-63657671D01*
X180955908Y-63792517D01*
X180949501Y-63852116D01*
X180949500Y-63852135D01*
X179310500Y-63852135D01*
X179310500Y-63816079D01*
X179281659Y-63671092D01*
X179281658Y-63671091D01*
X179281658Y-63671087D01*
X179263953Y-63628343D01*
X179225087Y-63534511D01*
X179225080Y-63534498D01*
X179142951Y-63411584D01*
X179142948Y-63411580D01*
X179038419Y-63307051D01*
X179038415Y-63307048D01*
X178915501Y-63224919D01*
X178915488Y-63224912D01*
X178778917Y-63168343D01*
X178778907Y-63168340D01*
X178633920Y-63139500D01*
X178633918Y-63139500D01*
X178486082Y-63139500D01*
X178486080Y-63139500D01*
X178341092Y-63168340D01*
X178341082Y-63168343D01*
X178204511Y-63224912D01*
X178204498Y-63224919D01*
X178081584Y-63307048D01*
X178081580Y-63307051D01*
X177977051Y-63411580D01*
X177977048Y-63411584D01*
X177894919Y-63534498D01*
X177894912Y-63534511D01*
X177838343Y-63671082D01*
X177838340Y-63671092D01*
X177809500Y-63816079D01*
X177809500Y-63816082D01*
X177809500Y-63963918D01*
X177809500Y-63963920D01*
X177809499Y-63963920D01*
X175970500Y-63963920D01*
X175970499Y-62992128D01*
X175964091Y-62932517D01*
X175962810Y-62929083D01*
X175913797Y-62797671D01*
X175913793Y-62797664D01*
X175827547Y-62682455D01*
X175827544Y-62682452D01*
X175712335Y-62596206D01*
X175712328Y-62596202D01*
X175577482Y-62545908D01*
X175577483Y-62545908D01*
X175517883Y-62539501D01*
X175517881Y-62539500D01*
X175517873Y-62539500D01*
X175517864Y-62539500D01*
X173722129Y-62539500D01*
X173722123Y-62539501D01*
X173662516Y-62545908D01*
X173527671Y-62596202D01*
X173527664Y-62596206D01*
X173412455Y-62682452D01*
X173412452Y-62682455D01*
X173326206Y-62797664D01*
X173326203Y-62797669D01*
X173277189Y-62929083D01*
X173235317Y-62985016D01*
X173169853Y-63009433D01*
X173101580Y-62994581D01*
X173073326Y-62973430D01*
X172959786Y-62859890D01*
X172787820Y-62734951D01*
X172598414Y-62638444D01*
X172598413Y-62638443D01*
X172598412Y-62638443D01*
X172396243Y-62572754D01*
X172396241Y-62572753D01*
X172396240Y-62572753D01*
X172234957Y-62547208D01*
X172186287Y-62539500D01*
X171973713Y-62539500D01*
X171925042Y-62547208D01*
X171763760Y-62572753D01*
X171561585Y-62638444D01*
X171372179Y-62734951D01*
X171200213Y-62859890D01*
X171049890Y-63010213D01*
X170924949Y-63182182D01*
X170920484Y-63190946D01*
X170872509Y-63241742D01*
X170804688Y-63258536D01*
X170738553Y-63235998D01*
X170699516Y-63190946D01*
X170695050Y-63182182D01*
X170570109Y-63010213D01*
X170419786Y-62859890D01*
X170247820Y-62734951D01*
X170058414Y-62638444D01*
X170058413Y-62638443D01*
X170058412Y-62638443D01*
X169856243Y-62572754D01*
X169856241Y-62572753D01*
X169856240Y-62572753D01*
X169694957Y-62547208D01*
X169646287Y-62539500D01*
X169433713Y-62539500D01*
X169385042Y-62547208D01*
X169223760Y-62572753D01*
X169021585Y-62638444D01*
X168832179Y-62734951D01*
X168660213Y-62859890D01*
X168509890Y-63010213D01*
X168384949Y-63182182D01*
X168380484Y-63190946D01*
X168332509Y-63241742D01*
X168264688Y-63258536D01*
X168198553Y-63235998D01*
X168159516Y-63190946D01*
X168155050Y-63182182D01*
X168030109Y-63010213D01*
X167879786Y-62859890D01*
X167707820Y-62734951D01*
X167518414Y-62638444D01*
X167518413Y-62638443D01*
X167518412Y-62638443D01*
X167316243Y-62572754D01*
X167316241Y-62572753D01*
X167316240Y-62572753D01*
X167154957Y-62547208D01*
X167106287Y-62539500D01*
X166893713Y-62539500D01*
X166845042Y-62547208D01*
X166683760Y-62572753D01*
X166481585Y-62638444D01*
X166292179Y-62734951D01*
X166120213Y-62859890D01*
X165969890Y-63010213D01*
X165844949Y-63182182D01*
X165840202Y-63191499D01*
X165792227Y-63242293D01*
X165724405Y-63259087D01*
X165658271Y-63236548D01*
X165619234Y-63191495D01*
X165614626Y-63182452D01*
X165575270Y-63128282D01*
X165575269Y-63128282D01*
X164942962Y-63760590D01*
X164925925Y-63697007D01*
X164860099Y-63582993D01*
X164767007Y-63489901D01*
X164652993Y-63424075D01*
X164589409Y-63407037D01*
X165221716Y-62774728D01*
X165167550Y-62735375D01*
X164978217Y-62638904D01*
X164776129Y-62573242D01*
X164566246Y-62540000D01*
X164353754Y-62540000D01*
X164143872Y-62573242D01*
X164143869Y-62573242D01*
X163941782Y-62638904D01*
X163752439Y-62735380D01*
X163698282Y-62774727D01*
X163698282Y-62774728D01*
X164330591Y-63407037D01*
X164267007Y-63424075D01*
X164152993Y-63489901D01*
X164059901Y-63582993D01*
X163994075Y-63697007D01*
X163977037Y-63760591D01*
X163344728Y-63128282D01*
X163344727Y-63128282D01*
X163305380Y-63182439D01*
X163208904Y-63371782D01*
X163143242Y-63573869D01*
X163143242Y-63573872D01*
X163110000Y-63783753D01*
X155950500Y-63783753D01*
X155950500Y-63504066D01*
X155950765Y-63495956D01*
X155953370Y-63456206D01*
X155965364Y-63273207D01*
X155967479Y-63257153D01*
X156010232Y-63042215D01*
X156014425Y-63026568D01*
X156084867Y-62819052D01*
X156091064Y-62804088D01*
X156187996Y-62607530D01*
X156196100Y-62593494D01*
X156317845Y-62411289D01*
X156327711Y-62398430D01*
X156472207Y-62233665D01*
X156483665Y-62222207D01*
X156648430Y-62077711D01*
X156661289Y-62067845D01*
X156843494Y-61946100D01*
X156857530Y-61937996D01*
X157054081Y-61841068D01*
X157069052Y-61834867D01*
X157276568Y-61764425D01*
X157292215Y-61760232D01*
X157507153Y-61717479D01*
X157523209Y-61715364D01*
X157728058Y-61701938D01*
X157745958Y-61700765D01*
X157754067Y-61700500D01*
X157789882Y-61700500D01*
X206460118Y-61700500D01*
X206495933Y-61700500D01*
X206504043Y-61700765D01*
G37*
%TD.AperFunction*%
%TD*%
%TA.AperFunction,Conductor*%
%TO.N,/VBUS*%
G36*
X180860000Y-96040000D02*
G01*
X181384116Y-96059411D01*
X181399999Y-96060000D01*
X181400000Y-96060000D01*
X183301474Y-96060000D01*
X183368513Y-96079685D01*
X183414268Y-96132489D01*
X183425348Y-96178405D01*
X183571030Y-99403723D01*
X186244323Y-99341308D01*
X186294661Y-99350712D01*
X186321087Y-99361658D01*
X186321090Y-99361658D01*
X186321091Y-99361659D01*
X186466079Y-99390500D01*
X186466082Y-99390500D01*
X186613920Y-99390500D01*
X186758908Y-99361659D01*
X186758908Y-99361658D01*
X186758913Y-99361658D01*
X186758915Y-99361656D01*
X186758919Y-99361656D01*
X186808042Y-99341308D01*
X186820314Y-99336224D01*
X186864866Y-99326820D01*
X193956268Y-99161254D01*
X194023747Y-99179368D01*
X194047650Y-99198354D01*
X194380868Y-99537800D01*
X194413784Y-99599431D01*
X194408155Y-99669073D01*
X194365767Y-99724617D01*
X194316572Y-99746283D01*
X194281091Y-99753341D01*
X194281082Y-99753343D01*
X194144511Y-99809912D01*
X194144498Y-99809919D01*
X194021584Y-99892048D01*
X194021580Y-99892051D01*
X193917051Y-99996580D01*
X193917048Y-99996584D01*
X193834919Y-100119498D01*
X193834912Y-100119511D01*
X193778343Y-100256082D01*
X193778340Y-100256092D01*
X193749500Y-100401079D01*
X193749500Y-100401082D01*
X193749500Y-100548918D01*
X193749500Y-100548920D01*
X193749499Y-100548920D01*
X193778340Y-100693907D01*
X193778343Y-100693917D01*
X193834912Y-100830488D01*
X193834919Y-100830501D01*
X193917048Y-100953415D01*
X193917051Y-100953419D01*
X194021580Y-101057948D01*
X194021584Y-101057951D01*
X194144498Y-101140080D01*
X194144511Y-101140087D01*
X194281082Y-101196656D01*
X194281087Y-101196658D01*
X194281091Y-101196658D01*
X194281092Y-101196659D01*
X194426079Y-101225500D01*
X194426082Y-101225500D01*
X194573920Y-101225500D01*
X194671462Y-101206096D01*
X194718913Y-101196658D01*
X194855495Y-101140084D01*
X194978416Y-101057951D01*
X195041399Y-100994967D01*
X195102720Y-100961484D01*
X195172412Y-100966468D01*
X195228346Y-101008339D01*
X195252763Y-101073803D01*
X195252848Y-101090208D01*
X195043894Y-104511823D01*
X195020160Y-104577538D01*
X195007806Y-104591946D01*
X194452349Y-105147404D01*
X194391026Y-105180889D01*
X194364668Y-105183723D01*
X193009779Y-105183723D01*
X192331398Y-105602986D01*
X191882415Y-106500954D01*
X191834828Y-106552113D01*
X191771506Y-106569500D01*
X191688992Y-106569500D01*
X191490880Y-106608907D01*
X191490872Y-106608909D01*
X191304247Y-106686212D01*
X191304236Y-106686218D01*
X191266742Y-106711270D01*
X191200065Y-106732146D01*
X191132685Y-106713660D01*
X191085996Y-106661680D01*
X191083293Y-106655618D01*
X191051549Y-106578980D01*
X191051547Y-106578976D01*
X190961211Y-106443779D01*
X190961205Y-106443771D01*
X190846228Y-106328794D01*
X190846220Y-106328788D01*
X190711023Y-106238452D01*
X190711019Y-106238450D01*
X190560793Y-106176225D01*
X190560783Y-106176222D01*
X190401307Y-106144500D01*
X190401305Y-106144500D01*
X190238695Y-106144500D01*
X190238693Y-106144500D01*
X190079216Y-106176222D01*
X190079210Y-106176224D01*
X190051783Y-106187585D01*
X189967451Y-106222516D01*
X189897984Y-106229985D01*
X189872550Y-106222517D01*
X189760789Y-106176224D01*
X189760783Y-106176222D01*
X189601307Y-106144500D01*
X189601305Y-106144500D01*
X189438695Y-106144500D01*
X189438693Y-106144500D01*
X189279216Y-106176222D01*
X189279215Y-106176223D01*
X189279214Y-106176223D01*
X189279211Y-106176224D01*
X189214049Y-106203214D01*
X189166799Y-106222786D01*
X189097329Y-106230254D01*
X189071895Y-106222785D01*
X188960648Y-106176705D01*
X188960636Y-106176702D01*
X188801259Y-106145000D01*
X188671500Y-106145000D01*
X188604461Y-106125315D01*
X188558706Y-106072511D01*
X188547500Y-106021000D01*
X188547500Y-105508194D01*
X188523386Y-105386970D01*
X188523385Y-105386969D01*
X188523385Y-105386965D01*
X188523383Y-105386960D01*
X188476086Y-105272773D01*
X188476079Y-105272760D01*
X188407412Y-105169993D01*
X188384077Y-105146658D01*
X188320008Y-105082589D01*
X187013819Y-103776400D01*
X187012465Y-103773920D01*
X188199499Y-103773920D01*
X188228340Y-103918907D01*
X188228343Y-103918917D01*
X188284912Y-104055488D01*
X188284919Y-104055501D01*
X188367048Y-104178415D01*
X188367051Y-104178419D01*
X188471580Y-104282948D01*
X188471584Y-104282951D01*
X188594498Y-104365080D01*
X188594511Y-104365087D01*
X188678814Y-104400006D01*
X188731087Y-104421658D01*
X188731091Y-104421658D01*
X188731092Y-104421659D01*
X188876079Y-104450500D01*
X188876082Y-104450500D01*
X189023920Y-104450500D01*
X189121462Y-104431096D01*
X189168913Y-104421658D01*
X189305495Y-104365084D01*
X189428416Y-104282951D01*
X189532951Y-104178416D01*
X189615084Y-104055495D01*
X189671658Y-103918913D01*
X189690827Y-103822547D01*
X189700500Y-103773920D01*
X189700500Y-103626079D01*
X189671659Y-103481092D01*
X189671658Y-103481091D01*
X189671658Y-103481087D01*
X189639703Y-103403941D01*
X189615087Y-103344511D01*
X189615080Y-103344498D01*
X189532951Y-103221584D01*
X189532948Y-103221580D01*
X189428419Y-103117051D01*
X189428415Y-103117048D01*
X189305501Y-103034919D01*
X189305488Y-103034912D01*
X189168917Y-102978343D01*
X189168907Y-102978340D01*
X189023920Y-102949500D01*
X189023918Y-102949500D01*
X188876082Y-102949500D01*
X188876080Y-102949500D01*
X188731092Y-102978340D01*
X188731082Y-102978343D01*
X188594511Y-103034912D01*
X188594498Y-103034919D01*
X188471584Y-103117048D01*
X188471580Y-103117051D01*
X188367051Y-103221580D01*
X188367048Y-103221584D01*
X188284919Y-103344498D01*
X188284912Y-103344511D01*
X188228343Y-103481082D01*
X188228340Y-103481092D01*
X188199500Y-103626079D01*
X188199500Y-103626082D01*
X188199500Y-103773918D01*
X188199500Y-103773920D01*
X188199499Y-103773920D01*
X187012465Y-103773920D01*
X186999115Y-103749472D01*
X186982523Y-103723654D01*
X186981631Y-103717453D01*
X186980334Y-103715077D01*
X186977500Y-103688719D01*
X186977500Y-103363194D01*
X186953386Y-103241970D01*
X186953385Y-103241969D01*
X186953385Y-103241965D01*
X186929617Y-103184586D01*
X186922568Y-103161348D01*
X186896658Y-103031087D01*
X186874811Y-102978343D01*
X186840087Y-102894511D01*
X186840080Y-102894498D01*
X186757951Y-102771584D01*
X186757948Y-102771580D01*
X186653419Y-102667051D01*
X186653415Y-102667048D01*
X186530501Y-102584919D01*
X186530488Y-102584912D01*
X186393917Y-102528343D01*
X186393907Y-102528340D01*
X186248920Y-102499500D01*
X186248918Y-102499500D01*
X186101082Y-102499500D01*
X186101080Y-102499500D01*
X185956092Y-102528340D01*
X185956082Y-102528343D01*
X185819511Y-102584912D01*
X185819498Y-102584919D01*
X185696584Y-102667048D01*
X185696580Y-102667051D01*
X185592051Y-102771580D01*
X185592048Y-102771584D01*
X185509919Y-102894498D01*
X185509912Y-102894511D01*
X185453343Y-103031082D01*
X185453340Y-103031092D01*
X185424500Y-103176079D01*
X185424500Y-103176082D01*
X185424500Y-103323918D01*
X185424500Y-103323920D01*
X185424499Y-103323920D01*
X185453340Y-103468907D01*
X185453343Y-103468917D01*
X185509912Y-103605488D01*
X185509919Y-103605501D01*
X185592047Y-103728414D01*
X185592048Y-103728415D01*
X185592049Y-103728416D01*
X185686182Y-103822549D01*
X185719666Y-103883870D01*
X185722500Y-103910229D01*
X185722500Y-104061807D01*
X185746612Y-104183028D01*
X185746615Y-104183039D01*
X185752065Y-104196195D01*
X185755827Y-104205276D01*
X185793917Y-104297233D01*
X185829509Y-104350500D01*
X185833535Y-104356526D01*
X185833536Y-104356527D01*
X185862587Y-104400006D01*
X185862591Y-104400011D01*
X187256181Y-105793600D01*
X187270884Y-105820527D01*
X187287477Y-105846346D01*
X187288368Y-105852546D01*
X187289666Y-105854923D01*
X187292500Y-105881281D01*
X187292500Y-106020500D01*
X187272815Y-106087539D01*
X187220011Y-106133294D01*
X187168500Y-106144500D01*
X187038693Y-106144500D01*
X186879216Y-106176222D01*
X186879215Y-106176223D01*
X186879214Y-106176223D01*
X186879211Y-106176224D01*
X186814049Y-106203214D01*
X186766799Y-106222786D01*
X186697329Y-106230254D01*
X186671895Y-106222785D01*
X186560648Y-106176705D01*
X186560636Y-106176702D01*
X186401259Y-106145000D01*
X186238740Y-106145000D01*
X186079363Y-106176702D01*
X186079360Y-106176703D01*
X185968103Y-106222786D01*
X185898633Y-106230254D01*
X185873199Y-106222785D01*
X185760793Y-106176225D01*
X185760783Y-106176222D01*
X185601307Y-106144500D01*
X185601305Y-106144500D01*
X185438695Y-106144500D01*
X185438693Y-106144500D01*
X185279216Y-106176222D01*
X185279210Y-106176224D01*
X185251783Y-106187585D01*
X185167451Y-106222516D01*
X185097984Y-106229985D01*
X185072550Y-106222517D01*
X184960789Y-106176224D01*
X184960783Y-106176222D01*
X184801307Y-106144500D01*
X184801305Y-106144500D01*
X184638695Y-106144500D01*
X184638693Y-106144500D01*
X184479216Y-106176222D01*
X184479200Y-106176227D01*
X184475089Y-106177930D01*
X184405619Y-106185393D01*
X184343143Y-106154112D01*
X184307496Y-106094020D01*
X184304007Y-106072798D01*
X184235916Y-105179103D01*
X184250451Y-105110763D01*
X184290665Y-105066584D01*
X184378416Y-105007951D01*
X184482951Y-104903416D01*
X184565084Y-104780495D01*
X184621658Y-104643913D01*
X184650500Y-104498918D01*
X184650500Y-104351082D01*
X184650500Y-104351079D01*
X184621659Y-104206092D01*
X184621658Y-104206091D01*
X184621658Y-104206087D01*
X184610196Y-104178415D01*
X184565087Y-104069511D01*
X184565080Y-104069498D01*
X184482951Y-103946584D01*
X184482948Y-103946580D01*
X184378419Y-103842051D01*
X184378415Y-103842048D01*
X184255501Y-103759919D01*
X184255491Y-103759914D01*
X184183307Y-103730014D01*
X184128903Y-103686172D01*
X184107193Y-103625813D01*
X184100000Y-103540000D01*
X184099999Y-103539999D01*
X182540363Y-103480665D01*
X182474120Y-103458446D01*
X182430406Y-103403941D01*
X182421110Y-103353938D01*
X182462558Y-101533998D01*
X185389421Y-101533998D01*
X185418262Y-101678985D01*
X185418265Y-101678995D01*
X185474834Y-101815566D01*
X185474841Y-101815579D01*
X185556970Y-101938493D01*
X185556973Y-101938497D01*
X185661502Y-102043026D01*
X185661506Y-102043029D01*
X185784420Y-102125158D01*
X185784433Y-102125165D01*
X185921004Y-102181734D01*
X185921009Y-102181736D01*
X185921013Y-102181736D01*
X185921014Y-102181737D01*
X186066001Y-102210578D01*
X186066004Y-102210578D01*
X186213842Y-102210578D01*
X186311384Y-102191174D01*
X186358835Y-102181736D01*
X186495417Y-102125162D01*
X186618338Y-102043029D01*
X186722873Y-101938494D01*
X186805006Y-101815573D01*
X186861580Y-101678991D01*
X186890422Y-101533996D01*
X186890422Y-101386160D01*
X186890422Y-101386157D01*
X186861581Y-101241170D01*
X186861580Y-101241169D01*
X186861580Y-101241165D01*
X186855091Y-101225500D01*
X186805009Y-101104589D01*
X186805002Y-101104576D01*
X186722873Y-100981662D01*
X186722870Y-100981658D01*
X186618341Y-100877129D01*
X186618337Y-100877126D01*
X186495423Y-100794997D01*
X186495410Y-100794990D01*
X186358839Y-100738421D01*
X186358829Y-100738418D01*
X186213842Y-100709578D01*
X186213840Y-100709578D01*
X186066004Y-100709578D01*
X186066002Y-100709578D01*
X185921014Y-100738418D01*
X185921004Y-100738421D01*
X185784433Y-100794990D01*
X185784420Y-100794997D01*
X185661506Y-100877126D01*
X185661502Y-100877129D01*
X185556973Y-100981658D01*
X185556970Y-100981662D01*
X185474841Y-101104576D01*
X185474834Y-101104589D01*
X185418265Y-101241160D01*
X185418262Y-101241170D01*
X185389422Y-101386157D01*
X185389422Y-101386160D01*
X185389422Y-101533996D01*
X185389422Y-101533998D01*
X185389421Y-101533998D01*
X182462558Y-101533998D01*
X182472614Y-101092438D01*
X182466030Y-101008339D01*
X182464667Y-100990925D01*
X182464666Y-100990922D01*
X182464666Y-100990915D01*
X182455815Y-100942004D01*
X182427681Y-100844134D01*
X182355738Y-100719531D01*
X182312546Y-100664610D01*
X182312542Y-100664606D01*
X182307782Y-100660067D01*
X182291637Y-100632102D01*
X182274265Y-100604877D01*
X182273732Y-100601087D01*
X182272849Y-100599557D01*
X182269826Y-100573920D01*
X183419499Y-100573920D01*
X183448340Y-100718907D01*
X183448343Y-100718917D01*
X183504912Y-100855488D01*
X183504919Y-100855501D01*
X183587048Y-100978415D01*
X183587051Y-100978419D01*
X183691580Y-101082948D01*
X183691584Y-101082951D01*
X183814498Y-101165080D01*
X183814511Y-101165087D01*
X183951082Y-101221656D01*
X183951087Y-101221658D01*
X183951091Y-101221658D01*
X183951092Y-101221659D01*
X184096079Y-101250500D01*
X184096082Y-101250500D01*
X184243920Y-101250500D01*
X184369598Y-101225500D01*
X184388913Y-101221658D01*
X184525495Y-101165084D01*
X184648416Y-101082951D01*
X184752951Y-100978416D01*
X184835084Y-100855495D01*
X184891658Y-100718913D01*
X184902461Y-100664606D01*
X184920500Y-100573920D01*
X184920500Y-100426079D01*
X184891659Y-100281092D01*
X184891658Y-100281091D01*
X184891658Y-100281087D01*
X184867445Y-100222632D01*
X184835087Y-100144511D01*
X184835080Y-100144498D01*
X184752951Y-100021584D01*
X184752948Y-100021580D01*
X184648419Y-99917051D01*
X184648415Y-99917048D01*
X184525501Y-99834919D01*
X184525488Y-99834912D01*
X184388917Y-99778343D01*
X184388907Y-99778340D01*
X184243920Y-99749500D01*
X184243918Y-99749500D01*
X184096082Y-99749500D01*
X184096080Y-99749500D01*
X183951092Y-99778340D01*
X183951082Y-99778343D01*
X183814511Y-99834912D01*
X183814498Y-99834919D01*
X183691584Y-99917048D01*
X183691580Y-99917051D01*
X183587051Y-100021580D01*
X183587048Y-100021584D01*
X183504919Y-100144498D01*
X183504912Y-100144511D01*
X183448343Y-100281082D01*
X183448340Y-100281092D01*
X183419500Y-100426079D01*
X183419500Y-100426082D01*
X183419500Y-100573918D01*
X183419500Y-100573920D01*
X183419499Y-100573920D01*
X182269826Y-100573920D01*
X182269355Y-100569926D01*
X182269840Y-100419590D01*
X182269840Y-100419589D01*
X182270000Y-100370000D01*
X180275773Y-100344212D01*
X180208993Y-100323662D01*
X180163925Y-100270271D01*
X180153399Y-100222636D01*
X180077832Y-96335079D01*
X180063753Y-96226038D01*
X180051145Y-96173923D01*
X180050759Y-96172855D01*
X180050743Y-96172587D01*
X180050177Y-96170703D01*
X180050353Y-96170649D01*
X180050351Y-96170639D01*
X180050550Y-96170590D01*
X180050620Y-96170569D01*
X180046518Y-96103118D01*
X180080655Y-96042155D01*
X180142331Y-96009325D01*
X180173364Y-96006909D01*
X180860000Y-96040000D01*
G37*
%TD.AperFunction*%
%TD*%
M02*
