%TF.GenerationSoftware,KiCad,Pcbnew,9.0.9*%
%TF.CreationDate,2026-07-13T22:37:57+05:30*%
%TF.ProjectId,STM32_IOT_project,53544d33-325f-4494-9f54-5f70726f6a65,rev?*%
%TF.SameCoordinates,Original*%
%TF.FileFunction,Copper,L1,Top*%
%TF.FilePolarity,Positive*%
%FSLAX46Y46*%
G04 Gerber Fmt 4.6, Leading zero omitted, Abs format (unit mm)*
G04 Created by KiCad (PCBNEW 9.0.9) date 2026-07-13 22:37:57*
%MOMM*%
%LPD*%
G01*
G04 APERTURE LIST*
G04 Aperture macros list*
%AMRoundRect*
0 Rectangle with rounded corners*
0 $1 Rounding radius*
0 $2 $3 $4 $5 $6 $7 $8 $9 X,Y pos of 4 corners*
0 Add a 4 corners polygon primitive as box body*
4,1,4,$2,$3,$4,$5,$6,$7,$8,$9,$2,$3,0*
0 Add four circle primitives for the rounded corners*
1,1,$1+$1,$2,$3*
1,1,$1+$1,$4,$5*
1,1,$1+$1,$6,$7*
1,1,$1+$1,$8,$9*
0 Add four rect primitives between the rounded corners*
20,1,$1+$1,$2,$3,$4,$5,0*
20,1,$1+$1,$4,$5,$6,$7,0*
20,1,$1+$1,$6,$7,$8,$9,0*
20,1,$1+$1,$8,$9,$2,$3,0*%
G04 Aperture macros list end*
%TA.AperFunction,SMDPad,CuDef*%
%ADD10R,2.700000X2.700000*%
%TD*%
%TA.AperFunction,SMDPad,CuDef*%
%ADD11RoundRect,0.065000X0.065000X0.355000X-0.065000X0.355000X-0.065000X-0.355000X0.065000X-0.355000X0*%
%TD*%
%TA.AperFunction,SMDPad,CuDef*%
%ADD12RoundRect,0.065000X0.355000X0.065000X-0.355000X0.065000X-0.355000X-0.065000X0.355000X-0.065000X0*%
%TD*%
%TA.AperFunction,SMDPad,CuDef*%
%ADD13C,1.000000*%
%TD*%
%TA.AperFunction,SMDPad,CuDef*%
%ADD14RoundRect,0.250000X-0.262500X-0.450000X0.262500X-0.450000X0.262500X0.450000X-0.262500X0.450000X0*%
%TD*%
%TA.AperFunction,ComponentPad*%
%ADD15C,1.208000*%
%TD*%
%TA.AperFunction,SMDPad,CuDef*%
%ADD16RoundRect,0.250000X0.250000X0.475000X-0.250000X0.475000X-0.250000X-0.475000X0.250000X-0.475000X0*%
%TD*%
%TA.AperFunction,SMDPad,CuDef*%
%ADD17RoundRect,0.250000X-0.250000X-0.475000X0.250000X-0.475000X0.250000X0.475000X-0.250000X0.475000X0*%
%TD*%
%TA.AperFunction,SMDPad,CuDef*%
%ADD18RoundRect,0.056250X0.168750X-0.188750X0.168750X0.188750X-0.168750X0.188750X-0.168750X-0.188750X0*%
%TD*%
%TA.AperFunction,SMDPad,CuDef*%
%ADD19R,0.550000X0.570000*%
%TD*%
%TA.AperFunction,SMDPad,CuDef*%
%ADD20RoundRect,0.250000X-0.450000X0.262500X-0.450000X-0.262500X0.450000X-0.262500X0.450000X0.262500X0*%
%TD*%
%TA.AperFunction,SMDPad,CuDef*%
%ADD21RoundRect,0.250000X0.262500X0.450000X-0.262500X0.450000X-0.262500X-0.450000X0.262500X-0.450000X0*%
%TD*%
%TA.AperFunction,SMDPad,CuDef*%
%ADD22RoundRect,0.250000X0.450000X-0.262500X0.450000X0.262500X-0.450000X0.262500X-0.450000X-0.262500X0*%
%TD*%
%TA.AperFunction,SMDPad,CuDef*%
%ADD23R,1.820000X1.160000*%
%TD*%
%TA.AperFunction,SMDPad,CuDef*%
%ADD24O,1.600000X0.600000*%
%TD*%
%TA.AperFunction,SMDPad,CuDef*%
%ADD25R,1.500000X0.900000*%
%TD*%
%TA.AperFunction,SMDPad,CuDef*%
%ADD26R,0.700000X0.700000*%
%TD*%
%TA.AperFunction,ComponentPad*%
%ADD27C,0.400000*%
%TD*%
%TA.AperFunction,SMDPad,CuDef*%
%ADD28R,1.100000X0.800000*%
%TD*%
%TA.AperFunction,SMDPad,CuDef*%
%ADD29R,1.100000X1.000000*%
%TD*%
%TA.AperFunction,SMDPad,CuDef*%
%ADD30RoundRect,0.147500X-0.442500X-1.257500X0.442500X-1.257500X0.442500X1.257500X-0.442500X1.257500X0*%
%TD*%
%TA.AperFunction,SMDPad,CuDef*%
%ADD31R,1.200000X1.200000*%
%TD*%
%TA.AperFunction,ComponentPad*%
%ADD32R,1.700000X1.700000*%
%TD*%
%TA.AperFunction,ComponentPad*%
%ADD33C,1.700000*%
%TD*%
%TA.AperFunction,SMDPad,CuDef*%
%ADD34RoundRect,0.075000X0.225000X-0.585000X0.225000X0.585000X-0.225000X0.585000X-0.225000X-0.585000X0*%
%TD*%
%TA.AperFunction,SMDPad,CuDef*%
%ADD35RoundRect,0.093750X-0.093750X0.156250X-0.093750X-0.156250X0.093750X-0.156250X0.093750X0.156250X0*%
%TD*%
%TA.AperFunction,SMDPad,CuDef*%
%ADD36RoundRect,0.075000X-0.075000X0.250000X-0.075000X-0.250000X0.075000X-0.250000X0.075000X0.250000X0*%
%TD*%
%TA.AperFunction,SMDPad,CuDef*%
%ADD37RoundRect,0.100000X-0.495000X-0.100000X0.495000X-0.100000X0.495000X0.100000X-0.495000X0.100000X0*%
%TD*%
%TA.AperFunction,SMDPad,CuDef*%
%ADD38R,0.300000X1.200000*%
%TD*%
%TA.AperFunction,ComponentPad*%
%ADD39C,0.650000*%
%TD*%
%TA.AperFunction,SMDPad,CuDef*%
%ADD40R,0.200000X1.000000*%
%TD*%
%TA.AperFunction,ComponentPad*%
%ADD41O,1.050000X2.100000*%
%TD*%
%TA.AperFunction,SMDPad,CuDef*%
%ADD42R,1.000000X1.500000*%
%TD*%
%TA.AperFunction,SMDPad,CuDef*%
%ADD43R,0.700000X1.500000*%
%TD*%
%TA.AperFunction,SMDPad,CuDef*%
%ADD44R,1.500000X2.800000*%
%TD*%
%TA.AperFunction,SMDPad,CuDef*%
%ADD45R,0.350000X0.350000*%
%TD*%
%TA.AperFunction,SMDPad,CuDef*%
%ADD46R,0.300000X0.900000*%
%TD*%
%TA.AperFunction,SMDPad,CuDef*%
%ADD47R,0.900000X0.300000*%
%TD*%
%TA.AperFunction,SMDPad,CuDef*%
%ADD48R,1.800000X1.800000*%
%TD*%
%TA.AperFunction,SMDPad,CuDef*%
%ADD49R,1.160000X1.820000*%
%TD*%
%TA.AperFunction,SMDPad,CuDef*%
%ADD50RoundRect,0.250000X-0.475000X0.250000X-0.475000X-0.250000X0.475000X-0.250000X0.475000X0.250000X0*%
%TD*%
%TA.AperFunction,SMDPad,CuDef*%
%ADD51RoundRect,0.250000X0.475000X-0.250000X0.475000X0.250000X-0.475000X0.250000X-0.475000X-0.250000X0*%
%TD*%
%TA.AperFunction,ComponentPad*%
%ADD52R,1.458000X1.458000*%
%TD*%
%TA.AperFunction,ComponentPad*%
%ADD53C,1.458000*%
%TD*%
%TA.AperFunction,SMDPad,CuDef*%
%ADD54R,0.950000X2.150000*%
%TD*%
%TA.AperFunction,SMDPad,CuDef*%
%ADD55R,3.250000X2.150000*%
%TD*%
%TA.AperFunction,ViaPad*%
%ADD56C,0.500000*%
%TD*%
%TA.AperFunction,ViaPad*%
%ADD57C,0.600000*%
%TD*%
%TA.AperFunction,Conductor*%
%ADD58C,0.500000*%
%TD*%
%TA.AperFunction,Conductor*%
%ADD59C,0.254000*%
%TD*%
%TA.AperFunction,Conductor*%
%ADD60C,0.200000*%
%TD*%
%TA.AperFunction,Conductor*%
%ADD61C,1.000000*%
%TD*%
%TA.AperFunction,Conductor*%
%ADD62C,0.300000*%
%TD*%
%TA.AperFunction,Conductor*%
%ADD63C,0.800000*%
%TD*%
G04 APERTURE END LIST*
D10*
%TO.P,U1,21,VSS*%
%TO.N,GND*%
X172925000Y-112170000D03*
D11*
%TO.P,U1,20,OUT*%
%TO.N,+5V*%
X173925000Y-114105000D03*
%TO.P,U1,19,IN*%
%TO.N,/+5V_USB*%
X173425000Y-114105000D03*
%TO.P,U1,18,IN*%
X172925000Y-114105000D03*
%TO.P,U1,17,CE*%
X172425000Y-114105000D03*
%TO.P,U1,16,VBAT_SENSE*%
%TO.N,/VBAT*%
X171925000Y-114105000D03*
D12*
%TO.P,U1,15,VBAT*%
X170990000Y-113170000D03*
%TO.P,U1,14,VBAT*%
X170990000Y-112670000D03*
%TO.P,U1,13,PROG1*%
%TO.N,Net-(U1-PROG1)*%
X170990000Y-112170000D03*
%TO.P,U1,12,PROG3*%
%TO.N,Net-(U1-PROG3)*%
X170990000Y-111670000D03*
%TO.P,U1,11,VSS*%
%TO.N,GND*%
X170990000Y-111170000D03*
D11*
%TO.P,U1,10,VSS*%
X171925000Y-110235000D03*
%TO.P,U1,9,~{TE}*%
%TO.N,Net-(U1-~{TE})*%
X172425000Y-110235000D03*
%TO.P,U1,8,STAT1/~{LBO}*%
%TO.N,Net-(U1-STAT1{slash}~{LBO})*%
X172925000Y-110235000D03*
%TO.P,U1,7,STAT2*%
%TO.N,Net-(U1-STAT2)*%
X173425000Y-110235000D03*
%TO.P,U1,6,~{PG}*%
%TO.N,Net-(U1-~{PG})*%
X173925000Y-110235000D03*
D12*
%TO.P,U1,5,THERM*%
%TO.N,Net-(U1-THERM)*%
X174860000Y-111170000D03*
%TO.P,U1,4,PROG2*%
%TO.N,/+5V_USB*%
X174860000Y-111670000D03*
%TO.P,U1,3,SEL*%
%TO.N,GND*%
X174860000Y-112170000D03*
%TO.P,U1,2,VPCC*%
%TO.N,/+5V_USB*%
X174860000Y-112670000D03*
%TO.P,U1,1,OUT*%
%TO.N,+5V*%
X174860000Y-113170000D03*
%TD*%
D13*
%TO.P,TP2,1,1*%
%TO.N,/ESP32-C3-02/MISO_DO*%
X210600000Y-90500000D03*
%TD*%
D14*
%TO.P,R10,1*%
%TO.N,/PWD_LED*%
X200687500Y-85000000D03*
%TO.P,R10,2*%
%TO.N,GND*%
X202512500Y-85000000D03*
%TD*%
D15*
%TO.P,MK1,GND*%
%TO.N,GND*%
X166750000Y-73550000D03*
%TO.P,MK1,OUT*%
%TO.N,Net-(U8-IN+)*%
X166750000Y-75450000D03*
%TD*%
D16*
%TO.P,C20,1*%
%TO.N,Net-(U8-IN-)*%
X182040000Y-80808750D03*
%TO.P,C20,2*%
%TO.N,/ESP32-C3-02/MIC_OUT*%
X180140000Y-80808750D03*
%TD*%
D13*
%TO.P,TP3,1,1*%
%TO.N,/ESP32-C3-02/SCLK*%
X222300000Y-84300000D03*
%TD*%
D17*
%TO.P,C13,1*%
%TO.N,GND*%
X225700000Y-87250000D03*
%TO.P,C13,2*%
%TO.N,+3.3V*%
X227600000Y-87250000D03*
%TD*%
D18*
%TO.P,U7,1,GND*%
%TO.N,GND*%
X197025000Y-65030000D03*
%TO.P,U7,2,CSB*%
%TO.N,+3.3V*%
X197675000Y-65030000D03*
%TO.P,U7,3,SDI*%
%TO.N,/ESP32-C3-02/SDA*%
X198325000Y-65030000D03*
%TO.P,U7,4,SCK*%
%TO.N,/ESP32-C3-02/SCL*%
X198975000Y-65030000D03*
%TO.P,U7,5,SDO*%
%TO.N,GND*%
X198975000Y-66970000D03*
%TO.P,U7,6,VDDIO*%
%TO.N,+3.3V*%
X198325000Y-66970000D03*
%TO.P,U7,7,GND*%
%TO.N,GND*%
X197675000Y-66970000D03*
%TO.P,U7,8,VDD*%
%TO.N,+3.3V*%
X197025000Y-66970000D03*
%TD*%
D19*
%TO.P,S2,1*%
%TO.N,GND*%
X204062500Y-113170000D03*
%TO.P,S2,2*%
X201512500Y-113170000D03*
%TO.P,S2,3*%
%TO.N,/ESP32-C3-02/EN*%
X204062500Y-112010000D03*
%TO.P,S2,4*%
X201512500Y-112010000D03*
%TD*%
D20*
%TO.P,R30,1*%
%TO.N,/ESP32-C3-02/EN*%
X218000000Y-76175000D03*
%TO.P,R30,2*%
%TO.N,+3.3V*%
X218000000Y-78000000D03*
%TD*%
%TO.P,R20,1*%
%TO.N,+3.3V*%
X237450000Y-86087500D03*
%TO.P,R20,2*%
%TO.N,/ESP32-C3-02/CD_SD*%
X237450000Y-87912500D03*
%TD*%
D14*
%TO.P,R27,1*%
%TO.N,+3.3V*%
X204670000Y-90000000D03*
%TO.P,R27,2*%
%TO.N,/ESP32-C3-02/PHOTO_C*%
X206495000Y-90000000D03*
%TD*%
D21*
%TO.P,R23,1*%
%TO.N,GND*%
X175090000Y-75735000D03*
%TO.P,R23,2*%
%TO.N,Net-(U8-IN+)*%
X173265000Y-75735000D03*
%TD*%
D14*
%TO.P,R25,1*%
%TO.N,Net-(C16-Pad2)*%
X173472500Y-68825000D03*
%TO.P,R25,2*%
%TO.N,+3.3V*%
X175297500Y-68825000D03*
%TD*%
D13*
%TO.P,TP4,1,1*%
%TO.N,/ESP32-C3-02/CD_SD*%
X240060000Y-87920000D03*
%TD*%
D22*
%TO.P,R1,1*%
%TO.N,Net-(J1-CC1)*%
X181350000Y-110042500D03*
%TO.P,R1,2*%
%TO.N,GND*%
X181350000Y-108217500D03*
%TD*%
D23*
%TO.P,C4,1*%
%TO.N,+3.3V*%
X164225000Y-83625000D03*
%TO.P,C4,2*%
%TO.N,Net-(C4-Pad2)*%
X164225000Y-80675000D03*
%TD*%
D20*
%TO.P,R11,1*%
%TO.N,Net-(D6-Pad-)*%
X182250000Y-89837500D03*
%TO.P,R11,2*%
%TO.N,Net-(U4-GPIO.3{slash}RXT)*%
X182250000Y-91662500D03*
%TD*%
D24*
%TO.P,U6,1,~{CS}*%
%TO.N,/ESP32-C3-02/CS*%
X205900000Y-77595000D03*
%TO.P,U6,2,DO(IO1)*%
%TO.N,Net-(U6-DO(IO1))*%
X205900000Y-78865000D03*
%TO.P,U6,3,~{WP}(IO2)*%
%TO.N,+3.3V*%
X205900000Y-80135000D03*
%TO.P,U6,4,GND*%
%TO.N,GND*%
X205900000Y-81405000D03*
%TO.P,U6,5,DI(IO0)*%
%TO.N,/ESP32-C3-02/MOSI_DI*%
X213100000Y-81405000D03*
%TO.P,U6,6,CLK*%
%TO.N,/ESP32-C3-02/SCLK*%
X213100000Y-80135000D03*
%TO.P,U6,7,~{HOLD}/~{RESET}(IO3)*%
%TO.N,+3.3V*%
X213100000Y-78865000D03*
%TO.P,U6,8,VCC*%
X213100000Y-77595000D03*
%TD*%
D14*
%TO.P,R26,1*%
%TO.N,Net-(U8-IN+)*%
X190125000Y-76450000D03*
%TO.P,R26,2*%
%TO.N,+3.3V*%
X191950000Y-76450000D03*
%TD*%
D20*
%TO.P,R2,1*%
%TO.N,Net-(J1-CC2)*%
X181075000Y-112275000D03*
%TO.P,R2,2*%
%TO.N,GND*%
X181075000Y-114100000D03*
%TD*%
D22*
%TO.P,R15,1*%
%TO.N,+3.3V*%
X194240000Y-97652500D03*
%TO.P,R15,2*%
%TO.N,Net-(U4-~{RST})*%
X194240000Y-95827500D03*
%TD*%
D25*
%TO.P,U3,1,3V3*%
%TO.N,+3.3V*%
X227140000Y-69100000D03*
%TO.P,U3,2,EN*%
%TO.N,/ESP32-C3-02/EN*%
X227140000Y-70600000D03*
%TO.P,U3,3,IO4*%
%TO.N,/ESP32-C3-02/SDA*%
X227140000Y-72100000D03*
%TO.P,U3,4,IO5*%
%TO.N,/ESP32-C3-02/MIC_OUT*%
X227140000Y-73600000D03*
%TO.P,U3,5,IO6*%
%TO.N,Net-(U3-IO6)*%
X227140000Y-75100000D03*
%TO.P,U3,6,IO7*%
%TO.N,Net-(U3-IO7)*%
X227140000Y-76600000D03*
%TO.P,U3,7,IO8*%
%TO.N,/ESP32-C3-02/GPIO8*%
X227140000Y-78100000D03*
%TO.P,U3,8,IO9*%
%TO.N,/ESP32-C3-02/BOOT*%
X227140000Y-79600000D03*
%TO.P,U3,9,GND*%
%TO.N,GND*%
X227140000Y-81100000D03*
%TO.P,U3,10,IO10*%
%TO.N,/ESP32-C3-02/CS*%
X244640000Y-81100000D03*
%TO.P,U3,11,RXD*%
%TO.N,/ESP32-C3-02/TX_RX*%
X244640000Y-79600000D03*
%TO.P,U3,12,TXD*%
%TO.N,/ESP32-C3-02/RX_TX*%
X244640000Y-78100000D03*
%TO.P,U3,13,IO18*%
%TO.N,/ESP32-C3-02/GPIO18*%
X244640000Y-76600000D03*
%TO.P,U3,14,IO19*%
%TO.N,/ESP32-C3-02/GPIO19*%
X244640000Y-75100000D03*
%TO.P,U3,15,IO3*%
%TO.N,/ESP32-C3-02/SCL*%
X244640000Y-73600000D03*
%TO.P,U3,16,IO2*%
%TO.N,/ESP32-C3-02/MISO_DO*%
X244640000Y-72100000D03*
%TO.P,U3,17,IO1*%
%TO.N,/ESP32-C3-02/PHOTO_C*%
X244640000Y-70600000D03*
%TO.P,U3,18,IO0*%
%TO.N,/ESP32-C3-02/CD_SD*%
X244640000Y-69100000D03*
D26*
%TO.P,U3,19,GND*%
%TO.N,GND*%
X235750000Y-74200000D03*
%TO.P,U3,20,GND*%
X236850000Y-74200000D03*
%TO.P,U3,21,GND*%
X237950000Y-74200000D03*
%TO.P,U3,22,GND*%
X235750000Y-75300000D03*
%TO.P,U3,23,GND*%
X236850000Y-75300000D03*
%TO.P,U3,24,GND*%
X237950000Y-75300000D03*
%TO.P,U3,25,GND*%
X235750000Y-76400000D03*
%TO.P,U3,26,GND*%
X236850000Y-76400000D03*
%TO.P,U3,27,GND*%
X237950000Y-76400000D03*
D27*
%TO.P,U3,28,GND*%
X236300000Y-74200000D03*
%TO.P,U3,29,GND*%
X237400000Y-74200000D03*
%TO.P,U3,30,GND*%
X235750000Y-74750000D03*
%TO.P,U3,31,GND*%
X236850000Y-74750000D03*
%TO.P,U3,32,GND*%
X237950000Y-74750000D03*
%TO.P,U3,33,GND*%
X236300000Y-75300000D03*
%TO.P,U3,34,GND*%
X237400000Y-75300000D03*
%TO.P,U3,35,GND*%
X235750000Y-75850000D03*
%TO.P,U3,36,GND*%
X236850000Y-75850000D03*
%TO.P,U3,37,GND*%
X237950000Y-75850000D03*
%TO.P,U3,38,GND*%
X236300000Y-76400000D03*
%TO.P,U3,39,GND*%
X237400000Y-76400000D03*
%TD*%
D28*
%TO.P,Q1,1*%
%TO.N,GND*%
X203490000Y-92950000D03*
%TO.P,Q1,2*%
%TO.N,N/C*%
X203490000Y-94050000D03*
D29*
%TO.P,Q1,3*%
%TO.N,/ESP32-C3-02/PHOTO_C*%
X207000000Y-93500000D03*
%TD*%
D30*
%TO.P,F1,1*%
%TO.N,/+5V_USB*%
X178415000Y-98450000D03*
%TO.P,F1,2*%
%TO.N,/VBUS*%
X181385000Y-98450000D03*
%TD*%
D20*
%TO.P,R8,1*%
%TO.N,Net-(D2-Pad-)*%
X162870000Y-103708750D03*
%TO.P,R8,2*%
%TO.N,Net-(U1-STAT2)*%
X162870000Y-105533750D03*
%TD*%
D31*
%TO.P,D3,1*%
%TO.N,Net-(D3-Pad1)*%
X160390000Y-101711250D03*
%TO.P,D3,2*%
%TO.N,/+5V_USB*%
X160390000Y-99611250D03*
%TD*%
D32*
%TO.P,J4,1,Pin_1*%
%TO.N,GND*%
X182300000Y-64750000D03*
D33*
%TO.P,J4,2,Pin_2*%
%TO.N,/ESP32-C3-02/SCL*%
X184840000Y-64750000D03*
%TO.P,J4,3,Pin_3*%
%TO.N,/ESP32-C3-02/SDA*%
X187380000Y-64750000D03*
%TO.P,J4,4,Pin_4*%
%TO.N,+3.3V*%
X189920000Y-64750000D03*
%TD*%
D14*
%TO.P,R18,1*%
%TO.N,Net-(U6-DO(IO1))*%
X208587500Y-84000000D03*
%TO.P,R18,2*%
%TO.N,/ESP32-C3-02/MISO_DO*%
X210412500Y-84000000D03*
%TD*%
D21*
%TO.P,R24,1*%
%TO.N,Net-(U8-IN+)*%
X175165000Y-73510000D03*
%TO.P,R24,2*%
%TO.N,Net-(C16-Pad2)*%
X173340000Y-73510000D03*
%TD*%
D31*
%TO.P,D6,+*%
%TO.N,+3.3V*%
X182250000Y-85062500D03*
%TO.P,D6,-*%
%TO.N,Net-(D6-Pad-)*%
X182250000Y-87162500D03*
%TD*%
D16*
%TO.P,C16,1*%
%TO.N,GND*%
X175215000Y-71210000D03*
%TO.P,C16,2*%
%TO.N,Net-(C16-Pad2)*%
X173315000Y-71210000D03*
%TD*%
D34*
%TO.P,Q3,1*%
%TO.N,Net-(Q3-Pad1)*%
X208725000Y-104170000D03*
%TO.P,Q3,2*%
%TO.N,/ESP32-C3-02/BOOT*%
X210625000Y-104170000D03*
%TO.P,Q3,3*%
%TO.N,/ESP32-C3-02/DTR*%
X209675000Y-102170000D03*
%TD*%
D22*
%TO.P,R13,1*%
%TO.N,Net-(U4-VBUS)*%
X198000000Y-93532500D03*
%TO.P,R13,2*%
%TO.N,Net-(C11-Pad2)*%
X198000000Y-91707500D03*
%TD*%
D35*
%TO.P,U5,1,I/O1*%
%TO.N,/ESP32-C3-02/USB_D-*%
X188085000Y-101450000D03*
D36*
%TO.P,U5,2,GND*%
%TO.N,GND*%
X187547500Y-101375000D03*
D35*
%TO.P,U5,3,I/O2*%
%TO.N,/ESP32-C3-02/USB_D+*%
X187010000Y-101450000D03*
%TO.P,U5,4,I/O2*%
%TO.N,/USB_DP*%
X187010000Y-103150000D03*
D36*
%TO.P,U5,5,VBUS*%
%TO.N,/VBUS*%
X187547500Y-103225000D03*
D35*
%TO.P,U5,6,I/O1*%
%TO.N,/USB_DN*%
X188085000Y-103150000D03*
%TD*%
D31*
%TO.P,D2,+*%
%TO.N,/+5V_USB*%
X162970000Y-99571250D03*
%TO.P,D2,-*%
%TO.N,Net-(D2-Pad-)*%
X162970000Y-101671250D03*
%TD*%
D14*
%TO.P,R32,1*%
%TO.N,/ESP32-C3-02/RTS*%
X208625000Y-107000000D03*
%TO.P,R32,2*%
%TO.N,Net-(Q3-Pad1)*%
X210450000Y-107000000D03*
%TD*%
D37*
%TO.P,U8,1,IN+*%
%TO.N,Net-(U8-IN+)*%
X190000000Y-79500000D03*
%TO.P,U8,2,GND*%
%TO.N,GND*%
X190000000Y-80150000D03*
%TO.P,U8,3,IN-*%
%TO.N,Net-(U8-IN-)*%
X190000000Y-80800000D03*
%TO.P,U8,4,OUT*%
%TO.N,/ESP32-C3-02/MIC_OUT*%
X191920000Y-80800000D03*
%TO.P,U8,5,VCC*%
%TO.N,+3.3V*%
X191920000Y-79500000D03*
%TD*%
D22*
%TO.P,R5,1*%
%TO.N,Net-(U1-PROG1)*%
X168550000Y-104812500D03*
%TO.P,R5,2*%
%TO.N,GND*%
X168550000Y-102987500D03*
%TD*%
D38*
%TO.P,J1,A1,GNDA1*%
%TO.N,GND*%
X184770000Y-105720000D03*
%TO.P,J1,A2,SSTXP1*%
%TO.N,unconnected-(J1-SSTXP1-PadA2)*%
X185270000Y-105720000D03*
%TO.P,J1,A3,SSTXN1*%
%TO.N,unconnected-(J1-SSTXN1-PadA3)*%
X185770000Y-105720000D03*
%TO.P,J1,A4,VBUSA1*%
%TO.N,/VBUS*%
X186270000Y-105720000D03*
%TO.P,J1,A5,CC1*%
%TO.N,Net-(J1-CC1)*%
X186770000Y-105720000D03*
%TO.P,J1,A6,DP1*%
%TO.N,/USB_DP*%
X187270000Y-105720000D03*
%TO.P,J1,A7,DN1*%
%TO.N,/USB_DN*%
X187770000Y-105720000D03*
%TO.P,J1,A8,SBU1*%
%TO.N,unconnected-(J1-SBU1-PadA8)*%
X188270000Y-105720000D03*
%TO.P,J1,A9,VBUSA2*%
%TO.N,/VBUS*%
X188770000Y-105720000D03*
%TO.P,J1,A10,SSRXN2*%
%TO.N,unconnected-(J1-SSRXN2-PadA10)*%
X189270000Y-105720000D03*
%TO.P,J1,A11,SSRXP2*%
%TO.N,unconnected-(J1-SSRXP2-PadA11)*%
X189770000Y-105720000D03*
%TO.P,J1,A12,GNDA2*%
%TO.N,GND*%
X190270000Y-105720000D03*
D39*
%TO.P,J1,B1,GNDB1*%
X190320000Y-106970000D03*
%TO.P,J1,B2,SSTXP2*%
%TO.N,unconnected-(J1-SSTXP2-PadB2)*%
X189920000Y-107680000D03*
%TO.P,J1,B3,SSTXN2*%
%TO.N,unconnected-(J1-SSTXN2-PadB3)*%
X189120000Y-107680000D03*
%TO.P,J1,B4,VBUSB1*%
%TO.N,/VBUS*%
X188720000Y-106970000D03*
%TO.P,J1,B5,CC2*%
%TO.N,Net-(J1-CC2)*%
X188320000Y-107680000D03*
%TO.P,J1,B6,DP2*%
%TO.N,/USB_DP*%
X187920000Y-106970000D03*
%TO.P,J1,B7,DN2*%
%TO.N,/USB_DN*%
X187120000Y-106970000D03*
%TO.P,J1,B8,SBU2*%
%TO.N,unconnected-(J1-SBU2-PadB8)*%
X186720000Y-107680000D03*
%TO.P,J1,B9,VBUSB2*%
%TO.N,/VBUS*%
X186320000Y-106970000D03*
%TO.P,J1,B10,SSRXN1*%
%TO.N,unconnected-(J1-SSRXN1-PadB10)*%
X185920000Y-107680000D03*
%TO.P,J1,B11,SSRXP1*%
%TO.N,unconnected-(J1-SSRXP1-PadB11)*%
X185120000Y-107680000D03*
%TO.P,J1,B12,GNDB2*%
%TO.N,GND*%
X184720000Y-106970000D03*
%TO.P,J1,G1,GND/SHIELD*%
X189520000Y-106970000D03*
%TO.P,J1,G2,GND/SHIELD*%
X185520000Y-106970000D03*
D40*
%TO.P,J1,G3,GND/SHIELD*%
X187520000Y-110300000D03*
%TO.P,J1,G4,GND/SHIELD*%
X187520000Y-113400000D03*
D41*
%TO.P,J1,S1,GND/SHIELD*%
X183250000Y-108120000D03*
%TO.P,J1,S2,GND/SHIELD*%
X191790000Y-108120000D03*
%TO.P,J1,S3,GND/SHIELD*%
X183250000Y-112850000D03*
%TO.P,J1,S4,GND/SHIELD*%
X191790000Y-112850000D03*
%TD*%
D16*
%TO.P,C19,1*%
%TO.N,GND*%
X175140000Y-78010000D03*
%TO.P,C19,2*%
%TO.N,Net-(C19-Pad2)*%
X173240000Y-78010000D03*
%TD*%
D23*
%TO.P,C9,1*%
%TO.N,+3.3V*%
X164275000Y-85475000D03*
%TO.P,C9,2*%
%TO.N,GND*%
X164275000Y-88425000D03*
%TD*%
D13*
%TO.P,TP5,1,1*%
%TO.N,/ESP32-C3-02/CS*%
X207200000Y-75000000D03*
%TD*%
D42*
%TO.P,J3,1,CD/DAT3*%
%TO.N,/ESP32-C3-02/CD_SD*%
X237475000Y-90700000D03*
%TO.P,J3,2,CMD*%
%TO.N,/ESP32-C3-02/MOSI_DI*%
X234975000Y-90700000D03*
%TO.P,J3,3,VSS1*%
%TO.N,GND*%
X232475000Y-90700000D03*
%TO.P,J3,4,VDD1*%
%TO.N,+3.3V*%
X229975000Y-90700000D03*
%TO.P,J3,5,CLK*%
%TO.N,/ESP32-C3-02/SCLK*%
X227475000Y-90700000D03*
%TO.P,J3,6,VSS2*%
%TO.N,GND*%
X224975000Y-90700000D03*
%TO.P,J3,7,DAT0*%
%TO.N,Net-(J3-DAT0)*%
X222550000Y-90700000D03*
%TO.P,J3,8,DAT1*%
%TO.N,GND*%
X220850000Y-90700000D03*
%TO.P,J3,9,DAT2*%
X239975000Y-90700000D03*
D43*
%TO.P,J3,CD_IND,CD_IND*%
%TO.N,unconnected-(J3-PadCD_IND)*%
X219550000Y-90700000D03*
D44*
%TO.P,J3,G1,SHIELD_GND*%
%TO.N,GND*%
X216950000Y-92500000D03*
%TO.P,J3,G2,SHIELD_GND*%
X242050000Y-92500000D03*
%TO.P,J3,G3,SHIELD_GND*%
X244250000Y-114000000D03*
%TO.P,J3,G4,SHIELD_GND*%
X216950000Y-114000000D03*
D43*
%TO.P,J3,WP,WP*%
%TO.N,unconnected-(J3-PadWP)*%
X218350000Y-90700000D03*
%TD*%
D20*
%TO.P,R17,1*%
%TO.N,Net-(U3-IO6)*%
X220750000Y-76175000D03*
%TO.P,R17,2*%
%TO.N,/ESP32-C3-02/SCLK*%
X220750000Y-78000000D03*
%TD*%
D16*
%TO.P,C18,1*%
%TO.N,+3.3V*%
X191960000Y-84150000D03*
%TO.P,C18,2*%
%TO.N,GND*%
X190060000Y-84150000D03*
%TD*%
D17*
%TO.P,C6,1*%
%TO.N,/+5V_USB*%
X181550000Y-102075000D03*
%TO.P,C6,2*%
%TO.N,GND*%
X183450000Y-102075000D03*
%TD*%
D14*
%TO.P,R19,1*%
%TO.N,/ESP32-C3-02/MISO_DO*%
X212337500Y-84000000D03*
%TO.P,R19,2*%
%TO.N,Net-(J3-DAT0)*%
X214162500Y-84000000D03*
%TD*%
D23*
%TO.P,C7,1*%
%TO.N,+3.3V*%
X220250000Y-69275000D03*
%TO.P,C7,2*%
%TO.N,GND*%
X220250000Y-72225000D03*
%TD*%
D45*
%TO.P,U4,1,GPIO.1/RS485*%
%TO.N,unconnected-(U4-GPIO.1{slash}RS485-Pad1)*%
X185800000Y-97350000D03*
D46*
%TO.P,U4,2,GPIO.0/CLK*%
%TO.N,unconnected-(U4-GPIO.0{slash}CLK-Pad2)*%
X186300000Y-97650000D03*
%TO.P,U4,3,GND*%
%TO.N,GND*%
X186800000Y-97650000D03*
%TO.P,U4,4,D+*%
%TO.N,/ESP32-C3-02/USB_D+*%
X187300000Y-97650000D03*
%TO.P,U4,5,D-*%
%TO.N,/ESP32-C3-02/USB_D-*%
X187800000Y-97650000D03*
D45*
%TO.P,U4,6,VDD*%
%TO.N,+3.3V*%
X188300000Y-97350000D03*
D47*
%TO.P,U4,7,VREGIN*%
X188600000Y-96850000D03*
%TO.P,U4,8,VBUS*%
%TO.N,Net-(U4-VBUS)*%
X188600000Y-96350000D03*
%TO.P,U4,9,~{RST}*%
%TO.N,Net-(U4-~{RST})*%
X188600000Y-95850000D03*
%TO.P,U4,10*%
%TO.N,N/C*%
X188600000Y-95350000D03*
D45*
%TO.P,U4,11,~{SUSPEND}*%
%TO.N,unconnected-(U4-~{SUSPEND}-Pad11)*%
X188300000Y-94850000D03*
D46*
%TO.P,U4,12,GND*%
%TO.N,GND*%
X187800000Y-94550000D03*
%TO.P,U4,13,WAKEUP*%
%TO.N,unconnected-(U4-WAKEUP-Pad13)*%
X187300000Y-94550000D03*
%TO.P,U4,14,SUSPEND*%
%TO.N,unconnected-(U4-SUSPEND-Pad14)*%
X186800000Y-94550000D03*
%TO.P,U4,15,CTS*%
%TO.N,/ESP32-C3-02/DTR*%
X186300000Y-94550000D03*
D45*
%TO.P,U4,16,RTS*%
%TO.N,/ESP32-C3-02/RTS*%
X185800000Y-94850000D03*
D47*
%TO.P,U4,17,RXD*%
%TO.N,/ESP32-C3-02/RX_TX*%
X185500000Y-95350000D03*
%TO.P,U4,18,TXD*%
%TO.N,/ESP32-C3-02/TX_RX*%
X185500000Y-95850000D03*
%TO.P,U4,19,GPIO.3/RXT*%
%TO.N,Net-(U4-GPIO.3{slash}RXT)*%
X185500000Y-96350000D03*
%TO.P,U4,20,GPIO.2/TXT*%
%TO.N,Net-(U4-GPIO.2{slash}TXT)*%
X185500000Y-96850000D03*
D48*
%TO.P,U4,EXP*%
%TO.N,GND*%
X187050000Y-96100000D03*
%TD*%
D49*
%TO.P,C3,1*%
%TO.N,+5V*%
X170875000Y-91800000D03*
%TO.P,C3,2*%
%TO.N,GND*%
X167925000Y-91800000D03*
%TD*%
D22*
%TO.P,R29,1*%
%TO.N,+3.3V*%
X202150000Y-67000000D03*
%TO.P,R29,2*%
%TO.N,/ESP32-C3-02/SCL*%
X202150000Y-65175000D03*
%TD*%
D20*
%TO.P,R12,1*%
%TO.N,Net-(D5-Pad1)*%
X178750000Y-90000000D03*
%TO.P,R12,2*%
%TO.N,Net-(U4-GPIO.2{slash}TXT)*%
X178750000Y-91825000D03*
%TD*%
%TO.P,R3,1*%
%TO.N,GND*%
X173050000Y-102975000D03*
%TO.P,R3,2*%
%TO.N,Net-(U1-~{TE})*%
X173050000Y-104800000D03*
%TD*%
D32*
%TO.P,J5,1,Pin_1*%
%TO.N,GND*%
X174620000Y-63890000D03*
D33*
%TO.P,J5,2,Pin_2*%
%TO.N,/ESP32-C3-02/GPIO19*%
X172080000Y-63890000D03*
%TO.P,J5,3,Pin_3*%
%TO.N,/ESP32-C3-02/GPIO18*%
X169540000Y-63890000D03*
%TO.P,J5,4,Pin_4*%
%TO.N,/ESP32-C3-02/GPIO8*%
X167000000Y-63890000D03*
%TO.P,J5,5,Pin_5*%
%TO.N,+3.3V*%
X164460000Y-63890000D03*
%TD*%
D50*
%TO.P,C10,1*%
%TO.N,+3.3V*%
X161525000Y-86625000D03*
%TO.P,C10,2*%
%TO.N,GND*%
X161525000Y-88525000D03*
%TD*%
D20*
%TO.P,R4,1*%
%TO.N,GND*%
X175370000Y-102967500D03*
%TO.P,R4,2*%
%TO.N,Net-(U1-THERM)*%
X175370000Y-104792500D03*
%TD*%
D17*
%TO.P,C21,1*%
%TO.N,/ESP32-C3-02/BOOT*%
X208750000Y-110000000D03*
%TO.P,C21,2*%
%TO.N,GND*%
X210650000Y-110000000D03*
%TD*%
D31*
%TO.P,D5,1*%
%TO.N,Net-(D5-Pad1)*%
X178750000Y-87212500D03*
%TO.P,D5,2*%
%TO.N,+3.3V*%
X178750000Y-85112500D03*
%TD*%
D50*
%TO.P,C14,1*%
%TO.N,+3.3V*%
X203000000Y-80800000D03*
%TO.P,C14,2*%
%TO.N,GND*%
X203000000Y-82700000D03*
%TD*%
D21*
%TO.P,R31,1*%
%TO.N,/ESP32-C3-02/DTR*%
X203837500Y-106920000D03*
%TO.P,R31,2*%
%TO.N,Net-(Q2-Pad1)*%
X202012500Y-106920000D03*
%TD*%
D50*
%TO.P,C8,1*%
%TO.N,+3.3V*%
X224000000Y-69300000D03*
%TO.P,C8,2*%
%TO.N,GND*%
X224000000Y-71200000D03*
%TD*%
D34*
%TO.P,Q2,1*%
%TO.N,Net-(Q2-Pad1)*%
X201990000Y-104140000D03*
%TO.P,Q2,2*%
%TO.N,/ESP32-C3-02/RTS*%
X203890000Y-104140000D03*
%TO.P,Q2,3*%
%TO.N,/ESP32-C3-02/EN*%
X202940000Y-102140000D03*
%TD*%
D21*
%TO.P,R28,1*%
%TO.N,+3.3V*%
X202412500Y-69150000D03*
%TO.P,R28,2*%
%TO.N,/ESP32-C3-02/SDA*%
X200587500Y-69150000D03*
%TD*%
D51*
%TO.P,C15,1*%
%TO.N,+3.3V*%
X193850000Y-66650000D03*
%TO.P,C15,2*%
%TO.N,GND*%
X193850000Y-64750000D03*
%TD*%
D52*
%TO.P,J2,1,1*%
%TO.N,GND*%
X162790000Y-113950000D03*
D53*
%TO.P,J2,2,2*%
%TO.N,/VBAT*%
X165290000Y-113950000D03*
%TD*%
D51*
%TO.P,C5,1*%
%TO.N,+3.3V*%
X161450000Y-83300000D03*
%TO.P,C5,2*%
%TO.N,Net-(C4-Pad2)*%
X161450000Y-81400000D03*
%TD*%
D31*
%TO.P,D4,+*%
%TO.N,+3.3V*%
X200250000Y-80550000D03*
%TO.P,D4,-*%
%TO.N,/PWD_LED*%
X200250000Y-82650000D03*
%TD*%
D20*
%TO.P,R7,1*%
%TO.N,Net-(D3-Pad1)*%
X160440000Y-103711250D03*
%TO.P,R7,2*%
%TO.N,Net-(U1-STAT1{slash}~{LBO})*%
X160440000Y-105536250D03*
%TD*%
D21*
%TO.P,R21,1*%
%TO.N,Net-(U8-IN-)*%
X182127500Y-78533750D03*
%TO.P,R21,2*%
%TO.N,/ESP32-C3-02/MIC_OUT*%
X180302500Y-78533750D03*
%TD*%
D31*
%TO.P,D1,+*%
%TO.N,/+5V_USB*%
X165540000Y-99516250D03*
%TO.P,D1,-*%
%TO.N,Net-(D1-Pad-)*%
X165540000Y-101616250D03*
%TD*%
D51*
%TO.P,C1,1*%
%TO.N,/VBUS*%
X192550000Y-102875000D03*
%TO.P,C1,2*%
%TO.N,GND*%
X192550000Y-100975000D03*
%TD*%
D54*
%TO.P,U2,1,GND*%
%TO.N,GND*%
X167025000Y-88750000D03*
%TO.P,U2,2,VOUT_2*%
%TO.N,+3.3V*%
X169325000Y-88750000D03*
%TO.P,U2,3,VIN*%
%TO.N,+5V*%
X171625000Y-88750000D03*
D55*
%TO.P,U2,4,VOUT_4*%
%TO.N,+3.3V*%
X169325000Y-82950000D03*
%TD*%
D51*
%TO.P,C11,1*%
%TO.N,Net-(U4-VBUS)*%
X194190000Y-93760000D03*
%TO.P,C11,2*%
%TO.N,Net-(C11-Pad2)*%
X194190000Y-91860000D03*
%TD*%
D13*
%TO.P,TP1,1,1*%
%TO.N,/ESP32-C3-02/MOSI_DI*%
X213300000Y-89300000D03*
%TD*%
D20*
%TO.P,R9,1*%
%TO.N,Net-(D1-Pad-)*%
X165640000Y-103391250D03*
%TO.P,R9,2*%
%TO.N,Net-(U1-~{PG})*%
X165640000Y-105216250D03*
%TD*%
D16*
%TO.P,C2,1*%
%TO.N,+5V*%
X170350000Y-94350000D03*
%TO.P,C2,2*%
%TO.N,GND*%
X168450000Y-94350000D03*
%TD*%
D17*
%TO.P,C22,1*%
%TO.N,/ESP32-C3-02/EN*%
X201975000Y-109670000D03*
%TO.P,C22,2*%
%TO.N,GND*%
X203875000Y-109670000D03*
%TD*%
D20*
%TO.P,R14,1*%
%TO.N,Net-(U4-VBUS)*%
X198000000Y-95640000D03*
%TO.P,R14,2*%
%TO.N,/VBUS*%
X198000000Y-97465000D03*
%TD*%
D22*
%TO.P,R6,1*%
%TO.N,Net-(U1-PROG3)*%
X170800000Y-104862500D03*
%TO.P,R6,2*%
%TO.N,GND*%
X170800000Y-103037500D03*
%TD*%
D14*
%TO.P,R22,1*%
%TO.N,Net-(C19-Pad2)*%
X180227500Y-76258750D03*
%TO.P,R22,2*%
%TO.N,Net-(U8-IN-)*%
X182052500Y-76258750D03*
%TD*%
D19*
%TO.P,S1,1*%
%TO.N,GND*%
X210975000Y-113330000D03*
%TO.P,S1,2*%
X208425000Y-113330000D03*
%TO.P,S1,3*%
%TO.N,/ESP32-C3-02/BOOT*%
X210975000Y-112170000D03*
%TO.P,S1,4*%
X208425000Y-112170000D03*
%TD*%
D22*
%TO.P,R16,1*%
%TO.N,/ESP32-C3-02/MOSI_DI*%
X223250000Y-78075000D03*
%TO.P,R16,2*%
%TO.N,Net-(U3-IO7)*%
X223250000Y-76250000D03*
%TD*%
D49*
%TO.P,C12,1*%
%TO.N,GND*%
X232925000Y-87500000D03*
%TO.P,C12,2*%
%TO.N,+3.3V*%
X229975000Y-87500000D03*
%TD*%
D56*
%TO.N,/ESP32-C3-02/TX_RX*%
X183710000Y-94050000D03*
%TO.N,/ESP32-C3-02/RX_TX*%
X184090000Y-93160000D03*
%TO.N,/ESP32-C3-02/RTS*%
X185466232Y-93936232D03*
%TO.N,/ESP32-C3-02/DTR*%
X186380000Y-93355000D03*
%TO.N,Net-(U1-~{PG})*%
X174950000Y-108460000D03*
%TO.N,Net-(U1-STAT1{slash}~{LBO})*%
X172660000Y-108870000D03*
%TO.N,Net-(U1-STAT2)*%
X173860000Y-108630000D03*
%TO.N,/+5V_USB*%
X176510000Y-111020000D03*
D57*
X172905000Y-115330000D03*
D56*
%TO.N,GND*%
X176490000Y-111960000D03*
%TO.N,/+5V_USB*%
X176390000Y-112960000D03*
D57*
%TO.N,/VBUS*%
X190770000Y-102875000D03*
%TO.N,/+5V_USB*%
X180100000Y-102075000D03*
%TO.N,+3.3V*%
X195590000Y-97680000D03*
%TO.N,/VBUS*%
X182900000Y-97200000D03*
X182900000Y-98200000D03*
D56*
X185325000Y-104375000D03*
X189275000Y-102300000D03*
D57*
X182900000Y-99200000D03*
D56*
%TO.N,GND*%
X163125000Y-89925000D03*
X187520000Y-111870000D03*
X160600000Y-89900000D03*
X183900000Y-104425000D03*
X166475000Y-93325000D03*
X195375000Y-64350000D03*
X165525000Y-89975000D03*
X161290000Y-115200000D03*
X196025000Y-65025000D03*
X176500000Y-70380000D03*
X174350000Y-102937500D03*
X181170000Y-106750000D03*
X199190000Y-68170000D03*
X214970000Y-113950000D03*
X212150000Y-110730000D03*
X224950000Y-85380000D03*
X241940000Y-89340000D03*
X202550000Y-86850000D03*
X176400000Y-76690000D03*
X186139922Y-101460078D03*
X166500000Y-94625000D03*
X194500000Y-100475000D03*
X171900000Y-102937500D03*
X205120000Y-110770000D03*
X169500000Y-102937500D03*
X201890000Y-91750000D03*
X161290000Y-112700000D03*
X178560000Y-63890000D03*
X188880000Y-84520000D03*
X170260000Y-73560000D03*
X186540000Y-98640000D03*
X229200000Y-80320000D03*
X188240000Y-79990000D03*
X205410000Y-113300000D03*
X233190000Y-85520000D03*
X161290000Y-113950000D03*
X166425000Y-91975000D03*
X184170000Y-100500000D03*
X220630000Y-88400000D03*
X166375000Y-90750000D03*
X222250000Y-71575000D03*
X207240000Y-113330000D03*
%TO.N,+3.3V*%
X169950000Y-81150000D03*
X196537500Y-67987500D03*
X158950000Y-83775000D03*
D57*
X193515000Y-79015000D03*
D56*
X182250000Y-83375000D03*
X215060000Y-77930000D03*
X202730000Y-89250000D03*
X203750000Y-69500000D03*
X178750000Y-83400000D03*
X171375000Y-81175000D03*
X167075000Y-81150000D03*
D57*
X193250000Y-84710000D03*
X239090000Y-85620000D03*
X216120000Y-68650000D03*
D56*
X159175000Y-86400000D03*
X195000000Y-68025000D03*
X170650000Y-81150000D03*
X216870000Y-78970000D03*
X168500000Y-81150000D03*
X167800000Y-81150000D03*
D57*
X175790000Y-67560000D03*
X229540000Y-85740000D03*
D56*
X161510000Y-64410000D03*
X169175000Y-81125000D03*
X198800000Y-80525000D03*
D57*
%TO.N,/+5V_USB*%
X176900000Y-99200000D03*
D56*
X161770000Y-99273750D03*
X164210000Y-99253750D03*
D57*
X176900000Y-98200000D03*
X176900000Y-97200000D03*
%TO.N,/ESP32-C3-02/MIC_OUT*%
X218270000Y-74510000D03*
X215190000Y-73920000D03*
%TO.N,/ESP32-C3-02/BOOT*%
X231340000Y-80150000D03*
X215180000Y-98240000D03*
%TO.N,/ESP32-C3-02/EN*%
X223050000Y-72520000D03*
X215020000Y-97430000D03*
X228845000Y-70895000D03*
X218970000Y-75030000D03*
D56*
%TO.N,/USB_DN*%
X188950000Y-103700000D03*
%TO.N,/USB_DP*%
X186175000Y-103250000D03*
D57*
%TO.N,/ESP32-C3-02/SCL*%
X237700000Y-71250000D03*
D56*
X215450000Y-69550000D03*
D57*
%TO.N,/ESP32-C3-02/SDA*%
X230430000Y-71410000D03*
X216230000Y-70040000D03*
%TO.N,/ESP32-C3-02/CD_SD*%
X247010000Y-72030000D03*
D56*
X242150000Y-87350000D03*
D57*
%TO.N,/ESP32-C3-02/GPIO19*%
X223010000Y-73550000D03*
X229600000Y-73210000D03*
%TO.N,/ESP32-C3-02/PHOTO_C*%
X246310000Y-71440000D03*
X247255000Y-70185000D03*
%TO.N,/ESP32-C3-02/RTS*%
X205430000Y-103610000D03*
%TO.N,/ESP32-C3-02/DTR*%
X207450000Y-103450000D03*
X205160000Y-107190000D03*
X203990000Y-105470000D03*
%TO.N,Net-(U1-STAT1{slash}~{LBO})*%
X161260000Y-106750000D03*
%TO.N,Net-(U1-STAT2)*%
X164280000Y-106070000D03*
%TO.N,Net-(U1-~{PG})*%
X165930000Y-106540000D03*
D56*
%TO.N,/ESP32-C3-02/CS*%
X229229975Y-81279975D03*
X215350000Y-76350000D03*
D57*
%TO.N,/ESP32-C3-02/GPIO8*%
X217130000Y-74810000D03*
X224210000Y-79480000D03*
%TO.N,/ESP32-C3-02/RX_TX*%
X242150000Y-78100000D03*
%TO.N,/ESP32-C3-02/TX_RX*%
X242525000Y-79615000D03*
%TO.N,/ESP32-C3-02/GPIO18*%
X229492463Y-74270000D03*
X220900000Y-74150000D03*
D56*
%TO.N,Net-(U4-VBUS)*%
X191870000Y-94960000D03*
X192185000Y-96665000D03*
%TD*%
D58*
%TO.N,GND*%
X205280000Y-113170000D02*
X205410000Y-113300000D01*
X204062500Y-113170000D02*
X205280000Y-113170000D01*
X208425000Y-113330000D02*
X207240000Y-113330000D01*
D59*
%TO.N,/ESP32-C3-02/EN*%
X201560000Y-111590000D02*
X201512500Y-111590000D01*
X203771500Y-111180000D02*
X201970000Y-111180000D01*
X201970000Y-111180000D02*
X201560000Y-111590000D01*
X204062500Y-111471000D02*
X203771500Y-111180000D01*
X204062500Y-112010000D02*
X204062500Y-111471000D01*
%TO.N,/ESP32-C3-02/BOOT*%
X210975000Y-111775000D02*
X210975000Y-112170000D01*
X210500000Y-111290000D02*
X210500000Y-111300000D01*
X209030000Y-111290000D02*
X210500000Y-111290000D01*
X210500000Y-111300000D02*
X210975000Y-111775000D01*
X208750000Y-111570000D02*
X209030000Y-111290000D01*
X208750000Y-110000000D02*
X208750000Y-111570000D01*
D58*
%TO.N,GND*%
X208390000Y-113365000D02*
X208425000Y-113330000D01*
X208670000Y-114380000D02*
X208390000Y-114100000D01*
X210975000Y-113330000D02*
X210975000Y-114115000D01*
X210975000Y-114115000D02*
X210710000Y-114380000D01*
X210710000Y-114380000D02*
X208670000Y-114380000D01*
X208390000Y-114100000D02*
X208390000Y-113365000D01*
X204062500Y-113677500D02*
X204062500Y-113170000D01*
X201863946Y-113920000D02*
X203820000Y-113920000D01*
X203820000Y-113920000D02*
X204062500Y-113677500D01*
X201512500Y-113568554D02*
X201863946Y-113920000D01*
X201512500Y-113170000D02*
X201512500Y-113568554D01*
D59*
%TO.N,Net-(U1-THERM)*%
X175180000Y-111170000D02*
X174860000Y-111170000D01*
X175380000Y-110090000D02*
X175380000Y-110970000D01*
X176835000Y-108635000D02*
X175380000Y-110090000D01*
X175380000Y-110970000D02*
X175180000Y-111170000D01*
X175370000Y-104792500D02*
X175642500Y-104792500D01*
X175642500Y-104792500D02*
X176835000Y-105985000D01*
X175400000Y-104762500D02*
X175370000Y-104792500D01*
X176835000Y-105985000D02*
X176835000Y-108635000D01*
X175650000Y-104762500D02*
X175400000Y-104762500D01*
%TO.N,Net-(U1-~{PG})*%
X173925000Y-109725000D02*
X173925000Y-110235000D01*
X174950000Y-108460000D02*
X174950000Y-108700000D01*
X174950000Y-108460000D02*
X174950000Y-108670000D01*
X174950000Y-108700000D02*
X173925000Y-109725000D01*
D60*
%TO.N,/ESP32-C3-02/TX_RX*%
X184943870Y-95850000D02*
X185500000Y-95850000D01*
X183710000Y-94050000D02*
X183710000Y-94616130D01*
X183710000Y-94616130D02*
X184943870Y-95850000D01*
D59*
%TO.N,Net-(U4-GPIO.3{slash}RXT)*%
X184722052Y-96350000D02*
X185500000Y-96350000D01*
X183406000Y-95036000D02*
X183408052Y-95036000D01*
X182250000Y-93880000D02*
X183406000Y-95036000D01*
X182250000Y-91662500D02*
X182250000Y-93880000D01*
X183408052Y-95036000D02*
X184722052Y-96350000D01*
D60*
%TO.N,/ESP32-C3-02/RX_TX*%
X184090000Y-93380000D02*
X184090000Y-93160000D01*
X184660000Y-93950000D02*
X184090000Y-93380000D01*
X184660000Y-94880000D02*
X184660000Y-93950000D01*
X185130000Y-95350000D02*
X184660000Y-94880000D01*
X185500000Y-95350000D02*
X185130000Y-95350000D01*
%TO.N,/ESP32-C3-02/RTS*%
X185540000Y-94850000D02*
X185800000Y-94850000D01*
X185286232Y-94596232D02*
X185540000Y-94850000D01*
X185286232Y-94116232D02*
X185286232Y-94596232D01*
X185466232Y-93936232D02*
X185286232Y-94116232D01*
%TO.N,/ESP32-C3-02/DTR*%
X186350000Y-94500000D02*
X186300000Y-94550000D01*
X186350000Y-93385000D02*
X186350000Y-94500000D01*
X186380000Y-93355000D02*
X186350000Y-93385000D01*
D59*
%TO.N,Net-(U1-~{PG})*%
X165930000Y-105506250D02*
X165640000Y-105216250D01*
X165930000Y-106540000D02*
X165930000Y-105506250D01*
%TO.N,Net-(U1-STAT1{slash}~{LBO})*%
X172660000Y-109070000D02*
X172660000Y-108870000D01*
X172925000Y-110235000D02*
X172925000Y-109335000D01*
X172925000Y-109335000D02*
X172660000Y-109070000D01*
%TO.N,Net-(U1-STAT2)*%
X173425000Y-109065000D02*
X173625000Y-108865000D01*
X173425000Y-110235000D02*
X173425000Y-109065000D01*
X173625000Y-108865000D02*
X173860000Y-108630000D01*
%TO.N,/+5V_USB*%
X175769354Y-111455000D02*
X175554354Y-111670000D01*
X175554354Y-111670000D02*
X174860000Y-111670000D01*
X176175000Y-111355000D02*
X175875000Y-111355000D01*
X176510000Y-111020000D02*
X176175000Y-111355000D01*
X175875000Y-111355000D02*
X175775000Y-111455000D01*
X175775000Y-111455000D02*
X175769354Y-111455000D01*
%TO.N,Net-(U1-~{TE})*%
X171620000Y-108953826D02*
X171680000Y-109013826D01*
X173050000Y-104970000D02*
X171620000Y-106400000D01*
X171620000Y-106400000D02*
X171620000Y-108953826D01*
X173050000Y-104800000D02*
X173050000Y-104970000D01*
X172415000Y-110235000D02*
X172425000Y-110235000D01*
X171680000Y-109013826D02*
X172425000Y-109758826D01*
X172425000Y-109758826D02*
X172425000Y-110225000D01*
X172425000Y-110225000D02*
X172415000Y-110235000D01*
%TO.N,Net-(U1-PROG3)*%
X170980000Y-111660000D02*
X170990000Y-111670000D01*
X169570000Y-111660000D02*
X170980000Y-111660000D01*
X169570000Y-111650000D02*
X169570000Y-111660000D01*
X169280000Y-111360000D02*
X169570000Y-111650000D01*
X170800000Y-108190000D02*
X169280000Y-109710000D01*
X169280000Y-109710000D02*
X169280000Y-111360000D01*
X170800000Y-104862500D02*
X170800000Y-108190000D01*
%TO.N,Net-(U1-PROG1)*%
X169390000Y-112170000D02*
X169790000Y-112170000D01*
X168550000Y-111330000D02*
X169390000Y-112170000D01*
X168550000Y-104812500D02*
X168550000Y-111330000D01*
%TO.N,/+5V_USB*%
X172925000Y-115310000D02*
X172925000Y-114105000D01*
X172905000Y-115330000D02*
X172925000Y-115310000D01*
X176160000Y-112960000D02*
X176090000Y-112890000D01*
X176390000Y-112960000D02*
X176160000Y-112960000D01*
X175870000Y-112670000D02*
X174860000Y-112670000D01*
X176160000Y-112960000D02*
X175870000Y-112670000D01*
X176160000Y-112960000D02*
X176005000Y-112805000D01*
%TO.N,GND*%
X174903000Y-112127000D02*
X174860000Y-112170000D01*
X175379174Y-112127000D02*
X174903000Y-112127000D01*
X175742406Y-112124000D02*
X175382174Y-112124000D01*
X175921802Y-111944605D02*
X175742406Y-112124000D01*
X175382174Y-112124000D02*
X175379174Y-112127000D01*
X176474605Y-111944605D02*
X175921802Y-111944605D01*
X176490000Y-111960000D02*
X176474605Y-111944605D01*
D61*
%TO.N,+5V*%
X178470000Y-103160000D02*
X175170000Y-99860000D01*
X177610000Y-114210000D02*
X178470000Y-113350000D01*
X175230000Y-114210000D02*
X177610000Y-114210000D01*
X178470000Y-113350000D02*
X178470000Y-103160000D01*
D58*
%TO.N,/VBAT*%
X170190000Y-114850000D02*
X170860000Y-114180000D01*
X166190000Y-114850000D02*
X170190000Y-114850000D01*
X165290000Y-113950000D02*
X166190000Y-114850000D01*
D59*
%TO.N,GND*%
X174860000Y-112170000D02*
X172925000Y-112170000D01*
X171925000Y-111170000D02*
X172925000Y-112170000D01*
X171925000Y-110235000D02*
X171925000Y-111170000D01*
X170990000Y-111170000D02*
X171925000Y-111170000D01*
%TO.N,/+5V_USB*%
X172425000Y-114105000D02*
X173425000Y-114105000D01*
%TO.N,GND*%
X185520000Y-106970000D02*
X184720000Y-106970000D01*
D61*
%TO.N,+5V*%
X173520000Y-99810000D02*
X170350000Y-96640000D01*
X173840000Y-99810000D02*
X173520000Y-99810000D01*
X173860000Y-99830000D02*
X173840000Y-99810000D01*
X175080000Y-99830000D02*
X173860000Y-99830000D01*
X170350000Y-96640000D02*
X170350000Y-94350000D01*
D59*
%TO.N,GND*%
X181170000Y-107030000D02*
X181170000Y-106750000D01*
X181332500Y-107192500D02*
X181170000Y-107030000D01*
X181350000Y-107192500D02*
X181332500Y-107192500D01*
%TO.N,Net-(J1-CC1)*%
X186750000Y-104700420D02*
X186750000Y-105700000D01*
X185724580Y-103675000D02*
X186750000Y-104700420D01*
X186750000Y-105700000D02*
X186770000Y-105720000D01*
X180150000Y-109242500D02*
X180150000Y-105650000D01*
X180150000Y-105650000D02*
X182125000Y-103675000D01*
X181350000Y-110042500D02*
X180950000Y-110042500D01*
X180950000Y-110042500D02*
X180150000Y-109242500D01*
X182125000Y-103675000D02*
X185724580Y-103675000D01*
D62*
%TO.N,/VBUS*%
X190770000Y-102875000D02*
X192550000Y-102875000D01*
D58*
%TO.N,/+5V_USB*%
X180100000Y-102075000D02*
X180085000Y-102075000D01*
X180085000Y-102075000D02*
X180080000Y-102070000D01*
X181550000Y-102075000D02*
X180100000Y-102075000D01*
D59*
%TO.N,+3.3V*%
X195562500Y-97652500D02*
X195590000Y-97680000D01*
X194240000Y-97652500D02*
X195562500Y-97652500D01*
D62*
%TO.N,/VBUS*%
X186270000Y-105720000D02*
X186270000Y-106920000D01*
D59*
X194235000Y-102875000D02*
X192550000Y-102875000D01*
D62*
X188770000Y-105720000D02*
X188770000Y-104770000D01*
D60*
X188125554Y-102300000D02*
X189275000Y-102300000D01*
D62*
X190665000Y-102875000D02*
X190770000Y-102875000D01*
X185750000Y-104375000D02*
X186270000Y-104895000D01*
D59*
X198000000Y-99110000D02*
X194235000Y-102875000D01*
D62*
X188770000Y-105720000D02*
X188770000Y-106920000D01*
D60*
X187547500Y-103225000D02*
X187547500Y-102878054D01*
D59*
X198000000Y-97465000D02*
X198000000Y-99110000D01*
D62*
X186270000Y-104895000D02*
X186270000Y-105720000D01*
X188770000Y-106920000D02*
X188720000Y-106970000D01*
X186270000Y-106920000D02*
X186320000Y-106970000D01*
X188770000Y-104770000D02*
X190665000Y-102875000D01*
X185325000Y-104375000D02*
X185750000Y-104375000D01*
D60*
X187547500Y-102878054D02*
X188125554Y-102300000D01*
D58*
%TO.N,GND*%
X203090000Y-92950000D02*
X201890000Y-91750000D01*
X181440000Y-63890000D02*
X182300000Y-64750000D01*
D63*
X221625000Y-72225000D02*
X220250000Y-72225000D01*
D58*
X224975000Y-89895000D02*
X224975000Y-90700000D01*
X241440000Y-90700000D02*
X241625000Y-90885000D01*
X183450000Y-101220000D02*
X184170000Y-100500000D01*
X220850000Y-88620000D02*
X220630000Y-88400000D01*
X169500000Y-102937500D02*
X168600000Y-102937500D01*
D60*
X186800000Y-98380000D02*
X186540000Y-98640000D01*
D59*
X187520000Y-110300000D02*
X187520000Y-111825000D01*
D60*
X198975000Y-66970000D02*
X198960000Y-66985000D01*
X235750000Y-74200000D02*
X235750000Y-76400000D01*
D58*
X203875000Y-109670000D02*
X204975000Y-110770000D01*
X232925000Y-85785000D02*
X233190000Y-85520000D01*
D59*
X181075000Y-114100000D02*
X182000000Y-114100000D01*
D58*
X184170000Y-100500000D02*
X184190000Y-100480000D01*
X171900000Y-102937500D02*
X169500000Y-102937500D01*
X212150000Y-110730000D02*
X212200000Y-110730000D01*
X211380000Y-110730000D02*
X212150000Y-110730000D01*
X202512500Y-86812500D02*
X202550000Y-86850000D01*
D62*
X187290156Y-102050000D02*
X187547500Y-101792656D01*
X166750000Y-73550000D02*
X170250000Y-73550000D01*
D58*
X204975000Y-110770000D02*
X205120000Y-110770000D01*
D60*
X197675000Y-67182872D02*
X198042128Y-67550000D01*
D58*
X228420000Y-81100000D02*
X229200000Y-80320000D01*
X183450000Y-102075000D02*
X183450000Y-101220000D01*
X232475000Y-89325000D02*
X232475000Y-90700000D01*
D59*
X189250000Y-84150000D02*
X188880000Y-84520000D01*
X181050000Y-108175000D02*
X183195000Y-108175000D01*
D60*
X235750000Y-74200000D02*
X237950000Y-74200000D01*
D58*
X241625000Y-90885000D02*
X241625000Y-89655000D01*
D60*
X186800000Y-97650000D02*
X186800000Y-96350000D01*
D59*
X187520000Y-111825000D02*
X187520000Y-111870000D01*
D58*
X205900000Y-81405000D02*
X205070000Y-81405000D01*
D60*
X198960000Y-67197872D02*
X198960000Y-66985000D01*
D59*
X175445000Y-75735000D02*
X176400000Y-76690000D01*
D60*
X235750000Y-75300000D02*
X237950000Y-75300000D01*
X187800000Y-95350000D02*
X187050000Y-96100000D01*
D58*
X178560000Y-63890000D02*
X181440000Y-63890000D01*
D59*
X175090000Y-77960000D02*
X175140000Y-78010000D01*
D58*
X203775000Y-82700000D02*
X203000000Y-82700000D01*
D60*
X198960000Y-67485000D02*
X199190000Y-67715000D01*
D59*
X182000000Y-114100000D02*
X183250000Y-112850000D01*
D62*
X186139922Y-101460078D02*
X186729844Y-102050000D01*
D60*
X186800000Y-97650000D02*
X186800000Y-98380000D01*
D59*
X175090000Y-75735000D02*
X175445000Y-75735000D01*
D58*
X174620000Y-63890000D02*
X178560000Y-63890000D01*
X220850000Y-90700000D02*
X220850000Y-91400000D01*
X239975000Y-90700000D02*
X241440000Y-90700000D01*
X232925000Y-87500000D02*
X232925000Y-85785000D01*
X225700000Y-89170000D02*
X224975000Y-89895000D01*
X202512500Y-85000000D02*
X202512500Y-86812500D01*
D63*
X224000000Y-71200000D02*
X222650000Y-71200000D01*
D59*
X183195000Y-108175000D02*
X183250000Y-108120000D01*
D58*
X242050000Y-91310000D02*
X242050000Y-92500000D01*
X202512500Y-85000000D02*
X202512500Y-83187500D01*
D62*
X189520000Y-106970000D02*
X190320000Y-106970000D01*
X190270000Y-105720000D02*
X190270000Y-106920000D01*
D60*
X236850000Y-74200000D02*
X236850000Y-76400000D01*
X237950000Y-76400000D02*
X237950000Y-74200000D01*
D63*
X222650000Y-71200000D02*
X221625000Y-72225000D01*
D58*
X241625000Y-90885000D02*
X242050000Y-91310000D01*
X168600000Y-102937500D02*
X168550000Y-102987500D01*
D59*
X190000000Y-80150000D02*
X188400000Y-80150000D01*
D58*
X227140000Y-81100000D02*
X228420000Y-81100000D01*
X232925000Y-87500000D02*
X232925000Y-88875000D01*
X216950000Y-114000000D02*
X215020000Y-114000000D01*
D62*
X187547500Y-101792656D02*
X187547500Y-101375000D01*
D59*
X175090000Y-75735000D02*
X175090000Y-77960000D01*
D60*
X197025000Y-65030000D02*
X196030000Y-65030000D01*
D62*
X184770000Y-105720000D02*
X184770000Y-105145000D01*
D58*
X192550000Y-100975000D02*
X194000000Y-100975000D01*
D60*
X187800000Y-94550000D02*
X187800000Y-95350000D01*
D62*
X184770000Y-105145000D02*
X184050000Y-104425000D01*
D58*
X205070000Y-81405000D02*
X203775000Y-82700000D01*
D60*
X198960000Y-66985000D02*
X198960000Y-67485000D01*
X193850000Y-64750000D02*
X194975000Y-64750000D01*
D62*
X190270000Y-106920000D02*
X190320000Y-106970000D01*
D59*
X190060000Y-84150000D02*
X189250000Y-84150000D01*
X188400000Y-80150000D02*
X188240000Y-79990000D01*
D58*
X241625000Y-89655000D02*
X241940000Y-89340000D01*
X220850000Y-90700000D02*
X220850000Y-88620000D01*
X244250000Y-114000000D02*
X216950000Y-114000000D01*
X225700000Y-87250000D02*
X225700000Y-86130000D01*
D62*
X170250000Y-73550000D02*
X170260000Y-73560000D01*
D58*
X202512500Y-83187500D02*
X203000000Y-82700000D01*
D60*
X198607872Y-67550000D02*
X198960000Y-67197872D01*
X194975000Y-64750000D02*
X195375000Y-64350000D01*
X186800000Y-96350000D02*
X187050000Y-96100000D01*
D58*
X215020000Y-114000000D02*
X214970000Y-113950000D01*
D60*
X199190000Y-67715000D02*
X199190000Y-68170000D01*
D58*
X203490000Y-92950000D02*
X203090000Y-92950000D01*
D59*
X175215000Y-71210000D02*
X176045000Y-70380000D01*
D60*
X198042128Y-67550000D02*
X198607872Y-67550000D01*
D62*
X186729844Y-102050000D02*
X187290156Y-102050000D01*
D60*
X235750000Y-76400000D02*
X237950000Y-76400000D01*
D58*
X220350000Y-91900000D02*
X217550000Y-91900000D01*
D59*
X176045000Y-70380000D02*
X176500000Y-70380000D01*
D58*
X194000000Y-100975000D02*
X194500000Y-100475000D01*
X225700000Y-86130000D02*
X224950000Y-85380000D01*
X232925000Y-88875000D02*
X232475000Y-89325000D01*
X225700000Y-87250000D02*
X225700000Y-89170000D01*
X210650000Y-110000000D02*
X211380000Y-110730000D01*
D60*
X197675000Y-66970000D02*
X197675000Y-67182872D01*
D59*
X181350000Y-108217500D02*
X181350000Y-107192500D01*
D60*
X196030000Y-65030000D02*
X196025000Y-65025000D01*
D58*
X175650000Y-102937500D02*
X174350000Y-102937500D01*
X217550000Y-91900000D02*
X216950000Y-92500000D01*
D59*
X191790000Y-108120000D02*
X191790000Y-112850000D01*
D58*
X174350000Y-102937500D02*
X171900000Y-102937500D01*
D62*
X184050000Y-104425000D02*
X183900000Y-104425000D01*
D59*
X187520000Y-111870000D02*
X187520000Y-113400000D01*
D58*
X220850000Y-91400000D02*
X220350000Y-91900000D01*
D61*
%TO.N,+5V*%
X170350000Y-92325000D02*
X170875000Y-91800000D01*
X170350000Y-94350000D02*
X170350000Y-92325000D01*
X170875000Y-91800000D02*
X171625000Y-91050000D01*
X171625000Y-91050000D02*
X171625000Y-88750000D01*
D59*
%TO.N,Net-(C4-Pad2)*%
X162150000Y-80700000D02*
X164200000Y-80700000D01*
X161450000Y-81400000D02*
X162150000Y-80700000D01*
X164200000Y-80700000D02*
X164225000Y-80675000D01*
%TO.N,+3.3V*%
X197025000Y-66970000D02*
X197025000Y-66605000D01*
X192520000Y-84710000D02*
X193250000Y-84710000D01*
X193515000Y-79015000D02*
X193520000Y-79010000D01*
X198168000Y-66398000D02*
X198325000Y-66555000D01*
D63*
X217075000Y-68650000D02*
X217700000Y-69275000D01*
D59*
X175297500Y-68052500D02*
X175790000Y-67560000D01*
X197025000Y-66970000D02*
X197025000Y-67500000D01*
D58*
X200500000Y-80800000D02*
X200250000Y-80550000D01*
X159425000Y-83300000D02*
X158950000Y-83775000D01*
D59*
X202412500Y-68012500D02*
X202412500Y-69150000D01*
D58*
X203480000Y-90000000D02*
X202730000Y-89250000D01*
D59*
X191920000Y-79500000D02*
X191920000Y-76480000D01*
D58*
X217840000Y-78000000D02*
X216870000Y-78970000D01*
D59*
X197025000Y-67500000D02*
X196537500Y-67987500D01*
D58*
X162030000Y-63890000D02*
X161510000Y-64410000D01*
D59*
X191960000Y-84150000D02*
X192520000Y-84710000D01*
X196537500Y-67987500D02*
X196500000Y-68025000D01*
X238622500Y-86087500D02*
X239090000Y-85620000D01*
X203400000Y-69150000D02*
X203750000Y-69500000D01*
D58*
X227600000Y-87250000D02*
X229725000Y-87250000D01*
D63*
X217700000Y-69275000D02*
X220250000Y-69275000D01*
D59*
X190052500Y-97652500D02*
X189250000Y-96850000D01*
D58*
X189920000Y-64750000D02*
X191820000Y-66650000D01*
X164460000Y-63890000D02*
X162030000Y-63890000D01*
X218000000Y-78000000D02*
X217840000Y-78000000D01*
D59*
X197965872Y-66398000D02*
X198168000Y-66398000D01*
X202150000Y-67000000D02*
X202150000Y-67750000D01*
D58*
X213100000Y-77595000D02*
X213100000Y-78865000D01*
X191820000Y-66650000D02*
X193850000Y-66650000D01*
D63*
X216120000Y-68650000D02*
X217075000Y-68650000D01*
D58*
X203000000Y-80800000D02*
X200500000Y-80800000D01*
D59*
X197451436Y-66178564D02*
X197746436Y-66178564D01*
X188600000Y-96850000D02*
X188490000Y-96850000D01*
D58*
X161675000Y-86475000D02*
X161525000Y-86625000D01*
D59*
X191920000Y-76480000D02*
X191950000Y-76450000D01*
D58*
X161450000Y-83300000D02*
X159425000Y-83300000D01*
D63*
X220275000Y-69300000D02*
X220250000Y-69275000D01*
D59*
X188490000Y-96850000D02*
X188300000Y-97040000D01*
D58*
X198825000Y-80550000D02*
X198800000Y-80525000D01*
X203000000Y-80800000D02*
X203665000Y-80135000D01*
X229725000Y-87250000D02*
X229975000Y-87500000D01*
X178750000Y-83400000D02*
X178750000Y-85112500D01*
D59*
X197675000Y-66107128D02*
X197746436Y-66178564D01*
D58*
X213100000Y-77595000D02*
X214725000Y-77595000D01*
D59*
X202150000Y-67750000D02*
X202412500Y-68012500D01*
D58*
X203665000Y-80135000D02*
X205900000Y-80135000D01*
D59*
X188300000Y-97040000D02*
X188300000Y-97350000D01*
X175297500Y-68825000D02*
X175297500Y-68052500D01*
D58*
X164275000Y-83675000D02*
X164225000Y-83625000D01*
X193850000Y-66875000D02*
X195000000Y-68025000D01*
D59*
X194240000Y-97652500D02*
X190052500Y-97652500D01*
D58*
X214725000Y-77595000D02*
X215060000Y-77930000D01*
D63*
X227140000Y-69100000D02*
X224200000Y-69100000D01*
D59*
X237450000Y-86087500D02*
X238622500Y-86087500D01*
D58*
X229975000Y-87500000D02*
X229975000Y-86175000D01*
X204670000Y-90000000D02*
X203480000Y-90000000D01*
X161525000Y-86625000D02*
X159400000Y-86625000D01*
X164275000Y-85475000D02*
X163275000Y-86475000D01*
D59*
X198325000Y-66555000D02*
X198325000Y-66970000D01*
D58*
X229975000Y-86175000D02*
X229540000Y-85740000D01*
D59*
X193030000Y-79500000D02*
X193515000Y-79015000D01*
X197675000Y-65030000D02*
X197675000Y-66107128D01*
D63*
X224200000Y-69100000D02*
X224000000Y-69300000D01*
D59*
X197746436Y-66178564D02*
X197965872Y-66398000D01*
X202412500Y-69150000D02*
X203400000Y-69150000D01*
D58*
X182250000Y-83375000D02*
X182250000Y-85062500D01*
X163900000Y-83300000D02*
X164225000Y-83625000D01*
X169325000Y-82950000D02*
X169325000Y-88750000D01*
X159400000Y-86625000D02*
X159175000Y-86400000D01*
D59*
X203750000Y-69500000D02*
X203775000Y-69525000D01*
D58*
X163275000Y-86475000D02*
X161675000Y-86475000D01*
X193850000Y-66650000D02*
X193850000Y-66875000D01*
D59*
X189250000Y-96850000D02*
X188600000Y-96850000D01*
X191920000Y-79500000D02*
X193030000Y-79500000D01*
D58*
X229975000Y-87500000D02*
X229975000Y-90700000D01*
X200250000Y-80550000D02*
X198825000Y-80550000D01*
D59*
X197025000Y-66605000D02*
X197451436Y-66178564D01*
D63*
X224000000Y-69300000D02*
X220275000Y-69300000D01*
D58*
X164275000Y-85475000D02*
X164275000Y-83675000D01*
X161450000Y-83300000D02*
X163900000Y-83300000D01*
D59*
%TO.N,/+5V_USB*%
X160340000Y-99561250D02*
X160390000Y-99611250D01*
X160180000Y-99273750D02*
X165230000Y-99273750D01*
D60*
%TO.N,/ESP32-C3-02/USB_D-*%
X187775000Y-98245561D02*
X187772500Y-98248061D01*
X187997500Y-100967590D02*
X187779910Y-100750000D01*
X187997500Y-100987499D02*
X187997500Y-100967590D01*
X188085000Y-101450000D02*
X188085000Y-101074999D01*
X187800000Y-97650000D02*
X187800000Y-97950000D01*
X188085000Y-101074999D02*
X187997500Y-100987499D01*
X187772500Y-100750000D02*
X187772500Y-98248061D01*
X187800000Y-97950000D02*
X187775000Y-97975000D01*
X187779910Y-100750000D02*
X187772500Y-100750000D01*
X187775000Y-97975000D02*
X187775000Y-98245561D01*
D59*
%TO.N,Net-(C16-Pad2)*%
X173340000Y-73510000D02*
X173340000Y-68957500D01*
X173340000Y-68957500D02*
X173472500Y-68825000D01*
%TO.N,/ESP32-C3-02/MIC_OUT*%
X180140000Y-78696250D02*
X180302500Y-78533750D01*
D60*
X227140000Y-73600000D02*
X224240000Y-73600000D01*
D59*
X190690000Y-82030000D02*
X180350000Y-82030000D01*
X202042314Y-72677686D02*
X214140000Y-72677686D01*
X214140000Y-72677686D02*
X215190000Y-73727686D01*
D60*
X219570000Y-74781471D02*
X219218529Y-74430000D01*
X223620000Y-74220000D02*
X221750000Y-74220000D01*
D59*
X180140000Y-80808750D02*
X180140000Y-78696250D01*
D60*
X218350000Y-74430000D02*
X218270000Y-74510000D01*
X224240000Y-73600000D02*
X223620000Y-74220000D01*
X219218529Y-74430000D02*
X218350000Y-74430000D01*
X221180000Y-74790000D02*
X219570000Y-74790000D01*
D59*
X180350000Y-82000000D02*
X180140000Y-81790000D01*
D60*
X219570000Y-74790000D02*
X219570000Y-74781471D01*
D59*
X191920000Y-80800000D02*
X190690000Y-82030000D01*
X180350000Y-82030000D02*
X180350000Y-82000000D01*
X193920000Y-80800000D02*
X202042314Y-72677686D01*
D60*
X221750000Y-74220000D02*
X221180000Y-74790000D01*
D59*
X191920000Y-80800000D02*
X193920000Y-80800000D01*
X180140000Y-81790000D02*
X180140000Y-80808750D01*
X215190000Y-73727686D02*
X215190000Y-73920000D01*
%TO.N,/ESP32-C3-02/BOOT*%
X230790000Y-79600000D02*
X231340000Y-80150000D01*
X215150000Y-98240000D02*
X210625000Y-102765000D01*
X208750000Y-109040000D02*
X208750000Y-110000000D01*
X210625000Y-104170000D02*
X211780000Y-105325000D01*
X215180000Y-98240000D02*
X215150000Y-98240000D01*
X209120000Y-108670000D02*
X208750000Y-109040000D01*
X231430000Y-80240000D02*
X231430000Y-80250000D01*
X227140000Y-79600000D02*
X230790000Y-79600000D01*
X231340000Y-80150000D02*
X231430000Y-80240000D01*
X227140000Y-79600000D02*
X227380000Y-79360000D01*
X208425000Y-111895000D02*
X208750000Y-111570000D01*
X211780000Y-105325000D02*
X211780000Y-107870000D01*
X211780000Y-107870000D02*
X210980000Y-108670000D01*
X208425000Y-112170000D02*
X208425000Y-111895000D01*
X210980000Y-108670000D02*
X209120000Y-108670000D01*
X210625000Y-102765000D02*
X210625000Y-104170000D01*
%TO.N,/ESP32-C3-02/EN*%
X228560000Y-70600000D02*
X228760000Y-70800000D01*
X226520000Y-70600000D02*
X224600000Y-72520000D01*
X227140000Y-70600000D02*
X228560000Y-70600000D01*
X218480000Y-75520000D02*
X218970000Y-75030000D01*
X201975000Y-109670000D02*
X202975000Y-108670000D01*
X202975000Y-108670000D02*
X202975000Y-102170000D01*
X202975000Y-102170000D02*
X204415000Y-100730000D01*
X204415000Y-100730000D02*
X211670000Y-100730000D01*
X201975000Y-109670000D02*
X201512500Y-110132500D01*
X218480000Y-75695000D02*
X218480000Y-75520000D01*
X201512500Y-111590000D02*
X201512500Y-112010000D01*
X201512500Y-110132500D02*
X201512500Y-111590000D01*
X218970000Y-75030000D02*
X219050000Y-74950000D01*
X218000000Y-76175000D02*
X218480000Y-75695000D01*
X227140000Y-70600000D02*
X226520000Y-70600000D01*
X224600000Y-72520000D02*
X223100000Y-72520000D01*
X211670000Y-100730000D02*
X214960000Y-97440000D01*
%TO.N,Net-(D1-Pad-)*%
X165540000Y-101616250D02*
X165540000Y-103291250D01*
%TO.N,Net-(D2-Pad-)*%
X162970000Y-101671250D02*
X162970000Y-103608750D01*
%TO.N,Net-(D3-Pad1)*%
X160390000Y-101711250D02*
X160390000Y-103661250D01*
X160390000Y-103661250D02*
X160440000Y-103711250D01*
D58*
%TO.N,/PWD_LED*%
X200250000Y-83775000D02*
X200687500Y-84212500D01*
X200250000Y-82650000D02*
X200250000Y-83775000D01*
X200687500Y-84212500D02*
X200687500Y-85000000D01*
D59*
%TO.N,Net-(D5-Pad1)*%
X178750000Y-87212500D02*
X178750000Y-90000000D01*
%TO.N,Net-(D6-Pad-)*%
X182250000Y-87162500D02*
X182250000Y-89837500D01*
D60*
%TO.N,/USB_DN*%
X187745000Y-104995936D02*
X187772500Y-104968436D01*
X187997500Y-103632410D02*
X187997500Y-103612501D01*
X187770000Y-105270000D02*
X187745000Y-105245000D01*
D59*
X188400000Y-103150000D02*
X188950000Y-103700000D01*
D60*
X187745000Y-105245000D02*
X187745000Y-104995936D01*
X187997500Y-103612501D02*
X188085000Y-103525001D01*
X187779910Y-103850000D02*
X187997500Y-103632410D01*
D59*
X188085000Y-103150000D02*
X188400000Y-103150000D01*
D60*
X188085000Y-103525001D02*
X188085000Y-103150000D01*
X187770000Y-105720000D02*
X187770000Y-105270000D01*
X187772500Y-103850000D02*
X187779910Y-103850000D01*
X187772500Y-104968436D02*
X187772500Y-103850000D01*
%TO.N,/USB_DP*%
X187270000Y-105720000D02*
X187270000Y-105270000D01*
X187010000Y-103525001D02*
X187097500Y-103612501D01*
X187097500Y-103632410D02*
X187315090Y-103850000D01*
D59*
X187010000Y-103150000D02*
X186200000Y-103150000D01*
D60*
X187315090Y-103850000D02*
X187322500Y-103850000D01*
X187322500Y-103850000D02*
X187322500Y-104796230D01*
X187295000Y-105245000D02*
X187295000Y-104823730D01*
X187295000Y-104823730D02*
X187322500Y-104796230D01*
X187097500Y-103612501D02*
X187097500Y-103632410D01*
D59*
X186200000Y-103150000D02*
X186100000Y-103250000D01*
D60*
X187270000Y-105270000D02*
X187295000Y-105245000D01*
X187010000Y-103150000D02*
X187010000Y-103525001D01*
D59*
%TO.N,Net-(J1-CC2)*%
X181075000Y-112275000D02*
X183150000Y-110200000D01*
X183150000Y-110200000D02*
X186200000Y-110200000D01*
X188320000Y-108080000D02*
X188320000Y-107680000D01*
X186200000Y-110200000D02*
X188320000Y-108080000D01*
D60*
%TO.N,/ESP32-C3-02/SCL*%
X239960000Y-73600000D02*
X244640000Y-73600000D01*
X198900000Y-63242894D02*
X198900000Y-64955000D01*
X207650000Y-67650000D02*
X209550000Y-69550000D01*
X202150000Y-65175000D02*
X206525000Y-65175000D01*
X185042893Y-64750000D02*
X187642894Y-62150000D01*
D62*
X198900000Y-64955000D02*
X198975000Y-65030000D01*
D60*
X199080000Y-65030000D02*
X199225000Y-65175000D01*
X209550000Y-69550000D02*
X215450000Y-69550000D01*
X207650000Y-66300000D02*
X207650000Y-67650000D01*
X206525000Y-65175000D02*
X207650000Y-66300000D01*
X197807106Y-62150000D02*
X198900000Y-63242894D01*
X187642894Y-62150000D02*
X197807106Y-62150000D01*
X237700000Y-71340000D02*
X239960000Y-73600000D01*
D62*
X184840000Y-64750000D02*
X185042893Y-64750000D01*
D60*
X199225000Y-65175000D02*
X202150000Y-65175000D01*
%TO.N,/ESP32-C3-02/SDA*%
X199250000Y-65800000D02*
X199080000Y-65800000D01*
X207594314Y-68160000D02*
X207590000Y-68160000D01*
X198325000Y-65313584D02*
X198325000Y-65030000D01*
X203150000Y-65660000D02*
X203150000Y-65672244D01*
X206370000Y-65660000D02*
X203150000Y-65660000D01*
X200587500Y-67137500D02*
X199250000Y-65800000D01*
X200587500Y-69150000D02*
X200587500Y-67137500D01*
X215220000Y-70100000D02*
X215070000Y-69950000D01*
X201465256Y-65987500D02*
X201150000Y-65672244D01*
X229740000Y-72100000D02*
X230430000Y-71410000D01*
X200587500Y-69237500D02*
X200587500Y-69150000D01*
X203150000Y-65672244D02*
X202834744Y-65987500D01*
X197600000Y-62650000D02*
X198325000Y-63375000D01*
X215070000Y-69950000D02*
X209384314Y-69950000D01*
X216170000Y-70100000D02*
X215220000Y-70100000D01*
X201150000Y-65672244D02*
X201150000Y-65670000D01*
X207590000Y-68160000D02*
X207220000Y-67790000D01*
X202834744Y-65987500D02*
X201465256Y-65987500D01*
X201150000Y-65670000D02*
X199380000Y-65670000D01*
X199080000Y-65800000D02*
X198811416Y-65800000D01*
X198811416Y-65800000D02*
X198325000Y-65313584D01*
X207220000Y-67790000D02*
X207220000Y-66510000D01*
X207220000Y-66510000D02*
X206370000Y-65660000D01*
X209384314Y-69950000D02*
X207594314Y-68160000D01*
X198325000Y-63375000D02*
X198325000Y-64880000D01*
X187380000Y-63120000D02*
X187850000Y-62650000D01*
X216230000Y-70040000D02*
X216170000Y-70100000D01*
X187850000Y-62650000D02*
X197600000Y-62650000D01*
X227140000Y-72100000D02*
X229740000Y-72100000D01*
X199380000Y-65670000D02*
X199250000Y-65800000D01*
X198325000Y-64880000D02*
X198400000Y-64955000D01*
X215140000Y-70020000D02*
X215070000Y-69950000D01*
X187380000Y-64750000D02*
X187380000Y-63120000D01*
D58*
%TO.N,Net-(J3-DAT0)*%
X222550000Y-86760000D02*
X222550000Y-90700000D01*
X219790000Y-84000000D02*
X222550000Y-86760000D01*
X214162500Y-84000000D02*
X219790000Y-84000000D01*
D60*
%TO.N,/ESP32-C3-02/CD_SD*%
X244940000Y-69100000D02*
X247010000Y-71170000D01*
X241587500Y-87912500D02*
X237450000Y-87912500D01*
X244640000Y-69100000D02*
X244940000Y-69100000D01*
X247010000Y-71170000D02*
X247010000Y-72030000D01*
X242150000Y-87350000D02*
X241587500Y-87912500D01*
X237475000Y-90700000D02*
X237475000Y-87937500D01*
X237475000Y-87937500D02*
X237450000Y-87912500D01*
%TO.N,/ESP32-C3-02/MOSI_DI*%
X234975000Y-90700000D02*
X234975000Y-84225000D01*
X213200000Y-81505000D02*
X213200000Y-92600000D01*
X234975000Y-84225000D02*
X233800000Y-83050000D01*
X213100000Y-81405000D02*
X213200000Y-81505000D01*
X233850000Y-94900000D02*
X234975000Y-93775000D01*
X234975000Y-93775000D02*
X234975000Y-90700000D01*
X223250000Y-81700000D02*
X223250000Y-78075000D01*
X224600000Y-83050000D02*
X223250000Y-81700000D01*
X215500000Y-94900000D02*
X233850000Y-94900000D01*
X213200000Y-92600000D02*
X215500000Y-94900000D01*
X233800000Y-83050000D02*
X224600000Y-83050000D01*
%TO.N,/ESP32-C3-02/SCLK*%
X226800000Y-93000000D02*
X227475000Y-92325000D01*
X220015000Y-80135000D02*
X220750000Y-79400000D01*
X227475000Y-92325000D02*
X227475000Y-90700000D01*
X220750000Y-82850000D02*
X223700000Y-85800000D01*
X220750000Y-78000000D02*
X220750000Y-82850000D01*
X223700000Y-92250000D02*
X224450000Y-93000000D01*
X223700000Y-85800000D02*
X223700000Y-92250000D01*
X220750000Y-79400000D02*
X220750000Y-78000000D01*
X224450000Y-93000000D02*
X226800000Y-93000000D01*
X213100000Y-80135000D02*
X220015000Y-80135000D01*
%TO.N,/ESP32-C3-02/GPIO19*%
X216740000Y-73440000D02*
X222900000Y-73440000D01*
X172700000Y-65440000D02*
X178410000Y-65440000D01*
X240700000Y-75100000D02*
X238660000Y-73060000D01*
X229730000Y-73060000D02*
X229690000Y-73100000D01*
X178410000Y-65440000D02*
X180920000Y-67950000D01*
X172080000Y-63890000D02*
X172080000Y-64820000D01*
X223010000Y-73550000D02*
X223120000Y-73660000D01*
X195710000Y-71320000D02*
X214620000Y-71320000D01*
X214620000Y-71320000D02*
X216740000Y-73440000D01*
X238660000Y-73060000D02*
X229730000Y-73060000D01*
X229690000Y-73100000D02*
X229690000Y-73110000D01*
X172080000Y-64820000D02*
X172700000Y-65440000D01*
X229690000Y-73110000D02*
X229560000Y-73240000D01*
X244640000Y-75100000D02*
X240700000Y-75100000D01*
X222900000Y-73440000D02*
X223010000Y-73550000D01*
X192340000Y-67950000D02*
X195710000Y-71320000D01*
X180920000Y-67950000D02*
X192340000Y-67950000D01*
%TO.N,/ESP32-C3-02/PHOTO_C*%
X247730000Y-90570000D02*
X247730000Y-70660000D01*
X247255000Y-70185000D02*
X247210000Y-70140000D01*
X206495000Y-92995000D02*
X207000000Y-93500000D01*
X247730000Y-70660000D02*
X247255000Y-70185000D01*
X246280000Y-71440000D02*
X246310000Y-71440000D01*
X206495000Y-90000000D02*
X206495000Y-92995000D01*
X244640000Y-70600000D02*
X245440000Y-70600000D01*
X213920000Y-95770000D02*
X242530000Y-95770000D01*
X206495000Y-90000000D02*
X208150000Y-90000000D01*
X242530000Y-95770000D02*
X247730000Y-90570000D01*
X245440000Y-70600000D02*
X246280000Y-71440000D01*
X208150000Y-90000000D02*
X213920000Y-95770000D01*
D59*
%TO.N,Net-(Q2-Pad1)*%
X202025000Y-104170000D02*
X202025000Y-106907500D01*
X202025000Y-106907500D02*
X202012500Y-106920000D01*
%TO.N,/ESP32-C3-02/RTS*%
X203925000Y-104170000D02*
X206755000Y-107000000D01*
X204900000Y-104140000D02*
X205430000Y-103610000D01*
X203890000Y-104140000D02*
X204900000Y-104140000D01*
X206755000Y-107000000D02*
X208625000Y-107000000D01*
%TO.N,Net-(Q3-Pad1)*%
X208725000Y-105275000D02*
X210450000Y-107000000D01*
X208725000Y-104170000D02*
X208725000Y-105275000D01*
%TO.N,/ESP32-C3-02/DTR*%
X204610000Y-107720000D02*
X205110000Y-107220000D01*
X203837500Y-106920000D02*
X203837500Y-107537500D01*
X203837500Y-106920000D02*
X203900000Y-106920000D01*
X203837500Y-106920000D02*
X203837500Y-105622500D01*
X208730000Y-102170000D02*
X207450000Y-103450000D01*
X203837500Y-107537500D02*
X204020000Y-107720000D01*
X209675000Y-102170000D02*
X208730000Y-102170000D01*
X204020000Y-107720000D02*
X204610000Y-107720000D01*
%TO.N,Net-(U1-PROG1)*%
X169790000Y-112170000D02*
X170990000Y-112170000D01*
%TO.N,Net-(U1-STAT1{slash}~{LBO})*%
X161090000Y-106580000D02*
X161260000Y-106750000D01*
X161080000Y-106580000D02*
X161090000Y-106580000D01*
X160440000Y-105940000D02*
X161080000Y-106580000D01*
X160440000Y-105536250D02*
X160440000Y-105940000D01*
%TO.N,Net-(U1-STAT2)*%
X163743750Y-105533750D02*
X164280000Y-106070000D01*
X162870000Y-105533750D02*
X163743750Y-105533750D01*
D60*
%TO.N,Net-(U3-IO7)*%
X225600000Y-76250000D02*
X223250000Y-76250000D01*
X225950000Y-76600000D02*
X225600000Y-76250000D01*
X227140000Y-76600000D02*
X225950000Y-76600000D01*
%TO.N,Net-(U3-IO6)*%
X225100000Y-75100000D02*
X224700000Y-74700000D01*
X222225000Y-74700000D02*
X220750000Y-76175000D01*
X224700000Y-74700000D02*
X222225000Y-74700000D01*
X227140000Y-75100000D02*
X225100000Y-75100000D01*
%TO.N,/ESP32-C3-02/MISO_DO*%
X246650000Y-73100000D02*
X246650000Y-91000000D01*
X244640000Y-72100000D02*
X245650000Y-72100000D01*
X245650000Y-72100000D02*
X246650000Y-73100000D01*
X212337500Y-84000000D02*
X210412500Y-84000000D01*
X210412500Y-90712500D02*
X210412500Y-84000000D01*
X242300000Y-95350000D02*
X215050000Y-95350000D01*
X246650000Y-91000000D02*
X242300000Y-95350000D01*
X215050000Y-95350000D02*
X210412500Y-90712500D01*
D59*
%TO.N,Net-(U6-DO(IO1))*%
X205900000Y-78865000D02*
X206400000Y-78865000D01*
X206400000Y-78865000D02*
X208587500Y-81052500D01*
X208587500Y-81052500D02*
X208587500Y-84000000D01*
D60*
%TO.N,/ESP32-C3-02/CS*%
X244465000Y-81275000D02*
X244640000Y-81100000D01*
X214000000Y-75000000D02*
X215350000Y-76350000D01*
X229234950Y-81275000D02*
X244465000Y-81275000D01*
X205900000Y-77595000D02*
X205900000Y-76300000D01*
X207200000Y-75000000D02*
X214000000Y-75000000D01*
X205900000Y-76300000D02*
X207200000Y-75000000D01*
X229229975Y-81279975D02*
X229234950Y-81275000D01*
%TO.N,/ESP32-C3-02/GPIO8*%
X227140000Y-78100000D02*
X225590000Y-78100000D01*
X216590000Y-74270000D02*
X217130000Y-74810000D01*
X225590000Y-78100000D02*
X224210000Y-79480000D01*
X169440000Y-66330000D02*
X178114315Y-66330000D01*
X224210000Y-79480000D02*
X224160000Y-79530000D01*
X180814315Y-69030000D02*
X192250000Y-69030000D01*
X216438628Y-74270000D02*
X216590000Y-74270000D01*
X192250000Y-69030000D02*
X195470686Y-72250686D01*
X195470686Y-72250686D02*
X214419314Y-72250686D01*
X167000000Y-63890000D02*
X169440000Y-66330000D01*
X214419314Y-72250686D02*
X216438628Y-74270000D01*
X178114315Y-66330000D02*
X180814315Y-69030000D01*
%TO.N,/ESP32-C3-02/RX_TX*%
X244640000Y-78100000D02*
X242150000Y-78100000D01*
%TO.N,/ESP32-C3-02/TX_RX*%
X244640000Y-79600000D02*
X242570000Y-79600000D01*
%TO.N,/ESP32-C3-02/GPIO18*%
X241570000Y-76600000D02*
X244640000Y-76600000D01*
X229470000Y-74270000D02*
X229492463Y-74270000D01*
X192374314Y-68550000D02*
X195564314Y-71740000D01*
X180900000Y-68550000D02*
X192374314Y-68550000D01*
X220300000Y-74160000D02*
X220740000Y-74160000D01*
X180900000Y-68520000D02*
X180900000Y-68550000D01*
X169540000Y-63890000D02*
X171540000Y-65890000D01*
X216574314Y-73840000D02*
X219980000Y-73840000D01*
X178270000Y-65890000D02*
X180900000Y-68520000D01*
X229492463Y-74270000D02*
X230302463Y-73460000D01*
X230302463Y-73460000D02*
X238430000Y-73460000D01*
X238430000Y-73460000D02*
X241570000Y-76600000D01*
X195564314Y-71740000D02*
X214474314Y-71740000D01*
X171540000Y-65890000D02*
X178270000Y-65890000D01*
X214474314Y-71740000D02*
X216574314Y-73840000D01*
X219980000Y-73840000D02*
X220300000Y-74160000D01*
%TO.N,/ESP32-C3-02/USB_D+*%
X187322500Y-98075855D02*
X187322500Y-100750000D01*
X187325000Y-98073355D02*
X187322500Y-98075855D01*
X187097500Y-100987499D02*
X187010000Y-101074999D01*
X187315090Y-100750000D02*
X187097500Y-100967590D01*
X187300000Y-97950000D02*
X187325000Y-97975000D01*
X187325000Y-97975000D02*
X187325000Y-98073355D01*
X187322500Y-100750000D02*
X187315090Y-100750000D01*
X187097500Y-100967590D02*
X187097500Y-100987499D01*
X187300000Y-97650000D02*
X187300000Y-97950000D01*
X187010000Y-101074999D02*
X187010000Y-101450000D01*
D59*
%TO.N,Net-(C11-Pad2)*%
X194190000Y-91860000D02*
X197847500Y-91860000D01*
X197847500Y-91860000D02*
X198000000Y-91707500D01*
%TO.N,Net-(U4-VBUS)*%
X196070000Y-95640000D02*
X194190000Y-93760000D01*
X198000000Y-93532500D02*
X198000000Y-95640000D01*
X198000000Y-95640000D02*
X196070000Y-95640000D01*
X188600000Y-96350000D02*
X189700000Y-96350000D01*
X194190000Y-93760000D02*
X193070000Y-93760000D01*
X190270000Y-96920000D02*
X191930000Y-96920000D01*
X192185000Y-96665000D02*
X192210000Y-96640000D01*
X193070000Y-93760000D02*
X191870000Y-94960000D01*
X189700000Y-96350000D02*
X190270000Y-96920000D01*
X191930000Y-96920000D02*
X192185000Y-96665000D01*
%TO.N,Net-(U8-IN+)*%
X190125000Y-76450000D02*
X190125000Y-79375000D01*
X175165000Y-73510000D02*
X175165000Y-73835000D01*
X190125000Y-76450000D02*
X187185000Y-73510000D01*
X173265000Y-75735000D02*
X167035000Y-75735000D01*
X187185000Y-73510000D02*
X175165000Y-73510000D01*
X190125000Y-79375000D02*
X190000000Y-79500000D01*
X175165000Y-73835000D02*
X173265000Y-75735000D01*
X167035000Y-75735000D02*
X166750000Y-75450000D01*
%TO.N,Net-(C19-Pad2)*%
X180051250Y-76258750D02*
X176690000Y-79620000D01*
X173240000Y-79370000D02*
X173240000Y-78010000D01*
X180227500Y-76258750D02*
X180051250Y-76258750D01*
X173190000Y-78060000D02*
X173240000Y-78010000D01*
X173490000Y-79620000D02*
X173240000Y-79370000D01*
X176690000Y-79620000D02*
X173490000Y-79620000D01*
%TO.N,Net-(U8-IN-)*%
X190000000Y-80800000D02*
X182048750Y-80800000D01*
X182040000Y-80808750D02*
X182040000Y-76271250D01*
X182048750Y-80800000D02*
X182040000Y-80808750D01*
X182040000Y-76271250D02*
X182052500Y-76258750D01*
%TO.N,Net-(U4-~{RST})*%
X194240000Y-95827500D02*
X188622500Y-95827500D01*
X188622500Y-95827500D02*
X188600000Y-95850000D01*
%TO.N,Net-(U4-GPIO.2{slash}TXT)*%
X178750000Y-93160000D02*
X181080000Y-95490000D01*
X178750000Y-91825000D02*
X178750000Y-93160000D01*
X184580000Y-96850000D02*
X185500000Y-96850000D01*
X183220000Y-95490000D02*
X184580000Y-96850000D01*
X181080000Y-95490000D02*
X183220000Y-95490000D01*
%TD*%
%TA.AperFunction,Conductor*%
%TO.N,/+5V_USB*%
G36*
X179093039Y-96719685D02*
G01*
X179138794Y-96772489D01*
X179150000Y-96824000D01*
X179150000Y-99826000D01*
X179130315Y-99893039D01*
X179077511Y-99938794D01*
X179026000Y-99950000D01*
X176726282Y-99950000D01*
X176659243Y-99930315D01*
X176638601Y-99913681D01*
X176436319Y-99711398D01*
X176402834Y-99650075D01*
X176400000Y-99623717D01*
X176400000Y-96824000D01*
X176419685Y-96756961D01*
X176472489Y-96711206D01*
X176524000Y-96700000D01*
X179026000Y-96700000D01*
X179093039Y-96719685D01*
G37*
%TD.AperFunction*%
%TD*%
%TA.AperFunction,Conductor*%
%TO.N,/VBUS*%
G36*
X183343039Y-96719685D02*
G01*
X183388794Y-96772489D01*
X183400000Y-96824000D01*
X183400000Y-99826000D01*
X183380315Y-99893039D01*
X183327511Y-99938794D01*
X183276000Y-99950000D01*
X180524000Y-99950000D01*
X180456961Y-99930315D01*
X180411206Y-99877511D01*
X180400000Y-99826000D01*
X180400000Y-96824000D01*
X180419685Y-96756961D01*
X180472489Y-96711206D01*
X180524000Y-96700000D01*
X183276000Y-96700000D01*
X183343039Y-96719685D01*
G37*
%TD.AperFunction*%
%TD*%
%TA.AperFunction,Conductor*%
%TO.N,+3.3V*%
G36*
X171868039Y-80894685D02*
G01*
X171913794Y-80947489D01*
X171925000Y-80999000D01*
X171925000Y-83876000D01*
X171905315Y-83943039D01*
X171852511Y-83988794D01*
X171801000Y-84000000D01*
X166747032Y-84000000D01*
X166679993Y-83980315D01*
X166634238Y-83927511D01*
X166623048Y-83877984D01*
X166577016Y-81000984D01*
X166595625Y-80933638D01*
X166647691Y-80887044D01*
X166701000Y-80875000D01*
X171801000Y-80875000D01*
X171868039Y-80894685D01*
G37*
%TD.AperFunction*%
%TD*%
%TA.AperFunction,Conductor*%
%TO.N,GND*%
G36*
X163983039Y-112219685D02*
G01*
X164028794Y-112272489D01*
X164040000Y-112324000D01*
X164040000Y-115576000D01*
X164020315Y-115643039D01*
X163967511Y-115688794D01*
X163916000Y-115700000D01*
X160914000Y-115700000D01*
X160846961Y-115680315D01*
X160801206Y-115627511D01*
X160790000Y-115576000D01*
X160790000Y-112324000D01*
X160809685Y-112256961D01*
X160862489Y-112211206D01*
X160914000Y-112200000D01*
X163916000Y-112200000D01*
X163983039Y-112219685D01*
G37*
%TD.AperFunction*%
%TD*%
%TA.AperFunction,Conductor*%
%TO.N,GND*%
G36*
X167969647Y-87721174D02*
G01*
X168015567Y-87773834D01*
X168026935Y-87825699D01*
X168026935Y-90526311D01*
X168860677Y-90570192D01*
X168926590Y-90593373D01*
X168969506Y-90648509D01*
X168978153Y-90692723D01*
X169025604Y-95224210D01*
X169006623Y-95291452D01*
X168954301Y-95337757D01*
X168899840Y-95349495D01*
X167276962Y-95326311D01*
X165449599Y-95325083D01*
X165382572Y-95305353D01*
X165336853Y-95252519D01*
X165325684Y-95200404D01*
X165350000Y-90775000D01*
X165349999Y-90775000D01*
X160150100Y-90775000D01*
X160083061Y-90755315D01*
X160037306Y-90702511D01*
X160026105Y-90649905D01*
X160050852Y-87848828D01*
X160071128Y-87781967D01*
X160124334Y-87736680D01*
X160174453Y-87725926D01*
X167902549Y-87701700D01*
X167969647Y-87721174D01*
G37*
%TD.AperFunction*%
%TD*%
%TA.AperFunction,Conductor*%
%TO.N,/VBAT*%
G36*
X170605749Y-112499882D02*
G01*
X170608853Y-112500500D01*
X171250500Y-112500499D01*
X171317539Y-112520183D01*
X171363294Y-112572987D01*
X171374500Y-112624499D01*
X171374500Y-113539752D01*
X171386131Y-113598229D01*
X171386132Y-113598230D01*
X171430447Y-113664552D01*
X171496769Y-113708867D01*
X171496770Y-113708868D01*
X171555247Y-113720499D01*
X171555250Y-113720500D01*
X171555252Y-113720500D01*
X171970500Y-113720500D01*
X172037539Y-113740185D01*
X172083294Y-113792989D01*
X172094500Y-113844500D01*
X172094501Y-114481000D01*
X172074817Y-114548039D01*
X172022013Y-114593794D01*
X171970501Y-114605000D01*
X170549000Y-114605000D01*
X170481961Y-114585315D01*
X170436206Y-114532511D01*
X170425000Y-114481000D01*
X170425000Y-112621500D01*
X170427550Y-112612814D01*
X170426262Y-112603853D01*
X170437240Y-112579812D01*
X170444685Y-112554461D01*
X170451525Y-112548533D01*
X170455287Y-112540297D01*
X170477521Y-112526007D01*
X170497489Y-112508706D01*
X170508003Y-112506418D01*
X170514065Y-112502523D01*
X170549000Y-112497500D01*
X170581558Y-112497500D01*
X170605749Y-112499882D01*
G37*
%TD.AperFunction*%
%TD*%
%TA.AperFunction,Conductor*%
%TO.N,+5V*%
G36*
X175468039Y-113017185D02*
G01*
X175513794Y-113069989D01*
X175525000Y-113121500D01*
X175525000Y-114631000D01*
X175505315Y-114698039D01*
X175452511Y-114743794D01*
X175401000Y-114755000D01*
X173844189Y-114755000D01*
X173777150Y-114735315D01*
X173731395Y-114682511D01*
X173721451Y-114613353D01*
X173736088Y-114575155D01*
X173735421Y-114574879D01*
X173740095Y-114563592D01*
X173755499Y-114486151D01*
X173755500Y-114486147D01*
X173755499Y-113844499D01*
X173775183Y-113777461D01*
X173827987Y-113731706D01*
X173879499Y-113720500D01*
X174294750Y-113720500D01*
X174294751Y-113720499D01*
X174309568Y-113717552D01*
X174353229Y-113708868D01*
X174353229Y-113708867D01*
X174353231Y-113708867D01*
X174419552Y-113664552D01*
X174463867Y-113598231D01*
X174463867Y-113598229D01*
X174463868Y-113598229D01*
X174475499Y-113539752D01*
X174475500Y-113539750D01*
X174475500Y-113124499D01*
X174495185Y-113057460D01*
X174547989Y-113011705D01*
X174599496Y-113000499D01*
X175241146Y-113000499D01*
X175242740Y-113000181D01*
X175244250Y-112999882D01*
X175268437Y-112997500D01*
X175401000Y-112997500D01*
X175468039Y-113017185D01*
G37*
%TD.AperFunction*%
%TD*%
M02*
